<svg width="85" height="86" viewBox="0 0 85 86" xmlns="http://www.w3.org/2000/svg"><g fill="none" fill-rule="evenodd"><path d="M3.974 86C1.78 86 0 84.334 0 82.28V3.72C0 1.667 1.78 0 3.974 0h76.052C82.22 0 84 1.666 84 3.72v78.56c0 2.054-1.78 3.72-3.974 3.72H3.974z" fill="#E9EFF2"/><path d="M84.177 82c0 2.21-1.79 4-4 4H4c-2.21 0-4-1.79-4-4v-7c0 2.21 1.79 4 4 4h76.177c2.21 0 4-1.79 4-4v7z" fill="#B8C6D5"/><path d="M29 13H10v-3h19v3zM74 23H10v-3h64v3zM74 33H10v-3h64v3zM28.625 59H10v-3h18.625v3zM74 69H10v-3h64v3z" fill="#FFF"/><path d="M46.05 41h-14.1C30.32 41 29 42.328 29 43.965v.07C29 45.672 30.32 47 31.95 47h14.1c1.63 0 2.95-1.328 2.95-2.965v-.07C49 42.328 47.68 41 46.05 41M71.05 41h-14.1C55.32 41 54 42.328 54 43.965v.07C54 45.672 55.32 47 56.95 47h14.1c1.63 0 2.95-1.328 2.95-2.965v-.07C74 42.328 72.68 41 71.05 41" fill="#3BB3E4"/></g></svg>