<?xml version="1.0" standalone="no"?><!-- Generator: Gravit.io --><svg xmlns="http://www.w3.org/2000/svg" xmlns:xlink="http://www.w3.org/1999/xlink" style="isolation:isolate" viewBox="0 0 554 140" width="554" height="140"><defs><clipPath id="_clipPath_2VriEVcSIYI1qfRR9idPBnI8aElBqPrG"><rect width="554" height="140"/></clipPath></defs><g clip-path="url(#_clipPath_2VriEVcSIYI1qfRR9idPBnI8aElBqPrG)"><path d=" M 536.133 86.68 C 541.646 86.68 544.555 83.207 544.555 78.866 C 544.555 75.22 542.08 72.224 538.998 71.747 C 541.733 71.183 543.99 68.752 543.99 65.105 C 543.99 61.242 541.169 57.726 535.656 57.726 L 520.419 57.726 L 520.419 86.68 L 536.133 86.68 Z  M 534.31 69.316 L 526.583 69.316 L 526.583 63.022 L 534.31 63.022 C 536.394 63.022 537.696 64.367 537.696 66.19 C 537.696 68.014 536.394 69.316 534.31 69.316 Z  M 534.527 81.34 L 526.583 81.34 L 526.583 74.612 L 534.527 74.612 C 536.958 74.612 538.26 76.175 538.26 77.998 C 538.26 80.082 536.871 81.34 534.527 81.34 Z  M 336.579 87.201 C 344.392 87.201 348.169 83.207 348.169 77.911 C 348.169 67.102 331.543 70.184 331.543 65.583 C 331.543 63.846 333.019 62.674 335.667 62.674 C 338.619 62.674 341.744 63.673 344.088 65.843 L 347.518 61.329 C 344.653 58.681 340.833 57.291 336.231 57.291 C 329.416 57.291 325.249 61.285 325.249 66.104 C 325.249 76.999 341.918 73.483 341.918 78.606 C 341.918 80.255 340.268 81.818 336.882 81.818 C 332.889 81.818 329.72 80.038 327.68 77.911 L 324.337 82.599 C 327.028 85.334 331.022 87.201 336.579 87.201 Z  M 366.488 87.201 C 375.257 87.201 381.638 80.95 381.638 72.224 C 381.638 63.499 375.257 57.248 366.488 57.248 C 357.762 57.248 351.381 63.499 351.381 72.224 C 351.381 80.95 357.762 87.201 366.488 87.201 Z  M 366.488 81.731 C 361.148 81.731 357.719 77.607 357.719 72.224 C 357.719 66.798 361.148 62.718 366.488 62.718 C 371.827 62.718 375.3 66.798 375.3 72.224 C 375.3 77.607 371.827 81.731 366.488 81.731 Z  M 400.434 87.201 C 406.815 87.201 410.462 83.685 412.546 80.082 L 407.25 77.52 C 406.034 79.908 403.43 81.731 400.434 81.731 C 395.182 81.731 391.362 77.694 391.362 72.224 C 391.362 66.755 395.182 62.718 400.434 62.718 C 403.43 62.718 406.034 64.584 407.25 66.928 L 412.546 64.324 C 410.505 60.721 406.815 57.248 400.434 57.248 C 391.752 57.248 385.024 63.325 385.024 72.224 C 385.024 81.123 391.752 87.201 400.434 87.201 Z  M 422.834 86.68 L 422.834 57.726 L 416.67 57.726 L 416.67 86.68 L 422.834 86.68 Z  M 449.487 86.68 L 449.487 81.254 L 435.162 81.254 L 435.162 74.699 L 449.183 74.699 L 449.183 69.273 L 435.162 69.273 L 435.162 63.152 L 449.487 63.152 L 449.487 57.726 L 428.998 57.726 L 428.998 86.68 L 449.487 86.68 Z  M 467.633 86.68 L 467.633 63.152 L 476.054 63.152 L 476.054 57.726 L 452.96 57.726 L 452.96 63.152 L 461.425 63.152 L 461.425 86.68 L 467.633 86.68 Z  M 494.677 86.68 L 494.677 74.829 L 505.746 57.726 L 498.714 57.726 L 491.595 69.359 L 484.389 57.726 L 477.356 57.726 L 488.513 74.829 L 488.513 86.68 L 494.677 86.68 Z  M 194.498 86.68 L 187.987 75.654 C 191.112 74.916 194.325 72.181 194.325 67.059 C 194.325 61.676 190.635 57.726 184.601 57.726 L 171.057 57.726 L 171.057 86.68 L 177.221 86.68 L 177.221 76.392 L 181.736 76.392 L 187.423 86.68 L 194.498 86.68 Z  M 183.689 70.966 L 177.221 70.966 L 177.221 63.152 L 183.689 63.152 C 186.164 63.152 188.03 64.628 188.03 67.059 C 188.03 69.49 186.164 70.966 183.689 70.966 Z  M 213.121 87.201 C 221.89 87.201 228.271 80.95 228.271 72.224 C 228.271 63.499 221.89 57.248 213.121 57.248 C 204.396 57.248 198.015 63.499 198.015 72.224 C 198.015 80.95 204.396 87.201 213.121 87.201 Z  M 213.121 81.731 C 207.782 81.731 204.352 77.607 204.352 72.224 C 204.352 66.798 207.782 62.718 213.121 62.718 C 218.461 62.718 221.933 66.798 221.933 72.224 C 221.933 77.607 218.461 81.731 213.121 81.731 Z  M 247.285 86.68 L 247.285 74.829 L 258.354 57.726 L 251.322 57.726 L 244.203 69.359 L 236.997 57.726 L 229.964 57.726 L 241.12 74.829 L 241.12 86.68 L 247.285 86.68 Z  M 288.481 86.68 L 277.324 57.726 L 269.597 57.726 L 258.398 86.68 L 265.43 86.68 L 267.253 81.775 L 279.668 81.775 L 281.448 86.68 L 288.481 86.68 Z  M 277.975 76.348 L 268.946 76.348 L 273.461 63.89 L 277.975 76.348 Z  M 310.012 86.68 L 310.012 81.254 L 297.77 81.254 L 297.77 57.726 L 291.606 57.726 L 291.606 86.68 L 310.012 86.68 Z  M 88.796 86.68 L 88.796 63.152 L 97.217 63.152 L 97.217 57.726 L 74.123 57.726 L 74.123 63.152 L 82.588 63.152 L 82.588 86.68 L 88.796 86.68 Z  M 127.647 86.68 L 127.647 57.726 L 121.44 57.726 L 121.44 69.099 L 107.766 69.099 L 107.766 57.726 L 101.602 57.726 L 101.602 86.68 L 107.766 86.68 L 107.766 74.525 L 121.44 74.525 L 121.44 86.68 L 127.647 86.68 Z  M 154.258 86.68 L 154.258 81.254 L 139.932 81.254 L 139.932 74.699 L 153.954 74.699 L 153.954 69.273 L 139.932 69.273 L 139.932 63.152 L 154.258 63.152 L 154.258 57.726 L 133.768 57.726 L 133.768 86.68 L 154.258 86.68 Z  M 19.21 87.201 C 27.979 87.201 34.36 80.95 34.36 72.224 C 34.36 63.499 27.979 57.248 19.21 57.248 C 10.485 57.248 4.103 63.499 4.103 72.224 C 4.103 80.95 10.485 87.201 19.21 87.201 Z  M 19.21 81.731 C 13.87 81.731 10.441 77.607 10.441 72.224 C 10.441 66.798 13.87 62.718 19.21 62.718 C 24.549 62.718 28.022 66.798 28.022 72.224 C 28.022 77.607 24.549 81.731 19.21 81.731 Z  M 45.299 86.68 L 45.299 74.699 L 59.32 74.699 L 59.32 69.273 L 45.299 69.273 L 45.299 63.152 L 59.624 63.152 L 59.624 57.726 L 39.135 57.726 L 39.135 86.68 L 45.299 86.68 Z  M 11.657 40.68 L 11.657 30.392 L 19.036 30.392 C 25.287 30.392 28.76 26.095 28.76 21.059 C 28.76 15.98 25.331 11.726 19.036 11.726 L 5.492 11.726 L 5.492 40.68 L 11.657 40.68 Z  M 18.211 24.966 L 11.657 24.966 L 11.657 17.152 L 18.211 17.152 C 20.642 17.152 22.466 18.628 22.466 21.059 C 22.466 23.447 20.642 24.966 18.211 24.966 Z  M 56.455 40.68 L 49.944 29.654 C 53.069 28.916 56.282 26.181 56.282 21.059 C 56.282 15.676 52.592 11.726 46.558 11.726 L 33.014 11.726 L 33.014 40.68 L 39.178 40.68 L 39.178 30.392 L 43.693 30.392 L 49.38 40.68 L 56.455 40.68 Z  M 45.646 24.966 L 39.178 24.966 L 39.178 17.152 L 45.646 17.152 C 48.121 17.152 49.987 18.628 49.987 21.059 C 49.987 23.49 48.121 24.966 45.646 24.966 Z  M 75.078 41.201 C 83.847 41.201 90.228 34.95 90.228 26.225 C 90.228 17.499 83.847 11.248 75.078 11.248 C 66.353 11.248 59.972 17.499 59.972 26.225 C 59.972 34.95 66.353 41.201 75.078 41.201 Z  M 75.078 35.732 C 69.739 35.732 66.309 31.608 66.309 26.225 C 66.309 20.799 69.739 16.718 75.078 16.718 C 80.418 16.718 83.89 20.799 83.89 26.225 C 83.89 31.608 80.418 35.732 75.078 35.732 Z  M 109.025 41.201 C 115.406 41.201 119.052 37.685 121.136 34.082 L 115.84 31.521 C 114.625 33.908 112.02 35.732 109.025 35.732 C 103.772 35.732 99.952 31.694 99.952 26.225 C 99.952 20.755 103.772 16.718 109.025 16.718 C 112.02 16.718 114.625 18.585 115.84 20.929 L 121.136 18.324 C 119.096 14.721 115.406 11.248 109.025 11.248 C 100.343 11.248 93.614 17.326 93.614 26.225 C 93.614 35.124 100.343 41.201 109.025 41.201 Z  M 145.749 40.68 L 145.749 35.254 L 131.424 35.254 L 131.424 28.699 L 145.445 28.699 L 145.445 23.273 L 131.424 23.273 L 131.424 17.152 L 145.749 17.152 L 145.749 11.726 L 125.26 11.726 L 125.26 40.68 L 145.749 40.68 Z  M 171.491 40.68 L 171.491 35.254 L 157.166 35.254 L 157.166 28.699 L 171.187 28.699 L 171.187 23.273 L 157.166 23.273 L 157.166 17.152 L 171.491 17.152 L 171.491 11.726 L 151.002 11.726 L 151.002 40.68 L 171.491 40.68 Z  M 188.161 40.68 C 197.233 40.68 203.528 34.95 203.528 26.225 C 203.528 17.499 197.233 11.726 188.161 11.726 L 176.744 11.726 L 176.744 40.68 L 188.161 40.68 Z  M 188.161 35.254 L 182.908 35.254 L 182.908 17.152 L 188.161 17.152 C 194.108 17.152 197.233 21.103 197.233 26.225 C 197.233 31.13 193.891 35.254 188.161 35.254 Z  M 214.51 40.68 L 214.51 11.726 L 208.346 11.726 L 208.346 40.68 L 214.51 40.68 Z  M 246.59 40.68 L 246.59 11.726 L 240.426 11.726 L 240.426 29.915 L 227.012 11.726 L 220.675 11.726 L 220.675 40.68 L 226.839 40.68 L 226.839 21.797 L 240.643 40.68 L 246.59 40.68 Z  M 266.776 41.245 C 272.028 41.245 276.152 39.074 279.104 35.775 L 279.104 24.662 L 265.3 24.662 L 265.3 30.045 L 272.94 30.045 L 272.94 33.518 C 271.768 34.603 269.337 35.732 266.776 35.732 C 261.523 35.732 257.703 31.694 257.703 26.225 C 257.703 20.755 261.523 16.718 266.776 16.718 C 269.858 16.718 272.332 18.455 273.634 20.495 L 278.757 17.717 C 276.586 14.287 272.81 11.248 266.776 11.248 C 258.311 11.248 251.365 17.065 251.365 26.225 C 251.365 35.341 258.311 41.245 266.776 41.245 Z  M 294.732 41.201 C 302.545 41.201 306.322 37.208 306.322 31.912 C 306.322 21.103 289.696 24.185 289.696 19.583 C 289.696 17.847 291.172 16.675 293.82 16.675 C 296.772 16.675 299.897 17.673 302.241 19.844 L 305.671 15.329 C 302.806 12.681 298.986 11.292 294.384 11.292 C 287.569 11.292 283.402 15.286 283.402 20.104 C 283.402 31 300.071 27.484 300.071 32.606 C 300.071 34.256 298.421 35.818 295.035 35.818 C 291.042 35.818 287.873 34.039 285.833 31.912 L 282.49 36.6 C 285.181 39.335 289.175 41.201 294.732 41.201 Z " fill-rule="evenodd" fill="rgb(85,186,70)"/><path d=" M 130.559 130.606 C 134.309 130.606 136.122 128.689 136.122 126.147 C 136.122 120.959 128.142 122.438 128.142 120.229 C 128.142 119.396 128.85 118.833 130.121 118.833 C 131.538 118.833 133.038 119.312 134.163 120.354 L 135.81 118.187 C 134.434 116.916 132.601 116.249 130.392 116.249 C 127.121 116.249 125.12 118.166 125.12 120.479 C 125.12 125.709 133.122 124.022 133.122 126.48 C 133.122 127.272 132.33 128.022 130.705 128.022 C 128.788 128.022 127.266 127.168 126.287 126.147 L 124.683 128.397 C 125.975 129.71 127.892 130.606 130.559 130.606 Z  M 144.332 130.606 C 147.395 130.606 149.145 128.918 150.145 127.189 L 147.603 125.959 C 147.02 127.105 145.769 127.981 144.332 127.981 C 141.811 127.981 139.977 126.043 139.977 123.417 C 139.977 120.792 141.811 118.854 144.332 118.854 C 145.769 118.854 147.02 119.75 147.603 120.875 L 150.145 119.625 C 149.166 117.896 147.395 116.229 144.332 116.229 C 140.164 116.229 136.935 119.146 136.935 123.417 C 136.935 127.689 140.164 130.606 144.332 130.606 Z  M 154.354 130.356 L 154.354 116.458 L 151.395 116.458 L 151.395 130.356 L 154.354 130.356 Z  M 166.419 130.356 L 166.419 127.751 L 159.543 127.751 L 159.543 124.605 L 166.273 124.605 L 166.273 122 L 159.543 122 L 159.543 119.062 L 166.419 119.062 L 166.419 116.458 L 156.584 116.458 L 156.584 130.356 L 166.419 130.356 Z  M 180.65 130.356 L 180.65 116.458 L 177.691 116.458 L 177.691 125.188 L 171.253 116.458 L 168.211 116.458 L 168.211 130.356 L 171.169 130.356 L 171.169 121.292 L 177.795 130.356 L 180.65 130.356 Z  M 189.61 130.606 C 192.673 130.606 194.423 128.918 195.423 127.189 L 192.881 125.959 C 192.298 127.105 191.048 127.981 189.61 127.981 C 187.089 127.981 185.255 126.043 185.255 123.417 C 185.255 120.792 187.089 118.854 189.61 118.854 C 191.048 118.854 192.298 119.75 192.881 120.875 L 195.423 119.625 C 194.444 117.896 192.673 116.229 189.61 116.229 C 185.443 116.229 182.213 119.146 182.213 123.417 C 182.213 127.689 185.443 130.606 189.61 130.606 Z  M 206.508 130.356 L 206.508 127.751 L 199.632 127.751 L 199.632 124.605 L 206.363 124.605 L 206.363 122 L 199.632 122 L 199.632 119.062 L 206.508 119.062 L 206.508 116.458 L 196.673 116.458 L 196.673 130.356 L 206.508 130.356 Z  M 213.239 130.606 C 216.989 130.606 218.802 128.689 218.802 126.147 C 218.802 120.959 210.822 122.438 210.822 120.229 C 210.822 119.396 211.53 118.833 212.801 118.833 C 214.218 118.833 215.718 119.312 216.843 120.354 L 218.489 118.187 C 217.114 116.916 215.281 116.249 213.072 116.249 C 209.801 116.249 207.8 118.166 207.8 120.479 C 207.8 125.709 215.802 124.022 215.802 126.48 C 215.802 127.272 215.01 128.022 213.384 128.022 C 211.468 128.022 209.946 127.168 208.967 126.147 L 207.363 128.397 C 208.655 129.71 210.572 130.606 213.239 130.606 Z  M 11.081 130.356 C 13.727 130.356 15.124 128.689 15.124 126.605 C 15.124 124.855 13.936 123.417 12.456 123.188 C 13.769 122.917 14.853 121.75 14.853 120 C 14.853 118.146 13.498 116.458 10.852 116.458 L 3.538 116.458 L 3.538 130.356 L 11.081 130.356 Z  M 10.206 122.021 L 6.497 122.021 L 6.497 119 L 10.206 119 C 11.206 119 11.831 119.646 11.831 120.521 C 11.831 121.396 11.206 122.021 10.206 122.021 Z  M 10.31 127.793 L 6.497 127.793 L 6.497 124.563 L 10.31 124.563 C 11.477 124.563 12.102 125.313 12.102 126.189 C 12.102 127.189 11.435 127.793 10.31 127.793 Z  M 19.791 130.356 L 19.791 116.458 L 16.832 116.458 L 16.832 130.356 L 19.791 130.356 Z  M 28.605 130.606 C 32.814 130.606 35.877 127.605 35.877 123.417 C 35.877 119.229 32.814 116.229 28.605 116.229 C 24.417 116.229 21.354 119.229 21.354 123.417 C 21.354 127.605 24.417 130.606 28.605 130.606 Z  M 28.605 127.981 C 26.042 127.981 24.396 126.001 24.396 123.417 C 24.396 120.813 26.042 118.854 28.605 118.854 C 31.168 118.854 32.835 120.813 32.835 123.417 C 32.835 126.001 31.168 127.981 28.605 127.981 Z  M 46.274 130.356 L 46.274 127.751 L 40.398 127.751 L 40.398 116.458 L 37.44 116.458 L 37.44 130.356 L 46.274 130.356 Z  M 54.401 130.606 C 58.61 130.606 61.673 127.605 61.673 123.417 C 61.673 119.229 58.61 116.229 54.401 116.229 C 50.212 116.229 47.149 119.229 47.149 123.417 C 47.149 127.605 50.212 130.606 54.401 130.606 Z  M 54.401 127.981 C 51.838 127.981 50.192 126.001 50.192 123.417 C 50.192 120.813 51.838 118.854 54.401 118.854 C 56.964 118.854 58.63 120.813 58.63 123.417 C 58.63 126.001 56.964 127.981 54.401 127.981 Z  M 69.966 130.627 C 72.487 130.627 74.466 129.585 75.883 128.001 L 75.883 122.667 L 69.257 122.667 L 69.257 125.251 L 72.924 125.251 L 72.924 126.918 C 72.362 127.439 71.195 127.981 69.966 127.981 C 67.444 127.981 65.611 126.043 65.611 123.417 C 65.611 120.792 67.444 118.854 69.966 118.854 C 71.445 118.854 72.633 119.688 73.258 120.667 L 75.717 119.333 C 74.675 117.687 72.862 116.229 69.966 116.229 C 65.902 116.229 62.569 119.021 62.569 123.417 C 62.569 127.793 65.902 130.627 69.966 130.627 Z  M 80.676 130.356 L 80.676 116.458 L 77.717 116.458 L 77.717 130.356 L 80.676 130.356 Z  M 89.635 130.606 C 92.698 130.606 94.449 128.918 95.449 127.189 L 92.907 125.959 C 92.323 127.105 91.073 127.981 89.635 127.981 C 87.114 127.981 85.281 126.043 85.281 123.417 C 85.281 120.792 87.114 118.854 89.635 118.854 C 91.073 118.854 92.323 119.75 92.907 120.875 L 95.449 119.625 C 94.47 117.896 92.698 116.229 89.635 116.229 C 85.468 116.229 82.238 119.146 82.238 123.417 C 82.238 127.689 85.468 130.606 89.635 130.606 Z  M 109.66 130.356 L 104.304 116.458 L 100.596 116.458 L 95.22 130.356 L 98.595 130.356 L 99.47 128.001 L 105.43 128.001 L 106.284 130.356 L 109.66 130.356 Z  M 104.617 125.397 L 100.283 125.397 L 102.45 119.417 L 104.617 125.397 Z  M 119.265 130.356 L 119.265 127.751 L 113.389 127.751 L 113.389 116.458 L 110.43 116.458 L 110.43 130.356 L 119.265 130.356 Z " fill-rule="evenodd" fill="rgb(85,186,70)"/></g></svg>