<?xml version="1.0" encoding="UTF-8" standalone="no"?>
<!-- Created with Inkscape (http://www.inkscape.org/) -->

<svg
   xmlns:dc="http://purl.org/dc/elements/1.1/"
   xmlns:cc="http://creativecommons.org/ns#"
   xmlns:rdf="http://www.w3.org/1999/02/22-rdf-syntax-ns#"
   xmlns:svg="http://www.w3.org/2000/svg"
   xmlns="http://www.w3.org/2000/svg"
   version="1.1"
   width="321"
   height="772"
   viewBox="0 0 321 772"
   id="svg3095"
   xml:space="preserve"><metadata
   id="metadata602"><rdf:RDF><cc:Work
       rdf:about=""><dc:format>image/svg+xml</dc:format><dc:type
         rdf:resource="http://purl.org/dc/dcmitype/StillImage" /><dc:title></dc:title></cc:Work></rdf:RDF></metadata><defs
   id="defs600" />
<path
   d="m 77.3,35.4 c -3.3,0 -6,2.8 -6,6.2 0,2.7 1.7,5 4.1,5.8 0.3,0.1 0.4,-0.1 0.4,-0.3 0,-0.1 0,-0.5 0,-1 -1.7,0.4 -2,-0.8 -2,-0.8 -0.3,-0.7 -0.7,-0.9 -0.7,-0.9 -0.5,-0.4 0,-0.4 0,-0.4 0.6,0 0.9,0.6 0.9,0.6 0.5,0.9 1.4,0.7 1.7,0.5 0.1,-0.4 0.2,-0.7 0.4,-0.8 -1.3,-0.2 -2.7,-0.7 -2.7,-3 0,-0.7 0.2,-1.2 0.6,-1.7 -0.1,-0.2 -0.3,-0.8 0.1,-1.6 0,0 0.5,-0.2 1.6,0.6 0.5,-0.1 1,-0.2 1.5,-0.2 0.5,0 1,0.1 1.5,0.2 1.1,-0.8 1.6,-0.6 1.6,-0.6 0.3,0.8 0.1,1.5 0.1,1.6 0.4,0.4 0.6,1 0.6,1.7 0,2.4 -1.4,2.9 -2.7,3 0.2,0.2 0.4,0.6 0.4,1.1 0,0.8 0,1.5 0,1.7 0,0.2 0.1,0.4 0.4,0.3 2.4,-0.8 4.1,-3.1 4.1,-5.8 0.1,-3.5 -2.6,-6.2 -5.9,-6.2 z"
   id="github"
   style="fill:#999999" />
<path
   d="m 61.6,39.8 c 0,-2.4 -1.9,-4.4 -4.3,-4.4 -2.4,0 -4.3,2 -4.3,4.4 0,0.8 0.2,1.5 0.6,2.2 l 0,0 0,0 2.8,4.7 c 0.5,0.9 1.4,0.9 1.9,0 L 61,42 l 0,0 0,0 c 0.4,-0.7 0.6,-1.4 0.6,-2.2 z m -4.3,1.3 c -0.9,0 -1.6,-0.7 -1.6,-1.7 0,-0.9 0.7,-1.7 1.6,-1.7 0.9,0 1.6,0.7 1.6,1.7 0,0.9 -0.7,1.7 -1.6,1.7 z"
   id="location"
   style="fill:#999999" />
<path
   d="m 103.1,37.7 0,0 0,0 m -3.7,-1.2 c -1.4,0 -2.5,1.1 -2.5,2.5 0,0.2 0,0.4 0.1,0.6 -2,-0.1 -3.9,-1.1 -5.1,-2.6 -0.2,0.4 -0.3,0.8 -0.3,1.2 0,0.9 0.4,1.6 1.1,2.1 -0.4,0 -0.8,-0.1 -1.1,-0.3 l 0,0 c 0,1.2 0.8,2.2 2,2.4 -0.2,0.1 -0.4,0.1 -0.6,0.1 -0.2,0 -0.3,0 -0.5,0 0.3,1 1.2,1.7 2.3,1.7 -0.8,0.7 -1.9,1.1 -3.1,1.1 -0.2,0 -0.4,0 -0.6,0 1.1,0.7 2.4,1.1 3.8,1.1 4.5,0 7,-3.8 7,-7 0,-0.1 0,-0.2 0,-0.3 0.5,-0.3 0.9,-0.8 1.2,-1.3 -0.4,0.2 -0.9,0.3 -1.4,0.4 0.5,-0.3 0.9,-0.8 1.1,-1.4 -0.5,0.3 -1,0.5 -1.6,0.6 -0.4,-0.6 -1.1,-0.9 -1.8,-0.9"
   id="twitter"
   style="fill:#999999" />
<path
   d="m 33.4,45.4 c -0.6,-0.6 -0.6,-1.5 -0.1,-2.1 l 2.5,-2.5 C 35.4,40.4 34,40.4 33.2,41.2 l -1,1 c -1.1,1.3 -1.1,2.9 0.2,4.2 1.3,1.3 3,1.3 4.2,0.1 l 1,-1 C 38.3,44.8 38.4,43.4 38,43 l -2.5,2.5 C 35,46 33.9,45.9 33.4,45.4 z m 4.9,-9.1 -1,1 c -0.8,0.8 -0.9,2.1 -0.4,2.5 l 2.4,-2.4 c 0.5,-0.5 1.5,-0.5 2.1,0.1 0.5,0.5 0.6,1.6 0,2.1 l -2.5,2.5 c 0.5,0.3 1.8,0.3 2.6,-0.5 l 1,-1 c 1.2,-1.2 1.1,-2.9 -0.1,-4.2 -1.3,-1.3 -3,-1.3 -4.1,-0.1 z m -3.4,7.6 c 0.3,0.3 0.8,0.3 1,0 l 4,-4 c 0.3,-0.3 0.3,-0.7 0,-1 -0.3,-0.3 -0.8,-0.3 -1,0 l -4,4 c -0.3,0.3 -0.3,0.7 0,1 z"
   id="link"
   style="fill:#999999" />
<g
   transform="matrix(0.44024076,0,0,0.44024076,-145.41641,-216.03873)"
   id="question">
	<path
   d="m 385.4,1320.6 c 11.1,0 20.2,9 20.2,20.2 0,11.1 -9,20.2 -20.2,20.2 -2.1,0 -4,-0.4 -5.9,-1 l -3,7.9 -1.1,2.8 -1,-2.8 c -4.9,-13.1 -9.1,-19.2 -9.1,-27 -0.1,-11.2 9,-20.3 20.1,-20.3 z m 0,2.2 c -9.9,0 -18,8 -18,18 0,6.5 3.5,12.6 8,23.6 l 2.3,-6.2 0.4,-1 1,0.3 c 1.9,0.7 4.1,1.1 6.2,1.1 9.9,0 18,-8 18,-18 0,-9.7 -8.1,-17.8 -17.9,-17.8 z"
   id="bubble"
   style="fill:#888888" />
	<path
   d="m 390.9,1347 c 1,0.7 2,1.2 2.9,1.6 l -0.7,1.6 c -1.2,-0.4 -2.4,-1.1 -3.7,-2.1 -1.2,0.7 -2.7,1 -4.1,1 -1.6,0 -2.9,-0.3 -4.1,-1.1 -1.2,-0.8 -2.2,-1.8 -2.9,-3.1 -0.7,-1.3 -1,-2.8 -1,-4.4 0,-1.7 0.3,-3.2 1,-4.5 0.7,-1.3 1.7,-2.4 2.9,-3.1 1.2,-0.7 2.7,-1.1 4.2,-1.1 1.6,0 3,0.3 4.2,1.1 1.2,0.8 2.2,1.8 2.9,3.1 0.7,1.3 1,2.8 1,4.4 0,1.3 -0.2,2.7 -0.7,3.8 -0.4,1 -1,2 -1.9,2.8 l 0,0 z m -4.9,-2.8 c 1.3,0.3 2.3,0.9 3.2,1.6 1.3,-1.2 2,-3 2,-5.3 0,-1.3 -0.2,-2.5 -0.7,-3.5 -0.4,-1 -1.1,-1.8 -2,-2.3 -0.9,-0.6 -1.9,-0.9 -3,-0.9 -1.7,0 -3,0.6 -4.1,1.7 -1.1,1.1 -1.7,2.8 -1.7,5.1 0,2.2 0.6,3.9 1.7,5 1.1,1.1 2.4,1.8 4.1,1.8 0.8,0 1.6,-0.1 2.2,-0.4 -0.7,-0.4 -1.4,-0.8 -2.2,-1 l 0.5,-1.8 z"
   id="letter"
   style="fill:#888888" />
</g>
<g
   transform="matrix(0.44024076,0,0,0.44024076,-145.40182,-196.00446)"
   id="answer">
	<path
   d="m 385.5,1338.7 c -11.1,0 -20.2,9 -20.2,20.2 0,11.1 9,20.2 20.2,20.2 2.1,0 4,-0.4 5.9,-1 l 3,7.9 1.1,2.8 1,-2.8 c 4.9,-13.1 9.1,-19.2 9.1,-27 0,-11.2 -8.9,-20.3 -20.1,-20.3 z m 0,2.2 c 9.9,0 18,8 18,18 0,6.5 -3.5,12.6 -8,23.6 l -2.3,-6.2 -0.4,-1 -1,0.3 c -1.9,0.7 -4.1,1.1 -6.2,1.1 -9.9,0 -18,-8 -18,-18 0,-9.7 8,-17.8 17.9,-17.8 z"
   id="path3339"
   style="fill:#888888" />
	<path
   d="m 377.9,1366.8 6.4,-16.7 h 2.4 l 6.9,16.7 h -2.5 l -2,-5.1 h -7 l -1.9,5.1 h -2.3 z m 4.9,-6.8 h 5.7 l -1.8,-4.7 c -0.6,-1.4 -0.9,-2.5 -1.2,-3.4 -0.2,1.1 -0.6,2.1 -0.9,3.2 l -1.8,4.9 z"
   id="path3345"
   style="fill:#888888" />
</g>
<g
   transform="matrix(0.44024076,0,0,0.44024076,-145.41641,-216.03873)"
   id="question_2_">
	<path
   d="m 499,1320.6 c 11.1,0 20.2,9 20.2,20.2 0,11.1 -9,20.2 -20.2,20.2 -2.1,0 -4,-0.4 -5.9,-1 l -3,7.9 -1.1,2.8 -1,-2.8 c -4.9,-13.1 -9.1,-19.2 -9.1,-27 -0.1,-11.2 9,-20.3 20.1,-20.3 z m 0,2.2 c -9.9,0 -18,8 -18,18 0,6.5 3.5,12.6 8,23.6 l 2.3,-6.2 0.4,-1 1,0.3 c 1.9,0.7 4.1,1.1 6.2,1.1 9.9,0 18,-8 18,-18 0,-9.7 -8.1,-17.8 -17.9,-17.8 z"
   id="bubble_2_"
   style="fill:#4eb075" />
	<path
   d="m 504.5,1347 c 1,0.7 2,1.2 2.9,1.6 l -0.7,1.6 c -1.2,-0.4 -2.4,-1.1 -3.7,-2.1 -1.2,0.7 -2.7,1 -4.1,1 -1.6,0 -2.9,-0.3 -4.1,-1.1 -1.2,-0.8 -2.2,-1.8 -2.9,-3.1 -0.7,-1.3 -1,-2.8 -1,-4.4 0,-1.7 0.3,-3.2 1,-4.5 0.7,-1.3 1.7,-2.4 2.9,-3.1 1.2,-0.7 2.7,-1.1 4.2,-1.1 1.6,0 3,0.3 4.2,1.1 1.2,0.8 2.2,1.8 2.9,3.1 0.7,1.3 1,2.8 1,4.4 0,1.3 -0.2,2.7 -0.7,3.8 -0.4,1 -1,2 -1.9,2.8 l 0,0 z m -4.9,-2.8 c 1.3,0.3 2.3,0.9 3.2,1.6 1.3,-1.2 2,-3 2,-5.3 0,-1.3 -0.2,-2.5 -0.7,-3.5 -0.4,-1 -1.1,-1.8 -2,-2.3 -0.9,-0.6 -1.9,-0.9 -3,-0.9 -1.7,0 -3,0.6 -4.1,1.7 -1.1,1.1 -1.7,2.8 -1.7,5.1 0,2.2 0.6,3.9 1.7,5 1.1,1.1 2.4,1.8 4.1,1.8 0.8,0 1.6,-0.1 2.2,-0.4 -0.7,-0.4 -1.4,-0.8 -2.2,-1 l 0.5,-1.8 z"
   id="letter_2_"
   style="fill:#4eb075" />
</g>
<g
   transform="matrix(0.44024076,0,0,0.44024076,-145.40182,-196.00446)"
   id="answer_2_">
	<path
   d="m 499.1,1338.7 c -11.1,0 -20.2,9 -20.2,20.2 0,11.1 9,20.2 20.2,20.2 2.1,0 4,-0.4 5.9,-1 l 3,7.9 1.1,2.8 1,-2.8 c 4.9,-13.1 9.1,-19.2 9.1,-27 0,-11.2 -8.9,-20.3 -20.1,-20.3 z m 0,2.2 c 9.9,0 18,8 18,18 0,6.5 -3.5,12.6 -8,23.6 l -2.3,-6.2 -0.4,-1 -1,0.3 c -1.9,0.7 -4.1,1.1 -6.2,1.1 -9.9,0 -18,-8 -18,-18 0,-9.7 8,-17.8 17.9,-17.8 z"
   id="path3339_2_"
   style="fill:#4eb075" />
	<path
   d="m 491.5,1366.8 6.4,-16.7 h 2.4 l 6.9,16.7 h -2.5 l -2,-5.1 h -7 l -1.9,5.1 h -2.3 z m 4.9,-6.8 h 5.7 l -1.8,-4.7 c -0.6,-1.4 -0.9,-2.5 -1.2,-3.4 -0.2,1.1 -0.6,2.1 -0.9,3.2 l -1.8,4.9 z"
   id="path3345_2_"
   style="fill:#4eb075" />
</g>
<g
   transform="matrix(0.44024076,0,0,0.44024076,-145.41641,-216.03873)"
   id="question_1_">
	<path
   d="m 440.3,1320.6 c 6.2,0 11.4,5.3 11.4,11.9 0,6.5 -5.1,11.9 -11.4,11.9 -1.1,0 -2.3,-0.2 -3.3,-0.6 l -1.7,4.7 -0.6,1.7 -0.6,-1.7 c -2.8,-7.7 -5.2,-11.3 -5.2,-15.9 0,-6.6 5.1,-12 11.4,-12 z m 0,1.3 c -5.5,0 -10.1,4.7 -10.1,10.6 0,3.8 2,7.4 4.5,13.9 l 1.3,-3.7 0.2,-0.6 0.6,0.2 c 1,0.4 2.3,0.6 3.5,0.6 5.5,0 10.1,-4.7 10.1,-10.6 -0.1,-5.6 -4.7,-10.4 -10.1,-10.4 z"
   id="bubble_1_"
   style="fill:#999999" />
	<path
   d="m 443.3,1336.2 c 0.6,0.4 1.1,0.7 1.6,0.9 l -0.4,0.9 c -0.7,-0.2 -1.3,-0.6 -2.1,-1.2 -0.7,0.4 -1.5,0.6 -2.3,0.6 -0.9,0 -1.6,-0.2 -2.3,-0.6 -0.7,-0.5 -1.2,-1.1 -1.6,-1.8 -0.4,-0.8 -0.6,-1.7 -0.6,-2.6 0,-1 0.2,-1.9 0.6,-2.7 0.4,-0.8 1,-1.4 1.6,-1.8 0.6,-0.4 1.5,-0.6 2.4,-0.6 0.9,0 1.7,0.2 2.4,0.6 0.7,0.5 1.2,1.1 1.6,1.8 0.4,0.8 0.6,1.7 0.6,2.6 0,0.8 -0.1,1.6 -0.4,2.2 -0.2,0.6 -0.6,1.2 -1.1,1.7 l 0,0 z m -2.7,-1.7 c 0.8,0.2 1.3,0.5 1.8,0.9 0.8,-0.7 1.1,-1.8 1.1,-3.1 0,-0.8 -0.1,-1.5 -0.4,-2.1 -0.2,-0.6 -0.6,-1.1 -1.1,-1.4 -0.5,-0.4 -1,-0.5 -1.7,-0.5 -1,0 -1.7,0.4 -2.3,1 -0.6,0.6 -1,1.7 -1,3 0,1.3 0.4,2.3 1,2.9 0.6,0.6 1.3,1.1 2.3,1.1 0.5,0 0.9,-0.1 1.2,-0.2 -0.4,-0.2 -0.8,-0.5 -1.2,-0.6 l 0.3,-1 z"
   id="letter_1_"
   style="fill:#999999" />
</g>
<g
   transform="matrix(0.44024076,0,0,0.44024076,-145.40182,-196.00446)"
   id="answer_1_">
	<path
   d="m 440.3,1338.7 c -6.2,0 -11.4,5.3 -11.4,11.9 0,6.5 5.1,11.9 11.4,11.9 1.1,0 2.3,-0.2 3.3,-0.6 l 1.7,4.7 0.6,1.7 0.6,-1.7 c 2.8,-7.7 5.2,-11.3 5.2,-15.9 0,-6.6 -5.1,-12 -11.4,-12 z m 0,1.3 c 5.5,0 10.1,4.7 10.1,10.6 0,3.8 -2,7.4 -4.5,13.9 l -1.3,-3.7 -0.2,-0.6 -0.6,0.2 c -1,0.4 -2.3,0.6 -3.5,0.6 -5.5,0 -10.1,-4.7 -10.1,-10.6 0.1,-5.6 4.6,-10.4 10.1,-10.4 z"
   id="path3339_1_"
   style="fill:#999999" />
	<path
   d="m 436,1355.3 3.6,-9.8 h 1.3 l 3.9,9.8 h -1.4 l -1.1,-3 h -3.9 l -1,3 H 436 z m 2.8,-4 h 3.2 l -1,-2.8 c -0.4,-0.8 -0.5,-1.5 -0.7,-2 -0.1,0.6 -0.4,1.2 -0.5,1.9 l -1,2.9 z"
   id="path3345_1_"
   style="fill:#999999" />
</g>
<g
   transform="matrix(0.44024076,0,0,0.44024076,-145.41641,-216.03873)"
   id="question_3_">
	<path
   d="m 558.3,1320.6 c 6.2,0 11.4,5.3 11.4,11.9 0,6.5 -5.1,11.9 -11.4,11.9 -1.1,0 -2.3,-0.2 -3.3,-0.6 l -1.7,4.7 -0.6,1.7 -0.6,-1.7 c -2.8,-7.7 -5.2,-11.3 -5.2,-15.9 0,-6.6 5.1,-12 11.4,-12 z m 0,1.3 c -5.5,0 -10.1,4.7 -10.1,10.6 0,3.8 2,7.4 4.5,13.9 l 1.3,-3.7 0.2,-0.6 0.6,0.2 c 1,0.4 2.3,0.6 3.5,0.6 5.5,0 10.1,-4.7 10.1,-10.6 -0.1,-5.6 -4.7,-10.4 -10.1,-10.4 z"
   id="bubble_3_"
   style="fill:#4eb075" />
	<path
   d="m 561.3,1336.2 c 0.6,0.4 1.1,0.7 1.6,0.9 l -0.4,0.9 c -0.7,-0.2 -1.3,-0.6 -2.1,-1.2 -0.7,0.4 -1.5,0.6 -2.3,0.6 -0.9,0 -1.6,-0.2 -2.3,-0.6 -0.7,-0.5 -1.2,-1.1 -1.6,-1.8 -0.4,-0.8 -0.6,-1.7 -0.6,-2.6 0,-1 0.2,-1.9 0.6,-2.7 0.4,-0.8 1,-1.4 1.6,-1.8 0.6,-0.4 1.5,-0.6 2.4,-0.6 0.9,0 1.7,0.2 2.4,0.6 0.7,0.5 1.2,1.1 1.6,1.8 0.4,0.8 0.6,1.7 0.6,2.6 0,0.8 -0.1,1.6 -0.4,2.2 -0.2,0.6 -0.6,1.2 -1.1,1.7 l 0,0 z m -2.7,-1.7 c 0.8,0.2 1.3,0.5 1.8,0.9 0.8,-0.7 1.1,-1.8 1.1,-3.1 0,-0.8 -0.1,-1.5 -0.4,-2.1 -0.2,-0.6 -0.6,-1.1 -1.1,-1.4 -0.5,-0.4 -1,-0.5 -1.7,-0.5 -1,0 -1.7,0.4 -2.3,1 -0.6,0.6 -1,1.7 -1,3 0,1.3 0.4,2.3 1,2.9 0.6,0.6 1.3,1.1 2.3,1.1 0.5,0 0.9,-0.1 1.2,-0.2 -0.4,-0.2 -0.8,-0.5 -1.2,-0.6 l 0.3,-1 z"
   id="letter_3_"
   style="fill:#4eb075" />
</g>
<g
   transform="matrix(0.44024076,0,0,0.44024076,-145.40182,-196.00446)"
   id="answer_3_">
	<path
   d="m 558.3,1338.7 c -6.2,0 -11.4,5.3 -11.4,11.9 0,6.5 5.1,11.9 11.4,11.9 1.1,0 2.3,-0.2 3.3,-0.6 l 1.7,4.7 0.6,1.7 0.6,-1.7 c 2.8,-7.7 5.2,-11.3 5.2,-15.9 0,-6.6 -5.1,-12 -11.4,-12 z m 0,1.3 c 5.5,0 10.1,4.7 10.1,10.6 0,3.8 -2,7.4 -4.5,13.9 l -1.3,-3.7 -0.2,-0.6 -0.6,0.2 c -1,0.4 -2.3,0.6 -3.5,0.6 -5.5,0 -10.1,-4.7 -10.1,-10.6 0.1,-5.6 4.6,-10.4 10.1,-10.4 z"
   id="path3339_3_"
   style="fill:#4eb075" />
	<path
   d="m 554,1355.3 3.6,-9.8 h 1.3 l 3.9,9.8 h -1.4 l -1.1,-3 h -3.9 l -1,3 H 554 z m 2.8,-4 h 3.2 l -1,-2.8 c -0.4,-0.8 -0.5,-1.5 -0.7,-2 -0.1,0.6 -0.4,1.2 -0.5,1.9 l -1,2.9 z"
   id="path3345_3_"
   style="fill:#4eb075" />
</g>
<g
   transform="matrix(0.44024076,0,0,0.44024076,-145.44045,-73.676584)"
   id="answer-0">
</g>
<g
   transform="translate(96,0)"
   id="g32">
	<g
   id="icon-calendar">
		<path
   d="M 45,46.9 H 36.7 C 36.3,46.9 36,46.5 36,46.2 v -8.3 c 0,-0.4 0.4,-0.7 0.7,-0.7 h 0.7 v 0.4 c 0,0.6 0.5,1.2 1.2,1.2 0.6,0 1.2,-0.5 1.2,-1.2 v -0.4 h 2.3 v 0.4 c 0,0.6 0.5,1.2 1.2,1.2 0.6,0 1.2,-0.5 1.2,-1.2 v -0.4 h 0.7 c 0.4,0 0.7,0.4 0.7,0.7 v 8.3 c -0.2,0.3 -0.5,0.7 -0.9,0.7 z m 0,-7.2 h -8.3 v 6.4 H 45 v -6.4 z m -6.4,1.9 h -1.2 v -1.2 h 1.2 v 1.2 z m 0,1.8 h -1.2 v -1.2 h 1.2 v 1.2 z m 0,1.9 h -1.2 v -1.2 h 1.2 v 1.2 z m 1.8,-3.7 h -1.1 v -1.2 h 1.2 l -0.1,1.2 0,0 z m 0,1.8 h -1.1 v -1.2 h 1.2 l -0.1,1.2 0,0 z m 0,1.9 h -1.1 v -1.2 h 1.2 l -0.1,1.2 0,0 z m 1.9,-3.7 h -1.1 v -1.2 h 1.2 l -0.1,1.2 0,0 z m 0,1.8 h -1.1 v -1.2 h 1.2 l -0.1,1.2 0,0 z m 0,1.9 h -1.1 v -1.2 h 1.2 l -0.1,1.2 0,0 z m 1.9,-3.7 H 43 v -1.2 h 1.2 v 1.2 z m 0,1.8 H 43 v -1.2 h 1.2 v 1.2 z m 0,1.9 H 43 v -1.2 h 1.2 v 1.2 z m -1.1,-7.1 c -0.4,0 -0.7,-0.4 -0.7,-0.7 v -0.9 c 0,-0.4 0.4,-0.7 0.7,-0.7 0.3,0 0.7,0.4 0.7,0.7 v 0.8 c 0.1,0.4 -0.3,0.8 -0.7,0.8 z m -4.5,0 c -0.4,0 -0.7,-0.4 -0.7,-0.7 v -0.9 c 0,-0.4 0.4,-0.7 0.7,-0.7 0.3,0 0.7,0.4 0.7,0.7 v 0.8 c 0,0.4 -0.4,0.8 -0.7,0.8 z"
   id="path35"
   style="fill:#999999" />
	</g>
</g>
<g
   transform="translate(240,0)"
   id="g37">
	<g
   id="icon-eye">
		<path
   d="m -83.2,37.4 c -3.7,0 -5.9,4 -5.9,4 0,0 2.3,4 5.9,4 3.4,0 6.1,-4 6.1,-4 0,0 -2.6,-4 -6.1,-4 z m 0.1,5.9 c -1,0 -1.8,-0.8 -1.8,-1.8 0,-1 0.8,-1.8 1.8,-1.8 1,0 1.8,0.8 1.8,1.8 0,1 -0.8,1.8 -1.8,1.8 z m 0,-2.7 c -0.5,0 -0.9,0.4 -0.9,0.9 0,0.5 0.4,0.9 0.9,0.9 0.5,0 0.9,-0.4 0.9,-0.9 0,-0.5 -0.4,-0.9 -0.9,-0.9 z"
   id="path40"
   style="fill:#999999" />
	</g>
</g>
<g
   transform="translate(192,0)"
   id="g42">
	<g
   id="icon-time">
		<path
   d="m -75,35.9 c -3,0 -5.5,2.5 -5.5,5.5 0,3 2.5,5.5 5.5,5.5 3,0 5.5,-2.5 5.5,-5.5 0,-3 -2.5,-5.5 -5.5,-5.5 z m 0,9.9 c -2.5,0 -4.4,-2 -4.4,-4.4 0,-2.4 2,-4.4 4.4,-4.4 2.5,0 4.4,2 4.4,4.4 0,2.4 -2,4.4 -4.4,4.4 z m 1.3,-4.1 H -75 v -2.1 c 0,-0.3 -0.2,-0.5 -0.5,-0.5 -0.3,0 -0.5,0.2 -0.5,0.5 v 2.6 c 0,0.3 0.2,0.5 0.5,0.5 h 1.6 c 0.3,0 0.5,-0.2 0.5,-0.5 0.1,-0.3 -0.1,-0.5 -0.3,-0.5 z"
   id="path45"
   style="fill:#999999" />
	</g>
</g>
<g
   id="g47">
	<rect
   width="11"
   height="2.3"
   x="68.5"
   y="11.8"
   id="rect49"
   style="fill:#3667af" />
	<rect
   width="11"
   height="2.3"
   x="68.5"
   y="8.8000002"
   id="rect51"
   style="fill:#55a2d9" />
	<path
   d="m 77.8,5.7 h -7.5 c -1,0 -1.8,0.8 -1.8,1.9 v 0.6 h 11 V 7.6 c 0,-1.1 -0.8,-1.9 -1.7,-1.9 z"
   id="path53"
   style="fill:#a3d9f6" />
	<path
   d="m 68.5,14.8 v 0.6 c 0,1 0.8,1.9 1.8,1.9 H 75 v 2.5 l 2.3,-2.5 h 0.5 c 1,0 1.8,-0.8 1.8,-1.9 v -0.6 c 0,0 -11.1,0 -11.1,0 z"
   id="path55"
   style="fill:#24488d" />
</g>
<g
   id="g57">
	<rect
   width="6"
   height="10.2"
   x="12.4"
   y="179.39999"
   id="rect59"
   style="fill:#888888" />
	<rect
   width="6"
   height="13.3"
   x="20.4"
   y="176.3"
   id="rect61"
   style="fill:#888888" />
	<rect
   width="6"
   height="17.4"
   x="28.4"
   y="172.2"
   id="rect63"
   style="fill:#888888" />
	<rect
   width="6"
   height="14.3"
   x="36.5"
   y="175.3"
   id="rect65"
   style="fill:#888888" />
	<rect
   width="6"
   height="20.4"
   x="44.400002"
   y="169.2"
   id="rect67"
   style="fill:#888888" />
	<g
   id="g69">
		<rect
   width="6"
   height="6.0999999"
   x="12.4"
   y="166.8"
   id="rect71"
   style="fill:#888888" />
		<rect
   width="6"
   height="6.0999999"
   x="20.4"
   y="165.8"
   id="rect73"
   style="fill:#888888" />
		<rect
   width="6"
   height="6.0999999"
   x="28.4"
   y="160"
   id="rect75"
   style="fill:#888888" />
		<rect
   width="6"
   height="6.0999999"
   x="36.5"
   y="162.7"
   id="rect77"
   style="fill:#888888" />
		<rect
   width="6"
   height="6.0999999"
   x="44.400002"
   y="157.60001"
   id="rect79"
   style="fill:#888888" />
		<rect
   width="3.0999999"
   height="2"
   x="17.9"
   y="169.39999"
   id="rect81"
   style="fill:#888888" />
		<rect
   width="3.0999999"
   height="2"
   x="33.799999"
   y="163.7"
   id="rect83"
   style="fill:#888888" />
		<polygon
   points="26.1,169.1 24.7,167.7 28.9,163.4 30.3,164.9 "
   id="polygon85"
   style="fill:#888888" />
		<polygon
   points="42.3,166.7 40.9,165.2 45,161 46.5,162.4 "
   id="polygon87"
   style="fill:#888888" />
	</g>
</g>
<g
   id="g89">
	<path
   d="m 143.2,165.9 c -2.7,2.5 -4.2,5.7 -4.2,9.1 0,3.4 1.5,6.7 4.2,9.1 l -0.9,2.3 c -3.4,-3 -5.3,-7.1 -5.3,-11.4 0,-4.3 1.9,-8.4 5.3,-11.4 l 0.9,2.3 z m -11.3,17.9 c -1.3,-2.8 -2,-5.8 -2,-8.8 0,-3 0.7,-6 2,-8.8 1.3,-2.7 3.1,-5.1 5.4,-7.2 l 0.9,2.3 c -4.1,3.6 -6.3,8.5 -6.3,13.7 0,5.2 2.2,10.1 6.3,13.7 l -0.9,2.3 0,0 c -2.3,-2.1 -4.1,-4.5 -5.4,-7.2 l 0,0 z"
   id="path91"
   style="fill:#888888" />
	<path
   d="m 167.4,163.6 c 3.4,3 5.3,7.1 5.3,11.4 0,4.3 -1.9,8.4 -5.3,11.4 l -0.9,-2.3 c 2.7,-2.5 4.2,-5.7 4.2,-9.1 0,-3.4 -1.5,-6.7 -4.2,-9.1 l 0.9,-2.3 z m 10.5,20.2 c -1.3,2.7 -3.1,5.1 -5.4,7.2 l 0,0 -0.9,-2.3 c 4.1,-3.7 6.3,-8.5 6.3,-13.7 0,-5.2 -2.2,-10.1 -6.3,-13.7 l 0.9,-2.3 c 2.3,2.1 4.1,4.5 5.4,7.2 1.3,2.8 2,5.8 2,8.8 0,3 -0.7,6 -2,8.8 l 0,0 z"
   id="path93"
   style="fill:#888888" />
	<path
   d="m 147.6,185.2 c 1.8,-1.3 4.1,-2.1 4.9,-2.3 0.5,-0.1 0.5,-1.4 0.5,-1.4 0,0 -1.4,-1.4 -1.7,-3.2 -0.8,0 -1.3,-1.9 -0.5,-2.6 0,-0.7 -1.1,-5.6 4.1,-5.6 5.2,0 4.1,4.9 4.1,5.6 0.8,0.7 0.3,2.6 -0.5,2.6 -0.3,1.8 -1.7,3.2 -1.7,3.2 0,0 0,1.3 0.5,1.4 l 0,0 c 0.9,0.1 3.2,1 4.9,2.3 2.6,-2.1 4.3,-5.3 4.3,-8.9 0,-6.3 -5.2,-11.4 -11.7,-11.4 -6.4,0 -11.7,5.1 -11.7,11.4 0.1,3.6 1.8,6.8 4.5,8.9 z"
   id="path95"
   style="fill:#888888" />
</g>
<path
   d="M 115.3,158.6 H 71.7 c -1.7,0 -3.2,1.5 -3.2,3.2 v 25.6 c 0,1.8 1.4,3.2 3.2,3.2 h 43.6 c 1.7,0 3.2,-1.4 3.2,-3.2 v -25.6 c 0,-1.7 -1.4,-3.2 -3.2,-3.2 z m -38.2,20.8 c -2.7,0 -4.7,-2.1 -4.7,-4.8 0,-2.7 2.1,-4.8 4.7,-4.8 2.7,0 4.7,2.1 4.7,4.8 0,2.7 -2,4.8 -4.7,4.8 z"
   id="path97"
   style="fill:#888888" />
<g
   transform="translate(96,0)"
   id="g99">
	<g
   id="icon-cog2">
		<path
   d="m -72.5,63.9 h -0.6 c -0.1,0.4 -0.2,0.7 -0.5,1.1 l 0.6,0.6 c 0.4,0.4 0.4,1 0,1.3 l -0.4,0.4 c -0.4,0.4 -1,0.4 -1.3,0 l -0.6,-0.6 c -0.4,0.2 -0.7,0.4 -1.1,0.5 v 0.6 c 0,0.5 -0.5,1 -1,1 h -0.5 c -0.5,0 -1,-0.5 -1,-1 V 67.2 C -79.3,67.1 -79.6,67 -80,66.7 l -0.6,0.6 c -0.4,0.4 -1,0.4 -1.3,0 l -0.4,-0.4 c -0.4,-0.4 -0.4,-1 0,-1.3 l 0.6,-0.6 c -0.2,-0.4 -0.4,-0.7 -0.5,-1.1 h -0.3 c -0.5,0 -1,-0.5 -1,-1 v -0.5 c 0,-0.5 0.5,-1 1,-1 h 0.6 c 0.1,-0.4 0.2,-0.7 0.5,-1.1 L -82,59.7 c -0.4,-0.4 -0.4,-1 0,-1.3 l 0.4,-0.4 c 0.4,-0.4 1,-0.4 1.3,0 l 0.6,0.6 c 0.4,-0.2 0.7,-0.4 1.1,-0.5 v -0.4 c 0,-0.5 0.5,-1 1,-1 h 0.5 c 0.5,0 1,0.5 1,1 v 0.6 c 0.4,0.1 0.7,0.2 1.1,0.5 l 0.6,-0.6 c 0.4,-0.4 1,-0.4 1.3,0 l 0.4,0.4 c 0.4,0.4 0.4,1 0,1.3 l -0.6,0.6 c 0.2,0.4 0.4,0.7 0.5,1.1 h 0.6 c 0.5,0 1,0.5 1,1 v 0.5 c -0.3,0.4 -0.8,0.8 -1.3,0.8 z m -5,-3.8 c -1.4,0 -2.6,1.2 -2.6,2.6 0,1.4 1.2,2.6 2.6,2.6 1.4,0 2.6,-1.2 2.6,-2.6 0,-1.4 -1.2,-2.6 -2.6,-2.6 z m 0,3.8 c -0.7,0 -1.2,-0.5 -1.2,-1.2 0,-0.7 0.5,-1.2 1.2,-1.2 0.7,0 1.2,0.5 1.2,1.2 0,0.7 -0.5,1.2 -1.2,1.2 z"
   id="path102"
   style="fill:#999999" />
	</g>
</g>
<g
   transform="translate(432,0)"
   id="g104">
	<g
   id="icon-user2">
		<path
   d="m -364.5,66 c -1.7,-0.6 -2.2,-1.2 -2.2,-2.4 0,-0.7 0.5,-0.5 0.7,-1.8 0.1,-0.6 0.6,0 0.6,-1.2 0,-0.5 -0.3,-0.6 -0.3,-0.6 0,0 0.1,-0.7 0.2,-1.3 0.1,-0.6 -0.4,-2.5 -2.7,-2.5 -2.4,0 -2.8,1.8 -2.7,2.5 0,0.6 0.2,1.3 0.2,1.3 0,0 -0.3,0.1 -0.3,0.6 0.1,1.2 0.5,0.6 0.6,1.2 0.2,1.3 0.7,1 0.7,1.8 0,1.2 -0.5,1.8 -2.2,2.4 -1.7,0.6 -2.8,1.3 -2.8,1.8 0,0.5 0,1.5 0,1.5 h 13 c 0,0 0,-1.1 0,-1.5 0,-0.5 -1.1,-1.2 -2.8,-1.8 l 0,0 z"
   id="path107"
   style="fill:#999999" />
	</g>
</g>
<g
   transform="translate(384,0)"
   id="g109">
	<g
   id="icon-pencil">
		<path
   d="m -339.1,56.2 c 1.1,0 2,0.9 2,2 0,0.5 -0.2,0.9 -0.4,1.2 l -0.8,0.8 -2.8,-2.8 0.8,-0.8 c 0.3,-0.2 0.7,-0.4 1.2,-0.4 z m -10.2,9.3 -0.8,3.7 3.7,-0.8 7.2,-7.3 -2.9,-2.9 -7.2,7.3 z"
   id="path112"
   style="fill:#999999" />
	</g>
</g>
<polygon
   points="117,58.7 110.5,66.7 123.5,66.7 "
   id="polygon114"
   style="fill:#999999" />
<path
   d="m 158.2,62.8 3.4,-3.4 c 0.4,-0.4 0.4,-1 0,-1.3 -0.4,-0.4 -1,-0.4 -1.3,0 l -3.4,3.4 -3.4,-3.4 c -0.4,-0.4 -1,-0.4 -1.3,0 -0.4,0.4 -0.4,1 0,1.3 l 3.4,3.4 -3.4,3.4 c -0.4,0.4 -0.4,1 0,1.3 0.4,0.4 1,0.4 1.3,0 l 3.4,-3.4 3.4,3.4 c 0.4,0.4 1,0.4 1.3,0 0.4,-0.4 0.4,-1 0,-1.3 l -3.4,-3.4 z"
   id="path116"
   style="fill:#999999" />
<path
   d="m 138.4,101.2 3.7,-3.8 -3.7,-3.8 1.1,-1.2 4.9,5 -4.9,5 -1.1,-1.2 z"
   id="path118"
   style="fill:#999999" />
<path
   d="m 14.7,100.7 4.9,-5.3 -4.9,-5.3 1.5,-1.7 6.5,7 -6.5,7 -1.5,-1.7 z"
   id="path120"
   style="fill:#cccccc" />
<path
   d="m 35.1,100.7 4.9,-5.3 -4.9,-5.3 1.5,-1.7 6.5,7 -6.5,7 -1.5,-1.7 z"
   id="path122"
   style="fill:#333333" />
<path
   d="m 153.4,101.2 3.7,-3.8 -3.7,-3.8 1.1,-1.2 4.9,5 -4.9,5 -1.1,-1.2 z"
   id="path124"
   style="fill:#ffffff" />
<path
   d="M 132,69.2 V 62 h 1.3 v -2.2 c 0,-2 1.6,-3.6 3.5,-3.6 h 0.4 c 1.9,0 3.5,1.6 3.5,3.6 V 62 h 1.3 v 7.2 h -10 z m 4.7,-3.9 -0.4,2.9 h 1.5 l -0.4,-2.9 c 0.4,-0.1 0.6,-0.6 0.6,-1 0,-0.6 -0.4,-1.1 -1,-1.1 -0.6,0 -1,0.4 -1,1.1 0,0.5 0.3,0.8 0.7,1 z m 2.7,-5.3 c 0,-1.4 -1.1,-2.5 -2.4,-2.5 -1.3,0 -2.4,1.1 -2.4,2.5 v 2 h 4.8 l 0,-2 0,0 z"
   id="path126"
   style="fill:#999999" />
<path
   d="m 64.8,93.7 1.9,1.9 3.5,-3.5 1.8,1.8 v -5.4 h -5.4 l 1.8,1.8 c -0.1,-0.1 -3.6,3.4 -3.6,3.4 z m 7.1,2.4 -1.3,-1.4 V 101 H 59.4 V 89.8 h 6.3 L 64.3,88.4 H 59.4 C 58.6,88.4 58,89 58,89.8 V 101 c 0,0.8 0.6,1.4 1.4,1.4 h 11.2 c 0.8,0 1.4,-0.6 1.4,-1.4 l -0.1,-4.9 z"
   id="path128"
   style="fill:#cccccc" />
<path
   d="m 85.8,93.7 1.9,1.9 3.5,-3.5 1.8,1.8 v -5.4 h -5.4 l 1.8,1.8 c -0.1,-0.1 -3.6,3.4 -3.6,3.4 z m 7.1,2.4 -1.3,-1.4 V 101 H 80.4 V 89.8 h 6.3 L 85.3,88.4 H 80.4 C 79.6,88.4 79,89 79,89.8 V 101 c 0,0.8 0.6,1.4 1.4,1.4 h 11.2 c 0.8,0 1.4,-0.6 1.4,-1.4 l -0.1,-4.9 z"
   id="path130"
   style="fill:#333333" />

<path
   d="m 114.1,89.4 c 1,0 1.9,0.8 1.9,1.9 0,0.4 -0.1,0.8 -0.4,1.1 l -0.8,0.8 -2.6,-2.6 0.8,-0.8 c 0.3,-0.3 0.7,-0.4 1.1,-0.4 z m -9.4,8.6 -0.7,3.4 3.4,-0.8 6.9,-6.9 -2.6,-2.6 -7,6.9 z"
   id="path148"
   style="fill:#999999" />
<path
   d="m 131.1,89.4 c 1,0 1.9,0.8 1.9,1.9 0,0.4 -0.1,0.8 -0.4,1.1 l -0.8,0.8 -2.6,-2.6 0.8,-0.8 c 0.3,-0.3 0.7,-0.4 1.1,-0.4 z m -9.4,8.6 -0.7,3.4 3.4,-0.8 6.9,-6.9 -2.6,-2.6 -7,6.9 z"
   id="path150"
   style="fill:#333333" />
<path
   d="m 14.6,129.7 c 0,-0.5 0.2,-0.9 0.5,-1.2 l 2.3,-2.4 c 0.3,-0.3 0.7,-0.5 1.1,-0.5 0.4,0 0.8,0.2 1.1,0.5 l 4.9,5.2 11,-11.6 c 0.3,-0.3 0.7,-0.5 1.1,-0.5 0.4,0 0.8,0.2 1.1,0.5 l 2.3,2.4 c 0.3,0.3 0.5,0.7 0.5,1.2 0,0.5 -0.2,0.9 -0.5,1.2 l -14.4,15.2 c -0.3,0.3 -0.7,0.5 -1.1,0.5 -0.4,0 -0.8,-0.2 -1.1,-0.5 L 15,130.9 c -0.2,-0.3 -0.4,-0.7 -0.4,-1.2 l 0,0 z"
   id="path152"
   style="fill:#ffffff" />
<path
   d="m 45.6,124.2 c 0,-0.2 0.1,-0.4 0.2,-0.6 l 1.1,-1.1 c 0.1,-0.1 0.3,-0.2 0.5,-0.2 0.2,0 0.4,0.1 0.5,0.2 l 2.3,2.5 5.1,-5.5 c 0.1,-0.1 0.3,-0.2 0.5,-0.2 0.2,0 0.4,0.1 0.5,0.2 l 1.1,1.1 c 0.1,0.1 0.2,0.3 0.2,0.6 0,0.3 -0.1,0.4 -0.2,0.6 l -6.7,7.2 c -0.1,0.1 -0.3,0.2 -0.5,0.2 -0.2,0 -0.4,-0.1 -0.5,-0.2 l -3.9,-4.2 c -0.1,-0.2 -0.2,-0.4 -0.2,-0.6 l 0,0 z"
   id="path154"
   style="fill:#44b449" />
<g
   id="g156"
   style="opacity:0.5">
	<g
   id="g158">
		<path
   d="m 67,214.4 h -9.1 c -0.8,0 -1.5,0.6 -1.5,1.5 v 6.2 c 0,0.8 0.6,1.5 1.5,1.5 h 4.6 l 0.9,2.8 1.8,-2.9 H 67 c 0.8,0 1.5,-0.6 1.5,-1.5 v -6.1 c 0,-0.8 -0.8,-1.5 -1.5,-1.5 z"
   id="path160"
   style="fill:#333333" />
	</g>
</g>
<g
   id="g162"
   style="opacity:0.5">
	<path
   d="m 88.2,216.1 -1.3,-1.4 c -0.4,-0.4 -0.9,-0.4 -1.2,0 l -0.9,0.8 2.5,2.7 0.9,-0.8 c 0.2,-0.4 0.3,-1 0,-1.3 z m -10.3,6.2 2.5,2.7 6.1,-6 -2.5,-2.7 -6.1,6 z m -1.5,4.1 2.9,-0.5 -2.4,-2.6 -0.5,3.1 z"
   id="pensil_1_"
   style="fill:#333333" />
</g>
<path
   d="m 26,215.3 v -0.9 h -9.2 v 0.9 h -2.4 v 4.2 c 0,0.8 1.1,1.6 2.7,1.9 0.6,0.9 1.9,1.6 3.4,1.8 v 1.7 c -1.8,0.2 -3.1,0.7 -3.1,1.4 h 8 c 0,-0.7 -1.3,-1.2 -3.1,-1.4 v -1.5 c 1.5,-0.2 2.7,-0.8 3.3,-1.8 1.6,-0.4 2.8,-1 2.8,-1.9 v -4.3 l -2.4,-0.1 0,0 z m -9.3,4.8 c 0,0.1 0,0.1 0,0.2 0,0 0,0 0,0.1 -0.8,-0.3 -1.3,-0.6 -1.3,-0.7 v -3.3 h 1.3 v 3.7 z m 6.7,1.4 -2,-1.3 -2,1.3 0.7,-2.2 -2,-1.3 h 2.4 l 0.7,-2.2 0.7,2.1 h 2.4 l -2,1.3 1.1,2.3 z m 3.9,-1.8 c 0,0.2 -0.5,0.6 -1.3,0.7 v -0.1 c 0,-0.1 0,-0.1 0,-0.2 v -3.8 h 1.3 v 3.4 z"
   id="path165"
   style="opacity:0.5;fill:#333333" />
<g
   id="g167"
   style="opacity:0.5">
	<polygon
   points="39.1,214.5 34.4,221.8 37.7,221.8 37.7,225.3 40.6,225.3 40.6,221.8 43.8,221.8 "
   id="polygon169"
   style="fill:#333333" />
	<path
   d="m 47.9,218 v -3.6 H 45 v 3.6 h -3.4 l 4.9,7.5 4.9,-7.5 h -3.5 z m -4.7,1 h 1.8 0.9 v -0.9 -2.8 H 47 v 2.8 0.9 h 0.9 1.8 l -3.2,4.9 -3.3,-4.9 z"
   id="path171"
   style="fill:#333333" />
</g>
<path
   d="m 95,58.4 c 1.1,0 2,-0.5 2.6,-0.9 v 7.6 C 97,65.5 96.1,66 95,66 c -1.1,0 -1.9,-0.3 -2.6,-0.7 -0.6,-0.4 -1.5,-0.7 -2.6,-0.7 -1.1,0 -2,0.5 -2.6,0.9 v -7.6 c 0.7,-0.4 1.5,-0.9 2.6,-0.9 1.1,0 1.9,0.3 2.6,0.7 0.7,0.4 1.5,0.7 2.6,0.7 z m -9.5,-2.2 c 0.4,0 0.9,0.4 0.9,0.8 V 69.2 H 84.6 V 57 c 0,-0.4 0.4,-0.8 0.9,-0.8 z"
   id="path173"
   style="fill:#999999" />
<path
   d="m 18.4,36.4 c 2.8,0 5.1,2.2 5.1,5 0,2.8 -2.3,5 -5.1,5 v -1.1 c 1.1,0 2.1,-0.4 2.8,-1.2 0.7,-0.8 1.2,-1.7 1.2,-2.8 0,-1.1 -0.4,-2 -1.2,-2.8 -0.7,-0.6 -1.7,-1 -2.8,-1 -1.1,0 -2.1,0.4 -2.8,1.2 -0.6,0.6 -1,1.3 -1.1,2.1 h 2.1 l -2.5,2.9 -2.6,-3 h 1.9 c 0.3,-2.4 2.4,-4.3 5,-4.3 z"
   id="path175"
   style="fill:#999999" />
<polygon
   points="36.1,270.4 41.8,274.4 36.1,278.4 "
   id="polygon177"
   style="fill:#888888" />
<polygon
   points="24,271.2 20,276.9 16,271.2 "
   id="polygon179"
   style="fill:#888888" />
<polygon
   points="13.6,464.3 18.2,458.2 22.7,464.3 18.1,470.6 "
   id="polygon181"
   style="fill:#888888" />
<polygon
   points="33.6,464.3 38.2,458.2 42.7,464.3 38.1,470.6 "
   id="polygon183"
   style="fill:#fe7a15" />
<polygon
   points="53.6,464.3 58.1,458.2 62.6,464.3 58,470.6 "
   id="polygon185"
   style="fill:#e0e0e0" />
<polygon
   points="93.6,464.3 98.2,458.2 102.7,464.3 98.1,470.6 "
   id="polygon187"
   style="fill:#1e7ecb" />
<g
   id="g189">
	<path
   d="m 142.1,467.5 c -2.7,0 -4.9,-2.2 -4.9,-4.9 0,-2.7 2.2,-4.9 4.9,-4.9 2.7,0 4.9,2.2 4.9,4.9 0,2.7 -2.2,4.9 -4.9,4.9 z m 0,-8.8 c -2.2,0 -3.9,1.7 -3.9,3.9 0,2.2 1.7,3.9 3.9,3.9 2.2,0 3.9,-1.7 3.9,-3.9 0,-2.2 -1.7,-3.9 -3.9,-3.9 z"
   id="path191"
   style="fill:#b7b7b7" />
	
		<rect
   width="5"
   height="0.89999998"
   x="144.3"
   y="467"
   transform="matrix(-0.7176,-0.6964,0.6964,-0.7176,-73.3148,905.1385)"
   id="rect193"
   style="fill:#b7b7b7" />
</g>
<g
   id="g195">
	<rect
   width="2"
   height="4.0999999"
   x="94.599998"
   y="440.5"
   id="rect197"
   style="fill:#888888" />
	<rect
   width="2.2"
   height="5.0999999"
   x="97.400002"
   y="439.60001"
   id="rect199"
   style="fill:#888888" />
	<rect
   width="2.2"
   height="6.6999998"
   x="100.4"
   y="438"
   id="rect201"
   style="fill:#888888" />
	<rect
   width="2.2"
   height="5.4000001"
   x="103.5"
   y="439.29999"
   id="rect203"
   style="fill:#888888" />
	<rect
   width="2.2"
   height="7.6999998"
   x="106.6"
   y="437"
   id="rect205"
   style="fill:#888888" />
	<polygon
   points="97.4,437.7 97.4,438 99.5,438 99.5,436.9 100.6,435.8 102.6,435.8 102.6,435.6 103.5,435.6 103.5,436.7 105.6,436.7 105.6,435.7 106.7,435.1 106.7,435.2 108.8,435.2 108.8,433 106.7,433 106.7,434.4 105.6,435 105.6,434.5 103.5,434.5 103.5,435 102.6,435 102.6,433.6 100.5,433.6 100.5,435.1 99.5,436 99.5,435.8 97.4,435.8 97.4,437.1 96.5,437.1 96.5,436.4 94.6,436.4 94.6,438.4 96.5,438.4 96.5,437.7 "
   id="polygon207"
   style="fill:#888888" />
</g>
<g
   id="g209">
	<rect
   width="2"
   height="4.0999999"
   x="134.7"
   y="440.5"
   id="rect211"
   style="fill:#33a030" />
	<rect
   width="2.2"
   height="5.0999999"
   x="137.39999"
   y="439.60001"
   id="rect213"
   style="fill:#33a030" />
	<rect
   width="2.2"
   height="6.6999998"
   x="140.39999"
   y="438"
   id="rect215"
   style="fill:#33a030" />
	<rect
   width="2.2"
   height="5.4000001"
   x="143.5"
   y="439.29999"
   id="rect217"
   style="fill:#33a030" />
	<rect
   width="2.2"
   height="7.6999998"
   x="146.7"
   y="437"
   id="rect219"
   style="fill:#33a030" />
	<polygon
   points="137.4,437.7 137.4,438 139.6,438 139.6,436.9 140.6,435.8 142.6,435.8 142.6,435.6 143.5,435.6 143.5,436.7 145.7,436.7 145.7,435.7 146.7,435.1 146.7,435.2 148.8,435.2 148.8,433 146.7,433 146.7,434.4 145.7,435 145.7,434.5 143.5,434.5 143.5,435 142.6,435 142.6,433.6 140.5,433.6 140.5,435.1 139.6,436 139.6,435.8 137.4,435.8 137.4,437.1 136.5,437.1 136.5,436.4 134.7,436.4 134.7,438.4 136.5,438.4 136.5,437.7 "
   id="polygon221"
   style="fill:#33a030" />
</g>
<path
   d="m 66.2,433.9 h -6.9 l -4.9,5.9 v 4 c 0,0.5 0.4,1 1,1 h 14.8 c 0.5,0 1,-0.4 1,-1 v -4 l -5,-5.9 z m 1,5.9 -2,2 h -5 l -2,-2 h -2.7 l 4.1,-4.9 h 6 l 4.1,4.9 h -2.5 l 0,0 z"
   id="path223"
   style="fill:#e0e0e0" />
<path
   d="m 25.6,433.9 h -6.9 l -5,5.9 v 4 c 0,0.5 0.4,1 1,1 h 14.8 c 0.5,0 1,-0.4 1,-1 v -4 l -4.9,-5.9 z m 1,5.9 -2,2 h -5 l -2,-2 h -2.7 l 4.1,-4.9 h 6 l 4.1,4.9 h -2.5 l 0,0 z"
   id="path225"
   style="fill:#888888" />
<g
   id="g227">
	<g
   id="g229">
		<path
   d="m 157.1,688.7 c -0.8,0.3 -2,0.5 -3.2,0.5 -6.8,0 -12.4,-5.5 -12.4,-12.3 0,-6.8 5.6,-12.2 12.4,-12.2 6.8,0 12.4,5.5 12.4,12.2 0,0.7 -0.4,2.8 -1,4.6 -1,3 -4.4,11.1 -4.5,11.4 l -0.7,1.6 -3,-5.8 z m -14,-11.7 c 0,5.9 4.9,10.7 10.8,10.7 1.6,0 2.8,-0.4 3.2,-0.6 l 0.7,-0.3 2.1,4.1 c 1.1,-2.6 3.1,-7.6 3.8,-9.7 0.6,-1.8 1,-3.7 1,-4.1 0,-5.9 -4.9,-10.7 -10.8,-10.7 -6,-0.1 -10.8,4.7 -10.8,10.6 z"
   id="path231"
   style="fill:#b1b1b1" />
	</g>
	<g
   id="g233">
		<path
   d="m 154.9,671.3 4.5,11.4 h -1.7 l -1.2,-3.4 h -4.8 l -1.3,3.4 h -1.5 l 4.4,-11.4 h 1.6 z m 1.1,6.7 -1.9,-5.3 0,0 -1.9,5.3 h 3.8 z"
   id="path235"
   style="fill:#b1b1b1" />
	</g>
</g>
<g
   id="g237">
	<g
   id="g239">
		<path
   d="m 154.9,718.6 c -0.8,0.3 -2,0.5 -3.2,0.5 -6.8,0 -12.4,-5.5 -12.4,-12.3 0,-6.8 5.6,-12.2 12.4,-12.2 6.8,0 12.4,5.5 12.4,12.2 0,0.7 -0.4,2.8 -1,4.6 -1,3 -4.4,11.1 -4.5,11.4 l -0.7,1.6 -3,-5.8 z m -14.1,-11.8 c 0,5.9 4.9,10.7 10.8,10.7 1.6,0 2.8,-0.4 3.2,-0.6 l 0.7,-0.3 2.1,4.1 c 1.1,-2.6 3.1,-7.6 3.8,-9.7 0.6,-1.8 1,-3.7 1,-4.1 0,-5.9 -4.9,-10.7 -10.8,-10.7 -5.9,-0.1 -10.8,4.7 -10.8,10.6 z"
   id="path241"
   style="fill:#b1b1b1" />
	</g>
	<g
   id="g243">
		<path
   d="m 152.7,701.1 4.5,11.4 h -1.7 l -1.2,-3.4 h -4.8 l -1.3,3.4 h -1.5 l 4.4,-11.4 h 1.6 z m 1,6.7 -1.9,-5.3 0,0 -1.9,5.3 h 3.8 z"
   id="path245"
   style="fill:#b1b1b1" />
	</g>
</g>
<g
   id="g247">
	<g
   id="g249">
		<path
   d="m 131.2,699.9 c -0.8,0.3 -2,0.5 -3.2,0.5 -6.8,0 -12.4,-5.5 -12.4,-12.3 0,-6.8 5.6,-12.2 12.4,-12.2 6.8,0 12.4,5.5 12.4,12.2 0,0.7 -0.4,2.8 -1,4.6 -1,3 -4.4,11.1 -4.5,11.4 l -0.7,1.6 -3,-5.8 z m -14,-11.8 c 0,5.9 4.9,10.7 10.8,10.7 1.6,0 2.8,-0.4 3.2,-0.6 l 0.7,-0.3 2.1,4.1 c 1.1,-2.6 3.1,-7.6 3.8,-9.7 0.6,-1.8 1,-3.7 1,-4.1 0,-5.9 -4.9,-10.7 -10.8,-10.7 -6,0 -10.8,4.8 -10.8,10.6 z"
   id="path251"
   style="fill:#83b869" />
	</g>
	<g
   id="g253">
		<path
   d="m 129,682.5 4.5,11.4 h -1.7 l -1.2,-3.4 h -4.8 l -1.3,3.4 h -1.6 l 4.4,-11.4 h 1.7 z m 1.1,6.7 -1.9,-5.3 0,0 -1.9,5.3 h 3.8 z"
   id="path255"
   style="fill:#83b869" />
	</g>
</g>
<g
   id="g257">
	<g
   id="g259">
		<path
   d="m 293.7,712.6 c -0.6,0.2 -1.6,0.4 -2.5,0.4 -5.3,0 -9.7,-4.3 -9.7,-9.6 0,-5.3 4.3,-9.6 9.7,-9.6 5.3,0 9.7,4.3 9.7,9.6 0,0.6 -0.3,2.2 -0.8,3.6 -0.8,2.3 -3.4,8.7 -3.5,8.9 l -0.5,1.2 -2.4,-4.5 z m -11,-9.2 c 0,4.6 3.8,8.4 8.5,8.4 1.3,0 2.2,-0.3 2.5,-0.5 l 0.5,-0.3 1.6,3.2 c 0.8,-2 2.4,-6 3,-7.6 0.5,-1.4 0.8,-2.9 0.8,-3.2 0,-4.6 -3.8,-8.4 -8.5,-8.4 -4.6,0 -8.4,3.8 -8.4,8.4 z"
   id="path261"
   style="fill:#b1b1b1" />
	</g>
	<g
   id="g263">
		<path
   d="m 292,699 3.5,8.9 h -1.3 l -1,-2.7 h -3.8 l -1,2.7 h -1.2 l 3.5,-8.9 h 1.3 z m 0.8,5.2 -1.5,-4.2 0,0 -1.5,4.2 h 3 z"
   id="path265"
   style="fill:#b1b1b1" />
	</g>
</g>
<g
   id="g267">
	<g
   id="g269">
		<path
   d="m 283,727.6 c -0.4,0.1 -0.9,0.2 -1.5,0.2 -3.1,0 -5.6,-2.5 -5.6,-5.6 0,-3.1 2.5,-5.6 5.6,-5.6 3.1,0 5.6,2.5 5.6,5.6 0,0.3 -0.2,1.2 -0.5,2.1 -0.5,1.3 -2,5 -2.1,5.2 l -0.3,0.7 -1.2,-2.6 z m -6.3,-5.3 c 0,2.7 2.2,4.8 4.9,4.8 0.7,0 1.3,-0.2 1.5,-0.3 l 0.3,-0.2 0.9,1.9 c 0.5,-1.2 1.4,-3.5 1.7,-4.4 0.3,-0.8 0.4,-1.7 0.4,-1.9 0,-2.7 -2.2,-4.8 -4.9,-4.8 -2.6,0 -4.8,2.2 -4.8,4.9 z"
   id="path271"
   style="fill:#b1b1b1" />
	</g>
	<g
   id="g273">
		<path
   d="m 282,719.7 2,5.2 h -0.8 l -0.6,-1.6 h -2.2 l -0.6,1.6 h -0.7 l 2,-5.2 h 0.9 z m 0.5,3.1 -0.9,-2.4 0,0 -0.9,2.4 h 1.8 z"
   id="path275"
   style="fill:#b1b1b1" />
	</g>
</g>
<g
   id="g277">
	<g
   id="g279">
		<path
   d="m 267.8,719.4 c -0.5,0.2 -1.2,0.3 -2,0.3 -4.3,0 -7.7,-3.4 -7.7,-7.6 0,-4.2 3.5,-7.6 7.7,-7.6 4.3,0 7.7,3.4 7.7,7.6 0,0.5 -0.3,1.7 -0.6,2.9 -0.6,1.8 -2.7,6.9 -2.8,7.1 l -0.4,1 -1.9,-3.7 z m -8.7,-7.4 c 0,3.7 3,6.7 6.7,6.7 1,0 1.8,-0.2 2,-0.4 l 0.4,-0.2 1.3,2.6 c 0.7,-1.6 1.9,-4.7 2.4,-6.1 0.4,-1.2 0.6,-2.3 0.6,-2.6 0,-3.7 -3,-6.7 -6.7,-6.7 -3.7,0.1 -6.7,3.1 -6.7,6.7 z"
   id="path281"
   style="fill:#b1b1b1" />
	</g>
	<g
   id="g283">
		<path
   d="m 266.5,708.5 2.8,7.1 h -1 l -0.8,-2.1 h -3 l -0.8,2.1 h -1 l 2.8,-7.1 h 1 z m 0.6,4.2 -1.2,-3.3 0,0 -1.2,3.3 h 2.4 z"
   id="path285"
   style="fill:#b1b1b1" />
	</g>
</g>
<g
   id="g287">
	<g
   id="g289">
		<path
   d="m 248.7,706.8 c -0.8,0.3 -2,0.5 -3.3,0.5 -6.9,0 -12.5,-5.6 -12.5,-12.4 0,-6.8 5.6,-12.4 12.5,-12.4 6.9,0 12.5,5.6 12.5,12.4 0,0.7 -0.4,2.8 -1.1,4.7 -1,3 -4.4,11.2 -4.6,11.6 l -0.7,1.6 -2.8,-6 z m -14.2,-11.9 c 0,6 4.9,10.8 11,10.8 1.6,0 2.9,-0.4 3.3,-0.6 l 0.7,-0.4 2.1,4.2 c 1.1,-2.6 3.2,-7.7 3.9,-9.9 0.6,-1.9 1,-3.7 1,-4.2 0,-6 -4.9,-10.8 -11,-10.8 -6.1,0.1 -11,4.9 -11,10.9 z"
   id="path291"
   style="fill:#b1b1b1" />
	</g>
	<g
   id="g293">
		<path
   d="m 246.5,689.2 4.5,11.6 h -1.7 l -1.3,-3.5 h -4.9 l -1.3,3.5 h -1.6 l 4.5,-11.6 h 1.8 z m 1,6.7 -1.9,-5.4 0,0 -2,5.4 h 3.9 z"
   id="path295"
   style="fill:#b1b1b1" />
	</g>
</g>
<g
   id="g297">
	<g
   id="g299">
		<path
   d="m 272,697.6 c -1.4,0.4 -3.3,0.8 -5.3,0.8 -11.3,0 -20.5,-9.1 -20.5,-20.3 0,-11.2 9.2,-20.3 20.5,-20.3 11.3,0 20.5,9.1 20.5,20.3 0,1.2 -0.7,4.6 -1.7,7.6 -1.6,4.9 -7.2,18.3 -7.5,18.9 l -1.1,2.6 -4.9,-9.6 z"
   id="path301"
   style="fill:#83b869" />
	</g>
	<g
   id="g303">
		<path
   d="m 268.4,668.8 7.4,18.9 H 273 l -2.1,-5.7 h -8 l -2.1,5.7 h -2.6 l 7.3,-18.9 h 2.9 z m 1.7,11.1 -3.1,-8.8 h -0.1 l -3.2,8.8 h 6.4 z"
   id="path305"
   style="fill:#ffffff" />
	</g>
</g>
<g
   id="g307">
	<g
   id="g309">
		<g
   id="g311">
			<path
   d="m 17.7,721.8 -1.3,-3.1 C 16.1,718 9.5,702.1 7.5,696.3 c -1.2,-3.6 -2,-7.6 -2,-9 0,-6.4 2.5,-12.4 7.1,-17 4.6,-4.5 10.7,-7 17.2,-7 13.4,0 24.3,10.8 24.3,24 0,6.4 -2.5,12.5 -7.1,17 -4.6,4.5 -10.7,7 -17.2,7 -2.4,0 -4.7,-0.4 -6.3,-0.9 l -5.8,11.4 z m 12,-55.5 c -5.7,0 -11,2.2 -15,6.2 -4,4 -6.2,9.2 -6.2,14.8 0,0.8 0.7,4.4 1.9,8.1 1.4,4.2 5.4,14.1 7.5,19.1 l 4.1,-8.1 1.4,0.7 c 0.8,0.4 3.2,1.2 6.4,1.2 5.7,0 11,-2.2 15,-6.2 4,-4 6.2,-9.2 6.2,-14.8 0,-11.6 -9.6,-21 -21.3,-21 z"
   id="path313"
   style="fill:#b1b1b1" />
		</g>
	</g>
	<g
   id="g315">
		<path
   d="m 33.6,692.4 c 0.7,-0.7 1.2,-1.5 1.5,-2.5 0.3,-1 0.5,-2 0.5,-3.1 0,-0.9 -0.1,-1.8 -0.3,-2.6 -0.2,-0.9 -0.6,-1.6 -1.1,-2.3 -0.5,-0.7 -1.1,-1.2 -1.9,-1.7 -0.8,-0.4 -1.7,-0.6 -2.8,-0.6 -1.1,0 -2,0.2 -2.8,0.6 -0.8,0.4 -1.4,1 -1.9,1.7 -0.5,0.7 -0.9,1.5 -1.1,2.3 -0.2,0.9 -0.3,1.7 -0.3,2.6 0,0.9 0.1,1.8 0.3,2.6 0.2,0.9 0.6,1.6 1.1,2.3 0.5,0.7 1.1,1.2 1.9,1.7 0.8,0.4 1.7,0.6 2.8,0.6 0.8,0 1.6,-0.2 2.4,-0.5 l -1.9,-1.6 1.2,-1.4 2.4,1.9 0,0 z m 0.2,2.5 c -1.2,0.7 -2.6,1 -4.2,1 -1.4,0 -2.6,-0.2 -3.7,-0.7 -1.1,-0.5 -1.9,-1.2 -2.6,-2 -0.7,-0.9 -1.2,-1.8 -1.6,-2.9 -0.4,-1.1 -0.5,-2.3 -0.5,-3.5 0,-1.2 0.2,-2.4 0.5,-3.5 0.4,-1.1 0.9,-2.1 1.6,-2.9 0.7,-0.9 1.6,-1.5 2.6,-2 1,-0.5 2.3,-0.8 3.7,-0.8 1.4,0 2.6,0.3 3.7,0.8 1.1,0.5 1.9,1.2 2.6,2 0.7,0.9 1.2,1.8 1.6,2.9 0.4,1.1 0.5,2.3 0.5,3.5 0,1.3 -0.2,2.6 -0.7,3.8 -0.4,1.2 -1.1,2.3 -2,3.2 l 2.3,1.8 -1.2,1.5 -2.6,-2.2 0,0 z"
   id="path317"
   style="fill:#b1b1b1" />
	</g>
</g>
<g
   id="g319">
	<path
   d="m 14.5,637.2 c 0.1,0.3 0.3,0.5 0.5,0.6 0.2,0.2 0.5,0.3 0.8,0.4 0.3,0.1 0.6,0.1 0.9,0.1 0.2,0 0.4,0 0.7,-0.1 0.2,0 0.5,-0.1 0.7,-0.2 0.2,-0.1 0.4,-0.2 0.5,-0.4 0.1,-0.2 0.2,-0.4 0.2,-0.7 0,-0.3 -0.1,-0.5 -0.3,-0.7 -0.2,-0.2 -0.4,-0.3 -0.7,-0.5 -0.3,-0.1 -0.7,-0.2 -1,-0.3 -0.4,-0.1 -0.8,-0.2 -1.2,-0.3 -0.4,-0.1 -0.8,-0.2 -1.2,-0.4 -0.4,-0.1 -0.7,-0.3 -1,-0.6 -0.3,-0.2 -0.6,-0.5 -0.7,-0.9 -0.2,-0.4 -0.3,-0.8 -0.3,-1.3 0,-0.6 0.1,-1.1 0.4,-1.5 0.2,-0.4 0.6,-0.8 0.9,-1 0.4,-0.3 0.8,-0.5 1.3,-0.6 0.5,-0.1 1,-0.2 1.5,-0.2 0.6,0 1.1,0.1 1.7,0.2 0.5,0.1 1,0.3 1.4,0.6 0.4,0.3 0.7,0.7 1,1.1 0.2,0.4 0.4,1 0.4,1.6 h -2.3 c 0,-0.3 -0.1,-0.6 -0.2,-0.8 -0.1,-0.2 -0.3,-0.4 -0.5,-0.5 -0.2,-0.1 -0.4,-0.2 -0.7,-0.3 -0.3,-0.1 -0.5,-0.1 -0.8,-0.1 -0.2,0 -0.4,0 -0.6,0.1 -0.2,0 -0.4,0.1 -0.5,0.2 -0.2,0.1 -0.3,0.2 -0.4,0.4 -0.1,0.2 -0.2,0.3 -0.2,0.6 0,0.2 0,0.4 0.1,0.5 0.1,0.1 0.2,0.3 0.5,0.4 0.2,0.1 0.6,0.2 1,0.3 0.4,0.1 1,0.3 1.7,0.4 0.2,0 0.5,0.1 0.9,0.2 0.4,0.1 0.7,0.3 1.1,0.5 0.4,0.2 0.7,0.6 0.9,0.9 0.3,0.4 0.4,0.9 0.4,1.5 0,0.5 -0.1,1 -0.3,1.4 -0.2,0.4 -0.5,0.8 -0.9,1.1 -0.4,0.3 -0.9,0.6 -1.4,0.7 -0.6,0.2 -1.2,0.3 -2,0.3 -0.6,0 -1.2,-0.1 -1.8,-0.2 -0.6,-0.1 -1.1,-0.4 -1.5,-0.7 -0.4,-0.3 -0.8,-0.7 -1,-1.2 -0.2,-0.5 -0.4,-1.1 -0.4,-1.8 h 2.3 c -0.1,0.6 -0.1,0.9 0.1,1.2 z"
   id="path321"
   style="fill:#231f20" />
	<path
   d="m 24.4,632 v 1 l 0,0 c 0.3,-0.4 0.6,-0.7 1,-0.9 0.4,-0.2 0.9,-0.3 1.4,-0.3 0.6,0 1.2,0.1 1.6,0.4 0.5,0.2 0.8,0.5 1.1,0.9 0.3,0.4 0.5,0.8 0.7,1.4 0.1,0.5 0.2,1.1 0.2,1.6 0,0.5 -0.1,1 -0.2,1.5 -0.1,0.5 -0.4,0.9 -0.7,1.3 -0.3,0.4 -0.7,0.7 -1.1,0.9 -0.4,0.2 -0.9,0.3 -1.5,0.3 -0.5,0 -0.9,-0.1 -1.4,-0.3 -0.4,-0.2 -0.8,-0.5 -1,-0.9 l 0,0 v 3.8 H 22.3 V 632 h 2.1 z m 2.9,6.3 c 0.2,-0.1 0.4,-0.3 0.6,-0.6 0.1,-0.2 0.3,-0.5 0.3,-0.8 0,-0.3 0.1,-0.6 0.1,-0.9 0,-0.3 0,-0.6 -0.1,-0.9 -0.1,-0.3 -0.2,-0.6 -0.3,-0.8 -0.2,-0.2 -0.4,-0.4 -0.6,-0.6 -0.2,-0.1 -0.5,-0.2 -0.9,-0.2 -0.4,0 -0.7,0.1 -0.9,0.2 -0.2,0.1 -0.4,0.3 -0.6,0.6 -0.1,0.2 -0.3,0.5 -0.3,0.8 0,0.3 -0.1,0.6 -0.1,1 0,0.3 0,0.6 0.1,0.9 0.1,0.3 0.2,0.6 0.3,0.8 0.1,0.2 0.3,0.4 0.6,0.6 0.2,0.1 0.5,0.2 0.9,0.2 0.3,-0.1 0.6,-0.2 0.9,-0.3 z"
   id="path323"
   style="fill:#231f20" />
	<path
   d="m 31.8,634.2 c 0.2,-0.5 0.5,-1 0.8,-1.3 0.4,-0.4 0.8,-0.6 1.3,-0.8 0.5,-0.2 1.1,-0.3 1.7,-0.3 0.6,0 1.2,0.1 1.7,0.3 0.5,0.2 0.9,0.5 1.3,0.8 0.4,0.4 0.6,0.8 0.8,1.3 0.2,0.5 0.3,1.1 0.3,1.7 0,0.6 -0.1,1.2 -0.3,1.7 -0.2,0.5 -0.5,1 -0.8,1.3 -0.4,0.4 -0.8,0.6 -1.3,0.8 -0.5,0.2 -1.1,0.3 -1.7,0.3 -0.6,0 -1.2,-0.1 -1.7,-0.3 -0.5,-0.2 -0.9,-0.5 -1.3,-0.8 -0.4,-0.4 -0.6,-0.8 -0.8,-1.3 -0.2,-0.5 -0.3,-1.1 -0.3,-1.7 0,-0.6 0.1,-1.2 0.3,-1.7 z m 2,2.7 c 0.1,0.3 0.2,0.6 0.3,0.8 0.1,0.2 0.3,0.4 0.6,0.6 0.2,0.1 0.6,0.2 0.9,0.2 0.4,0 0.7,-0.1 0.9,-0.2 0.3,-0.1 0.5,-0.3 0.6,-0.6 0.1,-0.3 0.3,-0.5 0.3,-0.8 0.1,-0.3 0.1,-0.6 0.1,-0.9 0,-0.3 0,-0.6 -0.1,-0.9 -0.1,-0.3 -0.2,-0.6 -0.3,-0.8 -0.1,-0.2 -0.3,-0.4 -0.6,-0.6 -0.3,-0.2 -0.6,-0.2 -0.9,-0.2 -0.4,0 -0.7,0.1 -0.9,0.2 -0.2,0.1 -0.4,0.3 -0.6,0.6 -0.1,0.2 -0.3,0.5 -0.3,0.8 0,0.3 -0.1,0.6 -0.1,0.9 0,0.3 0,0.6 0.1,0.9 z"
   id="path325"
   style="fill:#231f20" />
	<path
   d="m 43.2,632 v 1.1 l 0,0 c 0.3,-0.5 0.6,-0.8 1.1,-1 0.5,-0.2 0.9,-0.3 1.4,-0.3 0.6,0 1.1,0.1 1.4,0.2 0.3,0.1 0.7,0.4 0.9,0.7 0.2,0.3 0.4,0.6 0.5,1 0.1,0.4 0.1,0.9 0.1,1.3 v 4.9 h -2.2 v -4.5 c 0,-0.7 -0.1,-1.1 -0.3,-1.5 -0.2,-0.4 -0.6,-0.5 -1.1,-0.5 -0.6,0 -1,0.2 -1.3,0.5 -0.3,0.4 -0.4,0.9 -0.4,1.7 v 4.3 H 41.1 V 632 h 2.1 z"
   id="path327"
   style="fill:#231f20" />
	<path
   d="m 52.1,637.9 c 0.1,0.2 0.2,0.3 0.4,0.4 0.2,0.1 0.3,0.2 0.5,0.2 0.2,0.1 0.4,0.1 0.6,0.1 0.2,0 0.3,0 0.5,-0.1 0.2,0 0.3,-0.1 0.5,-0.2 0.1,-0.1 0.3,-0.2 0.3,-0.3 0.1,-0.1 0.1,-0.3 0.1,-0.5 0,-0.3 -0.2,-0.6 -0.7,-0.7 -0.4,-0.2 -1,-0.3 -1.8,-0.5 -0.3,-0.1 -0.6,-0.2 -0.9,-0.3 -0.3,-0.1 -0.6,-0.2 -0.8,-0.4 -0.2,-0.2 -0.4,-0.4 -0.6,-0.6 -0.2,-0.2 -0.2,-0.5 -0.2,-0.9 0,-0.5 0.1,-0.9 0.3,-1.3 0.2,-0.3 0.5,-0.6 0.8,-0.8 0.3,-0.2 0.7,-0.3 1.1,-0.4 0.4,-0.1 0.8,-0.1 1.3,-0.1 0.4,0 0.8,0 1.3,0.1 0.4,0.1 0.8,0.2 1.1,0.4 0.3,0.2 0.6,0.5 0.8,0.8 0.2,0.3 0.3,0.7 0.4,1.2 H 55 c 0,-0.4 -0.2,-0.7 -0.5,-0.9 -0.3,-0.1 -0.6,-0.2 -1,-0.2 -0.1,0 -0.3,0 -0.4,0 -0.1,0 -0.3,0 -0.4,0.1 -0.1,0.1 -0.2,0.1 -0.3,0.2 -0.1,0.1 -0.1,0.2 -0.1,0.4 0,0.2 0.1,0.4 0.2,0.5 0.1,0.1 0.3,0.2 0.6,0.3 0.3,0.1 0.5,0.1 0.8,0.2 0.3,0.1 0.6,0.1 0.9,0.2 0.3,0.1 0.6,0.2 0.9,0.3 0.3,0.1 0.6,0.2 0.8,0.4 0.2,0.2 0.4,0.4 0.6,0.6 0.2,0.2 0.2,0.6 0.2,0.9 0,0.5 -0.1,1 -0.3,1.3 -0.2,0.4 -0.5,0.6 -0.8,0.9 -0.3,0.2 -0.7,0.4 -1.2,0.5 -0.4,0.1 -0.9,0.1 -1.3,0.1 -0.5,0 -0.9,0 -1.4,-0.1 -0.4,-0.1 -0.8,-0.2 -1.2,-0.5 -0.3,-0.2 -0.6,-0.5 -0.8,-0.9 -0.2,-0.4 -0.3,-0.8 -0.4,-1.3 H 52 c -0.1,0.6 0,0.8 0.1,0.9 z"
   id="path329"
   style="fill:#231f20" />
	<path
   d="m 58.5,634.2 c 0.2,-0.5 0.5,-1 0.8,-1.3 0.4,-0.4 0.8,-0.6 1.3,-0.8 0.5,-0.2 1.1,-0.3 1.7,-0.3 0.6,0 1.2,0.1 1.7,0.3 0.5,0.2 0.9,0.5 1.3,0.8 0.4,0.4 0.6,0.8 0.8,1.3 0.2,0.5 0.3,1.1 0.3,1.7 0,0.6 -0.1,1.2 -0.3,1.7 -0.2,0.5 -0.5,1 -0.8,1.3 -0.4,0.4 -0.8,0.6 -1.3,0.8 -0.5,0.2 -1.1,0.3 -1.7,0.3 -0.6,0 -1.2,-0.1 -1.7,-0.3 -0.5,-0.2 -0.9,-0.5 -1.3,-0.8 -0.4,-0.4 -0.6,-0.8 -0.8,-1.3 -0.2,-0.5 -0.3,-1.1 -0.3,-1.7 0,-0.6 0.1,-1.2 0.3,-1.7 z m 2,2.7 c 0.1,0.3 0.2,0.6 0.3,0.8 0.1,0.2 0.3,0.4 0.6,0.6 0.2,0.1 0.6,0.2 0.9,0.2 0.4,0 0.7,-0.1 0.9,-0.2 0.3,-0.1 0.5,-0.3 0.6,-0.6 0.1,-0.3 0.3,-0.5 0.3,-0.8 0.1,-0.3 0.1,-0.6 0.1,-0.9 0,-0.3 0,-0.6 -0.1,-0.9 -0.1,-0.3 -0.2,-0.6 -0.3,-0.8 -0.1,-0.2 -0.3,-0.4 -0.6,-0.6 -0.3,-0.2 -0.6,-0.2 -0.9,-0.2 -0.4,0 -0.7,0.1 -0.9,0.2 -0.2,0.1 -0.4,0.3 -0.6,0.6 -0.1,0.2 -0.3,0.5 -0.3,0.8 0,0.3 -0.1,0.6 -0.1,0.9 0,0.3 0,0.6 0.1,0.9 z"
   id="path331"
   style="fill:#231f20" />
	<path
   d="m 69.9,632 v 1.5 l 0,0 c 0.1,-0.2 0.2,-0.5 0.4,-0.7 0.2,-0.2 0.4,-0.4 0.6,-0.5 0.2,-0.1 0.5,-0.3 0.7,-0.3 0.2,0 0.5,-0.1 0.8,-0.1 0.1,0 0.3,0 0.5,0.1 v 2 c -0.1,0 -0.2,0 -0.4,-0.1 -0.1,0 -0.3,0 -0.4,0 -0.4,0 -0.7,0.1 -1,0.2 -0.3,0.1 -0.5,0.3 -0.7,0.5 -0.2,0.2 -0.3,0.5 -0.4,0.8 -0.1,0.3 -0.1,0.6 -0.1,1 v 3.5 H 67.7 V 632 h 2.2 z"
   id="path333"
   style="fill:#231f20" />
</g>
<g
   id="g335">
	<rect
   width="16"
   height="16"
   x="14.4"
   y="498.29999"
   id="rect337"
   style="fill:#3a589a" />
	<path
   d="m 24.7,513.3 h -2.1 v -5.5 h -1.4 v -1.9 h 1.4 v -1.1 c 0,-1.6 0.4,-2.5 2.3,-2.5 h 1.5 v 1.9 h -1 c -0.7,0 -0.7,0.3 -0.7,0.8 v 1 h 1.7 l -0.2,1.9 h -1.5 l 0,5.4 0,0 z"
   id="path339"
   style="fill:#ffffff" />
</g>
<g
   id="g341">
	<rect
   width="16"
   height="16"
   x="32.400002"
   y="498.29999"
   id="rect343"
   style="fill:#dd4b39" />
	<path
   d="m 40.8,502 c 0,0 -2,0 -2.7,0 -1.2,0 -2.3,0.9 -2.3,2 0,1.1 0.8,1.9 2,1.9 0.1,0 0.2,0 0.2,0 -0.1,0.2 -0.1,0.3 -0.1,0.5 0,0.3 0.2,0.5 0.4,0.7 -0.2,0 -0.3,0 -0.5,0 -1.5,0 -2.6,0.9 -2.6,1.9 0,1 1.3,1.6 2.7,1.6 1.7,0 2.6,-1 2.6,-1.9 0,-0.8 -0.2,-1.2 -0.9,-1.7 -0.2,-0.2 -0.7,-0.6 -0.7,-0.8 0,-0.3 0.1,-0.4 0.5,-0.8 0.4,-0.3 0.8,-0.8 0.8,-1.4 0,-0.7 -0.3,-1.3 -0.9,-1.5 h 0.8 l 0.7,-0.5 0,0 z m -0.9,6.5 c 0,0.1 0,0.2 0,0.3 0,0.8 -0.5,1.4 -1.9,1.4 -1,0 -1.8,-0.6 -1.8,-1.4 0,-0.8 0.9,-1.4 1.9,-1.4 0.2,0 0.5,0 0.7,0.1 0.6,0.4 1,0.6 1.1,1 l 0,0 z m -1.6,-2.9 c -0.7,0 -1.3,-0.8 -1.5,-1.7 -0.2,-0.9 0.3,-1.6 1,-1.6 0.7,0 1.3,0.7 1.5,1.7 0.2,1 -0.3,1.6 -1,1.6 z m 5.3,-1.7 V 502 H 43 v 1.9 h -1.9 v 0.6 H 43 v 1.9 h 0.6 v -1.9 h 1.9 v -0.6 h -1.9 z"
   id="path345"
   style="fill:#ffffff" />
</g>
<g
   id="g347">
	<rect
   width="16"
   height="16"
   x="50.400002"
   y="498.29999"
   id="rect349"
   style="fill:#28aae1" />
	<path
   d="m 62.3,503.8 c -0.3,0.1 -0.6,0.2 -0.9,0.3 0.3,-0.2 0.6,-0.5 0.7,-0.9 -0.3,0.2 -0.7,0.3 -1,0.4 -0.3,-0.3 -0.7,-0.5 -1.2,-0.5 -0.9,0 -1.6,0.7 -1.6,1.6 0,0.1 0,0.3 0,0.4 -1.3,-0.1 -2.5,-0.7 -3.3,-1.7 -0.1,0.2 -0.2,0.5 -0.2,0.8 0,0.6 0.3,1.1 0.7,1.4 -0.3,0 -0.5,-0.1 -0.7,-0.2 l 0,0 c 0,0.8 0.6,1.4 1.3,1.6 -0.1,0 -0.3,0.1 -0.4,0.1 -0.1,0 -0.2,0 -0.3,0 0.2,0.6 0.8,1.1 1.5,1.1 -0.6,0.4 -1.3,0.7 -2,0.7 -0.1,0 -0.3,0 -0.4,0 0.7,0.5 1.6,0.7 2.5,0.7 3,0 4.6,-2.5 4.6,-4.6 0,-0.1 0,-0.1 0,-0.2 0.2,-0.3 0.5,-0.6 0.7,-1 l 0,0 z"
   id="path351"
   style="fill:#ffffff" />
</g>
<g
   id="g353">
	<path
   d="m 23.9,616.7 c 0,-0.1 0.1,-0.2 0.1,-0.3 0.8,-3.7 1.8,-7.2 2.8,-10.7 0.1,-0.3 0.2,-0.3 0.4,-0.3 1.8,0 3.7,0 5.5,0 0.2,0 0.4,0 0.4,0.3 0,1.1 0.1,2.3 0.2,3.4 0.1,1.7 0.2,3.5 0.3,5.2 0,1 0.1,1.9 0.1,2.9 0.1,1.8 0.2,3.6 0.3,5.4 0,0.6 0,0.6 -0.5,0.6 -1.3,0 -2.5,0 -3.8,0 -0.3,0 -0.3,-0.1 -0.3,-0.4 0,-1.6 -0.1,-3.1 -0.1,-4.7 0,-1.6 -0.1,-3.2 -0.1,-4.9 0,-1 0,-2.1 0,-3.1 0,-0.2 0,-0.4 0,-0.6 h -0.1 c -0.1,0.2 -0.1,0.4 -0.2,0.6 -0.9,3.2 -1.7,6.3 -2.6,9.5 -0.3,0.9 -0.5,1.9 -0.8,2.8 -0.1,0.2 -0.2,0.3 -0.4,0.3 -1,0 -2.1,0 -3.1,0 -0.2,0 -0.3,-0.1 -0.4,-0.3 -0.7,-2.9 -1.4,-5.8 -2,-8.7 -0.3,-1.3 -0.5,-2.6 -0.7,-3.9 0,-0.1 0,-0.1 -0.1,-0.3 0,0.1 -0.1,0.2 -0.1,0.3 0,1.1 -0.1,2.2 -0.1,3.2 -0.1,1.9 -0.2,3.7 -0.2,5.6 -0.1,1.4 -0.1,2.9 -0.2,4.3 0,0.1 0,0.2 -0.2,0.2 -1.3,0 -2.7,0 -4,0 h -0.1 c 0,-0.2 0,-0.5 0,-0.7 0.1,-1.3 0.2,-2.6 0.2,-3.8 0.1,-1.8 0.2,-3.5 0.3,-5.3 0.1,-1.2 0.1,-2.3 0.2,-3.5 0.1,-1.4 0.2,-2.7 0.2,-4.1 0,-0.3 0.1,-0.4 0.4,-0.4 1.9,0 3.8,0 5.7,0 0.3,0 0.4,0.1 0.4,0.3 0.6,2.7 1.3,5.4 1.9,8.2 0.2,0.9 0.3,1.7 0.5,2.6 0.1,0.1 0.1,0.2 0.2,0.3 0,-0.1 0,-0.1 0,0 z"
   id="path355"
   style="fill:#349e45" />
	<path
   d="m 64.5,611.5 c 0.1,-0.1 0.1,-0.2 0.2,-0.3 1.6,-1.7 4.6,-1.9 6.2,-0.3 0.8,0.8 1.2,1.8 1.4,2.9 0.1,0.6 0.1,1.1 0.1,1.7 0,2.4 0,4.8 0,7.2 0,0.4 0,0.4 -0.4,0.4 -1.3,0 -2.6,0 -3.9,0 -0.2,0 -0.3,-0.1 -0.3,-0.3 0,-2.2 0,-4.5 0,-6.7 0,-0.5 -0.1,-1 -0.2,-1.5 -0.2,-0.8 -0.9,-1.1 -1.8,-1 -0.7,0.1 -1.3,0.7 -1.4,1.4 0,0.2 -0.1,0.5 -0.1,0.7 0,2.3 0,4.7 0,7 0,0.3 -0.1,0.4 -0.3,0.4 -1.3,0 -2.7,0 -4,0 -0.3,0 -0.4,-0.1 -0.4,-0.4 0,-4.7 0,-9.4 0,-14.1 0,-1.3 0,-2.6 0,-3.9 0,-0.2 0.1,-0.3 0.3,-0.3 1.4,0 2.7,0 4.1,0 0.2,0 0.3,0.1 0.3,0.3 0,2.1 0,4.3 0,6.4 0,0.1 0,0.2 0,0.3 0.1,0.1 0.2,0.1 0.2,0.1 z"
   id="path357"
   style="fill:#349e45" />
	<path
   d="m 97.3,623.1 c -1.4,0 -2.8,0 -4.2,0 -0.1,-0.4 -0.2,-0.7 -0.3,-1.2 -0.1,0.1 -0.2,0.2 -0.2,0.2 -1.6,1.6 -4.7,1.7 -6.4,0.2 -1.9,-1.7 -1.8,-5.2 0.6,-6.7 1,-0.7 2.1,-1 3.3,-1.2 0.8,-0.1 1.5,-0.2 2.3,-0.2 0.1,-0.4 -0.1,-0.7 -0.5,-0.9 -0.5,-0.3 -1.1,-0.3 -1.7,-0.3 -1.3,0 -2.2,0.3 -3.6,1 0,-0.1 -0.1,-0.2 -0.1,-0.2 -0.2,-0.9 -0.5,-1.7 -0.7,-2.6 0,-0.2 0,-0.2 0.1,-0.3 2.5,-1.1 5,-1.4 7.6,-0.8 2.1,0.5 3.2,2 3.5,4.1 0.1,0.5 0.1,1.1 0.1,1.6 0,1.9 0,3.8 0,5.7 0.1,0.5 0.2,1.1 0.2,1.6 z m -4.8,-5.9 c -0.3,0 -0.7,0 -1,0.1 -0.5,0.1 -1.1,0.2 -1.5,0.5 -0.7,0.5 -0.7,1.6 0,2.1 0.9,0.6 2.3,0 2.5,-1 0,-0.6 0,-1.1 0,-1.7 z"
   id="path359"
   style="fill:#231f20" />
	<path
   d="m 109.8,612.3 c 0.4,-0.1 0.8,-0.2 1.2,-0.3 h 0.1 c 0.3,0 0.5,-0.1 0.7,0.2 0.1,0.3 -0.1,0.5 -0.2,0.6 -1.1,1.2 -2.2,2.4 -3.4,3.5 -0.2,0.2 -0.4,0.4 -0.6,0.6 0.8,1.2 1.9,2 3.3,2.3 0.3,0.1 0.6,0.1 0.9,0.2 0.5,0.1 0.9,0.4 1.2,0.8 0.4,0.6 0.6,1.2 0.4,2 -0.4,1.5 -2.4,2.3 -3.7,1.5 -0.4,-0.3 -0.6,-0.7 -0.7,-1.1 -0.2,-0.7 -0.4,-1.4 -1,-1.9 -0.6,-0.6 -1.3,-1.3 -2,-1.8 -0.8,-0.6 -1.1,-0.4 -1.5,0.4 -0.3,0.7 -0.3,1.4 -0.4,2.1 -0.1,0.5 -0.2,1 -0.4,1.4 -0.3,0.8 -1,1.3 -1.9,1.4 -1.1,0.1 -2,-0.3 -2.6,-1.2 -0.3,-0.4 -0.3,-0.9 -0.2,-1.4 0.1,-0.3 0.2,-0.6 0.3,-0.9 -0.2,0 -0.4,0 -0.6,0 -0.5,0 -0.7,-0.4 -0.4,-0.8 0.4,-0.6 0.9,-1.1 1.4,-1.7 0.8,-0.8 1.7,-1.6 2.5,-2.4 0.2,-0.1 0.2,-0.2 0.1,-0.4 -0.4,-0.9 -0.9,-1.6 -1.6,-2.3 -0.5,-0.5 -1.1,-0.6 -1.7,-0.8 -0.3,-0.1 -0.6,-0.2 -0.9,-0.3 -1.2,-0.5 -1.6,-1.7 -1,-2.8 0.2,-0.3 0.4,-0.6 0.7,-0.9 0.4,-0.4 1,-0.5 1.6,-0.4 0.8,0.2 1.4,0.7 1.7,1.5 0.2,0.4 0.3,0.8 0.5,1.1 0.5,1.2 1.5,1.9 2.7,2.3 0.9,0.3 1.6,-0.2 1.9,-1 0.1,-0.4 0.2,-0.8 0.2,-1.1 0.1,-0.7 0.4,-1.3 0.9,-1.7 0.6,-0.5 1.4,-0.6 2.1,-0.2 0.5,0.3 0.9,0.7 1.1,1.1 0.3,0.6 0.3,1.2 -0.1,1.7 -0.3,0.3 -0.5,0.5 -0.6,0.7 z m -0.4,6.8 c -0.1,0 -0.2,0.1 -0.2,0.1 0,0.1 0,0.2 0.1,0.3 0.1,0.1 0.3,0.3 0.5,0.4 0.8,0.5 1.6,0.9 2.5,1.3 0.1,0 0.2,0 0.2,0 0,-0.1 0.1,-0.2 0,-0.3 -0.1,-0.2 -0.2,-0.3 -0.3,-0.4 -0.7,-0.6 -1.5,-1.1 -2.4,-1.4 -0.2,0.1 -0.3,0 -0.4,0 z m 1.8,-6.8 0,0 c -0.1,0 -0.2,0 -0.2,0 -1.9,0.7 -3.9,1.5 -5.8,2.2 -0.1,0.1 -0.3,0.1 -0.4,0.2 l -0.1,0.2 c 0.1,0.2 0.5,0.2 0.6,0 0.1,-0.3 0.4,-0.4 0.7,-0.6 1.6,-0.6 3.3,-1.3 4.9,-1.9 0.1,0 0.2,0 0.3,-0.1 z m -11.1,8.2 c 0,0 -0.1,0 0,0 -0.2,0 -0.3,0.1 -0.3,0.2 -0.5,0.5 -0.6,1.6 -0.3,2.2 0.1,0.2 0.3,0.4 0.6,0.4 0.3,0.1 0.4,-0.1 0.3,-0.3 0,-0.1 -0.1,-0.2 -0.1,-0.3 -0.2,-0.3 -0.3,-0.6 -0.4,-0.9 -0.1,-0.3 -0.1,-0.6 0.1,-0.9 0,-0.2 0,-0.3 0.1,-0.4 z M 99,608.4 c -0.1,0.1 -0.3,0.2 -0.4,0.3 0,0.1 0,0.3 0.1,0.4 0,0.1 0.1,0.2 0.2,0.2 0.1,0.1 0.3,0.1 0.4,0 0.2,-0.1 0.3,-0.3 0.4,-0.5 0,0 0,-0.1 -0.1,-0.2 -0.1,0 -0.3,-0.1 -0.6,-0.2 z m 9.7,1.7 c 0.3,0 0.6,-0.2 0.6,-0.5 0,-0.2 -0.2,-0.4 -0.5,-0.4 -0.4,0 -0.6,0.2 -0.6,0.5 0.1,0.3 0.2,0.4 0.5,0.4 z m -9.6,9.3 c 1,-1 2,-1.9 3,-2.8 l -0.1,-0.1 c -1,0.9 -2,1.7 -2.9,2.9 z"
   id="path361"
   style="fill:#231f20" />
	<path
   d="m 79.1,605.3 c 1.6,0 3.2,0 4.8,0 0,0.1 0,0.2 0,0.3 0,3.7 0,7.3 0,11 0,1.1 -0.2,2.2 -0.6,3.3 -0.6,1.5 -1.7,2.6 -3.3,3.1 -2,0.6 -4.1,0.5 -6.1,0 0.2,-1.3 0.4,-2.5 0.5,-3.8 0.5,0.1 0.9,0.2 1.4,0.2 0.4,0 0.8,0.1 1.1,0 1.2,-0.1 1.9,-0.8 2,-2 0.1,-0.4 0.1,-0.7 0.1,-1.1 0,-3.5 0,-7.1 0,-10.6 0.1,-0.1 0.1,-0.2 0.1,-0.4 z"
   id="path363"
   style="fill:#231f20" />
	<path
   d="m 54.7,606.5 c 0,0.4 0,0.7 0,1.1 0,0.7 0,1.5 0,2.2 0,0.3 0.1,0.4 0.4,0.4 0.7,0 1.3,0 2,0 0.2,0 0.4,0.1 0.3,0.3 0,0.9 0,1.9 0,2.8 0,0.2 -0.1,0.3 -0.3,0.3 -0.7,0 -1.4,0 -2.1,0 -0.2,0 -0.3,0 -0.3,0.3 0,1.3 0,2.6 0,3.9 0,0.2 0,0.4 0.1,0.6 0.2,0.8 0.7,1.2 1.6,1.1 0.3,0 0.6,0 1,-0.1 0,0.3 0,0.5 0,0.8 0,0.8 0,1.6 0,2.5 0,0.1 0,0.3 -0.2,0.3 -1.4,0.3 -2.8,0.5 -4.2,0.1 -1.5,-0.4 -2.4,-1.5 -2.6,-3 -0.1,-0.6 -0.2,-1.2 -0.2,-1.8 0,-1.5 0,-3 0,-4.4 0,-0.3 -0.1,-0.3 -0.3,-0.3 -0.3,0 -0.7,0 -1,0 -0.2,0 -0.2,-0.1 -0.2,-0.2 0,-1 0,-2 0,-2.9 0,-0.2 0.1,-0.3 0.3,-0.2 0.4,0 0.7,0 1.1,0 0.2,0 0.3,-0.1 0.3,-0.3 0,-0.7 0,-1.3 0,-2 0,-0.2 0.1,-0.2 0.2,-0.3 1.4,-0.4 2.8,-0.8 4.1,-1.2 -0.1,0 -0.1,0 0,0 z"
   id="path365"
   style="fill:#349e45" />
	<path
   d="m 92.5,617.2 c 0,0.6 0.1,1.2 0,1.7 -0.2,1 -1.6,1.6 -2.5,1 -0.7,-0.4 -0.6,-1.6 0,-2.1 0.4,-0.3 1,-0.5 1.5,-0.5 0.3,-0.1 0.6,-0.1 1,-0.1 z"
   id="path367"
   style="fill:#ffffff" />
	<path
   d="m 47.5,622.9 c -0.1,-0.7 -0.1,-1.3 -0.2,-2 0,-1.7 0,-3.4 0,-5.2 0,-0.6 0,-1.1 -0.1,-1.7 -0.2,-1 -0.5,-1.9 -1.3,-2.7 -1.1,-1.1 -2.4,-1.5 -3.9,-1.5 -0.9,0 -1.8,0 -2.7,0.1 -1.1,0.1 -2.1,0.4 -3.1,0.9 -0.2,0.1 -0.2,0.2 -0.2,0.4 0.2,0.6 0.3,1.2 0.5,1.7 0.1,0.3 0.2,0.6 0.3,1 0.1,0 0.1,0 0.1,0 1.1,-0.6 2.2,-0.9 3.5,-0.9 0.5,0 1.1,0 1.6,0.2 0.4,0.2 0.6,0.5 0.6,1 -0.2,0 -0.4,0 -0.6,0.1 -1.2,0 -2.4,0.2 -3.6,0.6 -2.1,0.8 -3.5,2.3 -3.3,4.8 0.1,1.4 0.8,2.4 2,3.1 0.9,0.5 1.8,0.6 2.8,0.5 1.1,-0.1 2.1,-0.4 2.9,-1.2 0.1,-0.1 0.1,-0.1 0.3,-0.2 0.1,0.3 0.2,0.6 0.2,0.8 0,0.3 0.2,0.4 0.4,0.4 1,0 2,0 3.1,0 0.2,0 0.5,0 0.8,0 -0.1,-0.1 -0.1,-0.1 -0.1,-0.2 z M 42.7,618 c 0,0.2 0,0.3 0,0.5 0,1.1 -1.1,1.9 -2.1,1.6 -0.5,-0.1 -0.8,-0.4 -0.9,-0.8 -0.1,-0.5 0,-1 0.4,-1.4 0.4,-0.4 1,-0.5 1.5,-0.6 0.3,0 0.6,-0.1 0.9,-0.1 0.1,0 0.2,0.1 0.2,0.2 0.1,0.2 0,0.4 0,0.6 l 0,0 z"
   id="path369"
   style="fill:#349e45" />
	<g
   id="g371">
		<path
   d="m 109.4,619.1 c 0.1,0 0.2,0.1 0.3,0.1 0.9,0.3 1.7,0.8 2.4,1.4 0.1,0.1 0.2,0.3 0.3,0.4 0,0.1 0,0.2 0,0.3 0,0 -0.1,0 -0.2,0 -0.8,-0.4 -1.6,-0.9 -2.5,-1.3 -0.2,-0.1 -0.4,-0.2 -0.5,-0.4 -0.1,-0.1 -0.1,-0.2 -0.1,-0.3 0.1,-0.1 0.2,-0.2 0.3,-0.2 z"
   id="path373"
   style="fill:#ffffff" />
		<path
   d="m 111.2,612.3 c -0.1,0.1 -0.2,0.1 -0.3,0.2 -1.6,0.7 -3.3,1.3 -4.9,1.9 -0.3,0.1 -0.5,0.3 -0.7,0.6 -0.1,0.2 -0.5,0.2 -0.6,0 0,-0.1 0,-0.2 0.1,-0.2 0.1,-0.1 0.2,-0.2 0.4,-0.2 1.9,-0.7 3.9,-1.5 5.8,-2.2 0.1,-0.1 0.1,-0.1 0.2,-0.1 l 0,0 z"
   id="path375"
   style="fill:#ffffff" />
		<path
   d="m 100.1,620.5 c -0.1,0.1 -0.1,0.2 -0.2,0.3 -0.2,0.3 -0.2,0.6 -0.1,0.9 0.1,0.3 0.3,0.6 0.4,0.9 0,0.1 0.1,0.2 0.1,0.3 0.1,0.3 -0.1,0.4 -0.3,0.3 -0.3,-0.1 -0.5,-0.2 -0.6,-0.4 -0.3,-0.6 -0.2,-1.7 0.3,-2.2 0.1,0 0.2,0 0.4,-0.1 -0.1,0 0,0 0,0 z"
   id="path377"
   style="fill:#ffffff" />
		<path
   d="m 99,608.4 c 0.3,0.1 0.5,0.2 0.7,0.3 0.1,0 0.1,0.1 0.1,0.2 -0.1,0.2 -0.2,0.4 -0.4,0.5 -0.1,0.1 -0.3,0 -0.4,0 -0.1,0 -0.2,-0.1 -0.2,-0.2 -0.1,-0.1 -0.1,-0.3 -0.1,-0.4 0,-0.2 0.2,-0.3 0.3,-0.4 z"
   id="path379"
   style="fill:#ffffff" />
		<path
   d="m 108.7,610.1 c -0.4,0 -0.5,-0.1 -0.5,-0.5 0,-0.3 0.2,-0.5 0.6,-0.5 0.3,0 0.5,0.2 0.5,0.4 0,0.4 -0.2,0.6 -0.6,0.6 z"
   id="path381"
   style="fill:#ffffff" />
		<path
   d="m 99.1,619.4 c 0.8,-1.1 1.9,-2 2.9,-2.9 l 0.1,0.1 c -0.9,0.9 -1.9,1.8 -3,2.8 z"
   id="path383"
   style="fill:#ffffff" />
	</g>
</g>
<path
   d="m 26.3,235 v -1.1 h -9.9 v 1.1 h -2.5 v 5.1 c 0,1 1.2,1.9 2.9,2.3 0.6,1.1 2,1.9 3.6,2.2 v 2 c -1.9,0.2 -3.3,0.8 -3.3,1.7 h 8.6 c 0,-0.8 -1.4,-1.4 -3.3,-1.7 v -2 c 1.6,-0.2 2.9,-1 3.5,-2.1 1.7,-0.4 3,-1.2 3,-2.3 V 235 c 0,0 -2.6,0 -2.6,0 z M 15,240.1 v -3.9 h 1.4 v 4.5 l 0,0 c 0,0.1 0,0.1 0,0.2 0,0 0,0 0,0.1 -0.9,-0.3 -1.4,-0.7 -1.4,-0.9 z m 8.5,2.3 -2.1,-1.5 -2.1,1.5 0.8,-2.6 -2.1,-1.5 h 2.6 l 0.8,-2.6 0.8,2.5 h 2.6 l -2.1,1.5 0.8,2.7 z m 4.2,-2.3 c 0,0.2 -0.5,0.6 -1.4,0.9 v -0.1 c 0,-0.1 0,-0.1 0,-0.2 l 0,0 v -4.5 h 1.4 v 3.9 z"
   id="path385"
   style="fill:#a1a1a1" />
<g
   id="g387">
	<g
   id="g389">
		<path
   d="m 67.3,235 h -9.9 c -0.9,0 -1.6,0.7 -1.6,1.7 v 6.7 c 0,0.9 0.7,1.7 1.6,1.7 h 5 l 1,3.1 1.9,-3.1 h 1.9 c 0.9,0 1.6,-0.7 1.6,-1.7 v -6.6 c 0.1,-0.9 -0.7,-1.8 -1.5,-1.8 z"
   id="path391"
   style="fill:#a1a1a1" />
	</g>
</g>
<g
   id="g393">
	<g
   id="g395">
		<polygon
   points="38.3,235.6 43.4,243.5 33.2,243.5 "
   id="polygon397"
   style="fill:#a1a1a1" />
		<rect
   width="3.0999999"
   height="4.1999998"
   x="36.799999"
   y="243.10001"
   id="rect399"
   style="fill:#a1a1a1" />
	</g>
	<path
   d="m 46.9,236.5 v 3 1 h 1 1.9 l -3.5,5.4 -3.5,-5.4 h 1.9 1 v -1 -3 h 1.2 m 0.9,-1 h -3.2 v 3.9 h -3.7 l 5.3,8.2 5.3,-8.2 h -3.7 l 0,-3.9 0,0 z"
   id="path401"
   style="fill:#a1a1a1" />
</g>
<g
   id="g403">
	<path
   d="m 88.9,235.2 -1.5,-1.5 c -0.4,-0.4 -1,-0.4 -1.4,0 l -1,0.9 2.8,3 1,-0.9 c 0.4,-0.5 0.5,-1.1 0.1,-1.5 z m -11.7,7.1 2.8,3 6.9,-6.8 -2.8,-3 -6.9,6.8 z m -1.7,4.6 3.3,-0.5 -2.7,-2.9 -0.6,3.4 z"
   id="pensil_2_"
   style="fill:#a1a1a1" />
</g>
<polygon
   points="141.3,573.6 137.3,579.6 133.3,573.6 "
   id="polygon406"
   style="fill:#888888" />
<polygon
   points="141.3,542.6 137.3,548.6 133.3,542.6 "
   id="polygon408"
   style="fill:#888888" />
<g
   id="g410">
	<g
   id="g412">
		<path
   d="m 37.7,580.7 c -1.5,0 -2.5,-0.3 -3.4,-1.3 l 1,-1 c 0.7,0.7 1.5,0.9 2.5,0.9 1.3,0 2,-0.5 2,-1.5 0,-0.4 -0.1,-0.8 -0.4,-1 -0.2,-0.2 -0.5,-0.3 -1.1,-0.4 l -1.1,-0.2 c -0.8,-0.1 -1.4,-0.4 -1.8,-0.8 -0.5,-0.4 -0.7,-1.1 -0.7,-1.8 0,-1.7 1.2,-2.8 3.2,-2.8 1.3,0 2.2,0.3 3,1.1 l -0.9,0.9 c -0.6,-0.6 -1.3,-0.7 -2.1,-0.7 -1.1,0 -1.8,0.7 -1.8,1.5 0,0.4 0.1,0.7 0.4,0.9 0.2,0.2 0.6,0.4 1.1,0.4 l 1.1,0.2 c 0.9,0.1 1.4,0.4 1.8,0.7 0.5,0.5 0.8,1.2 0.8,2 -0.1,1.8 -1.5,2.9 -3.6,2.9 z"
   id="path414"
   style="fill:#12110b" />
		<path
   d="m 45.1,580.6 c -1.3,0 -1.9,-0.9 -1.9,-1.9 v -3.8 h -0.8 v -1.1 h 0.8 v -2.1 h 1.4 v 2.1 h 1.3 v 1.1 h -1.3 v 3.7 c 0,0.5 0.2,0.8 0.8,0.8 H 46 v 1.2 h -0.9 z"
   id="path416"
   style="fill:#12110b" />
		<path
   d="M 51.3,580.6 V 580 c -0.5,0.5 -1,0.7 -1.8,0.7 -0.9,0 -1.4,-0.2 -1.8,-0.6 -0.4,-0.4 -0.5,-0.9 -0.5,-1.5 0,-1.2 0.8,-2 2.4,-2 h 1.8 v -0.5 c 0,-0.9 -0.4,-1.3 -1.5,-1.3 -0.8,0 -1.1,0.2 -1.5,0.7 l -1,-0.9 c 0.7,-0.8 1.3,-1 2.5,-1 1.9,0 2.8,0.8 2.8,2.4 v 4.6 l -1.4,0 0,0 z m 0,-3.1 h -1.6 c -0.8,0 -1.2,0.4 -1.2,1 0,0.6 0.4,1 1.3,1 0.5,0 0.9,0 1.3,-0.4 0.2,-0.2 0.3,-0.5 0.3,-1 l -0.1,-0.6 0,0 z"
   id="path418"
   style="fill:#12110b" />
		<path
   d="m 57.6,580.7 c -1.5,0 -3.1,-1 -3.1,-3.5 0,-2.6 1.5,-3.5 3.1,-3.5 1,0 1.6,0.3 2.3,1 l -1,0.9 c -0.4,-0.5 -0.8,-0.7 -1.3,-0.7 -0.5,0 -1,0.2 -1.3,0.6 -0.3,0.4 -0.4,0.9 -0.4,1.7 0,0.8 0.1,1.3 0.4,1.7 0.3,0.4 0.7,0.6 1.3,0.6 0.5,0 0.9,-0.2 1.3,-0.7 l 1,0.9 c -0.7,0.7 -1.4,1 -2.3,1 z"
   id="path420"
   style="fill:#12110b" />
		<path
   d="m 65.8,580.6 -1.9,-3.2 -1,1.2 v 2 h -1.5 v -9.7 h 1.4 v 6 l 2.7,-3.2 h 1.7 l -2.4,2.7 2.7,4.2 h -1.7 z"
   id="path422"
   style="fill:#12110b" />
		<path
   d="m 68.9,580.6 v -9.7 h 6.4 v 1.7 h -4.5 v 2.3 h 3.8 v 1.7 h -3.8 v 2.4 h 4.5 v 1.6 h -6.4 z"
   id="path424"
   style="fill:#2f96e8" />
		<path
   d="m 80.9,580.6 -1.3,-2.1 -1.3,2.1 h -2.1 l 2.4,-3.6 -2.4,-3.5 h 2.2 l 1.2,2 1.2,-2 h 2.1 l -2.4,3.5 2.4,3.6 h -2 z"
   id="path426"
   style="fill:#2f96e8" />
		<path
   d="m 86.7,580.7 c -1.4,0 -3.2,-0.8 -3.2,-3.6 0,-2.9 1.8,-3.6 3.2,-3.6 1,0 1.7,0.3 2.3,1 l -1.2,1.1 c -0.4,-0.4 -0.7,-0.6 -1.1,-0.6 -0.4,0 -0.7,0.1 -1,0.5 -0.3,0.3 -0.4,0.8 -0.4,1.6 0,0.7 0.1,1.2 0.4,1.6 0.3,0.3 0.6,0.5 1,0.5 0.5,0 0.8,-0.2 1.1,-0.6 l 1.2,1.2 c -0.6,0.5 -1.3,0.9 -2.3,0.9 z"
   id="path428"
   style="fill:#2f96e8" />
		<path
   d="m 94.5,580.6 v -4.3 c 0,-0.9 -0.6,-1.3 -1.2,-1.3 -0.6,0 -1.1,0.3 -1.1,1.3 v 4.3 h -1.8 v -9.7 h 1.8 v 3.2 c 0.5,-0.5 1.1,-0.7 1.7,-0.7 1.5,0 2.4,1.1 2.4,2.6 v 4.6 l -1.8,0 0,0 z"
   id="path430"
   style="fill:#2f96e8" />
		<path
   d="M 101.8,580.6 V 580 c -0.5,0.5 -0.9,0.7 -1.7,0.7 -0.8,0 -1.4,-0.2 -1.8,-0.6 -0.4,-0.4 -0.6,-1 -0.6,-1.6 0,-1.1 0.8,-2.1 2.4,-2.1 h 1.7 V 576 c 0,-0.8 -0.4,-1.1 -1.3,-1.1 -0.7,0 -1,0.2 -1.4,0.6 L 98,574.4 c 0.7,-0.8 1.4,-1 2.6,-1 2,0 3,0.8 3,2.5 v 4.7 l -1.8,0 0,0 z m -0.1,-3 h -1.4 c -0.6,0 -1,0.3 -1,0.8 0,0.5 0.3,0.8 1,0.8 0.5,0 0.8,0 1.1,-0.3 0.2,-0.2 0.3,-0.5 0.3,-0.9 v -0.4 z"
   id="path432"
   style="fill:#2f96e8" />
		<path
   d="m 109.5,580.6 v -4.3 c 0,-1 -0.6,-1.3 -1.2,-1.3 -0.6,0 -1.2,0.3 -1.2,1.3 v 4.3 h -1.7 v -7.1 h 1.7 v 0.7 c 0.5,-0.5 1.1,-0.7 1.8,-0.7 0.7,0 1.3,0.2 1.7,0.6 0.6,0.6 0.7,1.2 0.7,2 v 4.5 h -1.8 z"
   id="path434"
   style="fill:#2f96e8" />
		<path
   d="m 115.6,583.2 c -1.1,0 -1.8,-0.2 -2.6,-0.9 l 1.1,-1.1 c 0.4,0.4 0.8,0.5 1.4,0.5 1.1,0 1.4,-0.7 1.4,-1.5 v -0.6 c -0.5,0.5 -1,0.7 -1.7,0.7 -0.7,0 -1.3,-0.2 -1.7,-0.6 -0.7,-0.7 -0.7,-1.6 -0.7,-2.8 0,-1.2 0.1,-2.1 0.7,-2.8 0.4,-0.4 1,-0.6 1.7,-0.6 0.7,0 1.2,0.2 1.7,0.7 v -0.7 h 1.7 v 6.8 c 0.1,1.7 -1.1,2.9 -3,2.9 z m 0.2,-8.2 c -1,0 -1.2,0.9 -1.2,1.8 0,0.9 0.1,1.8 1.2,1.8 1,0 1.2,-0.9 1.2,-1.8 0,-0.9 -0.2,-1.8 -1.2,-1.8 z"
   id="path436"
   style="fill:#2f96e8" />
		<path
   d="m 122.1,577.6 c 0,0.9 0.6,1.6 1.5,1.6 0.8,0 1.2,-0.2 1.6,-0.7 l 1.1,1 c -0.7,0.7 -1.4,1.1 -2.7,1.1 -1.7,0 -3.3,-0.8 -3.3,-3.6 0,-2.3 1.3,-3.6 3.1,-3.6 2,0 3.1,1.4 3.1,3.4 v 0.8 h -4.4 z m 2.5,-2 c -0.2,-0.4 -0.6,-0.7 -1.2,-0.7 -0.6,0 -1,0.3 -1.2,0.7 -0.1,0.3 -0.1,0.4 -0.2,0.8 h 2.7 c 0.1,-0.3 0,-0.5 -0.1,-0.8 z"
   id="path438"
   style="fill:#2f96e8" />
	</g>
	<g
   id="g440">
		<rect
   width="12"
   height="2"
   x="14.4"
   y="575.59998"
   id="rect442"
   style="fill:#3667af" />
		<rect
   width="12"
   height="2"
   x="14.4"
   y="572.59998"
   id="rect444"
   style="fill:#55a2d9" />
		<path
   d="m 24.5,569.6 h -8.1 c -1,0 -1.9,0.7 -1.9,1.5 v 0.5 h 12 v -0.5 c -0.1,-0.8 -1,-1.5 -2,-1.5 z"
   id="path446"
   style="fill:#a3d9f6" />
		<path
   d="m 14.4,578.6 v 0.6 c 0,1.1 0.9,1.9 1.9,1.9 h 5.2 v 2.5 l 2.5,-2.5 h 0.5 c 1.1,0 1.9,-0.9 1.9,-1.9 v -0.6 h -12 z"
   id="path448"
   style="fill:#24488d" />
		<path
   d="m 14.4,578.6 v 0.6 c 0,1 0.8,1.9 1.8,1.9 h 0.3 l 2.4,-2.5 h -4.5 z"
   id="path450"
   style="opacity:0.15;fill:#ffffff" />
		<polygon
   points="14.4,572.6 14.4,574.6 22.4,574.6 24.6,572.6 "
   id="polygon452"
   style="opacity:0.15;fill:#ffffff" />
		<polygon
   points="14.4,575.6 14.4,577.6 19.5,577.6 21.8,575.6 "
   id="polygon454"
   style="opacity:0.15;fill:#ffffff" />
	</g>
</g>
<g
   id="g456">
	<g
   id="g458">
		<path
   d="m 37.7,549.7 c -1.5,0 -2.5,-0.3 -3.4,-1.3 l 1,-1 c 0.7,0.7 1.5,0.9 2.5,0.9 1.3,0 2,-0.5 2,-1.5 0,-0.4 -0.1,-0.8 -0.4,-1 -0.2,-0.2 -0.5,-0.3 -1.1,-0.4 l -1.1,-0.2 c -0.8,-0.1 -1.4,-0.4 -1.8,-0.8 -0.5,-0.4 -0.7,-1.1 -0.7,-1.8 0,-1.7 1.2,-2.8 3.2,-2.8 1.3,0 2.2,0.3 3,1.1 l -0.9,0.9 c -0.6,-0.6 -1.3,-0.7 -2.1,-0.7 -1.1,0 -1.8,0.7 -1.8,1.5 0,0.4 0.1,0.7 0.4,0.9 0.2,0.2 0.6,0.4 1.1,0.4 l 1.1,0.2 c 0.9,0.1 1.4,0.4 1.8,0.7 0.5,0.5 0.8,1.2 0.8,2 -0.1,1.8 -1.5,2.9 -3.6,2.9 z"
   id="path460"
   style="fill:#ffffff" />
		<path
   d="m 45.1,549.6 c -1.3,0 -1.9,-0.9 -1.9,-1.9 v -3.8 h -0.8 v -1.1 h 0.8 v -2.1 h 1.4 v 2.1 h 1.3 v 1.1 h -1.3 v 3.7 c 0,0.5 0.2,0.8 0.8,0.8 H 46 v 1.2 h -0.9 z"
   id="path462"
   style="fill:#ffffff" />
		<path
   d="M 51.3,549.6 V 549 c -0.5,0.5 -1,0.7 -1.8,0.7 -0.9,0 -1.4,-0.2 -1.8,-0.6 -0.4,-0.4 -0.5,-0.9 -0.5,-1.5 0,-1.2 0.8,-2 2.4,-2 h 1.8 v -0.5 c 0,-0.9 -0.4,-1.3 -1.5,-1.3 -0.8,0 -1.1,0.2 -1.5,0.7 l -1,-0.9 c 0.7,-0.8 1.3,-1 2.5,-1 1.9,0 2.8,0.8 2.8,2.4 v 4.6 l -1.4,0 0,0 z m 0,-3.1 h -1.6 c -0.8,0 -1.2,0.4 -1.2,1 0,0.6 0.4,1 1.3,1 0.5,0 0.9,0 1.3,-0.4 0.2,-0.2 0.3,-0.5 0.3,-1 l -0.1,-0.6 0,0 z"
   id="path464"
   style="fill:#ffffff" />
		<path
   d="m 57.6,549.7 c -1.5,0 -3.1,-1 -3.1,-3.5 0,-2.6 1.5,-3.5 3.1,-3.5 1,0 1.6,0.3 2.3,1 l -1,0.9 c -0.4,-0.5 -0.8,-0.7 -1.3,-0.7 -0.5,0 -1,0.2 -1.3,0.6 -0.3,0.4 -0.4,0.9 -0.4,1.7 0,0.8 0.1,1.3 0.4,1.7 0.3,0.4 0.7,0.6 1.3,0.6 0.5,0 0.9,-0.2 1.3,-0.7 l 1,0.9 c -0.7,0.7 -1.4,1 -2.3,1 z"
   id="path466"
   style="fill:#ffffff" />
		<path
   d="m 65.8,549.6 -1.9,-3.2 -1,1.2 v 2 h -1.5 v -9.7 h 1.4 v 6 l 2.7,-3.2 h 1.7 l -2.4,2.7 2.7,4.2 h -1.7 z"
   id="path468"
   style="fill:#ffffff" />
		<path
   d="m 68.9,549.6 v -9.7 h 6.4 v 1.7 h -4.5 v 2.3 h 3.8 v 1.7 h -3.8 v 2.4 h 4.5 v 1.6 h -6.4 z"
   id="path470"
   style="fill:#2f96e8" />
		<path
   d="m 80.9,549.6 -1.3,-2.1 -1.3,2.1 h -2.1 l 2.4,-3.6 -2.4,-3.5 h 2.2 l 1.2,2 1.2,-2 h 2.1 l -2.4,3.5 2.4,3.6 h -2 z"
   id="path472"
   style="fill:#2f96e8" />
		<path
   d="m 86.7,549.7 c -1.4,0 -3.2,-0.8 -3.2,-3.6 0,-2.9 1.8,-3.6 3.2,-3.6 1,0 1.7,0.3 2.3,1 l -1.2,1.1 c -0.4,-0.4 -0.7,-0.6 -1.1,-0.6 -0.4,0 -0.7,0.1 -1,0.5 -0.3,0.3 -0.4,0.8 -0.4,1.6 0,0.7 0.1,1.2 0.4,1.6 0.3,0.3 0.6,0.5 1,0.5 0.5,0 0.8,-0.2 1.1,-0.6 l 1.2,1.2 c -0.6,0.5 -1.3,0.9 -2.3,0.9 z"
   id="path474"
   style="fill:#2f96e8" />
		<path
   d="m 94.5,549.6 v -4.3 c 0,-0.9 -0.6,-1.3 -1.2,-1.3 -0.6,0 -1.1,0.3 -1.1,1.3 v 4.3 h -1.8 v -9.7 h 1.8 v 3.2 c 0.5,-0.5 1.1,-0.7 1.7,-0.7 1.5,0 2.4,1.1 2.4,2.6 v 4.6 l -1.8,0 0,0 z"
   id="path476"
   style="fill:#2f96e8" />
		<path
   d="M 101.8,549.6 V 549 c -0.5,0.5 -0.9,0.7 -1.7,0.7 -0.8,0 -1.4,-0.2 -1.8,-0.6 -0.4,-0.4 -0.6,-1 -0.6,-1.6 0,-1.1 0.8,-2.1 2.4,-2.1 h 1.7 V 545 c 0,-0.8 -0.4,-1.1 -1.3,-1.1 -0.7,0 -1,0.2 -1.4,0.6 L 98,543.4 c 0.7,-0.8 1.4,-1 2.6,-1 2,0 3,0.8 3,2.5 v 4.7 l -1.8,0 0,0 z m -0.1,-3 h -1.4 c -0.6,0 -1,0.3 -1,0.8 0,0.5 0.3,0.8 1,0.8 0.5,0 0.8,0 1.1,-0.3 0.2,-0.2 0.3,-0.5 0.3,-0.9 v -0.4 z"
   id="path478"
   style="fill:#2f96e8" />
		<path
   d="m 109.5,549.6 v -4.3 c 0,-1 -0.6,-1.3 -1.2,-1.3 -0.6,0 -1.2,0.3 -1.2,1.3 v 4.3 h -1.7 v -7.1 h 1.7 v 0.7 c 0.5,-0.5 1.1,-0.7 1.8,-0.7 0.7,0 1.3,0.2 1.7,0.6 0.6,0.6 0.7,1.2 0.7,2 v 4.5 h -1.8 z"
   id="path480"
   style="fill:#2f96e8" />
		<path
   d="m 115.6,552.2 c -1.1,0 -1.8,-0.2 -2.6,-0.9 l 1.1,-1.1 c 0.4,0.4 0.8,0.5 1.4,0.5 1.1,0 1.4,-0.7 1.4,-1.5 v -0.6 c -0.5,0.5 -1,0.7 -1.7,0.7 -0.7,0 -1.3,-0.2 -1.7,-0.6 -0.7,-0.7 -0.7,-1.6 -0.7,-2.8 0,-1.2 0.1,-2.1 0.7,-2.8 0.4,-0.4 1,-0.6 1.7,-0.6 0.7,0 1.2,0.2 1.7,0.7 v -0.7 h 1.7 v 6.8 c 0.1,1.7 -1.1,2.9 -3,2.9 z m 0.2,-8.2 c -1,0 -1.2,0.9 -1.2,1.8 0,0.9 0.1,1.8 1.2,1.8 1,0 1.2,-0.9 1.2,-1.8 0,-0.9 -0.2,-1.8 -1.2,-1.8 z"
   id="path482"
   style="fill:#2f96e8" />
		<path
   d="m 122.1,546.6 c 0,0.9 0.6,1.6 1.5,1.6 0.8,0 1.2,-0.2 1.6,-0.7 l 1.1,1 c -0.7,0.7 -1.4,1.1 -2.7,1.1 -1.7,0 -3.3,-0.8 -3.3,-3.6 0,-2.3 1.3,-3.6 3.1,-3.6 2,0 3.1,1.4 3.1,3.4 v 0.8 h -4.4 z m 2.5,-2 c -0.2,-0.4 -0.6,-0.7 -1.2,-0.7 -0.6,0 -1,0.3 -1.2,0.7 -0.1,0.3 -0.1,0.4 -0.2,0.8 h 2.7 c 0.1,-0.3 0,-0.5 -0.1,-0.8 z"
   id="path484"
   style="fill:#2f96e8" />
	</g>
	<g
   id="g486">
		<rect
   width="12"
   height="2"
   x="14.4"
   y="544.59998"
   id="rect488"
   style="fill:#3667af" />
		<rect
   width="12"
   height="2"
   x="14.4"
   y="541.59998"
   id="rect490"
   style="fill:#55a2d9" />
		<path
   d="m 24.5,538.6 h -8.1 c -1,0 -1.9,0.7 -1.9,1.5 v 0.5 h 12 v -0.5 c -0.1,-0.8 -1,-1.5 -2,-1.5 z"
   id="path492"
   style="fill:#a3d9f6" />
		<path
   d="m 14.4,547.6 v 0.6 c 0,1.1 0.9,1.9 1.9,1.9 h 5.2 v 2.5 l 2.5,-2.5 h 0.5 c 1.1,0 1.9,-0.9 1.9,-1.9 v -0.6 h -12 z"
   id="path494"
   style="fill:#24488d" />
		<path
   d="m 14.4,547.6 v 0.6 c 0,1 0.8,1.9 1.8,1.9 h 0.3 l 2.4,-2.5 h -4.5 z"
   id="path496"
   style="opacity:0.15;fill:#ffffff" />
		<polygon
   points="14.4,541.6 14.4,543.6 22.4,543.6 24.6,541.6 "
   id="polygon498"
   style="opacity:0.15;fill:#ffffff" />
		<polygon
   points="14.4,544.6 14.4,546.6 19.5,546.6 21.8,544.6 "
   id="polygon500"
   style="opacity:0.15;fill:#ffffff" />
	</g>
</g>
<polygon
   points="106,269.9 106,278.9 110,274.4 "
   id="polygon502"
   style="fill:#92a3b3" />
<polygon
   points="67.1,267.6 67.1,280.6 74.1,274 "
   id="polygon504"
   style="fill:#818185" />
<polygon
   points="60.4,280.6 60.4,267.6 53.4,274.1 "
   id="polygon506"
   style="fill:#818185" />
<polygon
   points="96.2,270.9 83.3,270.9 89.9,278.3 "
   id="polygon508"
   style="fill:#818185" />
<g
   id="g510">
	<rect
   width="2"
   height="2"
   x="17.200001"
   y="343"
   id="rect512"
   style="fill:#9e9e9e" />
	<rect
   width="2"
   height="2"
   x="20.200001"
   y="346"
   id="rect514"
   style="fill:#9e9e9e" />
	<rect
   width="2"
   height="2"
   x="26.200001"
   y="346"
   id="rect516"
   style="fill:#9e9e9e" />
	<rect
   width="2"
   height="2"
   x="32.200001"
   y="346"
   id="rect518"
   style="fill:#9e9e9e" />
	<rect
   width="2"
   height="2"
   x="38.200001"
   y="346"
   id="rect520"
   style="fill:#9e9e9e" />
	<rect
   width="2"
   height="2"
   x="23.299999"
   y="343"
   id="rect522"
   style="fill:#9e9e9e" />
	<rect
   width="2"
   height="2"
   x="29.299999"
   y="343"
   id="rect524"
   style="fill:#9e9e9e" />
	<rect
   width="2"
   height="2"
   x="35.299999"
   y="343"
   id="rect526"
   style="fill:#9e9e9e" />
	<rect
   width="2"
   height="2"
   x="41.400002"
   y="343"
   id="rect528"
   style="fill:#9e9e9e" />
</g>
<g
   id="g530">
	<path
   d="m 15.9,297.7 v 31 h 3.4 c 0.3,-5.5 3.7,-10.1 8.3,-11.8 v -1.2 c -1.8,-1.2 -3,-3.3 -3,-5.6 0,-3.7 3,-6.7 6.8,-6.7 3.8,0 6.8,3 6.8,6.7 0,2.3 -1.2,4.4 -3,5.6 v 1.2 c 4.6,1.7 8,6.3 8.3,11.8 h 3.4 v -31 h -31 z"
   id="path532"
   style="fill:#c5c5c5" />
	<path
   d="M 19.4,328.7 H 43.7 C 43.4,323.2 40,318.6 35.4,316.9 v -1.2 c 1.8,-1.2 3,-3.3 3,-5.6 0,-3.7 -3,-6.7 -6.8,-6.7 -3.8,0 -6.8,3 -6.8,6.7 0,2.3 1.2,4.4 3,5.6 v 1.2 c -4.6,1.7 -8.1,6.3 -8.4,11.8 z"
   id="path534"
   style="fill:#ffffff" />
</g>
<g
   id="g536">
	<polygon
   points="81.3,306.8 85.4,310.4 92.3,304.2 92.3,300.4 85.4,306.6 81.3,303.3 "
   id="polygon538"
   style="fill:#5ec4af" />
</g>
<polygon
   points="58.9,308.6 71.9,308.6 65.4,301.6 "
   id="polygon540"
   style="fill:#639fc4" />
<polygon
   points="58.9,327.6 71.9,327.6 65.4,320.6 "
   id="polygon542"
   style="fill:#b8b8b8" />
<g
   id="g544">
	<rect
   width="1.9"
   height="14"
   x="119.2"
   y="319.29999"
   id="rect546"
   style="fill:#b8b8b8" />
	<rect
   width="10.1"
   height="8"
   x="122.1"
   y="320.29999"
   id="rect548"
   style="fill:#cccccc" />
</g>
<g
   id="g550">
	<rect
   width="1.9"
   height="14"
   x="119.2"
   y="299.39999"
   id="rect552"
   style="fill:#d35f5f" />
	<rect
   width="10.1"
   height="8"
   x="122.1"
   y="300.39999"
   id="rect554"
   style="fill:#f89393" />
</g>
<g
   id="g556">
	<rect
   width="14"
   height="14"
   x="139.2"
   y="299.39999"
   id="rect558"
   style="fill:#fe6502" />
	<path
   d="m 142.4,308.8 c -0.8,0 -1.4,0.6 -1.4,1.4 0,0.8 0.6,1.4 1.4,1.4 0.8,0 1.4,-0.6 1.4,-1.4 0,-0.7 -0.6,-1.4 -1.4,-1.4 z m -1.4,-4 v 2 c 1.3,0 2.5,0.5 3.4,1.4 0.9,0.9 1.4,2.1 1.4,3.4 h 2 c 0.1,-3.8 -3,-6.8 -6.8,-6.8 z m 0,-3.6 v 2 c 4.6,0 8.4,3.8 8.4,8.4 h 2 c 0,-5.7 -4.7,-10.4 -10.4,-10.4 z"
   id="path560"
   style="fill:#ffffff" />
</g>
<g
   id="g562">
	<polygon
   points="80.8,329.6 84,328.9 81.5,326.4 "
   id="polygon564"
   style="fill:#7a7a7a" />
	
		<rect
   width="3.5"
   height="5.0999999"
   x="83.5"
   y="322.70001"
   transform="matrix(0.7071,0.7071,-0.7071,0.7071,254.9822,34.9524)"
   id="rect566"
   style="fill:#7a7a7a" />
	<path
   d="m 88,320.6 c -0.4,0 -0.8,0.1 -1.1,0.4 l -0.7,0.7 2.5,2.5 0.7,-0.7 c 0.2,-0.3 0.4,-0.7 0.4,-1.1 0,-1 -0.8,-1.8 -1.8,-1.8 z"
   id="path568"
   style="fill:#7a7a7a" />
</g>
<g
   id="g570">
	<circle
   cx="106.1"
   cy="326.20001"
   r="6.5"
   id="circle572"
   style="fill:#c03433" />
	<path
   d="m 109.3,328.1 0,0 -1.9,-1.9 1.9,-1.9 0,0 c 0,0 0,0 0,-0.1 0,-0.1 0,-0.2 0,-0.2 l -0.9,-0.9 c -0.1,-0.1 -0.1,-0.1 -0.2,0 h -0.1 l 0,0 -1.9,1.9 -1.9,-1.9 0,0 c 0,0 0,0 -0.1,0 -0.1,0 -0.2,0 -0.2,0 l -0.9,0.9 c -0.1,0.1 -0.1,0.1 0,0.2 v 0.1 l 0,0 1.9,1.9 -1.9,1.9 0,0 c 0,0 0,0 0,0.1 0,0.1 0,0.2 0,0.2 l 0.9,0.9 c 0.1,0.1 0.1,0.1 0.2,0 h 0.1 l 0,0 1.9,-1.9 1.9,1.9 0,0 c 0,0 0,0 0.1,0 0.1,0 0.2,0 0.2,0 l 0.9,-0.9 c 0,-0.1 0,-0.2 0,-0.3 0,0.1 0,0 0,0 z"
   id="path574"
   style="fill:#ffffff" />
</g>
<g
   id="g576">
	<circle
   cx="106.1"
   cy="305.39999"
   r="6.5"
   id="circle578"
   style="fill:#cccccc" />
	<path
   d="m 109.3,307.4 0,0 -1.9,-1.9 1.9,-1.9 0,0 c 0,0 0,0 0,-0.1 0,-0.1 0,-0.2 0,-0.2 l -0.9,-0.9 c -0.1,-0.1 -0.1,-0.1 -0.2,0 h -0.1 l 0,0 -2,1.8 -1.9,-1.9 0,0 c 0,0 0,0 -0.1,0 -0.1,0 -0.2,0 -0.2,0 l -0.9,0.9 c -0.1,0.1 -0.1,0.1 0,0.2 v 0.1 l 0,0 1.9,1.9 -1.9,1.9 0,0 c 0,0 0,0 0,0.1 0,0.1 0,0.2 0,0.2 l 0.9,0.9 c 0.1,0.1 0.1,0.1 0.2,0 h 0.1 l 0,0 1.9,-1.9 1.9,1.9 0,0 c 0,0 0,0 0.1,0 0.1,0 0.2,0 0.2,0 l 0.9,-0.9 c 0.1,0 0.1,-0.1 0.1,-0.2 l 0,0 z"
   id="path580"
   style="fill:#ffffff" />
</g>

</svg>