<?xml version="1.0" encoding="utf-8"?>
<!-- Generator: Adobe Illustrator 19.1.0, SVG Export Plug-In . SVG Version: 6.00 Build 0)  -->
<svg version="1.1" id="svg3095" xmlns="http://www.w3.org/2000/svg" xmlns:xlink="http://www.w3.org/1999/xlink" x="0px" y="0px"
	 width="180px" height="350px" viewBox="-389 106 180 350" style="enable-background:new -389 106 180 350;" xml:space="preserve">
<style type="text/css">
	.st0{fill:#444444;}
	.st1{fill:#FFD83D;}
	.st2{fill:#EAC328;}
	.st3{fill:#8A8A8A;}
	.st4{fill:#FF9900;}
	.st5{fill:#205081;}
	.st6{fill:#F6C215;}
	.st7{fill:#D18C39;}
	.st8{fill:#4650A2;}
	.st9{fill:#3995BD;}
	.st10{fill:#A02D36;}
	.st11{fill:#90B73E;}
	.st12{fill:#BC3C85;}
	.st13{fill:#DD4B39;}
	.st14{fill:#005985;}
	.st15{fill:#FFFFFF;}
	.st16{fill:#3D423A;}
	.st17{fill:#C4ACD6;}
	.st18{fill:#787878;}
	.st19{fill:#E24329;}
	.st20{fill:#FC6D26;}
	.st21{fill:#FCA326;}
	.st22{fill:#5C5C5C;}
	.st23{fill:#A1A1A1;}
	.st24{fill:#4D6F88;}
	.st25{fill:#444243;}
	.st26{fill:#44B449;}
	.st27{fill:#CCCCCC;}
	.st28{fill:#EAEAEA;}
	.st29{fill:#999999;}
</style>
<g>
	<rect x="-388.9" y="132.4" class="st0" width="1.7" height="3"/>
	<rect x="-386.6" y="131.5" class="st0" width="1.7" height="3.9"/>
	<rect x="-384.3" y="130.3" class="st0" width="1.7" height="5"/>
	<rect x="-381.9" y="131.2" class="st0" width="1.7" height="4.1"/>
	<rect x="-379.6" y="129.5" class="st0" width="1.7" height="5.9"/>
	<g>
		<rect x="-388.9" y="128.8" class="st0" width="1.7" height="1.8"/>
		<rect x="-386.6" y="128.5" class="st0" width="1.7" height="1.8"/>
		<rect x="-384.3" y="126.8" class="st0" width="1.7" height="1.8"/>
		<rect x="-381.9" y="127.6" class="st0" width="1.7" height="1.8"/>
		<rect x="-379.6" y="126.1" class="st0" width="1.7" height="1.8"/>
		<rect x="-387.3" y="129.5" class="st0" width="0.9" height="0.6"/>
		<rect x="-382.7" y="127.9" class="st0" width="0.9" height="0.6"/>
		<polygon class="st0" points="-383.7,128.2 -384.9,129.4 -385.3,129 -384.1,127.8 		"/>
		<polygon class="st0" points="-379,127.5 -380.2,128.7 -380.7,128.3 -379.5,127.1 		"/>
	</g>
</g>
<path class="st0" d="M-382.4,186.1l6.5,3.5v4.7h-1.2v-4.1l-5.3,2.9l-6.5-3.5L-382.4,186.1z M-386.5,192.1l4.1,2.3l4.1-2.3v2.4
	l-4.1,2.2l-4.1-2.2V192.1z"/>
<path class="st0" d="M-362.5,166.1c-3.6,0-6.5,2.9-6.5,6.5s2.9,6.5,6.5,6.5s6.5-2.9,6.5-6.5S-358.9,166.1-362.5,166.1z
	 M-358.6,176.5c-0.5,0.5-1.1,0.9-1.7,1.2c-0.2,0.1-0.3,0.1-0.5,0.2v-1c0-0.5-0.2-0.9-0.5-1.1c0.2,0,0.4-0.1,0.6-0.1s0.4-0.1,0.6-0.2
	s0.4-0.2,0.6-0.3s0.3-0.2,0.5-0.4s0.3-0.3,0.4-0.5s0.2-0.4,0.2-0.7c0.1-0.3,0.1-0.6,0.1-0.9c0-0.7-0.2-1.2-0.6-1.7
	c0.2-0.5,0.2-1.1-0.1-1.7h-0.2c-0.1,0-0.3,0-0.6,0.1c-0.3,0.1-0.6,0.3-1,0.5c-0.5-0.1-1-0.2-1.6-0.2c-0.5,0-1.1,0.1-1.6,0.2
	c-0.2-0.2-0.4-0.3-0.6-0.4s-0.4-0.2-0.5-0.2s-0.2-0.1-0.3-0.1c-0.1,0-0.2,0-0.2,0h-0.1c-0.2,0.6-0.3,1.2-0.1,1.7
	c-0.4,0.5-0.6,1-0.6,1.7c0,0.3,0,0.6,0.1,0.9s0.1,0.5,0.2,0.7s0.2,0.4,0.4,0.5c0.2,0.2,0.3,0.3,0.5,0.4s0.3,0.2,0.6,0.3
	c0.2,0.1,0.4,0.1,0.6,0.2c0.2,0,0.4,0.1,0.6,0.1c-0.3,0.2-0.5,0.6-0.5,1.1v1c-0.2-0.1-0.4-0.1-0.6-0.2c-0.6-0.3-1.2-0.7-1.7-1.2
	s-0.9-1.1-1.2-1.7c-0.3-0.7-0.4-1.4-0.4-2.1c0-0.7,0.1-1.5,0.4-2.1s0.7-1.2,1.2-1.7s1.1-0.9,1.7-1.2c0.7-0.3,1.4-0.4,2.1-0.4
	s1.5,0.1,2.1,0.4c0.6,0.3,1.2,0.7,1.7,1.2s0.9,1.1,1.2,1.7c0.3,0.7,0.4,1.4,0.4,2.1c0,0.7-0.1,1.5-0.4,2.1
	C-357.7,175.4-358.1,176-358.6,176.5L-358.6,176.5z"/>
<path class="st0" d="M-382,111.9l2.6-2.5l-2.6-2.5l0.8-0.8l3.3,3.3l-3.3,3.3L-382,111.9z M-384.8,111.9l-0.8,0.8l-3.3-3.3l3.3-3.3
	l0.8,0.8l-2.6,2.5L-384.8,111.9z"/>
<path class="st0" d="M-377.9,233.5v1.3h-3.9v-1.3h0.8v-5.7l0,0l-1.9,7h-1.5l-1.9-7l0,0v5.7h0.8v1.3h-3.4v-1.3h0.4
	c0.1,0,0.2,0,0.3-0.1c0.1-0.1,0.1-0.2,0.1-0.2v-5.4c0-0.1,0-0.2-0.1-0.2s-0.2-0.1-0.3-0.1h-0.4v-1.4h4.1l1.4,5l0,0l1.4-5h4.1v1.3
	h-0.4c-0.1,0-0.2,0-0.3,0.1c-0.1,0.1-0.1,0.2-0.1,0.2v5.4c0,0.1,0,0.2,0.1,0.2c0.1,0.1,0.2,0.1,0.3,0.1L-377.9,233.5L-377.9,233.5z"
	/>
<path class="st0" d="M-379,208.3h-1.6v-1.1c0-0.6-0.5-1.1-1.1-1.1h-3.3c-0.6,0-1.1,0.5-1.1,1.1v1.1h-1.6c-0.6,0-1.1,0.5-1.1,1.1v6.1
	c0,0.6,0.5,1.1,1.1,1.1h8.8c0.6,0,1.1-0.5,1.1-1.1v-6.1C-377.9,208.8-378.4,208.3-379,208.3z M-385,207.2h3.3v1.1h-3.3V207.2z
	 M-379,215.5h-8.8v-1.1h8.8V215.5z M-379,212.7h-8.8v-3.3h1.6v1.1h1.1v-1.1h3.3v1.1h1.1v-1.1h1.6L-379,212.7L-379,212.7z"/>
<path class="st0" d="M-380.6,151.6c0,0.2-0.1,0.3-0.2,0.4s-0.2,0.2-0.4,0.2h-5.5l-2.2,2.2v-7.7c0-0.2,0.1-0.3,0.2-0.4
	s0.2-0.2,0.4-0.2h7.2c0.2,0,0.3,0.1,0.4,0.2s0.2,0.2,0.2,0.4v4.9L-380.6,151.6L-380.6,151.6z M-378.4,148.3c0.2,0,0.3,0.1,0.4,0.2
	s0.2,0.2,0.2,0.4v8.3l-2.2-2.2h-6.1c-0.2,0-0.3-0.1-0.4-0.2s-0.2-0.2-0.2-0.4v-1.1h7.2v-5H-378.4L-378.4,148.3z"/>
<g>
	<polygon class="st1" points="-379.8,258.8 -384.6,262.2 -382.9,256.5 -387.7,253.1 -382,252.8 -379.8,247.3 -377.9,253.1 
		-371.8,253.1 -376.6,256.5 -374.9,262.2 	"/>
	<path class="st2" d="M-379.8,248.5l1.5,4.3l0.1,0.5h0.5h4.6l-3.8,2.8l-0.4,0.3l0.1,0.5l1.5,4.3l-3.8-2.7l-0.4-0.3l-0.4,0.3
		l-3.8,2.7l1.5-4.3l0.1-0.5l-0.4-0.3l-3.8-2.7h4.6h0.5l0.1-0.5L-379.8,248.5 M-379.8,246.1l-2.2,6.5h-7l5.6,4.1l-2.2,6.5l5.6-4.1
		l5.6,4.1l-2.2-6.5l5.6-4.1h-7L-379.8,246.1L-379.8,246.1z"/>
</g>
<path class="st3" d="M-381.9,289.3l-4.3,2.8l1.2-5.2l-3.8-3.5l5-0.4l2-4.9l2,4.9l5,0.4l-3.8,3.5l1.2,5.2L-381.9,289.3z"/>
<path class="st3" d="M-357.9,279.6c0-0.8-0.7-1.5-1.5-1.5s-1.5,0.7-1.5,1.5c0,0.6,0.3,1,0.7,1.3v1.2l-2.2,2.5l-2.2-2.5v-1.2
	c0.4-0.3,0.7-0.7,0.7-1.3c0-0.8-0.7-1.5-1.5-1.5s-1.5,0.7-1.5,1.5c0,0.6,0.3,1,0.7,1.3v1.8l3,3.3v1.3c-0.4,0.3-0.7,0.7-0.7,1.3
	c0,0.8,0.7,1.5,1.5,1.5s1.5-0.7,1.5-1.5c0-0.6-0.3-1-0.7-1.3V286l3-3.3v-1.8C-358.2,280.6-357.9,280.2-357.9,279.6z M-365.4,278.9
	c0.4,0,0.7,0.3,0.7,0.7s-0.3,0.7-0.7,0.7s-0.7-0.3-0.7-0.7S-365.8,278.9-365.4,278.9z M-362.4,289.3c-0.4,0-0.7-0.3-0.7-0.7
	s0.3-0.7,0.7-0.7s0.7,0.3,0.7,0.7S-362,289.3-362.4,289.3z M-359.4,278.9c0.4,0,0.7,0.3,0.7,0.7s-0.3,0.7-0.7,0.7
	c-0.4,0-0.7-0.3-0.7-0.7S-359.8,278.9-359.4,278.9z"/>
<path class="st0" d="M-379.2,167.6c0-0.9-0.8-1.6-1.6-1.6c-0.9,0-1.6,0.8-1.6,1.6c0,0.7,0.3,1.1,0.8,1.4v1.3l-2.4,2.7l-2.4-2.7V169
	c0.4-0.3,0.8-0.8,0.8-1.4c0-0.9-0.8-1.6-1.6-1.6c-0.9,0-1.6,0.8-1.6,1.6c0,0.7,0.3,1.1,0.8,1.4v2l3.2,3.6v1.4
	c-0.4,0.3-0.8,0.8-0.8,1.4c0,0.9,0.8,1.6,1.6,1.6c0.9,0,1.6-0.8,1.6-1.6c0-0.7-0.3-1.1-0.8-1.4v-1.4l3.3-3.6v-2
	C-379.6,168.7-379.2,168.3-379.2,167.6z M-387.4,166.9c0.4,0,0.8,0.3,0.8,0.8s-0.3,0.8-0.8,0.8c-0.4,0-0.8-0.3-0.8-0.8
	S-387.8,166.9-387.4,166.9z M-384.1,178.1c-0.4,0-0.8-0.3-0.8-0.8s0.3-0.8,0.8-0.8c0.4,0,0.8,0.3,0.8,0.8S-383.7,178.1-384.1,178.1z
	 M-380.9,166.9c0.4,0,0.8,0.3,0.8,0.8s-0.3,0.8-0.8,0.8c-0.4,0-0.8-0.3-0.8-0.8S-381.3,166.9-380.9,166.9z"/>
<path class="st0" d="M-258,207l11,5.9v8h-2V214l-9,4.9l-11-5.9L-258,207z M-264.9,217.2l6.9,3.9l6.9-3.9v4.1l-6.9,3.7l-6.9-3.7
	V217.2z"/>
<path class="st0" d="M-255.2,117.6l5.2-5l-5.2-5l1.6-1.6l6.6,6.6l-6.6,6.6L-255.2,117.6z M-260.8,117.6l-1.6,1.6l-6.6-6.6l6.6-6.6
	l1.6,1.6l-5.2,5L-260.8,117.6z"/>
<path class="st0" d="M-249.4,235.4h-3.2v-2.2c0-1.2-1-2.2-2.2-2.2h-6.6c-1.2,0-2.2,1-2.2,2.2v2.2h-3.2c-1.2,0-2.2,1-2.2,2.2v12.2
	c0,1.2,1,2.2,2.2,2.2h17.6c1.2,0,2.2-1,2.2-2.2v-12.2C-247.2,236.4-248.2,235.4-249.4,235.4z M-261.4,233.2h6.6v2.2h-6.6V233.2z
	 M-249.4,249.8H-267v-2.2h17.6V249.8z M-249.4,244.2H-267v-6.6h3.2v2.2h2.2v-2.2h6.6v2.2h2.2v-2.2h3.2L-249.4,244.2L-249.4,244.2z"
	/>
<path class="st0" d="M-252.5,162.9c0,0.4-0.2,0.6-0.4,0.8s-0.4,0.4-0.8,0.4h-10.9l-4.4,4.4v-15.3c0-0.4,0.2-0.6,0.4-0.8
	s0.4-0.4,0.8-0.4h14.3c0.4,0,0.6,0.2,0.8,0.4s0.4,0.4,0.4,0.8v9.7L-252.5,162.9L-252.5,162.9z M-248.2,156.4c0.4,0,0.6,0.2,0.8,0.4
	s0.4,0.4,0.4,0.8V174l-4.4-4.4h-12.1c-0.4,0-0.6-0.2-0.8-0.4s-0.4-0.4-0.4-0.8v-2.2h14.3v-9.9L-248.2,156.4L-248.2,156.4
	L-248.2,156.4z"/>
<path class="st0" d="M-249.5,183.8c0-1.5-1.3-2.8-2.8-2.8s-2.8,1.3-2.8,2.8c0,1.1,0.5,1.8,1.3,2.4v2.2l-4,4.6l-4-4.6v-2.2
	c0.7-0.5,1.3-1.3,1.3-2.4c0-1.5-1.3-2.8-2.8-2.8s-2.8,1.3-2.8,2.8c0,1.1,0.5,1.8,1.3,2.4v3.3l5.5,6v2.4c-0.7,0.5-1.3,1.3-1.3,2.4
	c0,1.5,1.3,2.8,2.8,2.8s2.8-1.3,2.8-2.8c0-1.1-0.5-1.8-1.3-2.4v-2.4l5.5-6v-3.3C-250,185.6-249.5,184.9-249.5,183.8z M-263.2,182.5
	c0.7,0,1.3,0.5,1.3,1.3c0,0.7-0.5,1.3-1.3,1.3c-0.7,0-1.3-0.5-1.3-1.3S-264,182.5-263.2,182.5z M-257.7,201.5
	c-0.7,0-1.3-0.5-1.3-1.3c0-0.7,0.5-1.3,1.3-1.3c0.7,0,1.3,0.5,1.3,1.3C-256.5,201-257,201.5-257.7,201.5z M-252.2,182.5
	c0.7,0,1.3,0.5,1.3,1.3c0,0.7-0.5,1.3-1.3,1.3c-0.7,0-1.3-0.5-1.3-1.3S-253,182.5-252.2,182.5z"/>
<path class="st4" d="M-228,207l11,5.9v8h-2V214l-9,4.9l-11-5.9L-228,207z M-234.9,217.2l6.9,3.9l6.9-3.9v4.1l-6.9,3.7l-6.9-3.7
	V217.2z"/>
<path class="st4" d="M-225.2,117.6l5.2-5l-5.2-5l1.6-1.6l6.6,6.6l-6.6,6.6L-225.2,117.6z M-230.8,117.6l-1.6,1.6l-6.6-6.6l6.6-6.6
	l1.6,1.6l-5.2,5L-230.8,117.6z"/>
<path class="st4" d="M-219.4,235.4h-3.2v-2.2c0-1.2-1-2.2-2.2-2.2h-6.6c-1.2,0-2.2,1-2.2,2.2v2.2h-3.2c-1.2,0-2.2,1-2.2,2.2v12.2
	c0,1.2,1,2.2,2.2,2.2h17.6c1.2,0,2.2-1,2.2-2.2v-12.2C-217.2,236.4-218.2,235.4-219.4,235.4z M-231.4,233.2h6.6v2.2h-6.6V233.2z
	 M-219.4,249.8H-237v-2.2h17.6V249.8z M-219.4,244.2H-237v-6.6h3.2v2.2h2.2v-2.2h6.6v2.2h2.2v-2.2h3.2L-219.4,244.2L-219.4,244.2z"
	/>
<path class="st4" d="M-222.5,162.9c0,0.4-0.2,0.6-0.4,0.8s-0.4,0.4-0.8,0.4h-10.9l-4.4,4.4v-15.3c0-0.4,0.2-0.6,0.4-0.8
	s0.4-0.4,0.8-0.4h14.3c0.4,0,0.6,0.2,0.8,0.4s0.4,0.4,0.4,0.8v9.7L-222.5,162.9L-222.5,162.9z M-218.2,156.4c0.4,0,0.6,0.2,0.8,0.4
	s0.4,0.4,0.4,0.8V174l-4.4-4.4h-12.1c-0.4,0-0.6-0.2-0.8-0.4s-0.4-0.4-0.4-0.8v-2.2h14.3v-9.9L-218.2,156.4L-218.2,156.4z"/>
<path class="st4" d="M-219.5,183.8c0-1.5-1.3-2.8-2.8-2.8s-2.8,1.3-2.8,2.8c0,1.1,0.5,1.8,1.3,2.4v2.2l-4,4.6l-4-4.6v-2.2
	c0.7-0.5,1.3-1.3,1.3-2.4c0-1.5-1.3-2.8-2.8-2.8s-2.8,1.3-2.8,2.8c0,1.1,0.5,1.8,1.3,2.4v3.3l5.5,6v2.4c-0.7,0.5-1.3,1.3-1.3,2.4
	c0,1.5,1.3,2.8,2.8,2.8s2.8-1.3,2.8-2.8c0-1.1-0.5-1.8-1.3-2.4v-2.4l5.5-6v-3.3C-220,185.6-219.5,184.9-219.5,183.8z M-233.2,182.5
	c0.7,0,1.3,0.5,1.3,1.3c0,0.7-0.5,1.3-1.3,1.3s-1.3-0.5-1.3-1.3S-234,182.5-233.2,182.5z M-227.7,201.5c-0.7,0-1.3-0.5-1.3-1.3
	c0-0.7,0.5-1.3,1.3-1.3s1.3,0.5,1.3,1.3C-226.5,201-227,201.5-227.7,201.5z M-222.2,182.5c0.7,0,1.3,0.5,1.3,1.3
	c0,0.7-0.5,1.3-1.3,1.3c-0.7,0-1.3-0.5-1.3-1.3S-223,182.5-222.2,182.5z"/>
<path class="st3" d="M-341.9,283c0.5,0,1,0.2,1.3,0.6s0.6,0.8,0.6,1.3s-0.2,1-0.6,1.3c-0.4,0.4-0.8,0.6-1.3,0.6s-1-0.2-1.3-0.6
	c-0.4-0.4-0.6-0.8-0.6-1.3s0.2-1,0.6-1.3S-342.4,283-341.9,283z M-341.9,288.1c0.9,0,1.6-0.3,2.2-0.9s0.9-1.4,0.9-2.2
	c0-0.9-0.3-1.6-0.9-2.2s-1.4-0.9-2.2-0.9s-1.6,0.3-2.2,0.9s-0.9,1.4-0.9,2.2c0,0.9,0.3,1.6,0.9,2.2
	C-343.5,287.7-342.8,288.1-341.9,288.1z M-341.9,280.1c1.6,0,3,0.4,4.3,1.3s2.2,2,2.7,3.5c-0.6,1.4-1.5,2.6-2.7,3.5
	s-2.7,1.3-4.3,1.3s-3-0.4-4.3-1.3s-2.2-2-2.7-3.5c0.6-1.4,1.5-2.6,2.7-3.5C-345,280.5-343.5,280.1-341.9,280.1z"/>
<g>
	<path class="st5" d="M-383.4,330.1L-383.4,330.1L-383.4,330.1c-3.1,0-5.6,0.8-5.6,1.9c0,0.3,0.7,4.2,0.9,5.7
		c0.1,0.7,1.9,1.7,4.7,1.7l0,0l0,0c2.8,0,4.6-1,4.7-1.7c0.3-1.5,0.9-5.5,0.9-5.7C-377.7,330.9-380.3,330.1-383.4,330.1z
		 M-383.4,338.2c-1,0-1.8-0.8-1.8-1.8s0.8-1.8,1.8-1.8s1.8,0.8,1.8,1.8S-382.4,338.2-383.4,338.2z M-383.4,332.5
		c-2,0-3.6-0.3-3.6-0.8c0-0.4,1.6-0.8,3.6-0.8s3.6,0.3,3.6,0.8S-381.4,332.5-383.4,332.5z"/>
	<path class="st5" d="M-379.3,339.3c-0.1,0-0.2,0.1-0.2,0.1s-1.4,1.1-3.9,1.1s-3.9-1.1-3.9-1.1s-0.1-0.1-0.2-0.1s-0.2,0.1-0.2,0.2
		l0,0c0.2,1.2,0.4,2,0.4,2.1c0.2,0.8,1.8,1.5,3.8,1.5l0,0l0,0c2,0,3.7-0.6,3.8-1.5c0-0.1,0.2-0.9,0.4-2.1l0,0
		C-379.1,339.3-379.2,339.3-379.3,339.3z"/>
	<circle class="st5" cx="-383.4" cy="336.4" r="0.9"/>
</g>
<g>
	<polygon class="st6" points="-380,315.6 -382.5,317.2 -385,315.6 -385,312.4 -382.5,310.8 -380,312.4 	"/>
	<polygon class="st7" points="-376,311 -376,317.1 -379,315.8 -379,312.3 	"/>
	<polygon class="st8" points="-389,311 -389,317.1 -386,315.8 -386,312.3 	"/>
	<polygon class="st9" points="-383.5,307.1 -388.5,310.2 -386.2,311.7 -383.3,310 	"/>
	<polygon class="st10" points="-382.2,321 -377,317.9 -379.4,316.3 -382.4,318.1 	"/>
	<polygon class="st11" points="-377.2,310.1 -382.3,307.1 -382.4,310 -379.5,311.7 	"/>
	<polygon class="st12" points="-388.5,318 -383.3,321 -383.1,318.1 -386.1,316.4 	"/>
</g>
<path class="st13" d="M-378.9,371.1c0,0-2.9,0-3.9,0c-1.7,0-3.4,1.4-3.4,3s1.2,2.9,3,2.9c0.1,0,0.2,0,0.4,0
	c-0.1,0.2-0.2,0.5-0.2,0.8c0,0.5,0.2,0.8,0.5,1.1c-0.2,0-0.4,0-0.7,0c-2.2,0-3.8,1.4-3.8,2.9s1.8,2.4,4,2.4c2.5,0,3.8-1.4,3.8-2.9
	c0-1.2-0.3-1.9-1.4-2.6c-0.4-0.3-1-0.9-1-1.3s0.1-0.6,0.7-1.2c0.6-0.5,1.1-1.3,1.1-2.1c0-1-0.4-2-1.3-2.3h1.2L-378.9,371.1
	L-378.9,371.1z M-380.2,380.9c0,0.1,0,0.3,0,0.4c0,1.2-0.7,2.1-2.8,2.1c-1.5,0-2.6-1-2.6-2.2s1.3-2.1,2.8-2.1c0.3,0,0.7,0.1,1,0.2
	C-381,380-380.4,380.3-380.2,380.9L-380.2,380.9z M-382.6,376.6c-1,0-2-1.2-2.1-2.5c-0.2-1.4,0.5-2.4,1.5-2.4s2,1.1,2.1,2.5
	C-381,375.5-381.6,376.6-382.6,376.6z"/>
<g>
	<path class="st14" d="M-376,391.6c0-0.3-0.2-0.5-0.5-0.5h-11.9c-0.3,0-0.5,0.2-0.5,0.5v11.9c0,0.3,0.2,0.5,0.5,0.5h11.9
		c0.3,0,0.5-0.2,0.5-0.5V391.6z"/>
	<g>
		<path class="st15" d="M-385,400.6c0.4,0,0.8,0,1.2,0c0.5,0,0.9-0.3,0.9-0.9c0-0.2,0-0.4,0-0.6c0-0.7-0.3-1-1-1c-0.5,0-0.9,0-1.4,0
			c-0.3,0-0.4-0.1-0.4-0.6c0-0.3,0.1-0.3,0.4-0.3c0.7,0,1.3,0,2,0c0.3,0,0.4-0.1,0.3-0.4c0-0.3,0-0.4-0.3-0.4c-0.4,0-0.9,0-1.3,0
			s-0.8,0-1.2,0c-0.5,0-0.8,0.3-0.8,0.8c0,0.3,0,0.5,0,0.8c0,0.5,0.3,0.9,0.9,0.9c0.5,0,1,0,1.5,0c0.1,0,0.2,0.1,0.2,0.1
			c0,0.2,0.1,0.5,0,0.7c0,0.1-0.3,0.2-0.4,0.2c-0.6,0-1.3,0-1.9,0c-0.3,0-0.3,0.1-0.4,0.5c0,0.3,0.1,0.3,0.3,0.3
			C-385.8,400.5-385.4,400.6-385,400.6z"/>
		<path class="st15" d="M-380.2,395.4L-380.2,395.4c0.5,0,1,0,1.4,0c0.2,0,0.3-0.1,0.3-0.3c0-0.4,0-0.4-0.3-0.4c-0.4,0-0.8,0-1.3,0
			c-0.8,0-1.1,0.3-1.1,1.1c0,0.6,0,0.6-0.6,0.6c0,0,0,0-0.1,0c-0.3,0-0.3,0.2-0.3,0.4s0.1,0.3,0.3,0.3c0.2,0,0.4,0,0.6,0
			c0,0.8,0,1.5,0,2.3c0,0.6,0,0.6,0.5,0.3c0.3-0.2,0.4-0.3,0.4-0.6c0-0.5,0-1,0-1.6c0-0.1,0-0.3,0-0.4c0.5,0,1,0,1.4,0
			c0.2,0,0.3-0.1,0.3-0.3c0-0.4,0-0.4-0.4-0.5c-0.3,0-0.7,0-1,0c-0.4,0-0.4,0-0.4-0.4C-380.2,395.8-380.2,395.6-380.2,395.4z"/>
	</g>
</g>
<g>
	<path class="st15" d="M-376,420.9c0-3.3,0-6.5,0-9.7c-1.9,0-3.8,0-5.7,0c0.1,0.1,0.2,0.2,0.3,0.3c0.9,0.9,1.8,1.8,2.8,2.8
		c0.1,0.1,0.2,0.3,0.2,0.5c0,0.9,0,1.9,0,2.8c0,0.1,0,0.2-0.1,0.3s-0.2,0.2-0.3,0.3c-0.9,0.9-1.8,1.8-2.7,2.7l-0.1,0.1
		C-379.8,420.9-377.9,420.9-376,420.9z"/>
	<path class="st16" d="M-389,415.4c0-0.2,0.1-0.3,0.1-0.5c0.5-1.9,1.6-3.1,3.5-3.7c0.4-0.1,0.8-0.2,1.2-0.2c0.6,0,1.1,0,1.7,0h0.1
		c0,1.1,0,2.2,0,3.3h-0.1c-0.5,0-1.1,0-1.6,0c-0.7,0-1.4,0.6-1.5,1.3c-0.2,0.9,0.4,1.8,1.4,1.9c0.2,0,0.4,0,0.6,0c0.4,0,0.7,0,1.1,0
		h0.1c0,1.1,0,2.2,0,3.3h-0.1c-0.5,0-1,0-1.6,0c-1.1,0-2.1-0.3-2.9-1c-1-0.8-1.6-1.8-1.8-3.1c0-0.1,0-0.1,0-0.2
		C-389,416.2-389,415.8-389,415.4z"/>
	<path class="st17" d="M-376,420.9c-1.9,0-3.8,0-5.7,0c0-0.1,0.1-0.1,0.1-0.1c0.9-0.9,1.8-1.8,2.7-2.7c0.1-0.1,0.2-0.2,0.3-0.3
		c0.1-0.1,0.1-0.2,0.1-0.3c0-0.9,0-1.9,0-2.8c0-0.2-0.1-0.3-0.2-0.5c-0.9-0.9-1.8-1.8-2.8-2.8c-0.1-0.1-0.2-0.2-0.3-0.3
		c1.9,0,3.8,0,5.7,0C-376,414.4-376,417.6-376,420.9z"/>
</g>
<g>
	<path class="st0" d="M-359.4,330.1L-359.4,330.1L-359.4,330.1c-3.1,0-5.6,0.8-5.6,1.9c0,0.3,0.7,4.2,0.9,5.7
		c0.1,0.7,1.9,1.7,4.7,1.7l0,0l0,0c2.8,0,4.6-1,4.7-1.7c0.3-1.5,0.9-5.5,0.9-5.7C-353.7,330.9-356.3,330.1-359.4,330.1z
		 M-359.4,338.2c-1,0-1.8-0.8-1.8-1.8s0.8-1.8,1.8-1.8s1.8,0.8,1.8,1.8S-358.4,338.2-359.4,338.2z M-359.4,332.5
		c-2,0-3.6-0.3-3.6-0.8c0-0.4,1.6-0.8,3.6-0.8s3.6,0.3,3.6,0.8S-357.4,332.5-359.4,332.5z"/>
	<path class="st0" d="M-355.3,339.3c-0.1,0-0.2,0.1-0.2,0.1s-1.4,1.1-3.9,1.1s-3.9-1.1-3.9-1.1s-0.1-0.1-0.2-0.1s-0.2,0.1-0.2,0.2
		l0,0c0.2,1.2,0.4,2,0.4,2.1c0.2,0.8,1.8,1.5,3.8,1.5l0,0l0,0c2,0,3.7-0.6,3.8-1.5c0-0.1,0.2-0.9,0.4-2.1l0,0
		C-355.1,339.3-355.2,339.3-355.3,339.3z"/>
	<circle class="st0" cx="-359.4" cy="336.4" r="0.9"/>
</g>
<g>
	<polygon class="st0" points="-356,315.6 -358.5,317.2 -361,315.6 -361,312.4 -358.5,310.8 -356,312.4 	"/>
	<polygon class="st0" points="-352,311 -352,317.1 -355,315.8 -355,312.3 	"/>
	<polygon class="st0" points="-365,311 -365,317.1 -362,315.8 -362,312.3 	"/>
	<polygon class="st0" points="-359.5,307.1 -364.5,310.2 -362.2,311.7 -359.3,310 	"/>
	<polygon class="st0" points="-358.2,321 -353,317.9 -355.4,316.3 -358.4,318.1 	"/>
	<polygon class="st0" points="-353.2,310.1 -358.3,307.1 -358.4,310 -355.5,311.7 	"/>
	<polygon class="st0" points="-364.5,318 -359.3,321 -359.1,318.1 -362.1,316.4 	"/>
</g>
<path class="st0" d="M-354.9,371.1c0,0-2.9,0-3.9,0c-1.7,0-3.4,1.4-3.4,3s1.2,2.9,3,2.9c0.1,0,0.2,0,0.4,0c-0.1,0.2-0.2,0.5-0.2,0.8
	c0,0.5,0.2,0.8,0.5,1.1c-0.2,0-0.4,0-0.7,0c-2.2,0-3.8,1.4-3.8,2.9s1.8,2.4,4,2.4c2.5,0,3.8-1.4,3.8-2.9c0-1.2-0.3-1.9-1.4-2.6
	c-0.4-0.3-1-0.9-1-1.3s0.1-0.6,0.7-1.2c0.6-0.5,1.1-1.3,1.1-2.1c0-1-0.4-2-1.3-2.3h1.2L-354.9,371.1L-354.9,371.1z M-356.2,380.9
	c0,0.1,0,0.3,0,0.4c0,1.2-0.7,2.1-2.8,2.1c-1.5,0-2.6-1-2.6-2.2s1.3-2.1,2.8-2.1c0.3,0,0.7,0.1,1,0.2
	C-357,380-356.4,380.3-356.2,380.9L-356.2,380.9z M-358.6,376.6c-1,0-2-1.2-2.1-2.5c-0.2-1.4,0.5-2.4,1.5-2.4s2,1.1,2.1,2.5
	C-357,375.5-357.6,376.6-358.6,376.6z"/>
<g>
	<path class="st0" d="M-352,391.6c0-0.3-0.2-0.5-0.5-0.5h-11.9c-0.3,0-0.5,0.2-0.5,0.5v11.9c0,0.3,0.2,0.5,0.5,0.5h11.9
		c0.3,0,0.5-0.2,0.5-0.5V391.6z"/>
	<g>
		<path class="st15" d="M-361,400.6c0.4,0,0.8,0,1.2,0c0.5,0,0.9-0.3,0.9-0.9c0-0.2,0-0.4,0-0.6c0-0.7-0.3-1-1-1c-0.5,0-0.9,0-1.4,0
			c-0.3,0-0.4-0.1-0.4-0.6c0-0.3,0.1-0.3,0.4-0.3c0.7,0,1.3,0,2,0c0.3,0,0.4-0.1,0.3-0.4c0-0.3,0-0.4-0.3-0.4c-0.4,0-0.9,0-1.3,0
			s-0.8,0-1.2,0c-0.5,0-0.8,0.3-0.8,0.8c0,0.3,0,0.5,0,0.8c0,0.5,0.3,0.9,0.9,0.9c0.5,0,1,0,1.5,0c0.1,0,0.2,0.1,0.2,0.1
			c0,0.2,0.1,0.5,0,0.7c0,0.1-0.3,0.2-0.4,0.2c-0.6,0-1.3,0-1.9,0c-0.3,0-0.3,0.1-0.4,0.5c0,0.3,0.1,0.3,0.3,0.3
			C-361.8,400.5-361.4,400.6-361,400.6z"/>
		<path class="st15" d="M-356.2,395.4L-356.2,395.4c0.5,0,1,0,1.4,0c0.2,0,0.3-0.1,0.3-0.3c0-0.4,0-0.4-0.3-0.4c-0.4,0-0.8,0-1.3,0
			c-0.8,0-1.1,0.3-1.1,1.1c0,0.6,0,0.6-0.6,0.6c0,0,0,0-0.1,0c-0.3,0-0.3,0.2-0.3,0.4s0.1,0.3,0.3,0.3c0.2,0,0.4,0,0.6,0
			c0,0.8,0,1.5,0,2.3c0,0.6,0,0.6,0.5,0.3c0.3-0.2,0.4-0.3,0.4-0.6c0-0.5,0-1,0-1.6c0-0.1,0-0.3,0-0.4c0.5,0,1,0,1.4,0
			c0.2,0,0.3-0.1,0.3-0.3c0-0.4,0-0.4-0.4-0.5c-0.3,0-0.7,0-1,0c-0.4,0-0.4,0-0.4-0.4C-356.2,395.8-356.2,395.6-356.2,395.4z"/>
	</g>
</g>
<g>
	<path class="st0" d="M-352,420.9c0-3.3,0-6.5,0-9.7c-1.9,0-3.8,0-5.7,0c0.1,0.1,0.2,0.2,0.3,0.3c0.9,0.9,1.8,1.8,2.8,2.8
		c0.1,0.1,0.2,0.3,0.2,0.5c0,0.9,0,1.9,0,2.8c0,0.1,0,0.2-0.1,0.3s-0.2,0.2-0.3,0.3c-0.9,0.9-1.8,1.8-2.7,2.7l-0.1,0.1
		C-355.8,420.9-353.9,420.9-352,420.9z"/>
	<path class="st0" d="M-365,415.4c0-0.2,0.1-0.3,0.1-0.5c0.5-1.9,1.6-3.1,3.5-3.7c0.4-0.1,0.8-0.2,1.2-0.2c0.6,0,1.1,0,1.7,0h0.1
		c0,1.1,0,2.2,0,3.3h-0.1c-0.5,0-1.1,0-1.6,0c-0.7,0-1.4,0.6-1.5,1.3c-0.2,0.9,0.4,1.8,1.4,1.9c0.2,0,0.4,0,0.6,0c0.4,0,0.7,0,1.1,0
		h0.1c0,1.1,0,2.2,0,3.3h-0.1c-0.5,0-1,0-1.6,0c-1.1,0-2.1-0.3-2.9-1c-1-0.8-1.6-1.8-1.8-3.1c0-0.1,0-0.1,0-0.2
		C-365,416.2-365,415.8-365,415.4z"/>
	<path class="st18" d="M-352,420.9c-1.9,0-3.8,0-5.7,0c0-0.1,0.1-0.1,0.1-0.1c0.9-0.9,1.8-1.8,2.7-2.7c0.1-0.1,0.2-0.2,0.3-0.3
		c0.1-0.1,0.1-0.2,0.1-0.3c0-0.9,0-1.9,0-2.8c0-0.2-0.1-0.3-0.2-0.5c-0.9-0.9-1.8-1.8-2.8-2.8c-0.1-0.1-0.2-0.2-0.3-0.3
		c1.9,0,3.8,0,5.7,0C-352,414.4-352,417.6-352,420.9z"/>
</g>
<g>
	<path class="st19" d="M-382.5,362.1L-382.5,362.1l2.4-7.4h-4.8L-382.5,362.1L-382.5,362.1z"/>
	<path class="st20" d="M-382.5,362.1l-2.4-7.4h-3.4L-382.5,362.1L-382.5,362.1z"/>
	<path class="st21" d="M-388.2,354.7L-388.2,354.7l-0.7,2.2c-0.1,0.2,0,0.4,0.2,0.6l6.3,4.6L-388.2,354.7L-388.2,354.7z"/>
	<path class="st19" d="M-388.2,354.7h3.4l-1.4-4.4c-0.1-0.2-0.4-0.2-0.5,0L-388.2,354.7L-388.2,354.7z"/>
	<path class="st20" d="M-382.5,362.1l2.4-7.4h3.4L-382.5,362.1L-382.5,362.1z"/>
	<path class="st21" d="M-376.8,354.7L-376.8,354.7l0.7,2.2c0.1,0.2,0,0.4-0.2,0.6l-6.3,4.6L-376.8,354.7L-376.8,354.7z"/>
	<path class="st19" d="M-376.8,354.7h-3.4l1.4-4.4c0.1-0.2,0.4-0.2,0.5,0L-376.8,354.7L-376.8,354.7z"/>
</g>
<g>
	<path class="st22" d="M-358.5,362.1L-358.5,362.1l2.4-7.4h-4.8L-358.5,362.1L-358.5,362.1z"/>
	<path class="st18" d="M-358.5,362.1l-2.4-7.4h-3.4L-358.5,362.1L-358.5,362.1z"/>
	<path class="st23" d="M-364.2,354.7L-364.2,354.7l-0.7,2.2c-0.1,0.2,0,0.4,0.2,0.6l6.3,4.6L-364.2,354.7L-364.2,354.7z"/>
	<path class="st22" d="M-364.2,354.7h3.4l-1.4-4.4c-0.1-0.2-0.4-0.2-0.5,0L-364.2,354.7L-364.2,354.7z"/>
	<path class="st18" d="M-358.5,362.1l2.4-7.4h3.4L-358.5,362.1L-358.5,362.1z"/>
	<path class="st23" d="M-352.8,354.7L-352.8,354.7l0.7,2.2c0.1,0.2,0,0.4-0.2,0.6l-6.3,4.6L-352.8,354.7L-352.8,354.7z"/>
	<path class="st22" d="M-352.8,354.7h-3.4l1.4-4.4c0.1-0.2,0.4-0.2,0.5,0L-352.8,354.7L-352.8,354.7z"/>
</g>
<path class="st0" d="M-359.2,113.2v-1.3h-2.6v-2.6h-1.3v2.6h-2.6v1.3h2.6v2.6h1.3v-2.6C-361.9,113.2-359.2,113.2-359.2,113.2z
	 M-362.5,106.1c1.8,0,3.3,0.6,4.6,1.9c1.3,1.3,1.9,2.8,1.9,4.6s-0.6,3.3-1.9,4.6s-2.8,1.9-4.6,1.9s-3.3-0.6-4.6-1.9
	c-1.3-1.3-1.9-2.8-1.9-4.6s0.6-3.3,1.9-4.6S-364.3,106.1-362.5,106.1z"/>
<path class="st0" d="M-331.5,106.1c-3,0-5.5,2.5-5.5,5.5s2.5,5.5,5.5,5.5c0.4,0,0.7,0,1.1-0.1c-0.1-0.1-0.2-0.6,0-0.9
	s0.6-1.1,0.2-1.4c-0.5-0.3-0.3-0.4-0.6-0.7c-0.3-0.3-0.2-0.4-0.2-0.4c-0.1-0.3,0.3-0.7,0.3-0.7s0-0.2,0-0.3c0,0-0.2-0.2-0.3-0.2
	c-0.1,0-0.1,0.1-0.2,0.1s-0.4-0.2-0.5-0.3s-0.1-0.2-0.2-0.3s-0.1,0-0.3-0.1c-0.2-0.1-0.6-0.2-1-0.4c-0.4-0.2-0.4-0.4-0.4-0.5
	s-0.2-0.4-0.3-0.5c-0.1-0.2-0.1-0.4-0.2-0.3l0.2,0.6c0,0-0.1-0.2-0.2-0.3s0.1-0.1-0.2-0.7c-0.3-0.6,0.1-1,0.1-1.4s0.3,0.1,0.2-0.1
	c-0.1-0.2,0-0.7-0.1-0.9s-0.7,0.2-0.7,0.2c0-0.2,0.5-0.5,0.9-0.7c0.4-0.3,0.6-0.1,0.9,0s0.3,0.1,0.2,0c-0.1-0.1,0-0.1,0.3-0.1
	c0.2,0,0.3,0.3,0.7,0.3s0,0.1,0.1,0.2s-0.1,0.1-0.3,0.2c-0.2,0.2,0,0.2,0.4,0.5s0.3-0.2,0.2-0.4s0.3,0,0.3,0c0.3,0.2,0.2,0,0.4,0.1
	c0.2,0.1,0.7,0.5,0.7,0.5c-0.6,0.3-0.2,0.4-0.1,0.5s-0.2,0.2-0.2,0.2c-0.1-0.1-0.2,0-0.2,0.1c-0.1,0,0,0.2,0,0.2
	c-0.4,0.1-0.3,0.5-0.3,0.6s-0.3,0.3-0.4,0.4c-0.1,0.2,0.2,0.5,0.1,0.5s-0.3-0.5-1-0.3c-0.2,0.1-0.7,0.3-0.5,0.9s0.7-0.2,0.9-0.1
	c0.2,0.1,0,0.4,0,0.4s0.4,0,0.4,0.5s0.6,0.4,0.7,0.4s0.5-0.3,0.6-0.4c0.1,0,0.3-0.2,0.8,0.1c0.5,0.3,0.8,0.3,1,0.4s0.1,0.4,0.2,0.5
	c0.2,0.1,0.8,0,1,0.2c0.2,0.3-0.7,1.6-1,1.8c-0.3,0.2-0.4,0.5-0.7,0.7s-0.6,0.5-1,0.7c-0.3,0.2-0.4,0.5-0.5,0.6
	c2.5-0.5,4.3-2.7,4.3-5.4C-326,108.6-328.5,106.1-331.5,106.1L-331.5,106.1z M-330.2,111.3c-0.1,0-0.2,0.2-0.6-0.1
	c-0.4-0.2-0.6-0.2-0.7-0.2c0,0,0-0.1,0.1-0.1c0.3,0,0.8,0.3,0.9,0.3S-330.4,111.1-330.2,111.3C-330,111.3-330.1,111.2-330.2,111.3
	L-330.2,111.3z M-332,106.6c0,0,0-0.1,0.1-0.1v-0.1c0.1-0.1,0.5-0.2,0.4,0S-332,106.7-332,106.6L-332,106.6z M-331,107.3
	c-0.1,0-0.5,0-0.4-0.1c0.2-0.2-0.1-0.3-0.3-0.3c-0.2,0-0.3-0.1-0.2-0.1c0.1,0,0.5,0,0.5,0.1C-331.3,107-331,107.1-331,107.3
	C-330.9,107.3-330.9,107.4-331,107.3z M-329.9,107.3c-0.1,0.1-0.6-0.3-0.8-0.4c-0.5-0.4-0.7-0.3-0.8-0.3c-0.1-0.1-0.1-0.2,0.1-0.3
	c0.1-0.1,0.6,0,0.8,0.1c0.2,0,0.5,0.2,0.5,0.4C-330,107-329.8,107.2-329.9,107.3L-329.9,107.3z"/>
<path class="st0" d="M-306.8,109.8v-1.1c0-0.4-0.2-0.8-0.5-1.1c-0.3-0.3-0.8-0.5-1.2-0.5s-0.9,0.2-1.2,0.5c-0.3,0.3-0.5,0.7-0.5,1.1
	v1.1H-306.8z M-308.5,114.5c0.3,0,0.6-0.1,0.8-0.3s0.3-0.5,0.3-0.7s-0.1-0.5-0.3-0.7c-0.2-0.2-0.5-0.3-0.8-0.3s-0.6,0.1-0.8,0.3
	c-0.2,0.2-0.3,0.5-0.3,0.7s0.1,0.5,0.3,0.7S-308.8,114.5-308.5,114.5z M-305.1,109.8c0.3,0,0.6,0.1,0.8,0.3c0.2,0.2,0.3,0.4,0.3,0.7
	v5.3c0,0.3-0.1,0.5-0.3,0.7c-0.2,0.2-0.5,0.3-0.8,0.3h-6.7c-0.3,0-0.6-0.1-0.8-0.3c-0.2-0.2-0.3-0.4-0.3-0.7v-5.3
	c0-0.3,0.1-0.5,0.3-0.7c0.2-0.2,0.5-0.3,0.8-0.3h0.6v-1.1c0-0.7,0.3-1.3,0.8-1.9c0.6-0.5,1.2-0.8,2-0.8s1.4,0.3,2,0.8
	s0.8,1.1,0.8,1.9v1.1C-305.7,109.8-305.1,109.8-305.1,109.8z"/>
<path class="st24" d="M-331.5,126.1c-3,0-5.5,2.5-5.5,5.5s2.5,5.5,5.5,5.5c0.4,0,0.7,0,1.1-0.1c-0.1-0.1-0.2-0.6,0-0.9
	s0.6-1.1,0.2-1.4c-0.5-0.3-0.3-0.4-0.6-0.7c-0.3-0.3-0.2-0.4-0.2-0.4c-0.1-0.3,0.3-0.7,0.3-0.7s0-0.2,0-0.3c0,0-0.2-0.2-0.3-0.2
	c-0.1,0-0.1,0.1-0.2,0.1s-0.4-0.2-0.5-0.3s-0.1-0.2-0.2-0.3s-0.1,0-0.3-0.1s-0.6-0.2-1-0.4s-0.4-0.4-0.4-0.5s-0.2-0.4-0.3-0.5
	c-0.1-0.2-0.1-0.4-0.2-0.3l0.2,0.6c0,0-0.1-0.2-0.2-0.3s0.1-0.1-0.2-0.7c-0.3-0.6,0.1-1,0.1-1.4s0.3,0.1,0.2-0.1
	c-0.1-0.2,0-0.7-0.1-0.9c-0.1-0.2-0.7,0.2-0.7,0.2c0-0.2,0.5-0.5,0.9-0.7c0.4-0.3,0.6-0.1,0.9,0s0.3,0.1,0.2,0
	c-0.1-0.1,0-0.1,0.3-0.1c0.2,0,0.3,0.3,0.7,0.3s0,0.1,0.1,0.2s-0.1,0.1-0.3,0.2c-0.2,0.2,0,0.2,0.4,0.5s0.3-0.2,0.2-0.4
	c-0.1-0.2,0.3,0,0.3,0c0.3,0.2,0.2,0,0.4,0.1c0.2,0.1,0.7,0.5,0.7,0.5c-0.6,0.3-0.2,0.4-0.1,0.5s-0.2,0.2-0.2,0.2
	c-0.1-0.1-0.2,0-0.2,0.1c-0.1,0,0,0.2,0,0.2c-0.4,0.1-0.3,0.5-0.3,0.6s-0.3,0.3-0.4,0.4c-0.1,0.2,0.2,0.5,0.1,0.5s-0.3-0.5-1-0.3
	c-0.2,0.1-0.7,0.3-0.5,0.9c0.3,0.5,0.7-0.2,0.9-0.1c0.2,0.1,0,0.4,0,0.4s0.4,0,0.4,0.5s0.6,0.4,0.7,0.4s0.5-0.3,0.6-0.4
	c0.1,0,0.3-0.2,0.8,0.1s0.8,0.3,1,0.4s0.1,0.4,0.2,0.5c0.2,0.1,0.8,0,1,0.2s-0.7,1.6-1,1.8s-0.4,0.5-0.7,0.7c-0.3,0.2-0.6,0.5-1,0.7
	c-0.3,0.2-0.4,0.5-0.5,0.6c2.5-0.5,4.3-2.7,4.3-5.4C-326,128.6-328.5,126.1-331.5,126.1L-331.5,126.1z M-330.2,131.3
	c-0.1,0-0.2,0.2-0.6-0.1c-0.4-0.2-0.6-0.2-0.7-0.2c0,0,0-0.1,0.1-0.1c0.3,0,0.8,0.3,0.9,0.3S-330.4,131.1-330.2,131.3
	C-330,131.2-330.1,131.2-330.2,131.3L-330.2,131.3z M-332,126.6c0,0,0-0.1,0.1-0.1v-0.1c0.1-0.1,0.5-0.2,0.4,0S-332,126.7-332,126.6
	L-332,126.6z M-331,127.3c-0.1,0-0.5,0-0.4-0.1c0.2-0.2-0.1-0.3-0.3-0.3c-0.2,0-0.3-0.1-0.2-0.1c0.1,0,0.5,0,0.5,0.1
	C-331.3,127-331,127.1-331,127.3C-330.9,127.3-330.9,127.4-331,127.3z M-329.9,127.3c-0.1,0.1-0.6-0.3-0.8-0.4
	c-0.5-0.4-0.7-0.3-0.8-0.3c-0.1-0.1-0.1-0.2,0.1-0.3c0.1-0.1,0.6,0,0.8,0.1c0.2,0,0.5,0.2,0.5,0.4C-330,127-329.8,127.2-329.9,127.3
	L-329.9,127.3z"/>
<path class="st24" d="M-306.8,129.8v-1.1c0-0.4-0.2-0.8-0.5-1.1c-0.3-0.3-0.8-0.5-1.2-0.5s-0.9,0.2-1.2,0.5
	c-0.3,0.3-0.5,0.7-0.5,1.1v1.1H-306.8z M-308.5,134.5c0.3,0,0.6-0.1,0.8-0.3c0.2-0.2,0.3-0.5,0.3-0.7s-0.1-0.5-0.3-0.7
	c-0.2-0.2-0.5-0.3-0.8-0.3s-0.6,0.1-0.8,0.3c-0.2,0.2-0.3,0.5-0.3,0.7s0.1,0.5,0.3,0.7S-308.8,134.5-308.5,134.5z M-305.1,129.8
	c0.3,0,0.6,0.1,0.8,0.3s0.3,0.4,0.3,0.7v5.3c0,0.3-0.1,0.5-0.3,0.7c-0.2,0.2-0.5,0.3-0.8,0.3h-6.7c-0.3,0-0.6-0.1-0.8-0.3
	c-0.2-0.2-0.3-0.4-0.3-0.7v-5.3c0-0.3,0.1-0.5,0.3-0.7s0.5-0.3,0.8-0.3h0.6v-1.1c0-0.7,0.3-1.3,0.8-1.9c0.6-0.5,1.2-0.8,2-0.8
	s1.4,0.3,2,0.8s0.8,1.1,0.8,1.9v1.1C-305.7,129.8-305.1,129.8-305.1,129.8z"/>
<g>
	<path class="st25" d="M-258.2,146.6c0.7,0,1.3-0.1,1.9-0.2l2.5,4.6l3.5-9.3c0.6-1.2,0.9-2.5,0.9-3.9c0-4.9-3.9-8.8-8.8-8.8
		s-8.8,3.9-8.8,8.8S-263.1,146.6-258.2,146.6z M-258.2,130.8c3.9,0,7,3.2,7,7c0,1.1-0.3,2.2-0.7,3.1l0,0l-2.2,6.4l-1.4-3
		c-0.8,0.3-1.7,0.5-2.7,0.5c-3.9,0-7-3.2-7-7C-265.2,133.9-262.1,130.8-258.2,130.8z"/>
	<g>
		<path class="st25" d="M-258.8,134.8h1.2l2.5,6.5h-1.2l-0.6-1.7h-2.6l-0.6,1.7h-1.2L-258.8,134.8z M-259.2,138.7h2l-1-2.8l0,0
			L-259.2,138.7z"/>
	</g>
</g>
<g>
	<path class="st4" d="M-228.2,146.6c0.7,0,1.3-0.1,1.9-0.2l2.5,4.6l3.5-9.3c0.6-1.2,0.9-2.5,0.9-3.9c0-4.9-3.9-8.8-8.8-8.8
		s-8.8,3.9-8.8,8.8S-233.1,146.6-228.2,146.6z M-228.2,130.8c3.9,0,7,3.2,7,7c0,1.1-0.3,2.2-0.7,3.1l0,0l-2.2,6.4l-1.4-3
		c-0.8,0.3-1.7,0.5-2.7,0.5c-3.9,0-7-3.2-7-7C-235.2,133.9-232.1,130.8-228.2,130.8z"/>
	<g>
		<path class="st4" d="M-228.8,134.8h1.2l2.5,6.5h-1.2l-0.6-1.7h-2.6l-0.6,1.7h-1.2L-228.8,134.8z M-229.2,138.7h2l-1-2.8l0,0
			L-229.2,138.7z"/>
	</g>
</g>
<path class="st26" d="M-333.9,153.9l7.8-7.9l1,1l-8.9,9l-4.1-4.2l1-1L-333.9,153.9z"/>
<path class="st27" d="M-310.9,153.9l7.8-7.9l1,1l-8.9,9l-4.1-4.2l1-1L-310.9,153.9z"/>
<g>
	<circle class="st28" cx="-330" cy="172" r="8"/>
	<polygon class="st29" points="-328.1,169 -330,170.9 -331.9,169 -333,170.1 -331.1,172 -333,173.9 -331.9,175 -330,173.1 
		-328.1,175 -327,173.9 -328.9,172 -327,170.1 	"/>
</g>
<g>
	<path class="st26" d="M-307,164c-4.4,0-8,3.6-8,8s3.6,8,8,8s8-3.6,8-8S-302.6,164-307,164L-307,164z"/>
	<path class="st15" d="M-310.5,172c0-0.1,0.1-0.2,0.1-0.4l0.6-0.7c0.1-0.1,0.2-0.1,0.3-0.1s0.2,0.1,0.3,0.1l1.3,1.5l3-3.3
		c0.1-0.1,0.2-0.1,0.3-0.1s0.2,0.1,0.3,0.1l0.6,0.7c0.1,0.1,0.1,0.2,0.1,0.4s-0.1,0.2-0.1,0.4l-3.9,4.4c-0.1,0.1-0.2,0.1-0.3,0.1
		s-0.2-0.1-0.3-0.1l-2.3-2.5C-310.4,172.2-310.5,172.1-310.5,172L-310.5,172z"/>
</g>
<g>
	<path class="st0" d="M-258.5,272L-258.5,272c0.6,0,1.3,0.1,1.8,0.3l-7.5-11.1c-0.1-0.1-0.2-0.2-0.3-0.2h-4.4
		c-0.1,0-0.2,0.2-0.1,0.3l7.7,11.4C-260.5,272.3-259.5,272-258.5,272z"/>
	<path class="st0" d="M-248.2,261h-4.4c-0.1,0-0.3,0.1-0.3,0.2l-4.7,7l2.5,3.7l7.1-10.6C-248,261.2-248,261-248.2,261z"/>
	<path class="st0" d="M-258.5,273.2c-2.7,0-4.9,2.2-4.9,4.9c0,2.7,2.2,4.9,4.9,4.9c2.7,0,4.9-2.2,4.9-4.9
		C-253.6,275.4-255.8,273.2-258.5,273.2z M-258.5,280.7c-1.5,0-2.6-1.2-2.6-2.6c0-1.5,1.2-2.6,2.6-2.6c1.5,0,2.6,1.2,2.6,2.6
		C-255.9,279.6-257,280.7-258.5,280.7z"/>
</g>
<g>
	<path class="st0" d="M-361.5,192.5L-361.5,192.5c0.4,0,0.8,0.1,1.1,0.2l-4.6-6.6c0-0.1-0.1-0.1-0.2-0.1h-2.7
		c-0.1,0-0.1,0.1-0.1,0.2l4.7,6.8C-362.7,192.7-362.1,192.5-361.5,192.5z"/>
	<path class="st0" d="M-355.1,186h-2.7c-0.1,0-0.2,0-0.2,0.1l-2.9,4.1l1.5,2.2l4.4-6.2C-355,186.1-355,186-355.1,186z"/>
	<path class="st0" d="M-361.5,193.2c-1.7,0-3,1.3-3,2.9c0,1.6,1.4,2.9,3,2.9c1.7,0,3-1.3,3-2.9
		C-358.5,194.5-359.8,193.2-361.5,193.2z M-361.5,197.7c-0.9,0-1.6-0.7-1.6-1.6c0-0.9,0.7-1.6,1.6-1.6s1.6,0.7,1.6,1.6
		C-359.9,197-360.6,197.7-361.5,197.7z"/>
</g>
<g>
	<path class="st4" d="M-228.5,272L-228.5,272c0.6,0,1.3,0.1,1.8,0.3l-7.5-11.1c-0.1-0.1-0.2-0.2-0.3-0.2h-4.4
		c-0.1,0-0.2,0.2-0.1,0.3l7.7,11.4C-230.5,272.3-229.5,272-228.5,272z"/>
	<path class="st4" d="M-218.2,261h-4.4c-0.1,0-0.3,0.1-0.3,0.2l-4.7,7l2.5,3.7l7.1-10.6C-218,261.2-218,261-218.2,261z"/>
	<path class="st4" d="M-228.5,273.2c-2.7,0-4.9,2.2-4.9,4.9c0,2.7,2.2,4.9,4.9,4.9c2.7,0,4.9-2.2,4.9-4.9
		C-223.6,275.4-225.8,273.2-228.5,273.2z M-228.5,280.7c-1.5,0-2.6-1.2-2.6-2.6c0-1.5,1.2-2.6,2.6-2.6c1.5,0,2.6,1.2,2.6,2.6
		C-225.9,279.6-227,280.7-228.5,280.7z"/>
</g>
<path class="st29" d="M-329,187c-0.8,0-1.4,0.7-1.4,1.5s0.6,1.5,1.4,1.5s1.4-0.7,1.4-1.5S-328.2,187-329,187z M-333.6,187
	c-0.8,0-1.4,0.7-1.4,1.5s0.6,1.5,1.4,1.5s1.4-0.7,1.4-1.5S-332.8,187-333.6,187z M-324.4,187c-0.8,0-1.4,0.7-1.4,1.5
	s0.6,1.5,1.4,1.5s1.4-0.7,1.4-1.5S-323.6,187-324.4,187z"/>
</svg>
