<?xml version="1.0" encoding="utf-8"?>
<!-- Generator: Adobe Illustrator 19.1.0, SVG Export Plug-In . SVG Version: 6.00 Build 0)  -->
<svg version="1.1" id="Layer_1" xmlns="http://www.w3.org/2000/svg" xmlns:xlink="http://www.w3.org/1999/xlink" x="0px" y="0px"
	 viewBox="0 0 150 129" style="enable-background:new 0 0 150 129;" xml:space="preserve">
<style type="text/css">
	.st0{fill:#FFFFFF;}
</style>
<g>
	<polyline class="st0" points="20.9,124.3 22.1,123 25.6,126.2 28.1,123.4 25.3,120.9 26.5,119.7 29.2,122.2 32,119.2 28.4,115.9 
		29.6,114.6 34.6,119.2 25.9,128.8 20.9,124.3 	"/>
</g>
<g>
	<path class="st0" d="M25.9,129l-5.2-4.7l1.4-1.5l3.5,3.2l2.3-2.5l-2.8-2.5l1.4-1.5l2.8,2.5l2.5-2.7l-3.6-3.2l1.4-1.6l5.3,4.8
		L25.9,129z M21.2,124.3l4.7,4.2l8.4-9.3l-4.7-4.3l-0.9,1l3.6,3.2l-3,3.3l-2.8-2.5l-0.9,1l2.8,2.5l-2.7,3l-3.5-3.2L21.2,124.3z"/>
</g>
<g>
	<polyline class="st0" points="17.3,120.2 22.1,111.3 14.8,117.2 13.8,116 23.9,107.8 25,109.2 19.7,119.1 27.7,112.5 28.8,113.8 
		18.7,122 17.3,120.2 	"/>
</g>
<g>
	<path class="st0" d="M18.7,122.2l-1.6-2l0.1-0.1l4.4-8.1l-6.7,5.4l-1.2-1.5l0.1-0.1l10.2-8.3l1.3,1.6l-4.9,9.2l7.5-6.1l1.2,1.5
		L18.7,122.2z M17.5,120.2l1.2,1.5l9.8-7.9l-0.8-1l-7.9,6.4l-0.3-0.2l5.3-9.8l-1-1.2l-9.8,7.9l0.8,1l7.1-5.8l0.3,0.2L17.5,120.2z"/>
</g>
<g>
	<polyline class="st0" points="8.7,107.8 10.3,106.8 11.6,109.1 21.2,103.3 22.1,105 12.6,110.7 13.9,112.9 12.4,113.9 8.7,107.8 	
		"/>
</g>
<g>
	<path class="st0" d="M12.3,114.1l-3.9-6.4l1.9-1.1l1.3,2.2l9.5-5.7l1.2,2l-9.5,5.7l1.3,2.2L12.3,114.1z M9,107.8l3.5,5.8l1.3-0.8
		l-1.3-2.2l9.5-5.7l-0.8-1.3l-9.5,5.7l-1.3-2.2L9,107.8z"/>
</g>
<g>
	<path class="st0" d="M9.3,102.4c1.2,0,2.8-0.7,3.5-1c0.7-0.3,2.3-1,3.1-1.8c0.6-0.6,0.9-1.2,0.5-2.1c-0.4-0.9-1.2-1-1.9-1
		c-1.2,0-2.9,0.7-3.5,1c-0.8,0.4-2.3,1-3.2,1.9c-0.5,0.5-1,1.1-0.6,2.1C7.8,102.3,8.6,102.4,9.3,102.4 M10.4,95.6
		c2.4-1,6.4-2.1,7.8,1.2c1.4,3.2-1.7,5.3-4.5,6.5c-2.7,1.2-6.5,2-7.8-1.2C4.4,98.8,7.6,96.8,10.4,95.6z"/>
</g>
<g>
	<path class="st0" d="M9.4,104.5c-1.6,0-3-0.6-3.8-2.4c-0.4-1-0.5-2-0.1-2.9c0.6-1.5,2.2-2.7,4.7-3.8c4.1-1.8,6.9-1.3,8,1.3
		c1.1,2.6-0.5,5-4.6,6.7C12.4,104,10.8,104.5,9.4,104.5z M14.6,94.7c-1.3,0-2.8,0.5-4.1,1l0,0c-2.4,1-4,2.3-4.5,3.6
		c-0.3,0.8-0.3,1.7,0.1,2.6c1.3,3.1,4.8,2.3,7.6,1.2c2.7-1.2,5.7-3.2,4.4-6.3C17.3,95.3,16,94.7,14.6,94.7z"/>
</g>
<g>
	<path class="st0" d="M9.2,102.6c-0.7,0-1.5-0.2-2-1.2c-0.4-1,0.1-1.7,0.6-2.3c0.6-0.6,1.7-1.3,3.2-1.9c0.8-0.4,2.4-0.9,3.6-1
		c0,0,0.1,0,0.1,0c0.7,0,1.5,0.1,1.9,1.1c0.4,1.1,0,1.8-0.6,2.3c-0.9,0.9-2.5,1.6-3.2,1.9C11.4,102.2,10.2,102.6,9.2,102.6
		L9.2,102.6C9.3,102.6,9.3,102.6,9.2,102.6z M14.8,96.7c0,0-0.1,0-0.1,0c-1.1,0-2.6,0.6-3.4,1c-1.4,0.6-2.5,1.2-3.1,1.8
		c-0.5,0.5-0.9,1-0.5,1.9c0.3,0.8,1,0.9,1.6,0.9c0,0,0.1,0,0.1,0c0.8,0,2-0.3,3.5-1c0.6-0.3,2.2-1,3.1-1.8c0.7-0.7,0.8-1.2,0.5-1.9
		C16,96.8,15.4,96.7,14.8,96.7z"/>
</g>
<g>
	<polyline class="st0" points="2.4,91.4 11.1,87.1 1.5,86.8 0.9,84.1 13.6,81.4 13.9,83.1 3.1,85.4 14.5,85.8 14.8,87.2 4.5,92.2 
		15.4,89.9 15.7,91.4 3,94.1 2.4,91.4 	"/>
</g>
<g>
	<path class="st0" d="M2.9,94.4l-0.7-3.1l0.1-0.1l8-3.9l-9.1-0.4l-0.6-3l13-2.8l0.5,2.1l-9.5,2l10.1,0.3l0.3,1.6l-0.1,0.1L6,91.7
		l9.5-2l0.4,1.9L2.9,94.4z M2.6,91.5l0.5,2.5l12.3-2.6l-0.3-1.2L4.6,92.4L4.5,92l10.1-4.9L14.4,86L3.1,85.6l0-0.4L13.7,83l-0.3-1.4
		L1.1,84.2l0.5,2.4l9.5,0.4l0.1,0.3L2.6,91.5z"/>
</g>
<g>
	<path class="st0" d="M3.3,77.2c1.1,0.4,2.8,0.4,3.6,0.4c0.8,0,2.5-0.1,3.6-0.5c0.8-0.3,1.3-0.8,1.3-1.7c0-1-0.7-1.4-1.3-1.6
		c-1.2-0.4-2.9-0.4-3.6-0.4c-0.9,0-2.5,0.1-3.6,0.5c-0.6,0.3-1.3,0.7-1.3,1.7C2,76.5,2.6,77,3.3,77.2 M6.8,71.3c2.7,0,6.7,0.4,6.8,4
		c0.1,3.5-3.6,4.3-6.6,4.3c-3,0.1-6.7-0.6-6.8-4.1C0.1,72.1,3.8,71.3,6.8,71.3z"/>
</g>
<g>
	<path class="st0" d="M6.6,79.9c-1.7,0-3.1-0.2-4.2-0.7C0.8,78.4,0,77.2,0,75.6c0-2.9,2.3-4.4,6.8-4.5l0,0c0.1,0,0.2,0,0.3,0
		c4.3,0,6.6,1.5,6.6,4.2c0,1.6-0.7,2.9-2.3,3.6c-1.1,0.6-2.7,0.9-4.5,0.9C6.9,79.9,6.7,79.9,6.6,79.9z M6.8,71.5
		c-3,0.1-6.5,0.8-6.5,4.1c0,1.5,0.8,2.6,2.2,3.2c1.1,0.5,2.6,0.7,4.4,0.7c1.8,0,3.3-0.3,4.4-0.9c1.4-0.7,2.1-1.8,2.1-3.3
		c-0.1-3.2-3.4-3.9-6.3-3.9C7,71.5,6.9,71.5,6.8,71.5L6.8,71.5z"/>
</g>
<g>
	<path class="st0" d="M6.6,77.8c-1.5,0-2.6-0.1-3.3-0.4h0c-0.7-0.3-1.4-0.7-1.5-1.8c0-1.1,0.7-1.6,1.4-1.9c1-0.4,2.6-0.5,3.7-0.6
		c0.9,0,2.6,0,3.7,0.4c0.6,0.2,1.4,0.7,1.5,1.8c0,1.2-0.7,1.6-1.4,1.9c-1.1,0.4-2.8,0.5-3.7,0.6C6.8,77.8,6.7,77.8,6.6,77.8z
		 M3.4,77.1c0.5,0.2,1.6,0.5,3.6,0.4c0.9,0,2.5-0.1,3.5-0.5c0.9-0.4,1.2-0.8,1.2-1.6c0-0.9-0.6-1.2-1.2-1.5
		c-1.1-0.4-2.7-0.4-3.6-0.4c-1.1,0-2.6,0.1-3.6,0.5c-0.6,0.3-1.2,0.6-1.2,1.5C2.1,76.5,2.7,76.8,3.4,77.1L3.4,77.1z"/>
</g>
<g>
	<polyline class="st0" points="0.9,65.9 12,67.3 12.5,63.2 14.3,63.4 13.5,69.4 0.7,67.8 0.9,65.9 	"/>
</g>
<g>
	<path class="st0" d="M13.7,69.6l-0.2,0l-13-1.7l0.3-2.3l0.2,0l10.9,1.4l0.5-4.1l2.1,0.3l0,0.2L13.7,69.6z M0.9,67.6l12.5,1.6
		l0.7-5.7l-1.4-0.2l-0.5,4.1l-0.2,0L1.1,66.1L0.9,67.6z"/>
</g>
<g>
	<path class="st0" d="M5.3,57.6c1,0.7,2.6,1.2,3.4,1.4c0.7,0.2,2.4,0.6,3.6,0.5c0.9-0.1,1.5-0.4,1.7-1.3c0.3-0.9-0.3-1.5-0.8-2
		c-1-0.7-2.7-1.2-3.4-1.4c-0.9-0.2-2.5-0.6-3.6-0.5c-0.7,0.1-1.4,0.3-1.7,1.3C4.2,56.6,4.7,57.2,5.3,57.6 M10.4,52.9
		c2.6,0.7,6.3,2.3,5.3,5.8c-0.9,3.4-4.7,3.1-7.6,2.3c-2.9-0.8-6.3-2.5-5.3-5.8C3.7,51.8,7.5,52.1,10.4,52.9z"/>
</g>
<g>
	<path class="st0" d="M11.5,61.7c-1,0-2.1-0.2-3.4-0.5c-4.3-1.2-6.2-3.3-5.5-6.1c0.8-2.8,3.5-3.6,7.8-2.4l0,0
		c1.7,0.5,3.1,1.1,4.1,1.9c1.4,1.1,1.9,2.5,1.4,4.1C15.4,60.7,13.9,61.7,11.5,61.7z M7,52.6c-1.8,0-3.5,0.6-4,2.6
		c-0.9,3.2,2.3,4.8,5.2,5.6c2.9,0.8,6.5,1.1,7.4-2.1c0.4-1.5,0-2.7-1.3-3.8c-0.9-0.7-2.2-1.4-3.9-1.8l0,0C9.3,52.8,8.1,52.6,7,52.6z
		"/>
</g>
<g>
	<path class="st0" d="M11.9,59.8c-1.2,0-2.8-0.4-3.2-0.5c-0.9-0.2-2.5-0.7-3.4-1.5l0,0c-0.6-0.4-1.2-1.1-0.9-2.2
		c0.3-1.1,1.2-1.3,1.9-1.4c0.9-0.1,2.1,0.1,3.7,0.5c1.1,0.3,2.5,0.8,3.4,1.5c0.5,0.4,1.2,1.1,0.9,2.2c-0.3,1.1-1.1,1.3-1.9,1.4
		C12.2,59.8,12,59.8,11.9,59.8z M5.4,57.5c0.9,0.7,2.5,1.2,3.3,1.4c0.5,0.1,2.3,0.6,3.5,0.5c0.9-0.1,1.4-0.4,1.6-1.2
		c0.2-0.9-0.3-1.4-0.8-1.8c-0.7-0.5-1.8-1-3.3-1.4c-1.5-0.4-2.7-0.6-3.6-0.5c-0.7,0.1-1.3,0.3-1.6,1.1C4.4,56.6,4.9,57.1,5.4,57.5
		L5.4,57.5z"/>
</g>
<g>
	<path class="st0" d="M14.5,43.1l6.1,2.8l-0.4,0.9l-1.6-0.5c0.4,0.5,1.2,1.6,0.4,3.3c-1.4,3-5.2,2.2-7.7,1c-2.1-1-6.1-3.3-4.4-6.9
		c1.1-2.4,3.2-2.3,5.2-1.8l-0.3,1.8c-1.2-0.3-2.6-0.6-3.3,0.7c-0.8,1.6,0.9,3,3.5,4.2c2,0.9,4.6,1.8,5.5-0.1
		c0.8-1.8-1.5-2.9-2.2-3.3l-0.9,1.9l-1.5-0.7L14.5,43.1"/>
</g>
<g>
	<path class="st0" d="M15.5,52c-1.7,0-3.3-0.7-4.2-1.1c-2.4-1.1-6.2-3.5-4.5-7.1c1.2-2.6,3.5-2.4,5.4-1.9l0.2,0L12,44.1l-0.2,0
		c-1.2-0.3-2.5-0.6-3.1,0.6c-0.3,0.7-0.2,1.4,0.5,2.1c0.6,0.6,1.5,1.2,2.9,1.9c2.9,1.3,4.6,1.3,5.3,0c0.7-1.4-0.8-2.4-2-2.9
		l-0.9,1.9l-1.9-0.9l1.8-3.9l6.4,3l-0.6,1.2l-1.2-0.4c0.4,0.6,0.8,1.6,0.2,3c-0.6,1.4-1.9,2.2-3.6,2.2C15.6,52,15.5,52,15.5,52z
		 M10.2,41.9c-1.2,0-2.3,0.5-3,2c-1.5,3.3,2.1,5.6,4.3,6.6c0.8,0.4,2.4,1,4,1c0,0,0.1,0,0.1,0c1.6,0,2.7-0.7,3.3-2
		c0.7-1.6,0-2.6-0.4-3.1l-0.3-0.4l2,0.6l0.3-0.6l-5.8-2.7l-1.5,3.2l1.2,0.6l0.9-1.9l0.2,0.1c0.8,0.4,3.2,1.5,2.3,3.5
		c-1.1,2.3-4.6,0.7-5.7,0.2c-1.4-0.7-2.4-1.3-3.1-2c-0.7-0.8-0.9-1.6-0.5-2.5c0.7-1.4,2.1-1.2,3.3-0.9l0.2-1.4
		C11.4,42.1,10.7,41.9,10.2,41.9z"/>
</g>
<g>
	<polyline class="st0" points="11.5,35.9 22.6,42.7 21.6,44.3 10.5,37.6 11.5,35.9 	"/>
</g>
<g>
	<path class="st0" d="M21.7,44.6l-0.2-0.1l-11.2-6.8l1.2-2l0.2,0.1l11.2,6.8L21.7,44.6z M10.8,37.5l10.8,6.5l0.8-1.3l-10.8-6.5
		L10.8,37.5z"/>
</g>
<g>
	<path class="st0" d="M25.1,32.2c0.7,0.8,3.1,3.1,1.1,5.7c-2.3,3-6.2,0.6-7.9-0.7c-1.6-1.2-5.1-4.4-2.8-7.5c2-2.6,4.9-0.9,5.8-0.3
		L20.6,31c-0.9-0.6-2.5-1.5-3.5-0.2c-1.2,1.6,1,3.6,2.6,4.8c1.8,1.4,4.1,2.6,5.2,1.2c0.7-0.9,0.3-1.9-1-3.3L25.1,32.2"/>
</g>
<g>
	<path class="st0" d="M23.4,39.5c-0.4,0-0.9-0.1-1.4-0.2c-1.5-0.4-2.9-1.3-3.8-2c-0.9-0.7-2.2-1.8-2.9-3.1c-1-1.7-0.9-3.2,0.1-4.6
		c2.1-2.7,5.1-1,6-0.4l0.2,0.1l-0.1,0.2l-1,1.8l-0.2-0.1c-1.2-0.7-2.5-1.3-3.3-0.3c-0.8,1.1,0,2.6,2.6,4.6c1.1,0.8,2,1.4,2.8,1.6
		c1,0.3,1.7,0.2,2.1-0.4c0.6-0.8,0.3-1.6-1-3l-0.1-0.1l1.6-1.5l0.1,0.1l-0.1,0.1l0.1-0.1c0.8,0.8,3.2,3.2,1.1,5.9
		C25.6,39,24.6,39.5,23.4,39.5z M18.3,28.5c-0.9,0-1.8,0.3-2.5,1.3c-1,1.3-1,2.7-0.1,4.2c0.7,1.3,2,2.3,2.8,3
		c0.9,0.7,2.2,1.6,3.6,1.9c1.7,0.4,3,0,4-1.2c1.8-2.3-0.1-4.5-1-5.3l-1,1c1.2,1.2,1.8,2.3,0.9,3.4c-0.6,0.7-1.4,0.9-2.5,0.6
		c-0.8-0.3-1.8-0.8-2.9-1.7c-1-0.8-4.2-3.2-2.7-5.1c1-1.3,2.6-0.5,3.6,0.1l0.7-1.3C20.5,29.1,19.4,28.5,18.3,28.5z"/>
</g>
<g>
	<path class="st0" d="M29.1,27L24,23.7l3.2,5.2L29.1,27 M23.5,21.3l11.3,7.1l-1.4,1.4L30.6,28l-2.4,2.4l1.8,2.8l-1.3,1.3l-6.7-11.6
		L23.5,21.3z"/>
</g>
<g>
	<path class="st0" d="M28.5,34.7l-6.8-11.9l1.8-1.7l11.6,7.3L33.4,30l-2.8-1.8l-2.2,2.2l1.8,2.8L28.5,34.7z M22.1,22.9l6.5,11.3
		l1.1-1l-1.8-2.8l2.6-2.6l2.8,1.8l1.1-1.1l-11-6.9L22.1,22.9z"/>
</g>
<g>
	<path class="st0" d="M27.2,29.2L27.1,29l-3.2-5.2l0.3-0.2l5.3,3.4L27.2,29.2z M24.6,24.3l2.7,4.3l1.6-1.5L24.6,24.3z"/>
</g>
<g>
	<polyline class="st0" points="29.3,16.3 36.1,25.2 39.4,22.6 40.5,24.1 35.7,27.8 27.8,17.5 29.3,16.3 	"/>
</g>
<g>
	<path class="st0" d="M35.6,28l-0.1-0.1l-8-10.4l1.8-1.4l0.1,0.1l6.6,8.7l3.3-2.5l1.3,1.7l-0.1,0.1L35.6,28z M28.1,17.5l7.6,10
		l4.5-3.5l-0.9-1.1l-3.3,2.5L36,25.3l-6.6-8.7L28.1,17.5z"/>
</g>
<g>
	<path class="st0" d="M45.6,10.5c-0.9-0.9-1.7-1.4-2.7-0.9c-1.1,0.5-1,1.6-0.7,2.2c0.5,1,1.5,1,3,0.9c1.5-0.1,3.5-0.2,4.7,2.1
		c0.8,1.7,0.7,4-1.8,5.3c-2.9,1.4-4.7-0.8-5.2-1.5l1.3-1.2c0.4,0.5,1.5,1.9,3.2,1.1c1.4-0.7,1.1-2,0.9-2.5c-0.5-1.1-1.6-1.1-2.7-1
		c-1.4,0.1-2,0.1-2.8-0.2c-0.7-0.2-1.6-0.8-2.1-1.9C39.8,11.3,40,9.1,42.2,8c2.5-1.2,4,0.5,4.6,1.2L45.6,10.5"/>
</g>
<g>
	<path class="st0" d="M46.2,20.7c-1.9,0-3-1.4-3.5-2l-0.1-0.1l0.1-0.1l1.4-1.4l0.1,0.2c0.4,0.5,1.4,1.8,3,1c1.4-0.7,1-1.9,0.8-2.3
		c-0.5-1-1.4-1-2.6-0.9c-1.4,0.1-2,0.1-2.9-0.2c-0.4-0.1-1.5-0.6-2.2-2c-0.5-1-0.6-2.1-0.3-3c0.3-0.9,1-1.6,1.9-2.1
		c2.6-1.3,4.2,0.6,4.8,1.2l0.1,0.1L47,9.3l-1.3,1.4l-0.1-0.1C44.7,9.8,44,9.3,43,9.8c-0.4,0.2-0.6,0.4-0.7,0.8
		c-0.1,0.4,0,0.9,0.1,1.2c0.5,0.9,1.3,0.9,2.8,0.8l0.1,0c1.5-0.1,3.7-0.2,4.9,2.2c0.5,0.9,0.6,2,0.3,2.9c-0.3,1.1-1.1,2-2.2,2.6
		C47.5,20.6,46.8,20.7,46.2,20.7z M43.1,18.6c0.7,0.8,2.3,2.6,4.9,1.3c1.1-0.5,1.8-1.3,2-2.3c0.2-0.8,0.1-1.8-0.3-2.7
		c-1.1-2.2-3.1-2.1-4.5-2l-0.1,0c-1.5,0.1-2.6,0.1-3.2-1c-0.2-0.3-0.3-0.9-0.1-1.4c0.1-0.4,0.4-0.8,0.9-1c1.1-0.6,1.9-0.1,2.8,0.8
		l1-1c-0.7-0.7-2.1-2.1-4.3-1c-0.9,0.4-1.5,1.1-1.8,1.9c-0.3,0.8-0.2,1.8,0.2,2.7c0.6,1.3,1.6,1.7,2,1.8c0.8,0.3,1.4,0.2,2.8,0.1
		c1.2-0.1,2.3-0.1,2.9,1.1c0.4,0.8,0.4,2.1-1,2.8c-1.7,0.8-2.8-0.4-3.3-1L43.1,18.6z"/>
</g>
<g>
	<path class="st0" d="M52,7.2c-0.1,1.2,0.4,2.8,0.6,3.6c0.2,0.7,0.8,2.4,1.5,3.3c0.6,0.7,1.1,1,2,0.7c0.9-0.3,1.1-1.1,1.2-1.8
		c0.1-1.2-0.4-2.9-0.6-3.6c-0.3-0.8-0.8-2.4-1.5-3.3c-0.4-0.5-1-1.1-2-0.8C52.3,5.7,52.1,6.5,52,7.2 M58.7,8.9
		c0.8,2.5,1.5,6.5-2,7.6c-3.3,1.1-5.1-2.2-6-5.1c-0.9-2.8-1.4-6.6,2-7.7C56,2.7,57.8,6,58.7,8.9z"/>
</g>
<g>
	<path class="st0" d="M55.5,16.9c-0.6,0-1.1-0.1-1.6-0.4c-1.8-0.9-2.8-3.2-3.4-5c-0.6-1.8-0.8-3.3-0.6-4.6c0.2-1.7,1.1-2.8,2.7-3.3
		c1.6-0.5,2.9-0.1,4.1,1.1c0.9,0.9,1.6,2.3,2.1,4.1l0,0c1.4,4.3,0.6,7-2.1,7.9C56.4,16.9,55.9,16.9,55.5,16.9z M53.9,3.7
		c-0.4,0-0.8,0.1-1.2,0.2c-1.4,0.5-2.2,1.5-2.5,3c-0.2,1.2,0,2.7,0.6,4.4c0.5,1.7,1.5,4,3.2,4.8c0.8,0.4,1.7,0.5,2.6,0.2
		c3.1-1,2.7-4.6,1.8-7.4c-0.6-1.8-1.3-3.1-2.1-4C55.7,4.2,54.8,3.7,53.9,3.7z"/>
</g>
<g>
	<path class="st0" d="M55.6,15.1c-0.7,0-1.2-0.4-1.6-0.9c-0.7-0.9-1.3-2.5-1.6-3.4c-0.5-1.5-0.7-2.8-0.7-3.7v0
		c0.1-0.7,0.3-1.6,1.3-1.9c1.1-0.3,1.7,0.3,2.2,0.8c0.7,0.9,1.2,2.3,1.6,3.4c0.5,1.5,0.7,2.8,0.6,3.7c0,0.7-0.2,1.6-1.3,1.9
		C56,15.1,55.8,15.1,55.6,15.1z M52.2,7.2L52.2,7.2c-0.1,0.8,0.2,2,0.6,3.5c0.3,0.8,0.8,2.4,1.5,3.2c0.6,0.7,1.1,0.9,1.8,0.7
		c0.9-0.3,1-1,1.1-1.6c0-0.8-0.2-2-0.6-3.5c-0.3-0.8-0.8-2.4-1.5-3.3c-0.4-0.5-0.9-1-1.8-0.7C52.4,5.9,52.2,6.6,52.2,7.2z"/>
</g>
<g>
	<path class="st0" d="M69.2,9.4c0,1.1,0.1,4.3-3,4.9c-3.7,0.6-4.9-3.8-5.3-5.9c-0.3-2-0.8-6.7,3.1-7.4c3.2-0.5,4.2,2.7,4.5,3.7
		l-1.7,0.6c-0.3-1.1-0.8-2.8-2.4-2.6c-2,0.3-1.7,3.3-1.4,5.3c0.4,2.3,1.2,4.7,3,4.4c1.2-0.2,1.5-1.2,1.5-3.1L69.2,9.4"/>
</g>
<g>
	<path class="st0" d="M65.5,14.5c-1.6,0-3.9-1-4.8-6.1c-0.4-2.6-0.6-6.9,3.2-7.6c0.3,0,0.5-0.1,0.7-0.1c2.8,0,3.6,2.9,3.9,3.9
		l0.1,0.2l-0.2,0.1l-1.9,0.6l-0.1-0.2c-0.4-1.3-0.9-2.6-2.2-2.4c-1.4,0.2-1.8,1.9-1.2,5.1c0.4,2.1,0.9,3.5,1.7,4
		c0.3,0.2,0.7,0.3,1.1,0.3c1-0.2,1.4-1,1.3-2.9l0-0.2l2.2,0l0,0.2l-0.2,0l0.2,0c0,1.1,0.1,4.5-3.2,5.1C66,14.5,65.8,14.5,65.5,14.5z
		 M64.7,1.1c-0.2,0-0.4,0-0.7,0.1c-3.5,0.6-3.3,4.7-2.9,7.2c0.4,2.4,1.6,6.3,5.1,5.7c2.9-0.5,2.9-3.3,2.9-4.5l-1.4,0
		c0,1.7-0.3,2.9-1.6,3.1c-0.5,0.1-1,0-1.4-0.3c-0.9-0.6-1.5-2-1.8-4.2c-0.2-1.3-0.9-5.1,1.5-5.6c1.7-0.3,2.3,1.4,2.6,2.5l1.4-0.5
		C67.9,3.5,67.1,1.1,64.7,1.1z"/>
</g>
<g>
	<polyline class="st0" points="72.6,0.3 73.4,13.2 71.4,13.4 70.6,0.5 72.6,0.3 	"/>
</g>
<g>
	<path class="st0" d="M71.3,13.6l0-0.2L70.4,0.3l2.3-0.1l0,0.2l0.8,13.1L71.3,13.6z M70.8,0.6l0.8,12.6l1.6-0.1L72.4,0.5L70.8,0.6z"
		/>
</g>
<g>
	<polyline class="st0" points="82.6,0.4 82.6,2.1 77.8,2 77.7,5.7 81.5,5.8 81.4,7.5 77.7,7.4 77.5,11.4 82.4,11.6 82.3,13.3 
		75.6,13.1 76,0.2 82.6,0.4 	"/>
</g>
<g>
	<path class="st0" d="M82.5,13.5l-0.2,0l-6.9-0.2l0-0.2L75.8,0L76,0l6.9,0.2l-0.1,2.1L78,2.1l-0.1,3.4l3.7,0.1l-0.1,2.1l-0.2,0
		l-3.5-0.1l-0.1,3.7l4.8,0.2L82.5,13.5z M75.7,12.9l6.4,0.2l0-1.4l-4.8-0.2l0-0.2l0.1-4.2l0.2,0l3.5,0.1l0-1.3l-3.7-0.1l0-0.2
		l0.1-3.9l4.7,0.2l0-1.3l-6.3-0.2L75.7,12.9z"/>
</g>
<g>
	<polyline class="st0" points="91.1,1.6 90.8,3.4 88.2,3 86.6,14 84.7,13.7 86.3,2.7 83.8,2.3 84,0.5 91.1,1.6 	"/>
</g>
<g>
	<path class="st0" d="M86.7,14.2l-2.3-0.3l1.6-11l-2.5-0.4l0.3-2.2l7.4,1.1l-0.3,2.2l-2.6-0.4L86.7,14.2z M84.9,13.6l1.5,0.2l1.6-11
		l2.6,0.4l0.2-1.4l-6.7-1L84,2.2l2.5,0.4L84.9,13.6z"/>
</g>
<g>
	<polyline class="st0" points="93.6,2.2 94.3,8 97.8,3.3 99.6,3.8 94.5,10.2 93.2,15.5 91.3,15 92.7,9.7 91.6,1.7 93.6,2.2 	"/>
</g>
<g>
	<path class="st0" d="M93.3,15.7l-2.2-0.6l1.4-5.4l-1.1-8.2l2.4,0.6l0.7,5.4l3.3-4.4l2.2,0.6l-5.2,6.6L93.3,15.7z M91.5,14.8
		l1.5,0.4l1.4-5.2l4.9-6.2l-1.4-0.4l-3.7,4.9l-0.7-6.1l-1.7-0.4l1.1,7.8l0,0L91.5,14.8z"/>
</g>
<g>
	<path class="st0" d="M107.1,9.9c-0.9,0.8-1.7,2.3-2,3c-0.3,0.7-1.1,2.3-1.2,3.4c-0.1,0.9,0.1,1.5,0.9,1.9c0.9,0.4,1.5,0,2.1-0.4
		c0.9-0.8,1.7-2.4,2-3c0.4-0.8,1.1-2.3,1.2-3.5c0.1-0.7,0-1.5-0.9-1.9C108.4,9,107.7,9.4,107.1,9.9 M110.8,15.8
		c-1.2,2.4-3.5,5.8-6.7,4.1c-3.1-1.6-2.1-5.2-0.8-7.9c1.3-2.7,3.6-5.7,6.8-4.1C113.2,9.5,112.1,13.1,110.8,15.8z"/>
</g>
<g>
	<path class="st0" d="M105.7,20.5c-0.6,0-1.2-0.1-1.8-0.4c-2.6-1.3-2.9-4.1-0.9-8.1c0.8-1.7,1.8-2.9,2.8-3.7
		c1.3-1.1,2.8-1.2,4.2-0.5c1.5,0.7,2.2,2,2.2,3.7c0,1.3-0.5,2.7-1.3,4.4l0,0c-0.8,1.6-1.7,2.8-2.6,3.6
		C107.5,20.2,106.6,20.5,105.7,20.5z M108.4,7.7c-0.8,0-1.5,0.3-2.3,0.9c-0.9,0.7-1.8,2-2.7,3.6c-1.3,2.7-2.3,6.1,0.7,7.6
		c1.4,0.7,2.7,0.5,3.9-0.5c0.9-0.7,1.8-1.9,2.5-3.5l0,0c0.8-1.7,1.3-3.1,1.3-4.3c0-1.6-0.6-2.7-1.9-3.3
		C109.4,7.8,108.9,7.7,108.4,7.7z"/>
</g>
<g>
	<path class="st0" d="M105.6,18.7c-0.3,0-0.5-0.1-0.8-0.2c-1-0.5-1.1-1.4-1-2.1c0.1-1.2,0.8-2.7,1.2-3.5c0.7-1.5,1.4-2.5,2.1-3.1
		l0,0c0.5-0.5,1.3-1,2.3-0.4c1,0.5,1.1,1.4,1,2.1c-0.1,0.9-0.5,2.1-1.2,3.5c-0.4,0.8-1.2,2.3-2.1,3.1
		C106.7,18.3,106.2,18.7,105.6,18.7z M107.3,10c-0.6,0.6-1.3,1.6-2,3c-0.4,0.8-1.1,2.3-1.2,3.4c-0.1,0.9,0.2,1.4,0.8,1.8
		c0.8,0.4,1.4,0,1.9-0.4c0.8-0.8,1.6-2.2,2-3c0.7-1.4,1.1-2.6,1.2-3.4c0-0.7,0-1.4-0.8-1.8C108.4,9.2,107.8,9.6,107.3,10L107.3,10z"
		/>
</g>
<g>
	<polyline class="st0" points="122.1,15.6 121.1,17 117.3,14.4 115.1,17.6 118.1,19.7 117.2,21.1 114.2,19 111,23.7 109.4,22.6 
		116.7,11.9 122.1,15.6 	"/>
</g>
<g>
	<path class="st0" d="M111,23.9l-1.9-1.3l0.1-0.1l7.5-10.8l0.1,0.1l5.5,3.8l-1.2,1.7l-0.1-0.1l-3.6-2.5l-2,2.9l3,2.1l-1.2,1.7
		l-0.1-0.1l-2.8-2L111,23.9z M109.6,22.5l1.3,0.9l3.2-4.6l0.1,0.1l2.8,2l0.8-1.1l-3-2.1l0.1-0.1l2.3-3.3l0.1,0.1l3.6,2.5l0.8-1.1
		l-5-3.5L109.6,22.5z"/>
</g>
<g>
	<path class="st0" d="M125.2,29.5l3.4-5l-5.2,3.1L125.2,29.5 M131,23.9l-7.3,11.2l-1.3-1.4l1.8-2.8l-2.3-2.5l-2.8,1.7l-1.3-1.3
		l11.7-6.5L131,23.9z"/>
</g>
<g>
	<path class="st0" d="M123.8,35.4l-1.6-1.7l1.8-2.8l-2.1-2.3l-2.8,1.7l-1.5-1.6l0.2-0.1l11.8-6.5l1.7,1.8l-0.1,0.1L123.8,35.4z
		 M122.6,33.7l1.1,1.2l7.1-10.9l-1.3-1.4l-11.4,6.3l1,1.1l2.8-1.7l2.5,2.7L122.6,33.7z"/>
</g>
<g>
	<path class="st0" d="M125.2,29.8l-2.1-2.2l5.4-3.2l0.2,0.3L125.2,29.8z M123.7,27.6l1.5,1.6L128,25L123.7,27.6z"/>
</g>
<g>
	<polyline class="st0" points="136.9,31.2 130.3,38.3 139.5,35.2 141,37.5 130.1,44.6 129.1,43 138.4,37 127.6,40.7 126.8,39.5 
		134.6,31.2 125.4,37.3 124.5,35.9 135.3,28.9 136.9,31.2 	"/>
</g>
<g>
	<path class="st0" d="M130.1,44.8l-1.2-1.8l0.2-0.1l8-5.2l-9.5,3.3l-0.9-1.4l6.9-7.3l-8.2,5.3l-1.1-1.7l0.2-0.1l11-7.2l1.7,2.7
		l-0.1,0.1l-6.1,6.5l8.6-2.9l1.7,2.6l-0.2,0.1L130.1,44.8z M129.4,43.1l0.8,1.2l10.6-6.9l-1.3-2l-9,3l-0.2-0.3l6.5-6.9l-1.4-2.1
		L124.7,36l0.7,1l9.1-5.9l0.2,0.3l-7.7,8.2l0.6,0.9l10.6-3.7l0.2,0.3L129.4,43.1z"/>
</g>
<g>
	<polyline class="st0" points="145.5,47.7 143.9,48.4 142.1,44 138.6,45.4 140.1,48.9 138.5,49.5 137.1,46.1 133.3,47.7 135.2,52.1 
		133.6,52.8 131,46.6 142.9,41.5 145.5,47.7 	"/>
</g>
<g>
	<path class="st0" d="M133.5,53l-0.1-0.2l-2.7-6.4l0.2-0.1l12.1-5.1l0.1,0.2l2.7,6.3l-1.9,0.8l-0.1-0.2l-1.8-4.2l-3.1,1.3l1.5,3.4
		l-1.9,0.8l-1.4-3.4l-3.4,1.4l1.9,4.5L133.5,53z M131.2,46.7l2.5,5.9L135,52l-1.9-4.5l0.2-0.1l3.9-1.6l1.4,3.4l1.2-0.5l-1.5-3.4
		l3.8-1.6l0.1,0.2l1.8,4.2l1.2-0.5l-2.5-5.8L131.2,46.7z"/>
</g>
<g>
	<path class="st0" d="M145.4,53l-4.1,1.1l0.4,1.4c0.3,1.3,1.4,1.6,2.6,1.3c2-0.5,1.6-2,1.5-2.4L145.4,53 M147.4,54.1
		c0.3,1.1,0.3,1.9,0,2.6c-0.3,0.7-1.1,1.6-2.6,1.9c-2.3,0.6-3.3-0.5-3.7-0.9l-5.1,3.6l-0.5-2l4.8-3.1l-0.5-1.8l-5.2,1.4L134,54
		l12.5-3.2L147.4,54.1z"/>
</g>
<g>
	<path class="st0" d="M135.8,61.7l-0.6-2.4l0.1-0.1l4.7-3.1l-0.4-1.5l-5.2,1.4l-0.6-2.2l0.2,0l12.7-3.3l0.9,3.6c0.3,1.2,0.3,2,0,2.7
		c-0.2,0.5-0.9,1.6-2.7,2c-2.2,0.6-3.3-0.4-3.8-0.8L135.8,61.7z M135.6,59.5l0.4,1.6l5-3.6l0.1,0.1c0.4,0.4,1.4,1.4,3.6,0.9
		c1.7-0.4,2.3-1.4,2.5-1.8c0.3-0.6,0.3-1.4,0-2.5l-0.8-3.2l-12.2,3.1l0.4,1.5l5.2-1.4l0.5,2.1L135.6,59.5z"/>
</g>
<g>
	<path class="st0" d="M143.4,57.1c-1,0-1.7-0.5-1.9-1.6l-0.4-1.6l4.4-1.1l0.4,1.6c0.1,0.2,0.2,0.7,0,1.2c-0.2,0.7-0.7,1.1-1.6,1.3
		C144,57.1,143.7,57.1,143.4,57.1z M141.5,54.2l0.3,1.3c0.3,1.1,1.1,1.5,2.4,1.2c0.8-0.2,1.2-0.6,1.4-1.1c0.1-0.4,0-0.9,0-1
		l-0.3-1.3L141.5,54.2z"/>
</g>
<g>
	<polyline class="st0" points="149.1,63 136.2,64.8 136,62.9 148.8,61.1 149.1,63 	"/>
</g>
<g>
	<path class="st0" d="M136.1,65l-0.3-2.3l0.2,0l13-1.8l0.3,2.3l-0.2,0L136.1,65z M136.2,63l0.2,1.6l12.5-1.7l-0.2-1.5L136.2,63z"/>
</g>
<g>
	<path class="st0" d="M140.8,74.5c-1.1-0.1-4.3-0.5-4.4-3.7c-0.1-3.8,4.4-4.3,6.6-4.4c2.1,0,6.8,0.2,6.8,4.1
		c0.1,3.3-3.2,3.7-4.3,3.9l-0.3-1.8c1.1-0.1,2.9-0.4,2.9-2c0-2-3-2.2-5.1-2.1c-2.3,0.1-4.8,0.5-4.8,2.3c0,1.2,1,1.7,2.9,1.9
		L140.8,74.5"/>
</g>
<g>
	<path class="st0" d="M141,74.7l-0.2,0c-3-0.3-4.5-1.6-4.6-3.9c0-1.7,0.8-3,2.6-3.8c1.4-0.6,3-0.8,4.2-0.8c2.6-0.1,6.9,0.4,7,4.3
		c0.1,3.4-3.3,3.9-4.5,4.1l-0.2,0l-0.1-0.2l-0.3-2l0.2,0c1.3-0.2,2.8-0.5,2.7-1.8c0-1.4-1.6-2-4.9-2c-1.4,0-2.5,0.2-3.2,0.5
		c-1,0.4-1.4,0.9-1.4,1.7c0,1,0.8,1.5,2.7,1.7l0.2,0L141,74.7z M143.3,66.6c-0.1,0-0.2,0-0.4,0c-1.1,0-2.7,0.2-4,0.8
		c-1.6,0.7-2.4,1.9-2.3,3.4c0.1,2.9,2.9,3.4,4.1,3.5l0.2-1.4c-1.7-0.2-2.8-0.7-2.8-2.1c0-0.9,0.5-1.6,1.6-2c0.8-0.3,1.9-0.5,3.3-0.5
		c1.3,0,5.2-0.1,5.3,2.3c0,1.7-1.8,2-2.9,2.2l0.2,1.4c1.3-0.2,4.1-0.8,4-3.7C149.6,67.2,145.8,66.6,143.3,66.6z"/>
</g>
<g>
	<path class="st0" d="M140.9,81.1l6.1-0.5l-5.7-2.1L140.9,81.1 M148.8,82.1l-13.2,1.4l0.3-1.9l3.3-0.3l0.4-3.4l-3.1-1.1l0.2-1.8
		l12.4,5L148.8,82.1z"/>
</g>
<g>
	<path class="st0" d="M135.4,83.7l0.3-2.3l3.3-0.3l0.4-3.1l-3.1-1.1l0.3-2.2l12.7,5.2l-0.3,2.4l-0.1,0L135.4,83.7z M136,81.7
		l-0.2,1.6l12.9-1.4l0.2-1.9l-12-4.9l-0.2,1.5l3.1,1.1l-0.5,3.7L136,81.7z"/>
</g>
<g>
	<path class="st0" d="M140.7,81.3l0.4-3.1l5.9,2.2l0,0.4L140.7,81.3z M141.4,78.7l-0.3,2.2l5-0.4L141.4,78.7z"/>
</g>
<path class="st0" d="M109.5,103.1c6.6-6.7,17-12.6,17-12.6c8-3.3,5.7,2.7,5.7,2.7c-2.6,6.7-7.8,6.8-7.8,6.8
	c-2.2,0.3-1.4-2.7-1.4-2.7c-2,0.7-1,2.4-1,2.4c1.4,2.9,6.4-0.3,6.4-0.3c4.6-3,4.6-7.8,4.6-7.8c-0.4-5.5-7.6-1.2-7.6-1.2
	c-6.3,3.4-16.5,12.2-16.5,12.2L109.5,103.1 M108.5,102.4c6.3-8.5,15.5-14,15.5-14c6.5-3,6.3,1,6.3,1c-0.4,4.3-2.5,5.6-2.5,5.6
	c-3.4,2.2-3-1-3-1c-2.6,3.1,1.5,2.8,1.5,2.8c4.1-0.8,4.5-6.1,4.5-6.1c0.8-7.3-8-2.1-8-2.1c-9.2,6.3-15.2,13.6-15.2,13.6L108.5,102.4
	z M54.2,128.9c8.9,0.7,22.8-2.3,22.8-2.3c1.8-0.5,1.1-1.8,1.1-1.8c-3.5-4.8-0.8-7.2-0.8-7.2c0.7-1.3-1.3-1-1.3-1
	c-9.9,1.8-22.8,5.9-22.8,5.9C44.4,128,54.2,128.9,54.2,128.9z M83.3,114.9c-2.1,0.9-3.1,3.5-3.1,3.5c-1.6,3.3,2.1,6.1,2.1,6.1
	c1.1,0.6,2.1,0.1,2.1,0.1c1.4-0.3,12.6-5.9,12.6-5.9c1.6-0.7,0.3-2,0.3-2c-1.3-2.5,0.9-5.9,0.9-5.9c0.9-3.6-2.6-1.8-2.6-1.8
	L83.3,114.9z M101.5,106.7c0,0,5.3-5.7,7.2-2.6c0,0-0.1,1.8-0.3,3.4c0,0,0,1.6-1.7,3c0,0-3.3,2.8-4.4,3.3c0,0-2,1.7-2.1-0.1
	C100.3,113.8,99.9,109.4,101.5,106.7z M76.6,40.7c2.4-4.3,8.7-8.2,8.7-8.2c6.5-2.3,4.4,6.8,4.4,6.8c-1,5.1-4.9,21.5-4.9,21.5
	c2.6,13.7,14.8,31.7,14.8,31.7c-1-8,0.5-28,0.5-28c1.3-14.1,2.6-30.7,2.6-30.7c-0.7-16-15.1-9.5-15.1-9.5
	c-6.2,2.3-12.9,12.1-12.9,12.1L76.6,40.7z M49.3,60.1c-0.1-11.8,5.6-23.6,5.6-23.6c2.8-4.9,4.8,0.2,4.8,0.2C63,48.2,69,72.9,69,72.9
	c4.3,16.2,10.2,25.4,10.2,25.4c0.6,1.4-1.3,1.1-1.3,1.1c-1.3-0.3-3.6,0.2-3.6,0.2c1.1,2.3,3.6,7.7,3.6,7.7c1.4,4.4-3.4,4.3-3.4,4.3
	c12.1,2.1,22.6-6.9,22.6-6.9c4.6-4.2,1.5-9.8,1.5-9.8c-1.3-3.5-2.6-5.1-2.6-5.1c-6.5-7.4-13.4-29.1-13.4-29.1
	c-3.4-10.6-9.3-24.2-9.3-24.2C61,12.5,53.1,29,53.1,29c-6.7,13-7.4,27.8-7.4,27.8L49.3,60.1z M38.6,51.3c1.7-2.9,5.8,3.5,5.8,3.5
	l0.9-5.3c-6-8-10.5-0.2-10.5-0.2L38.6,51.3z M76.1,107.5c0,0-6.4-15.7-15.1-28.8c0,0-8.8-14.6-17.2-21.5c0,0-10.2-9.8-15.3-6.2
	c0,0-9.2,4.5-4.2,24.1c0,0,5.8,24.1,24.8,30.7c0,0,15.3,5.4,26,4C75.1,109.8,77.3,109.7,76.1,107.5z M61.1,95.6
	C58.4,96.3,50,94.4,50,94.4c-9.1-1.7-16.3-11.6-16.3-11.6c-9-14.7-4.9-22.3-4.9-22.3c3.3-8.1,14.5,4.1,14.5,4.1
	c10.3,10.4,19,29.9,19,29.9C62.4,95.5,61.1,95.6,61.1,95.6z"/>
</svg>
