<?xml version="1.0" encoding="utf-8"?>
<!-- Generator: Adobe Illustrator 17.1.0, SVG Export Plug-In . SVG Version: 6.00 Build 0)  -->
<!DOCTYPE svg PUBLIC "-//W3C//DTD SVG 1.1//EN" "http://www.w3.org/Graphics/SVG/1.1/DTD/svg11.dtd">
<svg version="1.1" id="Layer_1" xmlns="http://www.w3.org/2000/svg" xmlns:xlink="http://www.w3.org/1999/xlink" x="0px" y="0px"
	 viewBox="0 0 227.3 66.7" enable-background="new 0 0 227.3 66.7" xml:space="preserve">
<g>
	<g>
		<g>
			<g>
				<path fill="#FFFFFF" d="M9.8,37.4C9.8,19,26.1,9.1,25.7,9.2c0,0-0.1,0-0.1,0C12.3,14.1,5.7,27.6,9.7,41c0.2,0.7,0.5,1.4,0.8,2.1
					C10,41.3,9.8,39.4,9.8,37.4z"/>
				<path fill="#FFFFFF" d="M24.4,31c3.1-3.3,6.6-5.4,9.2-8.4c3.5-4.1,5.2-10,8.8-13.4c-5.2-2-6.6,2.1-9.7,6.2
					c-3.7,4.9-6.5,9.7-11.3,11.6c3-8.2,6.8-15.7,14.7-19.1c-0.7-0.1-1.4-0.1-2.1-0.1c-0.8,0-1.7,0-2.5,0.1
					c-8.6,4.3-15.3,14.2-20.1,33.5c-0.9,3.7,2.5,7.9,4.8,10.1c0.1,0.1,0.2,0.2,0.3,0.3c0.2,0.2,0.4,0.4,0.6,0.5
					c-2.7-4.2,0.7-8.9,2.6-13.4C21.1,36.2,22.6,33,24.4,31z"/>
				<path fill="#FFFFFF" d="M57.8,34.1c-0.9,10.7-5.4,17-12.4,21.7c-0.3,0.2-0.2,0.4,0.2,0.2c0.1-0.1,0.2-0.1,0.4-0.2
					c0.1-0.1,0.2-0.1,0.3-0.2c7.9-4.3,13.2-12.7,13.2-22.4c0-2.9-0.5-5.7-1.4-8.3c0,0,0,0,0,0c-1.4,7.1-6.5,15.3-11.9,18.4
					c3.4-5.3,13.6-18.5,7-26.8c-0.3-0.4-0.7-0.7-1-1.1c1.7,3.3-0.9,6.9-2.2,10.2c-1.7,4.2-2.8,8.1-7,8.6c2.7-5.5,10.4-20,2.4-23.8
					C47,18,40,21,37.3,24.8c-3.2,4.6-5.2,10.2-8.9,14.8c-3.7,4.5-9.1,8.1-9.7,14.1c0,0,0.1,0.1,0.1,0.1c4.7,3.3,6.4-3.2,9.6-3.1
					c-0.6,2.8-1.7,5-3.5,6.5c12.6,4.5,7.8-16,17.2-17.8c-1.2,9.3-1.5,19.5-12.6,19.1c0.9,0.2,1.7,0.3,2.6,0.3
					C47.4,59.3,57.1,39.1,57.8,34.1z"/>
			</g>
			<g>
				<path fill="#FFFFFF" d="M71,34.8V18.5h9.1l-0.8,2.2h-5.5v4.6h5.5v2.2h-5.5v5h6.4v2.2L71,34.8L71,34.8z"/>
				<path fill="#FFFFFF" d="M89.7,34.8l-0.5-1.1c-0.8,0.7-1.9,1.3-3.6,1.3c-2.1,0-3.9-1.4-3.9-3.7c0-2.4,1.9-3.7,5-3.8l2.3-0.1
					c0-0.1,0-0.3,0-0.3c0-1.6-1.1-2.2-2.4-2.2c-1.4,0-2.4,0.5-3.2,0.9l-0.9-1.7c1.6-1,3-1.3,4.6-1.3c2.8,0,4.6,1.1,4.6,4.1v4.3
					c0,2.2,0.1,3.1,0.2,3.5C92,34.8,89.7,34.8,89.7,34.8z M89,29.3l-2,0.1c-1.8,0-2.6,0.7-2.6,1.7c0,1,0.7,1.8,2.1,1.8
					c1.3,0,2.1-0.5,2.5-0.9C89,32,89,29.3,89,29.3z"/>
				<path fill="#FFFFFF" d="M101.5,25.5c-0.4-0.2-0.9-0.3-1.4-0.3c-0.7,0-1.7,0.4-2.4,1.2v8.4H95V23.1h2.2l0.3,1.3
					c1.4-1.2,2.3-1.6,3.4-1.6c0.6,0,1.2,0.2,1.5,0.4L101.5,25.5z"/>
				<path fill="#FFFFFF" d="M106.4,35c-2,0-2.9-1.1-2.9-2.6V20.5l2.7-0.8v3.4h3.8l-0.8,2h-2.9v6.4c0,0.9,0.4,1.4,1.2,1.4
					c0.8,0,1.6-0.4,2.1-0.7l0.7,1.7C109,34.6,107.5,35,106.4,35z"/>
				<path fill="#FFFFFF" d="M120.1,34.8v-6.9c0-1.4-0.3-2.7-2-2.7c-1.2,0-2.3,0.7-3.2,1.5v8.2h-2.7v-17h2.7v6.6
					c1.2-0.9,2.5-1.6,4.1-1.6c1.8,0,3.7,0.9,3.7,4.3v7.7L120.1,34.8L120.1,34.8z"/>
				<path fill="#FFFFFF" d="M138.7,20.8H134v14h-2.7v-14h-4.9v-2.2h13.1L138.7,20.8z"/>
				<path fill="#FFFFFF" d="M147.4,24.5c1.1,1.1,1.7,2.6,1.7,4.4c0,1.8-0.6,3.4-1.7,4.5c-1.1,1-2.5,1.6-4.2,1.6
					c-1.7,0-3.1-0.5-4.1-1.4c-1.2-1.1-1.8-2.7-1.8-4.6c0-1.8,0.6-3.4,1.8-4.5c1-1,2.5-1.6,4.1-1.6C144.9,22.8,146.4,23.4,147.4,24.5
					z M140,28.9c0,2.4,1.2,4,3.2,4c2.1,0,3.2-1.7,3.2-4c0-2.4-1.2-4-3.2-4C141.1,24.9,140,26.5,140,28.9z"/>
				<path fill="#FFFFFF" d="M160.1,34.8l-0.5-1.2c-0.9,0.7-2.2,1.4-3.8,1.4c-1.6,0-4-0.8-4-4.4v-7.5h2.7v7.3c0,1.6,0.8,2.5,2.3,2.5
					c1.1,0,2.1-0.6,2.6-1.2v-8.6h2.7V31c0,2.4,0.1,3.3,0.2,3.8H160.1z"/>
				<path fill="#FFFFFF" d="M170.7,35c-3.9,0-5.9-2.8-5.9-6c0-3.4,2.5-6.2,6.2-6.2c1.5,0,2.6,0.4,3.3,0.8l0,2.2
					c-0.8-0.6-1.8-0.9-3.1-0.9c-2.2,0-3.8,1.7-3.8,4c0,2.2,1.3,4,3.7,4c1.2,0,2.1-0.4,2.9-0.8l0.7,1.7C173.9,34.4,172.4,35,170.7,35
					z"/>
				<path fill="#FFFFFF" d="M184.8,34.8v-6.9c0-1.4-0.3-2.7-2-2.7c-1.2,0-2.3,0.7-3.2,1.5v8.2H177v-17h2.7v6.6
					c1.2-0.9,2.5-1.6,4.1-1.6c1.8,0,3.7,0.9,3.7,4.3v7.7L184.8,34.8L184.8,34.8z"/>
			</g>
		</g>
	</g>
</g>
<g>
	<path fill="#FFFFFF" d="M72,41.2c0.8-0.8,1.8-1.2,3.1-1.2c1.3,0,2.5,0.5,3.2,1.3c0.7,0.8,1.1,1.8,1.1,3.1c0,1.3-0.5,2.5-1.3,3.2
		c-0.8,0.7-1.8,1.2-3,1.2c-1.2,0-2.2-0.4-2.9-1.1c-0.8-0.8-1.3-1.9-1.3-3.3C70.8,43.1,71.3,42,72,41.2z M75.1,41
		c-1.9,0-3.1,1.3-3.1,3.4c0,2.1,1.2,3.4,3.1,3.4c1.9,0,3.1-1.3,3.1-3.4C78.2,42.4,77.1,41,75.1,41z"/>
	<path fill="#FFFFFF" d="M85.3,48.6L85,48c-0.5,0.4-1.1,0.8-2,0.8s-1.9-0.4-1.9-2.2v-4.1h1.2v4c0,0.9,0.4,1.4,1.2,1.4
		c0.7,0,1.2-0.4,1.5-0.7v-4.6h1.1v3.9c0,1.6,0,2,0.1,2.3L85.3,48.6L85.3,48.6z"/>
	<path fill="#FFFFFF" d="M91.2,43.6c-0.2-0.1-0.4-0.1-0.6-0.1c-0.4,0-0.9,0.3-1.3,0.7v4.5h-1.2v-6.2h1l0.1,0.7
		c0.8-0.7,1.3-0.9,1.7-0.9c0.3,0,0.5,0.1,0.7,0.2L91.2,43.6z"/>
	<path fill="#FFFFFF" d="M98.3,45.5h-0.6v3.1h-1.2V40h1.9c1.8,0,3,1,3,2.7C101.4,44.1,100.5,45.5,98.3,45.5z M98.3,41.1h-0.6v3.5
		h0.7c1.2,0,1.8-0.7,1.8-1.8C100.2,41.8,99.5,41.1,98.3,41.1z"/>
	<path fill="#FFFFFF" d="M104.2,48.8c-0.8,0-1.2-0.5-1.2-1.2v-8.1h1.1V47c0,0.5,0.1,0.7,0.5,0.7c0.1,0,0.2,0,0.4-0.1l0.1,0.9
		C104.8,48.7,104.5,48.8,104.2,48.8z"/>
	<path fill="#FFFFFF" d="M110.2,48.6l-0.2-0.6c-0.4,0.4-1,0.7-1.9,0.7c-1,0-1.9-0.7-1.9-1.9c0-1.2,0.9-2,2.5-2l1.2,0
		c0-0.1,0-0.2,0-0.2c0-0.9-0.5-1.3-1.3-1.3c-0.8,0-1.3,0.3-1.6,0.5l-0.4-0.8c0.8-0.5,1.5-0.7,2.3-0.7c1.3,0,2.2,0.6,2.2,2.1v2.1
		c0,1.5,0,1.9,0.1,2.1L110.2,48.6C110.2,48.6,110.2,48.6,110.2,48.6z M109.8,45.7l-1.1,0c-1,0-1.4,0.4-1.4,1c0,0.6,0.4,1,1.1,1
		c0.7,0,1.2-0.3,1.4-0.6L109.8,45.7L109.8,45.7z"/>
	<path fill="#FFFFFF" d="M116.9,48.6v-3.7c0-0.7-0.1-1.5-1-1.5c-0.7,0-1.3,0.4-1.8,0.9v4.4h-1.1v-6.2h1l0.1,0.7
		c0.7-0.5,1.3-0.9,2.2-0.9c0.9,0,1.8,0.6,1.8,2.2v4.1C118,48.6,116.9,48.6,116.9,48.6z"/>
	<path fill="#FFFFFF" d="M120.9,45.8c0,1.1,0.7,2,1.9,2c0.5,0,1.1-0.2,1.5-0.4l0.3,0.8c-0.5,0.4-1.3,0.6-2,0.6c-2,0-2.9-1.6-2.9-3.3
		c0-1.8,1-3.2,2.6-3.2c1.6,0,2.6,1.3,2.6,3.2c0,0.1,0,0.2,0,0.3L120.9,45.8L120.9,45.8z M122.2,43.2c-0.9,0-1.4,0.8-1.4,1.6h2.7
		C123.6,44.1,123.1,43.2,122.2,43.2z"/>
	<path fill="#FFFFFF" d="M128.3,48.8c-1,0-1.4-0.5-1.4-1.4v-4h-1v-0.9h1v-1.4l1.2-0.4v1.8h1.9l-0.4,0.9h-1.5V47
		c0,0.5,0.2,0.7,0.6,0.7c0.4,0,0.8-0.2,1.1-0.4l0.3,0.8C129.6,48.5,128.9,48.8,128.3,48.8z"/>
	<path fill="#FFFFFF" d="M131.6,48.8c-0.4,0-0.8-0.4-0.8-0.8c0-0.5,0.3-0.8,0.8-0.8c0.4,0,0.8,0.3,0.8,0.8
		C132.4,48.4,132.1,48.8,131.6,48.8z"/>
	<path fill="#FFFFFF" d="M141.1,48.8c-2.6,0-4.2-1.9-4.2-4.3c0-2.5,1.8-4.5,4.4-4.5c1,0,1.8,0.2,2.2,0.5l0,1.1
		c-0.7-0.4-1.3-0.6-2.2-0.6c-1.9,0-3.1,1.5-3.1,3.4c0,1.9,1.1,3.4,3.1,3.4c0.7,0,1.4-0.2,2-0.5l0.3,0.9
		C142.8,48.6,141.9,48.8,141.1,48.8z"/>
	<path fill="#FFFFFF" d="M146.4,48.8c-0.8,0-1.2-0.5-1.2-1.2v-8.1h1.2V47c0,0.5,0.1,0.7,0.5,0.7c0.1,0,0.2,0,0.4-0.1l0.1,0.9
		C147,48.7,146.7,48.8,146.4,48.8z"/>
	<path fill="#FFFFFF" d="M153.3,43.1c0.6,0.6,0.8,1.4,0.8,2.4c0,1-0.3,1.8-0.9,2.4c-0.5,0.5-1.2,0.8-2,0.8c-0.8,0-1.5-0.3-2-0.8
		c-0.6-0.6-0.9-1.5-0.9-2.5c0-1,0.3-1.8,0.9-2.4c0.5-0.5,1.2-0.8,2-0.8C152.1,42.3,152.8,42.6,153.3,43.1z M149.5,45.5
		c0,1.4,0.6,2.3,1.7,2.3s1.7-0.9,1.7-2.3c0-1.4-0.6-2.3-1.7-2.3C150.1,43.3,149.5,44.2,149.5,45.5z"/>
	<path fill="#FFFFFF" d="M157.2,48.8c-0.9,0-1.5-0.2-2-0.5l0.4-0.9c0.3,0.2,0.9,0.5,1.6,0.5c0.7,0,1.2-0.3,1.2-0.8
		c0-1.4-2.8-0.9-2.8-3c0-0.9,0.7-1.7,2.1-1.7c0.7,0,1.2,0.1,1.6,0.3v1c-0.5-0.2-0.9-0.4-1.6-0.4c-0.6,0-1.1,0.2-1.1,0.7
		c0,1.2,2.9,0.9,2.9,3C159.6,48.2,158.5,48.8,157.2,48.8z"/>
	<path fill="#FFFFFF" d="M162,45.8c0,1.1,0.7,2,1.9,2c0.5,0,1.1-0.2,1.5-0.4l0.3,0.8c-0.5,0.4-1.3,0.6-2,0.6c-2,0-2.9-1.6-2.9-3.3
		c0-1.8,1-3.2,2.6-3.2c1.6,0,2.6,1.3,2.6,3.2c0,0.1,0,0.2,0,0.3L162,45.8L162,45.8z M163.4,43.2c-0.9,0-1.4,0.8-1.4,1.6h2.7
		C164.8,44.1,164.3,43.2,163.4,43.2z"/>
	<path fill="#FFFFFF" d="M177.2,47.9c-0.5,0.5-1.4,0.9-2.6,0.9c-1.1,0-1.9-0.3-2.4-0.8c-0.7-0.6-0.8-1.6-0.8-2.5V40h1.2v5.4
		c0,0.6,0.1,1.3,0.6,1.7c0.3,0.3,0.8,0.6,1.5,0.6c0.8,0,1.3-0.2,1.7-0.6c0.4-0.4,0.5-1,0.5-1.6V40h1.2v5.6
		C178,46.5,177.7,47.3,177.2,47.9z"/>
	<path fill="#FFFFFF" d="M182.4,48.8c-0.4,0-0.7-0.1-1-0.2v3.1h-1.1v-9c0.5-0.2,1.2-0.4,2.1-0.4c2,0,3.1,1.2,3.1,3.2
		C185.5,47.5,184,48.8,182.4,48.8z M182.3,43.3c-0.4,0-0.7,0.1-1,0.1v4.1c0.3,0.1,0.6,0.2,0.9,0.2c1.2,0,2-0.9,2-2.3
		C184.3,44,183.4,43.3,182.3,43.3z"/>
	<path fill="#FFFFFF" d="M186.7,48.8c-0.4,0-0.8-0.4-0.8-0.8c0-0.5,0.3-0.8,0.8-0.8c0.4,0,0.8,0.3,0.8,0.8
		C187.5,48.4,187.1,48.8,186.7,48.8z"/>
</g>
</svg>
