<?xml version="1.0" encoding="utf-8"?>
<!-- Generator: Adobe Illustrator 16.0.0, SVG Export Plug-In . SVG Version: 6.00 Build 0)  -->
<!DOCTYPE svg PUBLIC "-//W3C//DTD SVG 1.1//EN" "http://www.w3.org/Graphics/SVG/1.1/DTD/svg11.dtd">
<svg version="1.1" id="Layer_1" xmlns="http://www.w3.org/2000/svg" xmlns:xlink="http://www.w3.org/1999/xlink" x="0px" y="0px"
	 width="324.786px" height="82.051px" viewBox="0 0 324.786 82.051" enable-background="new 0 0 324.786 82.051"
	 xml:space="preserve">
<g>
	<defs>
		<path id="SVGID_1_" d="M22.95,11.227c-0.024,0.004-0.058,0.013-0.083,0.025C9.592,16.155,3.03,29.628,7.024,42.992
			c0.217,0.714,0.48,1.396,0.76,2.073c-0.438-1.828-0.617-3.654-0.617-5.641c0-18.243,16.026-28.197,15.789-28.198
			C22.954,11.226,22.953,11.227,22.95,11.227"/>
	</defs>
	<clipPath id="SVGID_2_">
		<use xlink:href="#SVGID_1_"  overflow="visible"/>
	</clipPath>
	
		<linearGradient id="SVGID_3_" gradientUnits="userSpaceOnUse" x1="-29.3228" y1="797.5127" x2="-28.3228" y2="797.5127" gradientTransform="matrix(17.0952 0 0 -17.0952 507.1333 13661.7764)">
		<stop  offset="0" style="stop-color:#4C8B2B"/>
		<stop  offset="0.1357" style="stop-color:#4C8B2B"/>
		<stop  offset="0.237" style="stop-color:#3D8E4D"/>
		<stop  offset="0.4855" style="stop-color:#1D959A"/>
		<stop  offset="0.6625" style="stop-color:#0899CB"/>
		<stop  offset="0.75" style="stop-color:#009BDE"/>
		<stop  offset="1" style="stop-color:#009BDE"/>
	</linearGradient>
	<rect x="3.03" y="11.226" clip-path="url(#SVGID_2_)" fill="url(#SVGID_3_)" width="20.163" height="33.839"/>
</g>
<g>
	<defs>
		<path id="SVGID_4_" d="M28.764,9.951c-8.582,4.295-15.283,14.175-19.993,33.427c-0.897,3.658,2.483,7.899,4.76,10.115
			c0.111,0.111,0.232,0.216,0.342,0.32c0.217,0.201,0.418,0.39,0.606,0.543c-2.74-4.213,0.677-8.887,2.629-13.322
			c1.261-2.886,2.768-6.08,4.567-8.061c3.045-3.339,6.598-5.363,9.134-8.332c3.535-4.127,5.166-9.962,8.823-13.392
			c-5.156-1.968-6.614,2.126-9.626,6.141c-3.651,4.86-6.463,9.692-11.289,11.548c3.041-8.18,6.797-15.641,14.653-19.017
			c-0.692-0.063-1.399-0.097-2.106-0.097C30.417,9.824,29.589,9.868,28.764,9.951"/>
	</defs>
	<clipPath id="SVGID_5_">
		<use xlink:href="#SVGID_4_"  overflow="visible"/>
	</clipPath>
	
		<linearGradient id="SVGID_6_" gradientUnits="userSpaceOnUse" x1="-26.7959" y1="792.5859" x2="-25.7964" y2="792.5859" gradientTransform="matrix(31.0101 0 0 -31.0101 839.5774 24609.9492)">
		<stop  offset="0" style="stop-color:#4C8B2B"/>
		<stop  offset="0.1357" style="stop-color:#4C8B2B"/>
		<stop  offset="0.237" style="stop-color:#3D8E4D"/>
		<stop  offset="0.4855" style="stop-color:#1D959A"/>
		<stop  offset="0.6625" style="stop-color:#0899CB"/>
		<stop  offset="0.75" style="stop-color:#009BDE"/>
		<stop  offset="1" style="stop-color:#009BDE"/>
	</linearGradient>
	<rect x="7.874" y="9.281" clip-path="url(#SVGID_5_)" fill="url(#SVGID_6_)" width="31.758" height="45.076"/>
</g>
<g>
	<defs>
		<path id="SVGID_7_" d="M34.575,26.798c-3.182,4.544-5.156,10.213-8.867,14.773c-3.675,4.498-9.036,8.066-9.718,14.035
			c0.044,0.027,0.087,0.064,0.13,0.093c2.818,1.995,4.532,0.457,6.151-1.082c1.087-1.032,2.131-2.063,3.437-2.028
			c-0.549,2.768-1.671,4.951-3.5,6.446c12.596,4.519,7.776-15.944,17.199-17.729c-1.226,9.316-1.526,19.481-12.549,19.008
			c0.859,0.152,1.743,0.258,2.636,0.318c15.128,0.609,24.791-19.592,25.542-24.535c-0.924,10.716-5.376,16.97-12.401,21.593
			c-0.321,0.181-0.237,0.412,0.238,0.211c0.116-0.064,0.232-0.12,0.356-0.188c0.092-0.053,0.188-0.101,0.278-0.148
			c7.868-4.329,13.2-12.694,13.2-22.305c0-2.893-0.497-5.675-1.389-8.27c-0.007,0-0.022-0.007-0.026-0.007
			c-1.411,7.1-6.475,15.215-11.847,18.348c3.389-5.264,13.611-18.453,7.004-26.757c-0.328-0.374-0.658-0.745-1.008-1.103
			c1.647,3.253-0.909,6.833-2.24,10.127c-1.686,4.189-2.789,8.116-6.984,8.597c2.727-5.452,10.411-19.978,2.418-23.689
			C44.23,20.01,37.217,23.029,34.575,26.798"/>
	</defs>
	<clipPath id="SVGID_8_">
		<use xlink:href="#SVGID_7_"  overflow="visible"/>
	</clipPath>
	
		<linearGradient id="SVGID_9_" gradientUnits="userSpaceOnUse" x1="-26.0571" y1="791.0947" x2="-25.0571" y2="791.0947" gradientTransform="matrix(40.7176 0 0 -40.7176 1076.9388 32249.4844)">
		<stop  offset="0" style="stop-color:#4C8B2B"/>
		<stop  offset="0.1357" style="stop-color:#4C8B2B"/>
		<stop  offset="0.237" style="stop-color:#3D8E4D"/>
		<stop  offset="0.4855" style="stop-color:#1D959A"/>
		<stop  offset="0.6625" style="stop-color:#0899CB"/>
		<stop  offset="0.75" style="stop-color:#009BDE"/>
		<stop  offset="1" style="stop-color:#009BDE"/>
	</linearGradient>
	<rect x="15.99" y="12.506" clip-path="url(#SVGID_8_)" fill="url(#SVGID_9_)" width="41.066" height="51.047"/>
</g>
<polygon fill="#009BDE" points="68.154,36.751 68.154,20.57 77.196,20.57 76.375,22.782 70.854,22.782 70.854,27.37 76.344,27.37 
	76.344,29.576 70.854,29.576 70.854,34.54 77.215,34.54 77.215,36.751 "/>
<path fill="#009BDE" d="M86.82,36.751l-0.51-1.081c-0.773,0.686-1.904,1.325-3.596,1.325c-2.129,0-3.871-1.399-3.871-3.657
	c0-2.388,1.866-3.71,5.026-3.831l2.261-0.078V29.09c0-1.616-1.084-2.212-2.44-2.212c-1.39,0-2.416,0.469-3.161,0.936l-0.893-1.653
	c1.564-1.023,3.006-1.316,4.597-1.316c2.769,0,4.591,1.1,4.591,4.119v4.253c0,2.212,0.056,3.068,0.232,3.534H86.82z M86.112,31.32
	l-1.984,0.077c-1.828,0.05-2.623,0.662-2.623,1.743c0,1.035,0.727,1.792,2.104,1.792c1.261,0,2.064-0.538,2.503-0.933V31.32z"/>
<path fill="#009BDE" d="M98.55,27.543c-0.433-0.217-0.921-0.321-1.363-0.321c-0.723,0-1.646,0.444-2.431,1.158v8.372h-2.682V25.139
	h2.243l0.334,1.272c1.357-1.204,2.305-1.565,3.382-1.565c0.563,0,1.156,0.194,1.543,0.435L98.55,27.543z"/>
<path fill="#009BDE" d="M103.435,36.996c-2.002,0-2.846-1.103-2.846-2.626V22.51l2.663-0.782v3.411h3.772l-0.84,1.986h-2.932v6.337
	c0,0.908,0.39,1.35,1.18,1.35c0.797,0,1.57-0.395,2.061-0.714l0.745,1.671C106.079,36.579,104.597,36.996,103.435,36.996"/>
<path fill="#009BDE" d="M117.167,36.751v-6.92c0-1.353-0.26-2.707-1.959-2.707c-1.202,0-2.332,0.736-3.203,1.446v8.181h-2.669
	V19.838h2.669v6.596c1.208-0.908,2.462-1.588,4.109-1.588c1.794,0,3.721,0.927,3.721,4.265v7.641H117.167z"/>
<polygon fill="#009BDE" points="135.659,22.782 131.022,22.782 131.022,36.752 128.295,36.752 128.295,22.782 123.391,22.782 
	123.391,20.57 136.407,20.57 "/>
<path fill="#009BDE" d="M144.378,26.489c1.078,1.054,1.665,2.623,1.665,4.415c0,1.819-0.611,3.417-1.715,4.495
	c-1.054,1.014-2.49,1.597-4.211,1.597c-1.665,0-3.055-0.494-4.063-1.421c-1.17-1.08-1.813-2.727-1.813-4.596
	c0-1.842,0.643-3.436,1.745-4.517c1.027-1.032,2.466-1.616,4.131-1.616C141.889,24.846,143.352,25.43,144.378,26.489 M136.96,30.932
	c0,2.407,1.205,4.031,3.185,4.031c2.051,0,3.151-1.677,3.151-4.031c0-2.432-1.177-4.022-3.206-4.022
	C138.038,26.91,136.96,28.547,136.96,30.932"/>
<path fill="#009BDE" d="M157.004,36.751l-0.488-1.156c-0.871,0.711-2.203,1.4-3.798,1.4c-1.616,0-3.975-0.787-3.975-4.371v-7.486
	h2.672v7.313c0,1.625,0.763,2.459,2.261,2.459c1.146,0,2.095-0.64,2.639-1.155v-8.617h2.666v7.829c0,2.431,0.053,3.241,0.225,3.784
	H157.004z"/>
<path fill="#009BDE" d="M167.579,36.996c-3.88,0-5.864-2.743-5.864-5.969c0-3.438,2.445-6.181,6.219-6.181
	c1.463,0,2.561,0.361,3.312,0.778l-0.034,2.191c-0.818-0.566-1.814-0.906-3.08-0.906c-2.227,0-3.74,1.662-3.74,3.995
	c0,2.19,1.254,4.007,3.693,4.007c1.205,0,2.102-0.371,2.93-0.834l0.717,1.692C170.786,36.412,169.244,36.996,167.579,36.996"/>
<path fill="#009BDE" d="M181.657,36.751v-6.92c0-1.353-0.257-2.707-1.95-2.707c-1.207,0-2.339,0.736-3.202,1.446v8.181h-2.672
	V19.838h2.672v6.596c1.204-0.908,2.455-1.588,4.104-1.588c1.798,0,3.715,0.927,3.715,4.265v7.641H181.657z"/>
<path fill="#FFFFFF" d="M86.275,69.589L76.024,56.607c-0.785-1.01-1.496-1.983-2.32-3.067H73.63
	c0.112,0.822,0.112,2.469,0.112,3.517v12.532h-5.687V44.935h5.724l9.914,12.459c0.786,1.01,1.497,1.945,2.208,2.992h0.075
	c-0.075-1.271-0.075-3.067-0.075-4.041v-11.41h5.686v24.654H86.275z"/>
<polygon fill="#FFFFFF" points="93.558,69.589 93.558,44.935 108.373,44.935 106.988,49.536 99.281,49.536 99.281,54.7 
	107.025,54.7 107.025,59.339 99.281,59.339 99.281,64.987 108.297,64.987 108.297,69.589 "/>
<path fill="#FFFFFF" d="M134.653,69.776h-4.938l-3.555-9.652c-0.411-1.123-0.86-2.32-1.085-3.33h-0.112
	c-0.224,1.086-0.673,2.282-1.01,3.256l-3.517,9.727h-4.751l-8.979-24.842h6.398l4.377,13.769c0.336,1.048,0.561,2.021,0.86,3.179
	h0.112c0.263-1.084,0.599-2.17,0.936-3.179l3.105-9.354l-1.609-4.414h5.65l4.601,13.318c0.449,1.272,0.861,2.396,1.16,3.592h0.112
	c0.262-1.196,0.487-2.244,0.861-3.517l3.966-13.394h5.798L134.653,69.776z"/>
<path fill="#FFFFFF" d="M147.942,69.964c-3.666,0-6.285-1.197-8.156-2.432l1.896-5.52c1.351,2.15,3.791,3.424,5.961,3.424
	c1.683,0,3.554-0.599,3.554-2.283c0-2.955-6.024-3.44-8.979-6.883c-0.935-1.084-1.534-2.469-1.534-4.377
	c0-3.779,3.03-7.221,8.679-7.221c2.619,0,4.902,0.673,6.436,1.534l-1.578,5.059c-1.343-1.522-2.501-2.103-4.521-2.103
	c-1.721,0-2.955,0.785-2.955,1.982c0,3.928,10.512,3.479,10.512,11.299C157.257,67.12,153.105,69.964,147.942,69.964"/>
<path fill="#FFFFFF" d="M180.753,69.579l-11.589-15.142c-1.196-1.569-1.869-2.543-2.467-3.552h-0.076
	c0.076,0.822,0.076,2.02,0.076,3.215v15.479h-3.889V44.942h3.962l11.142,14.58c1.346,1.756,2.019,2.691,2.578,3.701h0.075
	c-0.037-1.01-0.075-2.242-0.075-3.439V44.942h3.927v24.637H180.753z"/>
<polygon fill="#FFFFFF" points="188.514,69.579 188.514,44.942 201.673,44.942 200.477,48.306 192.439,48.306 192.439,55.298 
	200.44,55.298 200.44,58.663 192.439,58.663 192.439,66.214 201.71,66.214 201.71,69.579 "/>
<polygon fill="#FFFFFF" points="221.284,48.306 214.516,48.306 214.516,69.579 210.554,69.579 210.554,48.306 203.414,48.306 
	203.414,44.94 222.369,44.94 "/>
<path fill="#FFFFFF" d="M247.885,69.728h-3.178l-4.15-11.477c-0.374-1.084-0.822-2.355-1.196-3.664h-0.074
	c-0.374,1.309-0.785,2.543-1.196,3.627l-4.225,11.514h-3.104l-8.748-24.786h4.337l5.047,15.366c0.411,1.232,0.748,2.393,1.084,3.589
	h0.075c0.299-1.159,0.748-2.318,1.159-3.552l3.812-10.73l-1.682-4.673h4l5.233,15.104c0.449,1.383,0.936,2.541,1.234,3.737h0.112
	c0.262-1.233,0.56-2.317,0.972-3.626l4.823-15.216h4.038L247.885,69.728z"/>
<path fill="#FFFFFF" d="M258.183,48.306c2.206-2.242,5.31-3.588,8.936-3.588c3.888,0,7.14,1.42,9.345,3.85
	c2.02,2.244,3.104,5.271,3.104,8.748c0,3.703-1.27,6.955-3.551,9.197c-2.244,2.205-5.271,3.44-8.898,3.44
	c-3.477,0-6.394-1.085-8.562-3.028c-2.467-2.281-3.889-5.609-3.889-9.459C254.668,53.802,255.94,50.586,258.183,48.306
	 M267.119,48.119c-4.973,0-8.3,3.515-8.3,9.272c0,5.719,3.327,9.233,8.3,9.233c4.935,0,8.263-3.515,8.263-9.233
	C275.382,51.858,272.276,48.119,267.119,48.119"/>
<path fill="#FFFFFF" d="M294.208,69.579c-3.852-6.355-5.758-9.721-6.73-9.982h-2.281v9.982h-3.924V44.941h6.131
	c6.168,0,8.523,3.103,8.523,6.88c0,3.364-2.205,5.532-4.635,6.504v0.039c1.008,0.522,3.625,4.896,7.477,11.215H294.208z
	 M287.44,48.343h-2.244v8.188h2.318c2.543,0,4.412-1.943,4.412-4.299C291.927,50.101,290.618,48.343,287.44,48.343"/>
<polygon fill="#FFFFFF" points="313.116,69.579 304.03,58.7 303.958,58.7 303.958,69.579 300.069,69.579 300.069,44.942 
	303.958,44.942 303.958,55.708 304.03,55.708 312.669,45.017 317.304,45.017 307.358,56.979 318.052,69.579 "/>
</svg>
