<?xml version="1.0" encoding="utf-8"?>
<!-- Generator: Adobe Illustrator 18.0.0, SVG Export Plug-In . SVG Version: 6.00 Build 0)  -->
<!DOCTYPE svg PUBLIC "-//W3C//DTD SVG 1.1//EN" "http://www.w3.org/Graphics/SVG/1.1/DTD/svg11.dtd">
<svg version="1.1" id="Layer_1" xmlns="http://www.w3.org/2000/svg" xmlns:xlink="http://www.w3.org/1999/xlink" x="0px" y="0px"
	 viewBox="0 0 612 136" enable-background="new 0 0 612 136" xml:space="preserve">
<g>
	<path fill="#1598D5" d="M33.1,83.1l-0.3-2.6h-0.1c-1.1,1.6-3.3,3-6.2,3c-4.1,0-6.2-2.9-6.2-5.8c0-4.9,4.4-7.6,12.2-7.5v-0.4
		c0-1.7-0.5-4.7-4.6-4.7c-1.9,0-3.9,0.6-5.3,1.5l-0.8-2.4c1.7-1.1,4.1-1.8,6.7-1.8c6.2,0,7.7,4.2,7.7,8.3v7.6c0,1.8,0.1,3.5,0.3,4.9
		H33.1z M32.6,72.7c-4-0.1-8.6,0.6-8.6,4.6c0,2.4,1.6,3.5,3.5,3.5c2.6,0,4.3-1.7,4.9-3.4c0.1-0.4,0.2-0.8,0.2-1.2V72.7z"/>
	<path fill="#1598D5" d="M68.5,53.3v24.5c0,1.8,0,3.9,0.2,5.2h-3.3l-0.2-3.5h-0.1c-1.1,2.3-3.6,4-6.9,4c-4.9,0-8.7-4.1-8.7-10.3
		c0-6.7,4.1-10.9,9.1-10.9c3.1,0,5.2,1.5,6.1,3.1h0.1V53.3H68.5z M64.8,71c0-0.5,0-1.1-0.2-1.6c-0.5-2.3-2.6-4.3-5.3-4.3
		c-3.8,0-6.1,3.4-6.1,7.8c0,4.1,2,7.5,6,7.5c2.5,0,4.7-1.6,5.4-4.4c0.1-0.5,0.2-1,0.2-1.6V71z"/>
	<path fill="#1598D5" d="M78.7,57.1c0,1.3-0.9,2.3-2.3,2.3c-1.3,0-2.2-1-2.2-2.3c0-1.3,1-2.3,2.3-2.3C77.9,54.8,78.7,55.8,78.7,57.1
		z M74.6,83.1V62.8h3.7v20.3H74.6z"/>
	<path fill="#1598D5" d="M85.9,62.8l4,11.4c0.7,1.8,1.2,3.5,1.6,5.2h0.1c0.5-1.7,1-3.4,1.7-5.2l3.9-11.4h3.9l-8,20.3h-3.5l-7.7-20.3
		H85.9z"/>
	<path fill="#1598D5" d="M108.7,57.1c0,1.3-0.9,2.3-2.3,2.3c-1.3,0-2.2-1-2.2-2.3c0-1.3,1-2.3,2.3-2.3
		C107.8,54.8,108.7,55.8,108.7,57.1z M104.6,83.1V62.8h3.7v20.3H104.6z"/>
	<path fill="#1598D5" d="M113.9,79.3c1.1,0.7,3,1.5,4.9,1.5c2.7,0,3.9-1.3,3.9-3c0-1.8-1-2.7-3.8-3.7c-3.6-1.3-5.4-3.3-5.4-5.7
		c0-3.3,2.6-6,7-6c2.1,0,3.9,0.6,5,1.3l-0.9,2.7c-0.8-0.5-2.3-1.2-4.1-1.2c-2.2,0-3.4,1.3-3.4,2.8c0,1.7,1.2,2.4,3.9,3.4
		c3.5,1.3,5.3,3.1,5.3,6.1c0,3.6-2.8,6.1-7.6,6.1c-2.2,0-4.3-0.5-5.7-1.4L113.9,79.3z"/>
	<path fill="#1598D5" d="M135.1,57.1c0,1.3-0.9,2.3-2.3,2.3c-1.3,0-2.2-1-2.2-2.3c0-1.3,1-2.3,2.3-2.3
		C134.2,54.8,135.1,55.8,135.1,57.1z M131,83.1V62.8h3.7v20.3H131z"/>
	<path fill="#1598D5" d="M159.2,72.7c0,7.5-5.2,10.8-10.1,10.8c-5.5,0-9.7-4-9.7-10.4c0-6.8,4.4-10.8,10.1-10.8
		C155.2,62.3,159.2,66.5,159.2,72.7z M143.1,73c0,4.4,2.6,7.8,6.2,7.8c3.5,0,6.2-3.3,6.2-7.9c0-3.4-1.7-7.8-6.1-7.8
		S143.1,69.1,143.1,73z"/>
	<path fill="#1598D5" d="M163.8,68.3c0-2.1,0-3.8-0.2-5.5h3.3l0.2,3.4h0.1c1-1.9,3.4-3.8,6.7-3.8c2.8,0,7.2,1.7,7.2,8.6v12.1h-3.7
		V71.4c0-3.3-1.2-6-4.7-6c-2.4,0-4.3,1.7-4.9,3.8c-0.2,0.5-0.3,1.1-0.3,1.7v12.2h-3.7V68.3z"/>
	<path fill="#1598D5" d="M214.3,72.7c0,7.5-5.2,10.8-10.1,10.8c-5.5,0-9.7-4-9.7-10.4c0-6.8,4.4-10.8,10.1-10.8
		C210.4,62.3,214.3,66.5,214.3,72.7z M198.2,73c0,4.4,2.6,7.8,6.2,7.8c3.5,0,6.2-3.3,6.2-7.9c0-3.4-1.7-7.8-6.1-7.8
		C200.1,65.1,198.2,69.1,198.2,73z"/>
	<path fill="#1598D5" d="M219.4,83.1V65.6h-2.8v-2.8h2.8v-1c0-2.9,0.6-5.4,2.3-7.1c1.4-1.3,3.2-1.9,4.9-1.9c1.3,0,2.4,0.3,3.1,0.6
		l-0.5,2.8c-0.5-0.2-1.3-0.5-2.3-0.5c-3.1,0-3.9,2.8-3.9,5.9v1.1h4.9v2.8H223v17.5H219.4z"/>
</g>
<g>
	<g>
		<g>
			<linearGradient id="SVGID_1_" gradientUnits="userSpaceOnUse" x1="256.4048" y1="55.4602" x2="287.8887" y2="55.4602">
				<stop  offset="0.1357" style="stop-color:#4C8B2B"/>
				<stop  offset="0.237" style="stop-color:#3D8E4D"/>
				<stop  offset="0.4855" style="stop-color:#1D959A"/>
				<stop  offset="0.6625" style="stop-color:#0899CB"/>
				<stop  offset="0.75" style="stop-color:#009BDE"/>
			</linearGradient>
			<path fill="url(#SVGID_1_)" d="M258.8,76.2c0-33.8,29.9-52.1,29.1-51.9c0,0-0.1,0-0.2,0c-24.4,9-36.5,33.8-29.2,58.5
				c0.4,1.3,0.9,2.6,1.4,3.8C259.1,83.3,258.8,79.9,258.8,76.2z"/>
			<linearGradient id="SVGID_2_" gradientUnits="userSpaceOnUse" x1="261.4857" y1="62.7262" x2="318.5995" y2="62.7262">
				<stop  offset="0.1357" style="stop-color:#4C8B2B"/>
				<stop  offset="0.237" style="stop-color:#3D8E4D"/>
				<stop  offset="0.4855" style="stop-color:#1D959A"/>
				<stop  offset="0.6625" style="stop-color:#0899CB"/>
				<stop  offset="0.75" style="stop-color:#009BDE"/>
			</linearGradient>
			<path fill="url(#SVGID_2_)" d="M285.5,64.4c5.6-6.2,12.2-9.9,16.8-15.3c6.5-7.6,9.5-18.3,16.3-24.7c-9.5-3.6-12.2,3.9-17.7,11.3
				c-6.7,8.9-11.9,17.8-20.8,21.3c5.6-15.1,12.5-28.8,27-35c-1.3-0.1-2.6-0.2-3.9-0.2c-1.6,0-3.1,0.1-4.6,0.2
				c-15.8,7.9-28.1,26.1-36.8,61.6c-1.6,6.7,4.6,14.5,8.8,18.6c0.2,0.2,0.4,0.4,0.6,0.6c0.4,0.4,0.8,0.7,1.1,1
				c-5-7.8,1.2-16.4,4.8-24.5C279.4,73.9,282.2,68,285.5,64.4z"/>
			<linearGradient id="SVGID_3_" gradientUnits="userSpaceOnUse" x1="275.0551" y1="70.9869" x2="350.0464" y2="70.9869">
				<stop  offset="0.1357" style="stop-color:#4C8B2B"/>
				<stop  offset="0.237" style="stop-color:#3D8E4D"/>
				<stop  offset="0.4855" style="stop-color:#1D959A"/>
				<stop  offset="0.6625" style="stop-color:#0899CB"/>
				<stop  offset="0.75" style="stop-color:#009BDE"/>
			</linearGradient>
			<path fill="url(#SVGID_3_)" d="M347,70.1c-1.7,19.7-9.9,31.3-22.8,39.8c-0.6,0.3-0.4,0.8,0.4,0.4c0.2-0.1,0.4-0.2,0.7-0.3
				c0.2-0.1,0.3-0.2,0.5-0.3c14.5-8,24.3-23.4,24.3-41.1c0-5.3-0.9-10.5-2.6-15.2c0,0,0,0,0,0c-2.6,13.1-11.9,28-21.8,33.8
				c6.2-9.7,25.1-34,12.9-49.3c-0.6-0.7-1.2-1.4-1.9-2c3,6-1.7,12.6-4.1,18.6c-3.1,7.7-5.1,14.9-12.9,15.8c5-10,19.2-36.8,4.5-43.6
				c2.9,13.8-10,19.4-14.8,26.3c-5.9,8.4-9.5,18.8-16.3,27.2c-6.8,8.3-16.6,14.9-17.9,25.8c0.1,0.1,0.2,0.1,0.2,0.2
				c8.7,6.1,11.7-5.9,17.7-5.7c-1,5.1-3.1,9.1-6.4,11.9c23.2,8.3,14.3-29.4,31.7-32.7c-2.3,17.2-2.8,35.9-23.1,35
				c1.6,0.3,3.2,0.5,4.9,0.6C327.8,116.4,345.6,79.2,347,70.1z"/>
		</g>
		<g>
			<path fill="#4C8B2B" d="M373.3,81.8c1.4-1.4,3.4-2.2,5.7-2.2c2.5,0,4.5,0.9,5.9,2.5c1.3,1.4,2,3.4,2,5.6c0,2.4-0.9,4.5-2.3,5.9
				c-1.4,1.4-3.3,2.1-5.6,2.1c-2.2,0-4-0.7-5.4-2c-1.6-1.4-2.5-3.6-2.5-6.1C371,85.3,371.9,83.3,373.3,81.8z M378.9,81.5
				c-3.4,0-5.6,2.4-5.6,6.2c0,3.8,2.2,6.2,5.6,6.2c3.4,0,5.6-2.4,5.6-6.2C384.5,84.1,382.5,81.5,378.9,81.5z"/>
			<path fill="#4C8B2B" d="M397.6,95.5l-0.5-1.1c-0.8,0.7-2.1,1.4-3.6,1.4s-3.6-0.8-3.6-4.1v-7.4h2.1v7.3c0,1.7,0.7,2.5,2.1,2.5
				c1.3,0,2.3-0.8,2.8-1.3v-8.5h2.1v7.1c0,3,0.1,3.7,0.2,4.2H397.6z"/>
			<path fill="#4C8B2B" d="M408.5,86.2c-0.3-0.2-0.7-0.2-1.2-0.2c-0.7,0-1.6,0.5-2.4,1.2v8.3h-2.1V84.2h1.8l0.3,1.3
				c1.4-1.3,2.3-1.6,3.2-1.6c0.5,0,1,0.2,1.3,0.4L408.5,86.2z"/>
			<path fill="#4C8B2B" d="M421.5,89.8h-1.1v5.7h-2.1V79.7h3.5c3.3,0,5.4,1.8,5.4,5C427.2,87.2,425.6,89.8,421.5,89.8z M421.6,81.6
				h-1.2V88h1.3c2.3,0,3.3-1.3,3.3-3.3C425,82.9,423.8,81.6,421.6,81.6z"/>
			<path fill="#4C8B2B" d="M432.3,95.8c-1.6,0-2.2-1-2.2-2.2v-15h2.1v14c0,1,0.2,1.2,0.9,1.2c0.2,0,0.4,0,0.7-0.1l0.3,1.6
				C433.5,95.6,432.9,95.8,432.3,95.8z"/>
			<path fill="#4C8B2B" d="M443.4,95.5l-0.5-1.1c-0.7,0.7-1.8,1.3-3.4,1.3c-1.9,0-3.5-1.4-3.5-3.5c0-2.3,1.7-3.6,4.6-3.7l2.2-0.1
				c0-0.1,0-0.4,0-0.4c0-1.7-1-2.4-2.3-2.4c-1.4,0-2.3,0.5-3,1l-0.8-1.4c1.4-1,2.7-1.3,4.1-1.3c2.4,0,4.1,1,4.1,3.9v3.8
				c0,2.7,0.1,3.5,0.2,3.9H443.4z M442.8,90.1l-2.1,0.1c-1.9,0.1-2.6,0.7-2.6,1.9c0,1.1,0.7,1.9,2.1,1.9c1.3,0,2.1-0.6,2.6-1.1V90.1
				z"/>
			<path fill="#4C8B2B" d="M455.7,95.5v-6.9c0-1.3-0.2-2.8-1.9-2.8c-1.3,0-2.4,0.8-3.3,1.6v8.1h-2.1V84.2h1.8l0.3,1.3
				c1.3-1,2.4-1.6,4-1.6c1.6,0,3.4,1.1,3.4,4v7.6H455.7z"/>
			<path fill="#4C8B2B" d="M463,90.3c0,2,1.3,3.7,3.6,3.7c1,0,2-0.3,2.8-0.8l0.6,1.4c-1,0.7-2.4,1.2-3.8,1.2c-3.7,0-5.4-2.9-5.4-6.1
				c0-3.3,1.9-5.8,4.8-5.8c3,0,4.7,2.3,4.7,5.8c0,0.2,0,0.4,0,0.6H463z M465.6,85.6c-1.6,0-2.6,1.4-2.6,3h5
				C468,87.2,467.2,85.6,465.6,85.6z"/>
			<path fill="#4C8B2B" d="M476.7,95.8c-1.8,0-2.6-1-2.6-2.5v-7.4h-1.9v-1.7h1.9v-2.6l2.1-0.7v3.2h3.5l-0.7,1.7h-2.8v6.7
				c0,0.9,0.4,1.4,1.1,1.4c0.8,0,1.5-0.4,2-0.7l0.6,1.4C479,95.3,477.8,95.8,476.7,95.8z"/>
			<path fill="#4C8B2B" d="M482.8,95.8c-0.8,0-1.4-0.7-1.4-1.5c0-0.8,0.6-1.5,1.4-1.5c0.8,0,1.4,0.6,1.4,1.5
				C484.3,95.1,483.7,95.8,482.8,95.8z"/>
			<path fill="#4C8B2B" d="M500.2,95.8c-4.8,0-7.7-3.4-7.7-8c0-4.6,3.3-8.2,8.1-8.2c1.8,0,3.2,0.4,4.1,0.9l0,2.1
				c-1.2-0.7-2.4-1.2-4.1-1.2c-3.6,0-5.8,2.7-5.8,6.2c0,3.6,2.1,6.2,5.7,6.2c1.3,0,2.7-0.4,3.7-1l0.6,1.7
				C503.3,95.4,501.7,95.8,500.2,95.8z"/>
			<path fill="#4C8B2B" d="M509.9,95.8c-1.6,0-2.2-1-2.2-2.2v-15h2.1v14c0,1,0.2,1.2,0.9,1.2c0.1,0,0.4,0,0.7-0.1l0.3,1.6
				C511,95.6,510.5,95.8,509.9,95.8z"/>
			<path fill="#4C8B2B" d="M522.6,85.4c1,1.1,1.6,2.6,1.6,4.4c0,1.8-0.6,3.4-1.6,4.4c-0.9,1-2.2,1.5-3.8,1.5c-1.5,0-2.7-0.5-3.7-1.4
				c-1-1.1-1.6-2.7-1.6-4.5c0-1.8,0.6-3.4,1.6-4.5c0.9-1,2.2-1.5,3.7-1.5C520.4,83.9,521.7,84.4,522.6,85.4z M515.7,89.8
				c0,2.5,1.2,4.2,3.2,4.2c2,0,3.1-1.7,3.1-4.2c0-2.5-1.2-4.2-3.2-4.2C516.8,85.6,515.7,87.3,515.7,89.8z"/>
			<path fill="#4C8B2B" d="M529.8,95.8c-1.7,0-2.8-0.4-3.6-0.9l0.8-1.6c0.6,0.4,1.6,0.9,2.9,0.9c1.3,0,2.2-0.6,2.2-1.5
				c0-2.5-5.2-1.6-5.2-5.6c0-1.7,1.3-3.1,3.9-3.1c1.3,0,2.2,0.3,3,0.6v1.8c-0.8-0.4-1.7-0.7-2.9-0.7c-1.1,0-1.9,0.4-1.9,1.3
				c0,2.3,5.3,1.6,5.3,5.4C534.2,94.8,532.1,95.8,529.8,95.8z"/>
			<path fill="#4C8B2B" d="M538.7,90.3c0,2,1.3,3.7,3.6,3.7c1,0,2-0.3,2.8-0.8l0.6,1.4c-1,0.7-2.4,1.2-3.7,1.2
				c-3.7,0-5.4-2.9-5.4-6.1c0-3.3,1.9-5.8,4.8-5.8c3,0,4.7,2.3,4.7,5.8c0,0.2,0,0.4,0,0.6H538.7z M541.3,85.6c-1.6,0-2.6,1.4-2.6,3
				h5C543.7,87.2,542.9,85.6,541.3,85.6z"/>
			<path fill="#4C8B2B" d="M566.6,94.1c-1,1-2.5,1.6-4.7,1.6c-2.1,0-3.5-0.6-4.4-1.4c-1.2-1.2-1.5-3-1.5-4.5V79.7h2.1v10
				c0,1.1,0.3,2.3,1.1,3.1c0.6,0.6,1.5,1,2.8,1c1.5,0,2.5-0.4,3.1-1c0.7-0.7,0.9-1.8,0.9-3V79.7h2.1V90
				C568,91.6,567.6,93.1,566.6,94.1z"/>
			<path fill="#4C8B2B" d="M576.1,95.8c-0.8,0-1.3-0.1-1.8-0.3v5.8h-2.1V84.7c0.9-0.3,2.2-0.8,3.9-0.8c3.6,0,5.8,2.2,5.8,5.8
				C581.8,93.5,579.1,95.8,576.1,95.8z M576,85.7c-0.7,0-1.3,0.1-1.8,0.3v7.6c0.6,0.2,1,0.4,1.7,0.4c2.2,0,3.7-1.6,3.7-4.2
				C579.7,87,578,85.7,576,85.7z"/>
			<path fill="#4C8B2B" d="M584.1,95.8c-0.8,0-1.4-0.7-1.4-1.5c0-0.8,0.6-1.5,1.4-1.5c0.8,0,1.4,0.6,1.4,1.5
				C585.5,95.1,584.9,95.8,584.1,95.8z"/>
		</g>
		<g>
			<path fill="#009BDE" d="M371.1,71.3V41.5h16.7l-1.5,4.1h-10.2V54h10.1v4.1h-10.1v9.1h11.7v4.1H371.1z"/>
			<path fill="#009BDE" d="M405.5,71.3l-0.9-2c-1.4,1.3-3.5,2.4-6.6,2.4c-3.9,0-7.1-2.6-7.1-6.7c0-4.4,3.4-6.8,9.3-7.1l4.2-0.1
				c0-0.2,0-0.5,0-0.6c0-3-2-4.1-4.5-4.1c-2.6,0-4.4,0.9-5.8,1.7l-1.6-3c2.9-1.9,5.5-2.4,8.5-2.4c5.1,0,8.5,2,8.5,7.6v7.8
				c0,4.1,0.1,5.6,0.4,6.5H405.5z M404.2,61.3l-3.7,0.1c-3.4,0.1-4.8,1.2-4.8,3.2c0,1.9,1.3,3.3,3.9,3.3c2.3,0,3.8-1,4.6-1.7V61.3z"
				/>
			<path fill="#009BDE" d="M427.1,54.3c-0.8-0.4-1.7-0.6-2.5-0.6c-1.3,0-3,0.8-4.5,2.1v15.4h-4.9V49.9h4.1l0.6,2.3
				c2.5-2.2,4.2-2.9,6.2-2.9c1,0,2.1,0.4,2.8,0.8L427.1,54.3z"/>
			<path fill="#009BDE" d="M436.1,71.8c-3.7,0-5.2-2-5.2-4.8V45.1l4.9-1.4v6.3h6.9l-1.5,3.7h-5.4v11.7c0,1.7,0.7,2.5,2.2,2.5
				c1.5,0,2.9-0.7,3.8-1.3l1.4,3.1C441,71,438.2,71.8,436.1,71.8z"/>
			<path fill="#009BDE" d="M461.4,71.3V58.6c0-2.5-0.5-5-3.6-5c-2.2,0-4.3,1.4-5.9,2.7v15.1H447V40.2h4.9v12.1
				c2.2-1.7,4.5-2.9,7.6-2.9c3.3,0,6.9,1.7,6.9,7.9v14.1H461.4z"/>
			<path fill="#009BDE" d="M495.4,45.6h-8.5v25.7h-5V45.6h-9v-4.1h24L495.4,45.6z"/>
			<path fill="#009BDE" d="M511.5,52.4c2,1.9,3.1,4.8,3.1,8.1c0,3.4-1.1,6.3-3.2,8.3c-1.9,1.9-4.6,2.9-7.8,2.9
				c-3.1,0-5.6-0.9-7.5-2.6c-2.2-2-3.3-5-3.3-8.5c0-3.4,1.2-6.3,3.2-8.3c1.9-1.9,4.5-3,7.6-3C506.9,49.4,509.6,50.5,511.5,52.4z
				 M497.8,60.6c0,4.4,2.2,7.4,5.9,7.4c3.8,0,5.8-3.1,5.8-7.4c0-4.5-2.2-7.4-5.9-7.4C499.8,53.2,497.8,56.2,497.8,60.6z"/>
			<path fill="#009BDE" d="M534.8,71.3l-0.9-2.1c-1.6,1.3-4.1,2.6-7,2.6c-3,0-7.3-1.4-7.3-8.1V49.9h4.9v13.5c0,3,1.4,4.5,4.2,4.5
				c2.1,0,3.9-1.2,4.9-2.1V49.9h4.9v14.4c0,4.5,0.1,6,0.4,7H534.8z"/>
			<path fill="#009BDE" d="M554.2,71.8c-7.1,0-10.8-5.1-10.8-11c0-6.3,4.5-11.4,11.5-11.4c2.7,0,4.7,0.7,6.1,1.4l-0.1,4
				c-1.5-1-3.3-1.7-5.7-1.7c-4.1,0-6.9,3.1-6.9,7.4c0,4,2.3,7.4,6.8,7.4c2.2,0,3.9-0.7,5.4-1.5l1.3,3.1
				C560.1,70.7,557.3,71.8,554.2,71.8z"/>
			<path fill="#009BDE" d="M580.2,71.3V58.6c0-2.5-0.5-5-3.6-5c-2.2,0-4.3,1.4-5.9,2.7v15.1h-4.9V40.2h4.9v12.1
				c2.2-1.7,4.5-2.9,7.6-2.9c3.3,0,6.8,1.7,6.8,7.9v14.1H580.2z"/>
		</g>
	</g>
</g>
</svg>
