<?xml version="1.0" encoding="utf-8"?>
<!-- Generator: Adobe Illustrator 16.0.0, SVG Export Plug-In . SVG Version: 6.00 Build 0)  -->
<!DOCTYPE svg PUBLIC "-//W3C//DTD SVG 1.1//EN" "http://www.w3.org/Graphics/SVG/1.1/DTD/svg11.dtd">
<svg version="1.1" id="Layer_1" xmlns="http://www.w3.org/2000/svg" xmlns:xlink="http://www.w3.org/1999/xlink" x="0px" y="0px"
	 width="227.334px" height="66.667px" viewBox="0 0 227.334 66.667" enable-background="new 0 0 227.334 66.667"
	 xml:space="preserve">
<g>
	<g>
		<g>
			<g>
				
					<linearGradient id="SVGID_1_" gradientUnits="userSpaceOnUse" x1="8.3926" y1="39.5845" x2="25.5356" y2="39.5845" gradientTransform="matrix(1 0 0 -1 0.1401 65.7217)">
					<stop  offset="0.1357" style="stop-color:#4C8B2B"/>
					<stop  offset="0.237" style="stop-color:#3D8E4D"/>
					<stop  offset="0.4855" style="stop-color:#1D959A"/>
					<stop  offset="0.6625" style="stop-color:#0899CB"/>
					<stop  offset="0.75" style="stop-color:#009BDE"/>
				</linearGradient>
				<path fill="url(#SVGID_1_)" d="M9.839,37.447c0-18.402,16.262-28.394,15.828-28.275c-0.025,0.003-0.059,0.013-0.083,0.024
					C12.272,14.113,5.691,27.624,9.697,41.025c0.216,0.717,0.48,1.4,0.762,2.079C10.019,41.27,9.839,39.438,9.839,37.447z"/>
				
					<linearGradient id="SVGID_2_" gradientUnits="userSpaceOnUse" x1="11.1602" y1="35.6284" x2="42.2568" y2="35.6284" gradientTransform="matrix(1 0 0 -1 0.1401 65.7217)">
					<stop  offset="0.1357" style="stop-color:#4C8B2B"/>
					<stop  offset="0.237" style="stop-color:#3D8E4D"/>
					<stop  offset="0.4855" style="stop-color:#1D959A"/>
					<stop  offset="0.6625" style="stop-color:#0899CB"/>
					<stop  offset="0.75" style="stop-color:#009BDE"/>
				</linearGradient>
				<path fill="url(#SVGID_2_)" d="M24.388,30.978c3.055-3.349,6.617-5.379,9.161-8.354c3.544-4.14,5.18-9.991,8.848-13.431
					c-5.17-1.973-6.632,2.132-9.653,6.158c-3.662,4.873-6.481,9.72-11.32,11.581c3.048-8.203,6.816-15.686,14.694-19.072
					c-0.694-0.062-1.404-0.096-2.113-0.096c-0.85,0-1.68,0.043-2.506,0.127c-8.607,4.307-15.326,14.215-20.051,33.521
					c-0.898,3.668,2.491,7.922,4.774,10.145c0.111,0.111,0.233,0.217,0.344,0.322c0.218,0.201,0.418,0.391,0.607,0.545
					c-2.748-4.225,0.679-8.914,2.637-13.361C21.073,36.167,22.585,32.963,24.388,30.978z"/>
				
					<linearGradient id="SVGID_3_" gradientUnits="userSpaceOnUse" x1="18.5459" y1="31.1313" x2="59.3789" y2="31.1313" gradientTransform="matrix(1 0 0 -1 0.1401 65.7217)">
					<stop  offset="0.1357" style="stop-color:#4C8B2B"/>
					<stop  offset="0.237" style="stop-color:#3D8E4D"/>
					<stop  offset="0.4855" style="stop-color:#1D959A"/>
					<stop  offset="0.6625" style="stop-color:#0899CB"/>
					<stop  offset="0.75" style="stop-color:#009BDE"/>
				</linearGradient>
				<path fill="url(#SVGID_3_)" d="M57.843,34.11c-0.925,10.748-5.39,17.019-12.435,21.655c-0.322,0.181-0.238,0.412,0.239,0.211
					c0.115-0.064,0.232-0.121,0.356-0.188c0.094-0.054,0.189-0.102,0.279-0.15c7.891-4.342,13.237-12.729,13.237-22.367
					c0-2.901-0.499-5.691-1.394-8.293c-0.005,0-0.021-0.007-0.024-0.007c-1.416,7.119-6.494,15.258-11.881,18.399
					c3.399-5.279,13.649-18.505,7.023-26.833c-0.328-0.375-0.66-0.747-1.011-1.105c1.653,3.262-0.91,6.853-2.246,10.155
					c-1.691,4.202-2.797,8.14-7.004,8.622c2.735-5.467,10.44-20.034,2.425-23.756c1.599,7.526-5.434,10.554-8.083,14.333
					c-3.191,4.558-5.17,10.242-8.892,14.814c-3.686,4.511-9.062,8.089-9.746,14.074c0.044,0.027,0.087,0.063,0.13,0.093
					c4.724,3.343,6.354-3.209,9.616-3.12c-0.551,2.775-1.676,4.967-3.51,6.466c12.63,4.532,7.798-15.987,17.247-17.778
					c-1.23,9.344-1.53,19.537-12.584,19.062c0.861,0.151,1.748,0.257,2.643,0.319C47.4,59.326,57.091,39.068,57.843,34.11z"/>
			</g>
			<g>
				<path fill="#009BDE" d="M70.998,34.767V18.541h9.067l-0.822,2.218h-5.536v4.6h5.505v2.213h-5.505v4.979h6.378v2.218h-9.087
					V34.767z"/>
				<path fill="#009BDE" d="M89.717,34.767l-0.512-1.084c-0.773,0.688-1.908,1.329-3.605,1.329c-2.136,0-3.882-1.404-3.882-3.669
					c0-2.394,1.871-3.72,5.04-3.841l2.268-0.078c0-0.096,0-0.294,0-0.34c0-1.621-1.088-2.219-2.447-2.219
					c-1.395,0-2.422,0.471-3.169,0.938l-0.896-1.658c1.568-1.024,3.015-1.318,4.61-1.318c2.776,0,4.604,1.104,4.604,4.13v4.266
					c0,2.218,0.057,3.075,0.232,3.544H89.717z M89.006,29.321l-1.988,0.077c-1.834,0.05-2.631,0.664-2.631,1.747
					c0,1.038,0.729,1.797,2.111,1.797c1.264,0,2.068-0.538,2.508-0.935V29.321z"/>
				<path fill="#009BDE" d="M101.479,25.532c-0.434-0.218-0.922-0.322-1.366-0.322c-0.724,0-1.65,0.446-2.438,1.162v8.396h-2.688
					V23.122h2.249l0.336,1.275c1.359-1.207,2.311-1.569,3.391-1.569c0.564,0,1.159,0.195,1.547,0.437L101.479,25.532z"/>
				<path fill="#009BDE" d="M106.377,35.012c-2.008,0-2.854-1.106-2.854-2.634V20.485l2.671-0.784v3.421h3.782l-0.842,1.991h-2.94
					v6.354c0,0.911,0.392,1.354,1.185,1.354c0.798,0,1.573-0.396,2.066-0.717l0.746,1.677
					C109.029,34.593,107.543,35.012,106.377,35.012z"/>
				<path fill="#009BDE" d="M120.147,34.767v-6.939c0-1.356-0.26-2.715-1.965-2.715c-1.205,0-2.338,0.739-3.213,1.45v8.204h-2.676
					V17.805h2.676v6.615c1.213-0.911,2.469-1.593,4.121-1.593c1.801,0,3.73,0.929,3.73,4.277v7.662L120.147,34.767L120.147,34.767z"
					/>
				<path fill="#009BDE" d="M138.692,20.758h-4.649v14.009h-2.733V20.758h-4.918V18.54h13.051L138.692,20.758z"/>
				<path fill="#009BDE" d="M147.437,24.475c1.082,1.057,1.67,2.63,1.67,4.428c0,1.823-0.613,3.427-1.719,4.507
					c-1.058,1.017-2.498,1.603-4.224,1.603c-1.67,0-3.065-0.496-4.076-1.426c-1.172-1.084-1.815-2.735-1.815-4.609
					c0-1.847,0.645-3.445,1.75-4.529c1.028-1.035,2.473-1.62,4.143-1.62C144.94,22.828,146.407,23.413,147.437,24.475z
					 M139.998,28.93c0,2.413,1.207,4.042,3.192,4.042c2.058,0,3.16-1.682,3.16-4.042c0-2.438-1.182-4.033-3.217-4.033
					C141.079,24.897,139.998,26.539,139.998,28.93z"/>
				<path fill="#009BDE" d="M160.099,34.767l-0.49-1.159c-0.873,0.713-2.209,1.404-3.81,1.404c-1.618,0-3.985-0.79-3.985-4.384
					v-7.507h2.681v7.333c0,1.63,0.767,2.466,2.269,2.466c1.147,0,2.1-0.642,2.646-1.158v-8.641h2.674v7.851
					c0,2.438,0.053,3.25,0.228,3.795H160.099z"/>
				<path fill="#009BDE" d="M170.703,35.012c-3.894,0-5.882-2.752-5.882-5.985c0-3.449,2.451-6.199,6.234-6.199
					c1.469,0,2.57,0.362,3.322,0.78l-0.033,2.196c-0.822-0.567-1.82-0.907-3.09-0.907c-2.232,0-3.75,1.666-3.75,4.006
					c0,2.196,1.258,4.018,3.705,4.018c1.207,0,2.105-0.371,2.936-0.836l0.72,1.697C173.918,34.427,172.371,35.012,170.703,35.012z"
					/>
				<path fill="#009BDE" d="M184.819,34.767v-6.939c0-1.356-0.258-2.715-1.957-2.715c-1.209,0-2.344,0.739-3.211,1.45v8.204h-2.68
					V17.805h2.68v6.615c1.209-0.911,2.464-1.593,4.117-1.593c1.803,0,3.726,0.929,3.726,4.277v7.662L184.819,34.767L184.819,34.767z
					"/>
			</g>
		</g>
	</g>
</g>
<g>
	<path fill="#4C8B2B" d="M72.029,41.194c0.776-0.769,1.845-1.223,3.08-1.223c1.334,0,2.467,0.5,3.222,1.34
		c0.69,0.784,1.081,1.849,1.081,3.056c0,1.317-0.468,2.451-1.264,3.234c-0.766,0.74-1.817,1.16-3.039,1.16
		c-1.185,0-2.188-0.381-2.948-1.071c-0.844-0.782-1.341-1.94-1.341-3.295C70.82,43.102,71.261,41.992,72.029,41.194z M75.109,41.013
		c-1.851,0-3.053,1.308-3.053,3.367c0,2.061,1.203,3.361,3.053,3.361c1.854,0,3.056-1.301,3.056-3.361
		C78.165,42.421,77.068,41.013,75.109,41.013z"/>
	<path fill="#4C8B2B" d="M85.252,48.632l-0.251-0.625c-0.455,0.391-1.147,0.755-1.968,0.755c-0.821,0-1.943-0.437-1.943-2.244
		v-4.052h1.163v3.961c0,0.935,0.398,1.369,1.158,1.369c0.687,0,1.245-0.422,1.505-0.721v-4.609h1.149v3.871
		c0,1.615,0.036,2.021,0.123,2.295H85.252L85.252,48.632z"/>
	<path fill="#4C8B2B" d="M91.205,43.58c-0.164-0.084-0.388-0.133-0.639-0.133c-0.359,0-0.896,0.271-1.29,0.678v4.508h-1.16v-6.166
		h0.965l0.147,0.693c0.77-0.707,1.252-0.854,1.73-0.854c0.286,0,0.549,0.107,0.713,0.211L91.205,43.58z"/>
	<path fill="#4C8B2B" d="M98.269,45.537h-0.608v3.096h-1.157v-8.598h1.899c1.817,0,2.959,0.979,2.959,2.705
		C101.362,44.125,100.471,45.537,98.269,45.537z M98.296,41.067h-0.635v3.483h0.706c1.231,0,1.793-0.73,1.793-1.799
		C100.16,41.759,99.528,41.067,98.296,41.067z"/>
	<path fill="#4C8B2B" d="M104.164,48.762c-0.847,0-1.184-0.521-1.184-1.218V39.4h1.148v7.643c0,0.531,0.126,0.676,0.476,0.676
		c0.084,0,0.198,0,0.371-0.053l0.143,0.852C104.777,48.697,104.491,48.762,104.164,48.762z"/>
	<path fill="#4C8B2B" d="M110.179,48.632l-0.25-0.59c-0.393,0.369-0.979,0.72-1.867,0.72c-1.042,0-1.93-0.736-1.93-1.923
		c0-1.236,0.898-1.961,2.514-2.019l1.204-0.038c0-0.076,0-0.197,0-0.234c0-0.948-0.547-1.295-1.275-1.295
		c-0.765,0-1.266,0.293-1.622,0.541l-0.426-0.783c0.763-0.545,1.459-0.707,2.255-0.707c1.285,0,2.227,0.552,2.227,2.136v2.077
		c0,1.458,0.039,1.893,0.126,2.113h-0.956V48.632z M109.85,45.714l-1.124,0.037c-1.015,0.041-1.437,0.375-1.437,1.006
		c0,0.578,0.378,1.039,1.137,1.039c0.72,0,1.16-0.332,1.423-0.6L109.85,45.714L109.85,45.714z"/>
	<path fill="#4C8B2B" d="M116.884,48.632V44.89c0-0.721-0.13-1.528-1.021-1.528c-0.682,0-1.323,0.445-1.809,0.862v4.408h-1.145
		v-6.166h0.964l0.148,0.707c0.708-0.533,1.331-0.868,2.193-0.868c0.896,0,1.826,0.616,1.826,2.192v4.135H116.884z"/>
	<path fill="#4C8B2B" d="M120.867,45.792c0,1.088,0.706,1.99,1.935,1.99c0.538,0,1.083-0.18,1.502-0.433l0.328,0.776
		c-0.533,0.404-1.328,0.637-2.045,0.637c-2.007,0-2.938-1.575-2.938-3.301c0-1.771,1.029-3.156,2.611-3.156
		c1.611,0,2.551,1.263,2.551,3.175c0,0.087,0,0.194,0,0.312H120.867L120.867,45.792z M122.246,43.25
		c-0.86,0-1.396,0.756-1.396,1.641h2.733C123.585,44.095,123.144,43.25,122.246,43.25z"/>
	<path fill="#4C8B2B" d="M128.308,48.762c-0.963,0-1.398-0.548-1.398-1.358v-4.016h-1.031v-0.922h1.031v-1.389l1.156-0.367v1.756
		h1.918l-0.385,0.921h-1.533v3.626c0,0.51,0.209,0.74,0.613,0.74c0.413,0,0.813-0.217,1.068-0.405l0.332,0.782
		C129.558,48.517,128.877,48.762,128.308,48.762z"/>
	<path fill="#4C8B2B" d="M131.642,48.789c-0.431,0-0.771-0.355-0.771-0.797c0-0.455,0.341-0.805,0.771-0.805
		c0.445,0,0.773,0.35,0.773,0.805C132.415,48.433,132.087,48.789,131.642,48.789z"/>
	<path fill="#4C8B2B" d="M141.088,48.762c-2.616,0-4.192-1.854-4.192-4.333c0-2.489,1.778-4.458,4.403-4.458
		c0.995,0,1.765,0.239,2.21,0.5l-0.013,1.142c-0.653-0.406-1.28-0.636-2.206-0.636c-1.943,0-3.139,1.496-3.139,3.378
		c0,1.936,1.148,3.363,3.093,3.363c0.731,0,1.44-0.223,2.037-0.549l0.338,0.899C142.774,48.552,141.915,48.762,141.088,48.762z"/>
	<path fill="#4C8B2B" d="M146.356,48.762c-0.842,0-1.189-0.521-1.189-1.218V39.4h1.158v7.643c0,0.531,0.128,0.676,0.482,0.676
		c0.077,0,0.192,0,0.362-0.053l0.14,0.852C146.976,48.697,146.688,48.762,146.356,48.762z"/>
	<path fill="#4C8B2B" d="M153.28,43.145c0.559,0.573,0.848,1.405,0.848,2.392c0,0.994-0.309,1.838-0.874,2.416
		c-0.499,0.521-1.209,0.811-2.048,0.811c-0.801,0-1.477-0.26-1.993-0.756c-0.569-0.572-0.882-1.455-0.882-2.45
		c0-1.007,0.312-1.839,0.873-2.427c0.507-0.522,1.201-0.824,2.018-0.824C152.071,42.305,152.778,42.606,153.28,43.145z
		 M149.505,45.525c0,1.371,0.646,2.283,1.729,2.283s1.709-0.928,1.709-2.283c0-1.367-0.627-2.271-1.735-2.271
		C150.104,43.253,149.505,44.169,149.505,45.525z"/>
	<path fill="#4C8B2B" d="M157.183,48.762c-0.938,0-1.543-0.231-1.979-0.505l0.411-0.883c0.346,0.228,0.892,0.494,1.553,0.494
		c0.721,0,1.217-0.324,1.217-0.838c0-1.371-2.814-0.873-2.814-3.025c0-0.943,0.709-1.7,2.146-1.7c0.696,0,1.197,0.146,1.633,0.329
		v0.99c-0.459-0.194-0.937-0.375-1.592-0.375c-0.604,0-1.054,0.203-1.054,0.703c0,1.237,2.866,0.896,2.866,2.955
		C159.569,48.227,158.459,48.762,157.183,48.762z"/>
	<path fill="#4C8B2B" d="M162.043,45.792c0,1.088,0.702,1.99,1.942,1.99c0.537,0,1.082-0.18,1.498-0.433l0.324,0.776
		c-0.531,0.404-1.328,0.637-2.041,0.637c-2.009,0-2.932-1.575-2.932-3.301c0-1.771,1.027-3.156,2.6-3.156
		c1.619,0,2.553,1.263,2.553,3.175c0,0.087,0,0.194,0,0.312H162.043L162.043,45.792z M163.426,43.25
		c-0.858,0-1.397,0.756-1.397,1.641h2.744C164.771,44.095,164.324,43.25,163.426,43.25z"/>
	<path fill="#4C8B2B" d="M177.181,47.875c-0.535,0.545-1.354,0.888-2.558,0.888c-1.121,0-1.892-0.304-2.405-0.786
		c-0.66-0.646-0.83-1.613-0.83-2.463v-5.479h1.158v5.445c0,0.605,0.15,1.262,0.577,1.707c0.327,0.337,0.821,0.553,1.521,0.553
		c0.807,0,1.334-0.203,1.676-0.553c0.367-0.396,0.504-0.969,0.504-1.62v-5.532h1.166v5.61
		C177.989,46.49,177.739,47.298,177.181,47.875z"/>
	<path fill="#4C8B2B" d="M182.351,48.762c-0.41,0-0.718-0.077-0.992-0.185v3.145h-1.146v-8.999c0.485-0.167,1.218-0.418,2.14-0.418
		c1.98,0,3.14,1.216,3.14,3.157C185.49,47.544,183.999,48.762,182.351,48.762z M182.317,43.312c-0.406,0-0.696,0.061-0.959,0.139
		v4.135c0.317,0.133,0.564,0.211,0.942,0.211c1.222,0,2.005-0.871,2.005-2.297C184.308,43.99,183.399,43.312,182.317,43.312z"/>
	<path fill="#4C8B2B" d="M186.706,48.789c-0.43,0-0.77-0.355-0.77-0.797c0-0.455,0.34-0.805,0.77-0.805
		c0.441,0,0.771,0.35,0.771,0.805C187.478,48.433,187.147,48.789,186.706,48.789z"/>
</g>
</svg>
