<?xml version="1.0" encoding="utf-8"?>
<!-- Generator: Adobe Illustrator 19.1.0, SVG Export Plug-In . SVG Version: 6.00 Build 0)  -->
<svg version="1.1" id="Layer_1" xmlns="http://www.w3.org/2000/svg" xmlns:xlink="http://www.w3.org/1999/xlink" x="0px" y="0px"
	 viewBox="0 0 20 20" style="enable-background:new 0 0 20 20;" xml:space="preserve">
<style type="text/css">
	.st0{fill:#0077CC;}
	.st1{fill:#52575C;}
	.st2{fill:#65BB5C;}
	.st3{fill:#F78C75;}
	.st4{fill:#DCB000;}
	.st5{fill:#3A3D41;}
	.st6{fill:#FFCF10;}
	.st7{fill:#F23B14;}
	.st8{filter:url(#Adobe_OpacityMaskFilter);}
	.st9{fill:#FFFFFF;}
	.st10{mask:url(#mask-2_2_);fill:#65BB5C;}
	.st11{opacity:0.25;}
	.st12{fill:#B9BDC1;}
	.st13{fill:#D4D6D9;}
</style>
<g>
	<path class="st13" d="M17,19.5H3c-1.4,0-2.5-1.1-2.5-2.5V3c0-1.4,1.1-2.5,2.5-2.5h14c1.4,0,2.5,1.1,2.5,2.5v14
		C19.5,18.4,18.4,19.5,17,19.5z M3,1.5C2.2,1.5,1.5,2.2,1.5,3v14c0,0.8,0.7,1.5,1.5,1.5h14c0.8,0,1.5-0.7,1.5-1.5V3
		c0-0.8-0.7-1.5-1.5-1.5H3z"/>
</g>
<g>
	<path class="st12" d="M10,3.6c-3.5,0-6.4,2.9-6.4,6.4s2.8,6.4,6.4,6.4c3.5,0,6.4-2.9,6.4-6.4S13.5,3.6,10,3.6z M10,15.1
		c-2.8,0-5.1-2.3-5.1-5.1S7.2,4.9,10,4.9s5.1,2.3,5.1,5.1S12.8,15.1,10,15.1z"/>
	<path class="st12" d="M10.3,6.8h-1v3.8l3.3,2l0.5-0.8l-2.9-1.7V6.8z"/>
</g>
</svg>
