<?xml version="1.0" encoding="utf-8"?>
<!-- Generator: Adobe Illustrator 19.1.0, SVG Export Plug-In . SVG Version: 6.00 Build 0)  -->
<svg version="1.1" id="Layer_1" xmlns="http://www.w3.org/2000/svg" xmlns:xlink="http://www.w3.org/1999/xlink" x="0px" y="0px"
	 viewBox="0 0 20 20" style="enable-background:new 0 0 20 20;" xml:space="preserve">
<style type="text/css">
	.st0{fill:#0077CC;}
	.st1{fill:#52575C;}
	.st2{fill:#65BB5C;}
	.st3{fill:#F78C75;}
	.st4{fill:#DCB000;}
	.st5{fill:#3A3D41;}
	.st6{fill:#FFCF10;}
	.st7{fill:#F23B14;}
	.st8{filter:url(#Adobe_OpacityMaskFilter);}
	.st9{fill:#FFFFFF;}
	.st10{mask:url(#mask-2_2_);fill:#65BB5C;}
	.st11{opacity:0.25;}
	.st12{fill:#B9BDC1;}
	.st13{fill:#D4D6D9;}
</style>
<g>
	<path class="st13" d="M17,19.5H3c-1.4,0-2.5-1.1-2.5-2.5V3c0-1.4,1.1-2.5,2.5-2.5h14c1.4,0,2.5,1.1,2.5,2.5v14
		C19.5,18.4,18.4,19.5,17,19.5z M3,1.5C2.2,1.5,1.5,2.2,1.5,3v14c0,0.8,0.7,1.5,1.5,1.5h14c0.8,0,1.5-0.7,1.5-1.5V3
		c0-0.8-0.7-1.5-1.5-1.5H3z"/>
</g>
<g id="XMLID_707_">
	<g id="XMLID_708_">
		<path class="st12" d="M11.2,6.4h-0.6V4.6H10v1.8H9.4V4.6H8.8v2.7c0,0.5,0.2,0.9,0.6,1.2v6c0,0.5,0.4,0.9,0.9,0.9s0.9-0.4,0.9-0.9
			v-6c0.4-0.3,0.6-0.7,0.6-1.2V4.6h-0.6V6.4z"/>
	</g>
	<g id="XMLID_709_">
		<path class="st12" d="M6.1,4.6c-0.8,0-1.5,0.7-1.5,1.5v1.2c0,0.5,0.2,0.9,0.6,1.2v6c0,0.5,0.4,0.9,0.9,0.9S7,15,7,14.5v-6
			c0.4-0.3,0.6-0.7,0.6-1.2V6.1C7.6,5.3,6.9,4.6,6.1,4.6z"/>
	</g>
	<g id="XMLID_710_">
		<path class="st12" d="M14.5,4.6c-0.8,0-1.5,0.7-1.5,1.5v3c0,0.5,0.2,0.9,0.6,1.2v4.2c0,0.5,0.4,0.9,0.9,0.9c0.5,0,0.9-0.4,0.9-0.9
			v-4.2V9.1V7.9V7.3v0V6.1V4.9C15.1,4.7,14.8,4.6,14.5,4.6z"/>
	</g>
</g>
</svg>
