<?xml version="1.0" encoding="utf-8"?>
<!-- Generator: Adobe Illustrator 19.1.0, SVG Export Plug-In . SVG Version: 6.00 Build 0)  -->
<svg version="1.1" id="Layer_1" xmlns="http://www.w3.org/2000/svg" xmlns:xlink="http://www.w3.org/1999/xlink" x="0px" y="0px"
	 viewBox="0 0 20 20" style="enable-background:new 0 0 20 20;" xml:space="preserve">
<style type="text/css">
	.st0{fill:#0077CC;}
	.st1{fill:#52575C;}
	.st2{fill:#65BB5C;}
	.st3{fill:#F78C75;}
	.st4{fill:#DCB000;}
	.st5{fill:#3A3D41;}
	.st6{fill:#FFCF10;}
	.st7{fill:#F23B14;}
	.st8{filter:url(#Adobe_OpacityMaskFilter);}
	.st9{fill:#FFFFFF;}
	.st10{mask:url(#mask-2_2_);fill:#65BB5C;}
	.st11{opacity:0.25;}
	.st12{fill:#B9BDC1;}
	.st13{fill:#D4D6D9;}
</style>
<g>
	<path class="st13" d="M17,19.5H3c-1.4,0-2.5-1.1-2.5-2.5V3c0-1.4,1.1-2.5,2.5-2.5h14c1.4,0,2.5,1.1,2.5,2.5v14
		C19.5,18.4,18.4,19.5,17,19.5z M3,1.5C2.2,1.5,1.5,2.2,1.5,3v14c0,0.8,0.7,1.5,1.5,1.5h14c0.8,0,1.5-0.7,1.5-1.5V3
		c0-0.8-0.7-1.5-1.5-1.5H3z"/>
</g>
<g id="XMLID_3240_">
	<g id="XMLID_3243_">
		<path class="st12" d="M9,6.9L9.8,6l0.8,0.8V4.4H8.2L9,5.2L7.9,6.3C7.6,6.3,7.4,6.2,7.1,6.2c-1.6,0-2.9,1.3-2.9,2.9
			c0,1.4,1,2.6,2.3,2.9v1.2H5.3v1.2h1.2v1.2h1.2v-1.2h1.2v-1.2H7.7V12C9,11.7,10,10.5,10,9.1C10,8.2,9.6,7.4,9,6.9z M7.1,10.9
			c-1,0-1.8-0.8-1.8-1.8s0.8-1.8,1.8-1.8s1.8,0.8,1.8,1.8S8,10.9,7.1,10.9z"/>
	</g>
	<g id="XMLID_3246_">
		<path class="st12" d="M15.8,6.8V4.4h-2.3l0.8,0.8l-1,1c-0.1,0-0.2,0-0.3,0c-1.6,0-2.9,1.3-2.9,2.9c0,1.4,1,2.6,2.3,2.9v1.2h-1.2
			v1.2h1.2v1.2h1.2v-1.2h1.2v-1.2h-1.2V12c1.3-0.3,2.3-1.5,2.3-2.9c0-1-0.6-2-1.4-2.5L15.1,6L15.8,6.8z M12.9,10.9
			c-1,0-1.8-0.8-1.8-1.8s0.8-1.8,1.8-1.8s1.8,0.8,1.8,1.8S13.9,10.9,12.9,10.9z"/>
	</g>
</g>
</svg>
