<?xml version="1.0" encoding="utf-8"?>
<!-- Generator: Adobe Illustrator 19.1.0, SVG Export Plug-In . SVG Version: 6.00 Build 0)  -->
<svg version="1.1" id="Layer_1" xmlns="http://www.w3.org/2000/svg" xmlns:xlink="http://www.w3.org/1999/xlink" x="0px" y="0px"
	 viewBox="0 0 20 20" style="enable-background:new 0 0 20 20;" xml:space="preserve">
<style type="text/css">
	.st0{fill:#0077CC;}
	.st1{fill:#52575C;}
	.st2{fill:#65BB5C;}
	.st3{fill:#F78C75;}
	.st4{fill:#DCB000;}
	.st5{fill:#3A3D41;}
	.st6{fill:#FFCF10;}
	.st7{fill:#F23B14;}
	.st8{filter:url(#Adobe_OpacityMaskFilter);}
	.st9{fill:#FFFFFF;}
	.st10{mask:url(#mask-2_2_);fill:#65BB5C;}
	.st11{opacity:0.25;}
	.st12{fill:#B9BDC1;}
	.st13{fill:#D4D6D9;}
</style>
<g>
	<path class="st13" d="M17,19.5H3c-1.4,0-2.5-1.1-2.5-2.5V3c0-1.4,1.1-2.5,2.5-2.5h14c1.4,0,2.5,1.1,2.5,2.5v14
		C19.5,18.4,18.4,19.5,17,19.5z M3,1.5C2.2,1.5,1.5,2.2,1.5,3v14c0,0.8,0.7,1.5,1.5,1.5h14c0.8,0,1.5-0.7,1.5-1.5V3
		c0-0.8-0.7-1.5-1.5-1.5H3z"/>
</g>
<g id="XMLID_43_">
	<path class="st12" d="M10.7,9.5V5.9c0.8,0.2,1.4,0.9,1.4,1.6h1.4c0-1.5-1.2-2.8-2.8-3.1V3.7H9.3v0.8C7.7,4.7,6.5,6,6.5,7.5
		c0,2,1.7,2.7,2.8,3v3.6c-0.8-0.2-1.4-0.9-1.4-1.6H6.5c0,1.5,1.2,2.8,2.8,3.1v0.8h1.4v-0.8c1.6-0.3,2.8-1.6,2.8-3.1
		C13.5,10.5,11.8,9.8,10.7,9.5z M7.9,7.5c0-0.8,0.6-1.4,1.4-1.6v3.2C8.2,8.7,7.9,8.2,7.9,7.5z M10.7,14.1v-3.2
		c1.2,0.4,1.4,1,1.4,1.5C12.1,13.2,11.5,13.9,10.7,14.1z"/>
</g>
</svg>
