<?xml version="1.0" encoding="utf-8"?>
<!-- Generator: Adobe Illustrator 19.1.0, SVG Export Plug-In . SVG Version: 6.00 Build 0)  -->
<svg version="1.1" id="Layer_1" xmlns="http://www.w3.org/2000/svg" xmlns:xlink="http://www.w3.org/1999/xlink" x="0px" y="0px"
	 viewBox="0 0 20 20" style="enable-background:new 0 0 20 20;" xml:space="preserve">
<style type="text/css">
	.st0{fill:#0077CC;}
	.st1{fill:#52575C;}
	.st2{fill:#65BB5C;}
	.st3{fill:#F78C75;}
	.st4{fill:#DCB000;}
	.st5{fill:#3A3D41;}
	.st6{fill:#FFCF10;}
	.st7{fill:#F23B14;}
	.st8{filter:url(#Adobe_OpacityMaskFilter);}
	.st9{fill:#FFFFFF;}
	.st10{mask:url(#mask-2_2_);fill:#65BB5C;}
	.st11{opacity:0.25;}
	.st12{fill:#B9BDC1;}
	.st13{fill:#D4D6D9;}
</style>
<g>
	<path class="st13" d="M17,19.5H3c-1.4,0-2.5-1.1-2.5-2.5V3c0-1.4,1.1-2.5,2.5-2.5h14c1.4,0,2.5,1.1,2.5,2.5v14
		C19.5,18.4,18.4,19.5,17,19.5z M3,1.5C2.2,1.5,1.5,2.2,1.5,3v14c0,0.8,0.7,1.5,1.5,1.5h14c0.8,0,1.5-0.7,1.5-1.5V3
		c0-0.8-0.7-1.5-1.5-1.5H3z"/>
</g>
<g id="XMLID_1871_">
	<g id="XMLID_1872_">
		<circle class="st12" cx="5.8" cy="7.8" r="1.1"/>
	</g>
	<g id="XMLID_1873_">
		<path class="st12" d="M11.3,11.4L12.5,7c0.7,0.2,1.1,0.6,1.1,0.8c0.1-0.3,0.8-0.3,1.7-0.1c0.8,0.2,1.5,0.6,1.4,0.9
			c0.5-1.7-1.2-3.6-3.7-4.3C10.4,3.7,8,4.5,7.5,6.2l0,0c0.1-0.3,0.8-0.3,1.7-0.1C10,6.3,10.6,6.7,10.5,7c0.1-0.2,0.6-0.3,1.3-0.2
			l-1.2,4.5c-0.2,0-0.5,0-0.7,0c-3.5,0-6.3,1.7-6.8,4c0.2,0.3,1.1,0.6,2.2,0.6h0c1.3,0,2.3-0.3,2.3-0.8c0,0.4,1,0.8,2.3,0.8h0
			c1.3,0,2.3-0.3,2.3-0.8c0,0.4,1,0.8,2.3,0.8h0c1.1,0,2-0.3,2.2-0.6C16.4,13.3,14.2,11.7,11.3,11.4z"/>
	</g>
	<g id="XMLID_1874_">
		<polygon class="st12" points="16.8,15.8 16.8,15.8 16.8,15.8 		"/>
	</g>
</g>
</svg>
