<?xml version="1.0" encoding="utf-8"?>
<!-- Generator: Adobe Illustrator 19.1.0, SVG Export Plug-In . SVG Version: 6.00 Build 0)  -->
<svg version="1.1" id="Layer_1" xmlns="http://www.w3.org/2000/svg" xmlns:xlink="http://www.w3.org/1999/xlink" x="0px" y="0px"
	 viewBox="0 0 20 20" style="enable-background:new 0 0 20 20;" xml:space="preserve">
<style type="text/css">
	.st0{fill:#0077CC;}
	.st1{fill:#52575C;}
	.st2{fill:#65BB5C;}
	.st3{fill:#F78C75;}
	.st4{fill:#DCB000;}
	.st5{fill:#3A3D41;}
	.st6{fill:#FFCF10;}
	.st7{fill:#F23B14;}
	.st8{filter:url(#Adobe_OpacityMaskFilter);}
	.st9{fill:#FFFFFF;}
	.st10{mask:url(#mask-2_2_);fill:#65BB5C;}
	.st11{opacity:0.25;}
	.st12{fill:#B9BDC1;}
	.st13{fill:#D4D6D9;}
</style>
<g id="XMLID_136_">
	<g id="XMLID_140_">
		<path class="st12" d="M13.2,11.8c0.1,0.1,0.3,0.2,0.5,0.2c0.2,0,0.3-0.1,0.5-0.2c0.3-0.3,0.3-0.7,0-0.9l-2-2
			c-0.2-0.2-0.8-0.6-1.3-0.7c-0.1,0-0.1-0.1-0.2-0.1c0,0,0,0,0,0c-0.1,0-0.2,0-0.3,0H9.7c-0.1,0-0.2,0-0.3,0c0,0,0,0,0,0
			c-0.1,0-0.1,0-0.2,0.1C8.7,8.3,8,8.7,7.9,8.9l-2,2c-0.3,0.3-0.3,0.7,0,0.9C6,11.9,6.2,12,6.4,12c0.2,0,0.3-0.1,0.5-0.2l1.5-1.5V12
			h3.3v-1.7L13.2,11.8z"/>
	</g>
	<g id="XMLID_139_">
		<circle class="st12" cx="10" cy="5.7" r="1.7"/>
	</g>
	<g id="XMLID_138_">
		<path class="st12" d="M6.6,13.5c-0.3,0.3-0.3,0.7,0,0.9l1.3,1.3C8,15.9,8.2,16,8.3,16s0.3-0.1,0.5-0.2c0.3-0.3,0.3-0.7,0-0.9L8,14
			l0.4-0.4V12c-0.2,0-0.3,0.1-0.5,0.2L6.6,13.5z"/>
	</g>
	<g id="XMLID_137_">
		<path class="st12" d="M12,14l-0.9,0.9c-0.3,0.3-0.3,0.7,0,0.9c0.1,0.1,0.3,0.2,0.5,0.2c0.2,0,0.3-0.1,0.5-0.2l1.3-1.3
			c0.3-0.3,0.3-0.7,0-0.9l-1.3-1.3C12,12.1,11.8,12,11.7,12v1.6L12,14z"/>
	</g>
</g>
<g>
	<path class="st13" d="M17,19.5H3c-1.4,0-2.5-1.1-2.5-2.5V3c0-1.4,1.1-2.5,2.5-2.5h14c1.4,0,2.5,1.1,2.5,2.5v14
		C19.5,18.4,18.4,19.5,17,19.5z M3,1.5C2.2,1.5,1.5,2.2,1.5,3v14c0,0.8,0.7,1.5,1.5,1.5h14c0.8,0,1.5-0.7,1.5-1.5V3
		c0-0.8-0.7-1.5-1.5-1.5H3z"/>
</g>
</svg>
