<?xml version="1.0" encoding="utf-8"?>
<!-- Generator: Adobe Illustrator 19.1.0, SVG Export Plug-In . SVG Version: 6.00 Build 0)  -->
<svg version="1.1" id="Layer_1" xmlns="http://www.w3.org/2000/svg" xmlns:xlink="http://www.w3.org/1999/xlink" x="0px" y="0px"
	 viewBox="0 0 20 20" style="enable-background:new 0 0 20 20;" xml:space="preserve">
<style type="text/css">
	.st0{fill:#0077CC;}
	.st1{fill:#52575C;}
	.st2{fill:#65BB5C;}
	.st3{fill:#F78C75;}
	.st4{fill:#DCB000;}
	.st5{fill:#3A3D41;}
	.st6{fill:#FFCF10;}
	.st7{fill:#F23B14;}
	.st8{filter:url(#Adobe_OpacityMaskFilter);}
	.st9{fill:#FFFFFF;}
	.st10{mask:url(#mask-2_2_);fill:#65BB5C;}
	.st11{opacity:0.25;}
	.st12{fill:#B9BDC1;}
	.st13{fill:#D4D6D9;}
</style>
<g>
	<path class="st13" d="M17,19.5H3c-1.4,0-2.5-1.1-2.5-2.5V3c0-1.4,1.1-2.5,2.5-2.5h14c1.4,0,2.5,1.1,2.5,2.5v14
		C19.5,18.4,18.4,19.5,17,19.5z M3,1.5C2.2,1.5,1.5,2.2,1.5,3v14c0,0.8,0.7,1.5,1.5,1.5h14c0.8,0,1.5-0.7,1.5-1.5V3
		c0-0.8-0.7-1.5-1.5-1.5H3z"/>
</g>
<g id="XMLID_1774_">
	<g id="XMLID_1776_">
		<path class="st12" d="M7.9,5.8c0-0.4-0.3-0.7-0.7-0.7H6.5c-0.4,0-0.7,0.3-0.7,0.7v0.7c0-0.4-0.3-0.7-0.7-0.7
			c-0.4,0-0.7,0.3-0.7,0.7v2.8H3v1.4h1.4v2.8c0,0.4,0.3,0.7,0.7,0.7c0.4,0,0.7-0.3,0.7-0.7v0.7c0,0.4,0.3,0.7,0.7,0.7h0.7
			c0.4,0,0.7-0.3,0.7-0.7v-3.5h3.5V9.3H7.9V5.8z"/>
	</g>
	<g id="XMLID_1775_">
		<path class="st12" d="M17,9.3h-1.4V6.5c0-0.4-0.3-0.7-0.7-0.7c-0.4,0-0.7,0.3-0.7,0.7V5.8c0-0.4-0.3-0.7-0.7-0.7h-0.7
			c-0.4,0-0.7,0.3-0.7,0.7v3.5v1.4v3.5c0,0.4,0.3,0.7,0.7,0.7h0.7c0.4,0,0.7-0.3,0.7-0.7v-0.7c0,0.4,0.3,0.7,0.7,0.7
			c0.4,0,0.7-0.3,0.7-0.7v-2.8H17V9.3z"/>
	</g>
</g>
</svg>
