<?xml version="1.0" encoding="utf-8"?>
<!-- Generator: Adobe Illustrator 19.1.0, SVG Export Plug-In . SVG Version: 6.00 Build 0)  -->
<svg version="1.1" id="Layer_1" xmlns="http://www.w3.org/2000/svg" xmlns:xlink="http://www.w3.org/1999/xlink" x="0px" y="0px"
	 viewBox="0 0 20 20" style="enable-background:new 0 0 20 20;" xml:space="preserve">
<style type="text/css">
	.st0{fill:#0077CC;}
	.st1{fill:#52575C;}
	.st2{fill:#65BB5C;}
	.st3{fill:#F78C75;}
	.st4{fill:#DCB000;}
	.st5{fill:#3A3D41;}
	.st6{fill:#FFCF10;}
	.st7{fill:#F23B14;}
	.st8{filter:url(#Adobe_OpacityMaskFilter);}
	.st9{fill:#FFFFFF;}
	.st10{mask:url(#mask-2_2_);fill:#65BB5C;}
	.st11{opacity:0.25;}
	.st12{fill:#B9BDC1;}
	.st13{fill:#D4D6D9;}
</style>
<g>
	<path class="st13" d="M17,19.5H3c-1.4,0-2.5-1.1-2.5-2.5V3c0-1.4,1.1-2.5,2.5-2.5h14c1.4,0,2.5,1.1,2.5,2.5v14
		C19.5,18.4,18.4,19.5,17,19.5z M3,1.5C2.2,1.5,1.5,2.2,1.5,3v14c0,0.8,0.7,1.5,1.5,1.5h14c0.8,0,1.5-0.7,1.5-1.5V3
		c0-0.8-0.7-1.5-1.5-1.5H3z"/>
</g>
<g id="XMLID_1989_">
	<g id="XMLID_1990_">
		<path class="st12" d="M11.5,11.3l-3-3L5.6,5.4L4.8,6.2l3.7,3.7V13l-0.7-0.3l-0.4,1.1l1.1,0.4v1.5c0,0.3,0.7,0.6,1.5,0.6
			c0.8,0,1.5-0.3,1.5-0.6v-2.9l0,0l0.4,0.4l2.5,2.5l0.8-0.8L11.5,11.3z"/>
	</g>
	<g id="XMLID_1991_">
		<polygon class="st12" points="11.5,9.6 13,8.2 12.1,7.3 11.5,7.9 11.5,6.6 10,3.6 8.5,6.6 8.5,6.8 11.5,9.8 		"/>
	</g>
</g>
</svg>
