<?xml version="1.0" encoding="utf-8"?>
<!-- Generator: Adobe Illustrator 19.1.0, SVG Export Plug-In . SVG Version: 6.00 Build 0)  -->
<svg version="1.1" id="Layer_1" xmlns="http://www.w3.org/2000/svg" xmlns:xlink="http://www.w3.org/1999/xlink" x="0px" y="0px"
	 viewBox="0 0 20 20" style="enable-background:new 0 0 20 20;" xml:space="preserve">
<style type="text/css">
	.st0{fill:#0077CC;}
	.st1{fill:#52575C;}
	.st2{fill:#65BB5C;}
	.st3{fill:#F78C75;}
	.st4{fill:#DCB000;}
	.st5{fill:#3A3D41;}
	.st6{fill:#FFCF10;}
	.st7{fill:#F23B14;}
	.st8{filter:url(#Adobe_OpacityMaskFilter);}
	.st9{fill:#FFFFFF;}
	.st10{mask:url(#mask-2_2_);fill:#65BB5C;}
	.st11{opacity:0.25;}
	.st12{fill:#B9BDC1;}
	.st13{fill:#D4D6D9;}
</style>
<g>
	<path class="st13" d="M17,19.5H3c-1.4,0-2.5-1.1-2.5-2.5V3c0-1.4,1.1-2.5,2.5-2.5h14c1.4,0,2.5,1.1,2.5,2.5v14
		C19.5,18.4,18.4,19.5,17,19.5z M3,1.5C2.2,1.5,1.5,2.2,1.5,3v14c0,0.8,0.7,1.5,1.5,1.5h14c0.8,0,1.5-0.7,1.5-1.5V3
		c0-0.8-0.7-1.5-1.5-1.5H3z"/>
</g>
<g id="directions-car_1_">
	<g id="XMLID_38_">
		<path class="st12" d="M14.6,5.4C14.4,5,14,4.7,13.6,4.7H6.4C5.9,4.7,5.6,5,5.4,5.4l-1.4,4v5.3c0,0.4,0.3,0.7,0.7,0.7h0.7
			C5.8,15.3,6,15,6,14.6V14H14v0.7c0,0.4,0.3,0.7,0.7,0.7h0.7c0.4,0,0.7-0.3,0.7-0.7V9.3L14.6,5.4z M6.4,12c-0.5,0-1-0.5-1-1
			c0-0.5,0.5-1,1-1s1,0.5,1,1C7.4,11.5,6.9,12,6.4,12z M13.6,12c-0.5,0-1-0.5-1-1c0-0.5,0.5-1,1-1c0.5,0,1,0.5,1,1
			C14.6,11.5,14.2,12,13.6,12z M5.4,8.7l1-3h7.3l1,3H5.4z"/>
	</g>
</g>
</svg>
