<?xml version="1.0" encoding="utf-8"?>
<!-- Generator: Adobe Illustrator 19.1.0, SVG Export Plug-In . SVG Version: 6.00 Build 0)  -->
<svg version="1.1" id="Layer_1" xmlns="http://www.w3.org/2000/svg" xmlns:xlink="http://www.w3.org/1999/xlink" x="0px" y="0px"
	 viewBox="0 0 20 20" style="enable-background:new 0 0 20 20;" xml:space="preserve">
<style type="text/css">
	.st0{fill:#0077CC;}
	.st1{fill:#52575C;}
	.st2{fill:#65BB5C;}
	.st3{fill:#F78C75;}
	.st4{fill:#DCB000;}
	.st5{fill:#3A3D41;}
	.st6{fill:#FFCF10;}
	.st7{fill:#F23B14;}
	.st8{filter:url(#Adobe_OpacityMaskFilter);}
	.st9{fill:#FFFFFF;}
	.st10{mask:url(#mask-2_2_);fill:#65BB5C;}
	.st11{opacity:0.25;}
	.st12{fill:#B9BDC1;}
	.st13{fill:#D4D6D9;}
</style>
<g>
	<path class="st13" d="M17,19.5H3c-1.4,0-2.5-1.1-2.5-2.5V3c0-1.4,1.1-2.5,2.5-2.5h14c1.4,0,2.5,1.1,2.5,2.5v14
		C19.5,18.4,18.4,19.5,17,19.5z M3,1.5C2.2,1.5,1.5,2.2,1.5,3v14c0,0.8,0.7,1.5,1.5,1.5h14c0.8,0,1.5-0.7,1.5-1.5V3
		c0-0.8-0.7-1.5-1.5-1.5H3z"/>
</g>
<path class="st12" d="M10,13.4l3.7,2.2l-1-4.2l3.2-2.8l-4.3-0.4L10,4.4L8.3,8.3L4.1,8.7l3.2,2.8l-1,4.2L10,13.4z"/>
</svg>
