<?xml version="1.0" encoding="utf-8"?>
<!-- Generator: Adobe Illustrator 19.1.0, SVG Export Plug-In . SVG Version: 6.00 Build 0)  -->
<svg version="1.1" id="Layer_1" xmlns="http://www.w3.org/2000/svg" xmlns:xlink="http://www.w3.org/1999/xlink" x="0px" y="0px"
	 viewBox="0 0 20 20" style="enable-background:new 0 0 20 20;" xml:space="preserve">
<style type="text/css">
	.st0{fill:#0077CC;}
	.st1{fill:#52575C;}
	.st2{fill:#65BB5C;}
	.st3{fill:#F78C75;}
	.st4{fill:#DCB000;}
	.st5{fill:#3A3D41;}
	.st6{fill:#FFCF10;}
	.st7{fill:#F23B14;}
	.st8{filter:url(#Adobe_OpacityMaskFilter);}
	.st9{fill:#FFFFFF;}
	.st10{mask:url(#mask-2_2_);fill:#65BB5C;}
	.st11{opacity:0.25;}
	.st12{fill:#B9BDC1;}
	.st13{fill:#D4D6D9;}
</style>
<g>
	<path class="st13" d="M17,19.5H3c-1.4,0-2.5-1.1-2.5-2.5V3c0-1.4,1.1-2.5,2.5-2.5h14c1.4,0,2.5,1.1,2.5,2.5v14
		C19.5,18.4,18.4,19.5,17,19.5z M3,1.5C2.2,1.5,1.5,2.2,1.5,3v14c0,0.8,0.7,1.5,1.5,1.5h14c0.8,0,1.5-0.7,1.5-1.5V3
		c0-0.8-0.7-1.5-1.5-1.5H3z"/>
</g>
<g id="XMLID_783_">
	<g id="XMLID_1831_">
		<path class="st12" d="M13.2,10h-2.5V8.6h1.4c0.8,0,1.4-0.6,1.4-1.4V5c0-0.8-0.6-1.4-1.4-1.4H7.9C7.1,3.6,6.4,4.2,6.4,5v2.1
			c0,0.8,0.6,1.4,1.4,1.4h1.4V10H6.8c-0.6,0-1.1,0.5-1.1,1.1s0.5,1.1,1.1,1.1h2.5v2.1H5.7V15h8.6v-0.7h-3.6v-2.1h2.5
			c0.6,0,1.1-0.5,1.1-1.1S13.8,10,13.2,10z"/>
	</g>
	<g id="XMLID_1830_">
		<circle class="st12" cx="5.7" cy="15.7" r="0.7"/>
	</g>
	<g id="XMLID_1829_">
		<circle class="st12" cx="14.3" cy="15.7" r="0.7"/>
	</g>
	<g id="XMLID_785_">
		<path class="st12" d="M15,7.9h-0.7v3.2H15V8.6c0.4,0,0.7-0.3,0.7-0.7H15z"/>
	</g>
	<g id="XMLID_784_">
		<path class="st12" d="M5,7.9H4.3c0,0.4,0.3,0.7,0.7,0.7v2.5h0.7V7.9H5z"/>
	</g>
</g>
</svg>
