<?xml version="1.0" encoding="utf-8"?>
<!-- Generator: Adobe Illustrator 19.1.0, SVG Export Plug-In . SVG Version: 6.00 Build 0)  -->
<svg version="1.1" id="Layer_1" xmlns="http://www.w3.org/2000/svg" xmlns:xlink="http://www.w3.org/1999/xlink" x="0px" y="0px"
	 viewBox="0 0 9.3 11" style="enable-background:new 0 0 9.3 11;" xml:space="preserve">
<style type="text/css">
	.st0{fill:#0077CC;}
	.st1{fill:#52575C;}
	.st2{fill:#65BB5C;}
	.st3{fill:#F78C75;}
	.st4{fill:#DCB000;}
	.st5{fill:#3A3D41;}
	.st6{fill:#FFCF10;}
	.st7{fill:#F23B14;}
	.st8{filter:url(#Adobe_OpacityMaskFilter);}
	.st9{fill:#FFFFFF;}
	.st10{mask:url(#mask-2_2_);fill:#65BB5C;}
	.st11{opacity:0.25;}
	.st12{fill:#B9BDC1;}
	.st13{fill:#D4D6D9;}
	.st14{opacity:0.8;}
</style>
<g class="st14">
	<g>
		<polygon class="st9" points="7.7,9.8 7.7,7 8.7,7 8.7,10.8 0.2,10.8 0.2,7 1.1,7 1.1,9.8 		"/>
	</g>
	<g>
		<path class="st9" d="M2.2,6.7l4.6,1L7,6.8l-4.6-1L2.2,6.7z M2.8,4.5l4.3,2l0.4-0.9l-4.3-2L2.8,4.5z M4,2.4l3.6,3l0.6-0.7l-3.6-3
			L4,2.4z M6.3,0.2L5.6,0.8l2.8,3.8L9.1,4L6.3,0.2z M2.1,8.9l4.7,0V8L2.1,8V8.9z"/>
	</g>
</g>
</svg>
