<?xml version="1.0" encoding="utf-8"?>
<!-- Generator: Adobe Illustrator 15.1.0, SVG Export Plug-In . SVG Version: 6.00 Build 0)  -->
<!DOCTYPE svg PUBLIC "-//W3C//DTD SVG 1.1//EN" "http://www.w3.org/Graphics/SVG/1.1/DTD/svg11.dtd">
<svg version="1.1" id="Layer_1" xmlns="http://www.w3.org/2000/svg" xmlns:xlink="http://www.w3.org/1999/xlink" x="0px" y="0px"
	 width="186.695px" height="59.038px" viewBox="0 0 186.695 59.038" enable-background="new 0 0 186.695 59.038"
	 xml:space="preserve">
<g>
	<g>
		<path fill="#75B448" d="M48.91,28.109c8.103,0,12.44,6.048,12.44,13.524c0,0.741-0.171,2.282-0.171,2.282H40.121
			c0.342,6.164,4.794,9.644,9.93,9.644c4.965,0,8.445-3.366,8.445-3.366l2.396,3.937c0,0-4.28,4.223-11.127,4.223
			c-9.131,0-15.351-6.563-15.351-15.123C34.415,34.042,40.692,28.109,48.91,28.109z M55.644,39.864
			c-0.172-4.793-3.197-7.362-6.792-7.362c-4.223,0-7.647,2.568-8.503,7.362H55.644z"/>
		<path fill="#75B448" d="M80.521,39.693h1.255v-0.286c0-5.079-1.883-6.905-6.392-6.905c-1.37,0-4.736,0.343-4.736,2.227v1.654
			h-5.193v-2.854c0-4.736,7.19-5.42,9.987-5.42c9.358,0,11.87,4.907,11.87,11.298v12.269c0,0.856,0.455,1.255,1.255,1.255h2.34
			v4.737h-5.193c-2.568,0-3.595-1.255-3.595-3.31c0-0.969,0.114-1.712,0.114-1.712h-0.114c0,0-2.283,5.707-9.188,5.707
			c-4.964,0-9.815-3.024-9.815-8.788C63.115,40.263,75.67,39.693,80.521,39.693z M74.129,53.902c4.679,0,7.704-4.909,7.704-9.188
			v-0.97h-1.427c-4.166,0-11.698,0.229-11.698,5.536C68.708,51.62,70.477,53.902,74.129,53.902z"/>
		<path fill="#75B448" d="M95.355,23.372c0-0.856-0.456-1.255-1.255-1.255h-2.339V17.38h5.477c2.568,0,3.652,1.084,3.652,3.652
			v30.644c0,0.856,0.458,1.255,1.256,1.255h2.339v4.737h-5.478c-2.568,0-3.653-1.084-3.653-3.652V23.372z"/>
		<path fill="#75B448" d="M109.621,34.785c0-0.857-0.458-1.256-1.256-1.256h-2.34v-4.736h5.421c2.569,0,3.652,1.084,3.652,3.652
			v19.231c0,0.856,0.457,1.255,1.255,1.255h2.341v4.737h-5.422c-2.568,0-3.651-1.084-3.651-3.652V34.785z M109.734,17.38h4.965
			v5.763h-4.965V17.38z"/>
		<path fill="#75B448" d="M136.324,28.109c8.618,0,15.58,6.333,15.58,15.064c0,8.788-6.962,15.18-15.58,15.18
			c-8.616,0-15.521-6.392-15.521-15.18C120.802,34.442,127.708,28.109,136.324,28.109z M136.324,53.559
			c5.48,0,9.931-4.336,9.931-10.386c0-5.992-4.45-10.272-9.931-10.272c-5.42,0-9.871,4.28-9.871,10.272
			C126.453,49.223,130.904,53.559,136.324,53.559z"/>
	</g>
	<path fill="#75B448" d="M31.9,18.75h-2.054c-2.568,0-3.652,1.083-3.652,3.651v14.096H5.707V22.401c0-2.568-1.084-3.651-3.652-3.651
		H0v6.163V41.31v17.728h5.707V41.347h20.487v17.691H31.9V38.075V24.913V18.75z"/>
	<g>
		<g>
			
				<linearGradient id="SVGID_1_" gradientUnits="userSpaceOnUse" x1="328.1743" y1="-60.4233" x2="302.8227" y2="-41.8972" gradientTransform="matrix(0.9937 -0.1124 0.1124 0.9937 -151.0668 99.5184)">
				<stop  offset="0.02" style="stop-color:#2D3D98"/>
				<stop  offset="0.98" style="stop-color:#3E87C7"/>
			</linearGradient>
			<path fill-rule="evenodd" clip-rule="evenodd" fill="url(#SVGID_1_)" d="M163.947,17.651c-2.456-2.601-4.068-4.406-5.649-6.183
				c-1.557-1.749-3.104-3.466-5.405-5.858c4.833,3.125,8.109,3.632,10.629,2.973c2.344-0.61,3.964-2.218,5.703-3.53
				c-0.713,1.715-1.486,3.553-2.316,5.543C166.01,12.746,165.023,15.091,163.947,17.651L163.947,17.651z"/>
			
				<linearGradient id="SVGID_2_" gradientUnits="userSpaceOnUse" x1="194.3667" y1="21.1245" x2="212.2964" y2="21.1245" gradientTransform="matrix(0.9937 -0.1124 0.1124 0.9937 -52.5874 11.5154)">
				<stop  offset="0" style="stop-color:#27AAE1"/>
				<stop  offset="1" style="stop-color:#14426F"/>
			</linearGradient>
			<path fill-rule="evenodd" clip-rule="evenodd" fill="url(#SVGID_2_)" d="M161.894,18.79c-3.376-0.234-5.871-0.515-8.467-0.79
				c-2.705-0.287-5.518-0.585-9.763-0.848c5.86-1.466,7.222-4.133,6.758-7.317C149.99,6.87,147.959,3.358,146.335,0
				c2.409,2.892,4.898,5.865,7.446,8.938C156.406,12.104,159.116,15.396,161.894,18.79L161.894,18.79z"/>
			
				<linearGradient id="SVGID_3_" gradientUnits="userSpaceOnUse" x1="329.6538" y1="-58.4009" x2="304.3018" y2="-39.8744" gradientTransform="matrix(0.9937 -0.1124 0.1124 0.9937 -151.0668 99.5184)">
				<stop  offset="0.01" style="stop-color:#2D3D98"/>
				<stop  offset="0.99" style="stop-color:#3E87C7"/>
			</linearGradient>
			<path fill-rule="evenodd" clip-rule="evenodd" fill="url(#SVGID_3_)" d="M162.855,21.619c-0.758,2.796-1.443,4.831-2.188,6.974
				c-0.794,2.281-1.658,4.729-2.771,8.65c-0.679-6.87-3.812-10.524-8.314-13.054c-4.584-2.572-11.021-4.207-17.854-6.322
				c6.2,0.688,11.958,1.349,17.267,1.995C153.932,20.462,158.556,21.056,162.855,21.619L162.855,21.619z"/>
			<path fill-rule="evenodd" clip-rule="evenodd" fill="#75B448" d="M165.956,23.189c2.634,2.878,4.416,4.981,6.224,7.113
				c1.845,2.176,3.712,4.41,6.558,7.582c-5.431-3.586-9.03-3.368-12.093-1.169c-3.396,2.441-6.391,7.48-10.354,13.037
				c2.163-5.871,4.042-11.034,5.702-15.595C163.466,30.102,164.777,26.469,165.956,23.189L165.956,23.189z"/>
			
				<linearGradient id="SVGID_4_" gradientUnits="userSpaceOnUse" x1="345.2319" y1="-37.0796" x2="319.8814" y2="-18.5543" gradientTransform="matrix(0.9937 -0.1124 0.1124 0.9937 -151.0668 99.5184)">
				<stop  offset="0.01" style="stop-color:#2D3D98"/>
				<stop  offset="0.99" style="stop-color:#3E87C7"/>
			</linearGradient>
			<path fill-rule="evenodd" clip-rule="evenodd" fill="url(#SVGID_4_)" d="M167.89,21.887c2.968,0.156,4.979,0.367,6.909,0.569
				c1.875,0.196,3.691,0.402,6.129,0.538c-2.953,1.473-3.091,4.277-1.771,7.961c1.418,3.953,4.485,8.841,7.537,14.272
				c-3.398-4.26-6.68-8.386-9.852-12.328C173.775,29.084,170.784,25.425,167.89,21.887L167.89,21.887z"/>
			
				<linearGradient id="SVGID_5_" gradientUnits="userSpaceOnUse" x1="337.7632" y1="-47.3018" x2="312.4161" y2="-28.779" gradientTransform="matrix(0.9937 -0.1124 0.1124 0.9937 -151.0668 99.5184)">
				<stop  offset="0.01" style="stop-color:#2D3D98"/>
				<stop  offset="0.99" style="stop-color:#3E87C7"/>
			</linearGradient>
			<path fill-rule="evenodd" clip-rule="evenodd" fill="url(#SVGID_5_)" d="M166.851,19.169c0.499-2.317,0.936-3.772,1.341-5.158
				c0.39-1.322,0.75-2.587,1.121-4.386c1.063,3.641,3.509,6.144,6.613,8.087c3.07,1.922,6.596,3.185,10.107,4.668
				c-2.79-0.482-5.717-0.991-8.809-1.505C173.961,20.33,170.513,19.764,166.851,19.169L166.851,19.169z"/>
		</g>
	</g>
</g>
</svg>
