<?xml version="1.0" encoding="utf-8"?>
<!-- Generator: Adobe Illustrator 16.0.4, SVG Export Plug-In . SVG Version: 6.00 Build 0)  -->
<!DOCTYPE svg PUBLIC "-//W3C//DTD SVG 1.1//EN" "http://www.w3.org/Graphics/SVG/1.1/DTD/svg11.dtd">
<svg version="1.1" id="Layer_1" xmlns="http://www.w3.org/2000/svg" xmlns:xlink="http://www.w3.org/1999/xlink" x="0px" y="0px"
	 width="70px" height="70px" viewBox="0 0 70 70" enable-background="new 0 0 70 70" xml:space="preserve">
<g>
	<path fill="#FFFFFF" d="M31.841,54.104c0,0.938-0.776,1.714-1.714,1.714H16.416c-0.938,0-1.714-0.776-1.714-1.714V16.399
		c0-0.938,0.776-1.714,1.714-1.714h13.711c0.938,0,1.714,0.776,1.714,1.714V54.104z M55.835,54.104c0,0.938-0.776,1.714-1.714,1.714
		H40.41c-0.938,0-1.714-0.776-1.714-1.714V16.399c0-0.938,0.776-1.714,1.714-1.714h13.711c0.938,0,1.714,0.776,1.714,1.714V54.104z"
		/>
</g>
</svg>
