<?xml version="1.0" encoding="utf-8"?>
<!-- Generator: Adobe Illustrator 19.1.0, SVG Export Plug-In . SVG Version: 6.00 Build 0)  -->
<svg version="1.1" id="Layer_1" xmlns="http://www.w3.org/2000/svg" xmlns:xlink="http://www.w3.org/1999/xlink" x="0px" y="0px"
	 width="56.7px" height="56.7px" viewBox="-392 269.6 56.7 56.7" style="enable-background:new -392 269.6 56.7 56.7;"
	 xml:space="preserve">
<path d="M-338.9,291.2l-4.4,4.4l-16.3-16.3l4.4-4.4l-3.6-3.6l-13.1,13.1l-7.5,16.2l-6.8,6.8l3.5,3.5l-9.3,9.3l12.1,4.4l5.4-5.4
	l3.4,3.4l6.7-7l16-7.6l13.1-13.1L-338.9,291.2z M-346.9,299.3l-2.9,2.9l-16.3-16.3l2.9-2.9L-346.9,299.3z M-367.4,311.3l-3.8,3.9
	l-7.8-7.8l3.9-3.9l6.2-13.3l14.8,14.8L-367.4,311.3z"/>
</svg>
