<?xml version="1.0" encoding="utf-8"?>
<!-- Generator: Adobe Illustrator 19.1.0, SVG Export Plug-In . SVG Version: 6.00 Build 0)  -->
<svg version="1.1" id="Layer_1" xmlns="http://www.w3.org/2000/svg" xmlns:xlink="http://www.w3.org/1999/xlink" x="0px" y="0px"
	 width="56.7px" height="56.7px" viewBox="-392 269.6 56.7 56.7" style="enable-background:new -392 269.6 56.7 56.7;"
	 xml:space="preserve">
<style type="text/css">
	.st0{fill:#231F20;}
</style>
<path class="st0" d="M-357.3,275.5c-7.9-7.9-20.9-7.9-28.8,0c-7.9,7.9-7.9,20.9,0,28.8c6.9,6.9,17.6,7.8,25.5,2.7l3.7,3.7l-1.3,1.3
	l14.2,14.2l8.7-8.7l-14.2-14.2l-1.3,1.3l-3.7-3.7C-349.5,293.1-350.3,282.4-357.3,275.5z M-380.7,299c-5-5-5-13.1,0-18s13.1-5,18,0
	c5,5,5,13.1,0,18C-367.6,303.9-375.7,303.9-380.7,299z"/>
</svg>
