<?xml version="1.0" encoding="utf-8"?>
<!-- Generator: Adobe Illustrator 19.1.0, SVG Export Plug-In . SVG Version: 6.00 Build 0)  -->
<svg version="1.1" id="Layer_1" xmlns="http://www.w3.org/2000/svg" xmlns:xlink="http://www.w3.org/1999/xlink" x="0px" y="0px"
	 viewBox="-171 172.3 56.7 56.7" style="enable-background:new -171 172.3 56.7 56.7;" xml:space="preserve">
<g>
	<path d="M-124.7,198.7h-25.1c-3.8,0-8.4,2.1-10.9,5l-10.2,11.9l-0.2,0.2c0-0.2,0-0.5,0-0.8v-28.9c0-3.7,3-6.7,6.7-6.7h9.6
		c3.7,0,6.7,3,6.7,6.7v1h16.4c3.7,0,6.7,3,6.7,6.7V198.7z M-115.3,206.3l-10.1,11.9c-1.7,2-5.3,3.7-8,3.7h-32.8
		c-1.1,0-2.6-0.3-2.6-1.7c0-0.7,0.5-1.4,0.9-2l10.1-11.9c1.7-2,5.3-3.7,8-3.7h32.8c1.1,0,2.6,0.3,2.6,1.7
		C-114.3,205-114.8,205.7-115.3,206.3z"/>
</g>
</svg>
