<?xml version="1.0" encoding="utf-8"?>
<!-- Generator: Adobe Illustrator 19.1.0, SVG Export Plug-In . SVG Version: 6.00 Build 0)  -->
<svg version="1.1" id="Layer_1" xmlns="http://www.w3.org/2000/svg" xmlns:xlink="http://www.w3.org/1999/xlink" x="0px" y="0px"
	 viewBox="-171 172.3 56.7 56.7" style="enable-background:new -171 172.3 56.7 56.7;" xml:space="preserve">
<g>
	<path d="M-115.3,219.2l-6.1-6.1c1.4-2.1,2.2-4.6,2.2-7.1c0-6.9-5.6-12.5-12.5-12.5c-6.9,0-12.5,5.6-12.5,12.5
		c0,6.9,5.6,12.5,12.5,12.5c2.5,0,5-0.8,7.1-2.2l6.1,6.1c0.4,0.4,1,0.7,1.6,0.7c1.2,0,2.3-1,2.3-2.3
		C-114.7,220.2-114.9,219.6-115.3,219.2z M-131.7,213.9c-4.4,0-8-3.6-8-8s3.6-8,8-8c4.4,0,8,3.6,8,8S-127.3,213.9-131.7,213.9z"/>
	<path d="M-144.1,194.6h-12v7.3h8.1C-147.3,199.1-146,196.6-144.1,194.6z"/>
	<circle cx="-165.2" cy="212.7" r="5.4"/>
	<rect x="-156.1" y="180.1" width="32.1" height="7.3"/>
	<circle cx="-165.2" cy="198.2" r="5.4"/>
	<path d="M-156.1,209.1v7.3h11.2c-1.6-2.1-2.8-4.6-3.3-7.3H-156.1z"/>
	<circle cx="-165.2" cy="183.7" r="5.4"/>
</g>
</svg>
