<?xml version="1.0" encoding="utf-8"?>
<!-- Generator: Adobe Illustrator 16.0.3, SVG Export Plug-In . SVG Version: 6.00 Build 0)  -->
<!DOCTYPE svg PUBLIC "-//W3C//DTD SVG 1.1//EN" "http://www.w3.org/Graphics/SVG/1.1/DTD/svg11.dtd">
<svg version="1.1" id="Layer_1" xmlns="http://www.w3.org/2000/svg" xmlns:xlink="http://www.w3.org/1999/xlink" x="0px" y="0px"
	 width="167.4px" height="46px" viewBox="0 0 167.4 46" style="enable-background:new 0 0 167.4 46;" xml:space="preserve">
<style type="text/css">
<![CDATA[
	.st0{fill:#7B9F3F;}
	.st1{clip-path:url(#SVGID_49_);fill:#80298F;}
	.st2{fill:#492051;}
	.st3{clip-path:url(#SVGID_2_);fill:url(#SVGID_3_);}
	.st4{fill:#7F192A;}
	.st5{fill:#7F7F7F;}
	.st6{clip-path:url(#SVGID_10_);fill:#80298F;}
	.st7{fill:url(#XMLID_2_);}
	.st8{fill:url(#XMLID_3_);}
	.st9{fill:url(#XMLID_4_);}
	.st10{fill:url(#XMLID_5_);}
	.st11{fill:url(#XMLID_6_);}
	.st12{fill:#191930;}
	.st13{fill:#80CED5;}
	.st14{clip-path:url(#SVGID_31_);fill-rule:evenodd;clip-rule:evenodd;fill:#231F20;}
	.st15{clip-path:url(#SVGID_33_);fill:none;stroke:#BBBDBF;stroke-width:1.292;}
	.st16{fill:#1F6F7C;}
	.st17{fill:#EEE840;}
	.st18{fill:#515151;}
	.st19{fill:#517134;}
	.st20{fill:none;stroke:#FFFFFF;stroke-width:0.2128;}
	.st21{fill:#569B2A;}
	.st22{fill:#BABDC0;}
	.st23{fill:#8BBA56;}
	.st24{fill:#589DA0;}
	.st25{fill:#8CC540;}
	.st26{fill:#F06A4D;}
	.st27{fill:#BFD970;}
	.st28{fill:#231F20;}
	.st29{fill:#232323;}
	.st30{clip-path:url(#SVGID_31_);fill-rule:evenodd;clip-rule:evenodd;fill:#FFFFFF;}
	.st31{fill:#FFFFFF;stroke:#FFFFFF;stroke-width:0.5;stroke-miterlimit:10;}
	.st32{fill:#F9EC1C;}
	.st33{fill:#F9EC1E;}
	.st34{clip-path:url(#SVGID_8_);}
	.st35{clip-path:url(#SVGID_5_);fill:url(#SVGID_6_);}
	.st36{opacity:0.2;fill:#FFFFFF;}
	.st37{fill:#FAB32F;}
	.st38{fill:#607C29;}
	.st39{fill:#FFF100;}
	.st40{fill:#FFFFFF;}
	.st41{clip-path:url(#SVGID_29_);fill:#FFD200;}
	.st42{clip-path:url(#SVGID_29_);fill:#FFFFFF;}
	.st43{fill:none;}
	.st44{fill:none;stroke:#231F20;stroke-width:0.6386;}
	.st45{fill:none;stroke:#3F3B3C;stroke-miterlimit:10;}
	.st46{fill:#375F34;}
	.st47{fill:#0054A5;}
	.st48{fill:#006600;}
	.st49{fill:#006838;}
	.st50{fill:#009CD1;}
	.st51{opacity:0.4;fill:#FFFFFF;}
	.st52{fill:#00A993;}
	.st53{clip-path:url(#SVGID_29_);fill:#006838;}
	.st54{fill:#0356A2;}
	.st55{fill:#0557A3;}
	.st56{clip-path:url(#SVGID_29_);fill:#0557A2;}
	.st57{fill:#D6E38C;}
	.st58{fill:#3C8BA5;}
	.st59{fill:url(#SVGID_27_);}
	.st60{fill:url(#SVGID_54_);}
	.st61{fill:url(#SVGID_55_);}
	.st62{fill:url(#SVGID_56_);}
	.st63{fill:none;stroke:#FFF100;stroke-width:1.095;}
	.st64{clip-path:url(#SVGID_26_);fill:#FFFFFF;}
	.st65{clip-path:url(#SVGID_10_);}
	.st66{clip-path:url(#SVGID_12_);}
	.st67{clip-path:url(#SVGID_18_);}
	.st68{clip-path:url(#SVGID_20_);}
	.st69{clip-path:url(#SVGID_22_);}
	.st70{clip-path:url(#SVGID_35_);}
	.st71{clip-path:url(#SVGID_39_);}
	.st72{clip-path:url(#SVGID_31_);fill:none;stroke:#404041;stroke-width:2.800000e-002;stroke-miterlimit:2.613;}
	.st73{clip-path:url(#SVGID_43_);}
	.st74{clip-path:url(#SVGID_47_);}
	.st75{clip-path:url(#SVGID_49_);}
	.st76{clip-path:url(#SVGID_51_);}
	.st77{fill:#72A141;}
	.st78{fill:#A2CD4F;}
	.st79{fill:#A6CF56;}
	.st80{clip-path:url(#SVGID_16_);fill:#FFFFFF;}
	.st81{fill:#458F45;}
	.st82{clip-path:url(#SVGID_20_);fill:#80298F;}
]]>
</style>
<g>
	<path class="st31" d="M56.3,20.1v-0.3c0.9-0.1,1.5-0.3,1.8-0.6c0.3-0.3,0.4-0.9,0.4-1.7v-6.4c0-0.9-0.1-1.5-0.4-1.8
		c-0.3-0.3-0.8-0.4-1.6-0.5V8.6c0.7,0,1.5,0,2.3,0c0.8,0,1.3,0,1.3,0c1.8,0,3.1,0.2,3.9,0.6c0.8,0.4,1.2,1.1,1.2,2
		c0,0.7-0.2,1.3-0.7,1.7c-0.5,0.4-1.2,0.8-2.2,1V14c1.2,0.3,2.1,0.7,2.7,1.2s0.9,1.2,0.9,2c0,0.5-0.1,1-0.4,1.4
		c-0.2,0.4-0.6,0.8-1.1,1c-0.4,0.2-0.8,0.4-1.3,0.5c-0.5,0.1-1.3,0.1-2.3,0.1c-0.1,0-0.2,0-0.3,0s-0.2,0-0.3,0c-0.9,0-1.8,0-2.7,0
		C56.8,20.1,56.4,20.1,56.3,20.1z M60.1,14c1.2,0,2.1-0.3,2.7-0.7c0.6-0.4,0.9-1,0.9-1.8c0-0.8-0.3-1.4-0.9-1.9
		c-0.6-0.5-1.5-0.7-2.6-0.7V14z M60.1,17.5c0,1,0.1,1.6,0.4,1.8c0.2,0.3,0.7,0.4,1.3,0.4c0.8,0,1.4-0.2,1.8-0.6
		c0.5-0.4,0.7-1,0.7-1.7c0-0.9-0.3-1.7-1-2.2c-0.7-0.6-1.5-0.8-2.6-0.8c-0.2,0-0.3,0-0.3,0c-0.1,0-0.1,0-0.2,0V17.5z"/>
</g>
<g>
	<path class="st31" d="M66.9,20.1v-0.3c0.6,0,0.9-0.1,1.1-0.3s0.3-0.7,0.3-1.6v-2.8c0-0.4-0.1-0.7-0.2-0.9c-0.1-0.2-0.3-0.4-0.6-0.6
		l-0.3-0.3v-0.1l2.2-0.8l0.2,0.1c0,0.1,0,0.3,0,0.6c0,0.5,0,0.8,0,1v4.3c0,0.7,0.1,1.1,0.3,1.3c0.2,0.2,0.5,0.3,1.1,0.3v0.3
		c-0.2,0-0.4,0-0.7,0s-0.7,0-1.2,0c-0.6,0-1,0-1.3,0S67.2,20.1,66.9,20.1z M68,8.9c0-0.2,0.1-0.4,0.2-0.6s0.4-0.2,0.6-0.2
		c0.2,0,0.4,0.1,0.6,0.2s0.2,0.4,0.2,0.6s-0.1,0.4-0.2,0.6c-0.2,0.2-0.4,0.2-0.6,0.2c-0.3,0-0.5-0.1-0.6-0.2C68.1,9.4,68,9.2,68,8.9
		z"/>
	<path class="st31" d="M71.6,16.3c0-1.1,0.4-2.1,1.2-2.8c0.8-0.7,1.8-1.1,3-1.1c1.3,0,2.3,0.4,3,1.1c0.8,0.7,1.1,1.7,1.1,2.8
		c0,1.1-0.4,2.1-1.2,2.8c-0.8,0.7-1.8,1.1-3,1.1c-1.3,0-2.3-0.4-3-1.1C72,18.4,71.6,17.5,71.6,16.3z M75.7,12.7
		c-0.8,0-1.4,0.3-1.9,1c-0.5,0.6-0.7,1.5-0.7,2.6c0,1,0.2,1.9,0.7,2.6c0.5,0.7,1.1,1,1.9,1c0.8,0,1.4-0.3,1.9-1s0.7-1.5,0.7-2.6
		c0-1-0.2-1.9-0.7-2.6C77.1,13.1,76.5,12.7,75.7,12.7z"/>
	<path class="st31" d="M86.9,20.3l0-1.6c-0.5,0.5-1,0.9-1.5,1.1c-0.5,0.2-0.9,0.4-1.4,0.4c-0.9,0-1.6-0.3-2.3-1
		c-0.6-0.7-0.9-1.5-0.9-2.6c0-1.2,0.4-2.2,1.3-3c0.9-0.8,2-1.2,3.3-1.2c0.2,0,0.4,0,0.6,0c0.2,0,0.5,0.1,0.8,0.1l0-2v-0.2
		c0-0.4,0-0.7-0.1-0.8c-0.1-0.1-0.3-0.3-0.5-0.5l-0.4-0.3V8.5l2.2-0.7L88.1,8c0,0.6,0,1.3,0,2.1c0,0.7,0,1.1,0,1.2l0.1,6.6
		c0,0.7,0.1,1.1,0.1,1.3s0.3,0.3,0.6,0.3c0.1,0,0.2,0,0.4,0c0.1,0,0.2,0,0.4-0.1l0.1,0.3L86.9,20.3z M86.8,15.7c0-1-0.2-1.7-0.6-2.2
		c-0.4-0.5-0.9-0.7-1.7-0.7c-0.7,0-1.3,0.3-1.7,0.8c-0.4,0.6-0.6,1.3-0.6,2.3c0,0.9,0.3,1.7,0.8,2.3c0.5,0.6,1.1,0.9,1.9,0.9
		c0.3,0,0.7-0.1,1-0.3c0.3-0.2,0.6-0.4,0.9-0.8L86.8,15.7z"/>
	<path class="st31" d="M89.8,20.1v-0.3c0.6,0,0.9-0.1,1.1-0.3s0.3-0.7,0.3-1.6v-2.8c0-0.4-0.1-0.7-0.2-0.9c-0.1-0.2-0.3-0.4-0.6-0.6
		l-0.3-0.3v-0.1l2.2-0.8l0.2,0.1c0,0.1,0,0.3,0,0.6c0,0.5,0,0.8,0,1v4.3c0,0.7,0.1,1.1,0.3,1.3c0.2,0.2,0.5,0.3,1.1,0.3v0.3
		c-0.2,0-0.4,0-0.7,0s-0.7,0-1.2,0c-0.6,0-1,0-1.3,0S90,20.1,89.8,20.1z M90.9,8.9c0-0.2,0.1-0.4,0.2-0.6s0.4-0.2,0.6-0.2
		c0.2,0,0.4,0.1,0.6,0.2s0.2,0.4,0.2,0.6s-0.1,0.4-0.2,0.6c-0.2,0.2-0.4,0.2-0.6,0.2c-0.3,0-0.5-0.1-0.6-0.2
		C90.9,9.4,90.9,9.2,90.9,8.9z"/>
	<path class="st31" d="M97.8,20.4l-2.4-6c-0.3-0.7-0.5-1.1-0.7-1.2c-0.2-0.2-0.5-0.3-0.8-0.3v-0.3c0.2,0,0.5,0,0.8,0
		c0.4,0,0.7,0,0.9,0c0.2,0,0.5,0,0.9,0c0.4,0,0.7,0,0.9,0v0.3c-0.4,0-0.6,0.1-0.8,0.2c-0.1,0.1-0.2,0.2-0.2,0.4c0,0.1,0,0.3,0.1,0.5
		c0.1,0.2,0.2,0.5,0.3,0.8l1.6,3.9l0.8-2c0.3-0.9,0.6-1.6,0.8-2.1c0.2-0.5,0.3-0.9,0.3-1c0-0.2-0.1-0.4-0.3-0.5
		c-0.2-0.1-0.5-0.2-0.9-0.2v-0.3c0.2,0,0.4,0,0.8,0c0.3,0,0.6,0,0.8,0s0.4,0,0.8,0c0.3,0,0.6,0,0.7,0v0.3c-0.4,0-0.7,0.2-0.9,0.4
		c-0.2,0.2-0.5,0.7-0.9,1.5l-1.7,4c-0.2,0.4-0.3,0.7-0.4,1c-0.1,0.3-0.2,0.5-0.3,0.7H97.8z"/>
	<path class="st31" d="M108.9,18.1l0.2,0.2c-0.4,0.6-0.9,1.1-1.5,1.4c-0.5,0.3-1.1,0.5-1.8,0.5c-1,0-1.8-0.4-2.5-1.1
		c-0.7-0.7-1-1.6-1-2.7c0-1.1,0.4-2.1,1.1-2.9c0.7-0.8,1.6-1.2,2.6-1.2c0.8,0,1.5,0.2,2,0.7c0.5,0.5,0.8,1.1,0.8,1.9
		c-0.9,0-1.8-0.1-2.6-0.1c-0.8,0-1.6,0-2.4,0c0,0.2-0.1,0.3-0.1,0.5c0,0.2,0,0.3,0,0.5c0,1,0.3,1.8,0.8,2.4s1.3,1,2.1,1
		c0.4,0,0.8-0.1,1.2-0.3C108.3,18.7,108.6,18.5,108.9,18.1z M107.2,14.5c-0.1-0.6-0.3-1-0.5-1.3s-0.6-0.4-0.9-0.4
		c-0.4,0-0.8,0.2-1.1,0.5c-0.3,0.3-0.5,0.8-0.7,1.3L107.2,14.5z"/>
	<path class="st31" d="M109.8,20.1v-0.3c0.4,0,0.7-0.2,0.9-0.4c0.1-0.2,0.2-0.6,0.2-1.3l0-3c0-0.4,0-0.7-0.1-0.9
		c-0.1-0.2-0.2-0.4-0.4-0.5l-0.3-0.2v-0.2l2.1-1l0.1,0.1l0,2c0.4-0.6,0.7-1.1,1.2-1.5c0.4-0.3,0.9-0.5,1.3-0.5
		c0.3,0,0.5,0.1,0.6,0.2c0.2,0.1,0.2,0.3,0.2,0.5c0,0.2-0.1,0.4-0.2,0.6c-0.1,0.2-0.4,0.4-0.7,0.5c-0.2-0.2-0.4-0.3-0.6-0.4
		c-0.2-0.1-0.4-0.1-0.5-0.1c-0.4,0-0.7,0.2-0.9,0.7c-0.2,0.4-0.4,1-0.4,1.7v2c0,0.7,0.1,1.2,0.3,1.4c0.2,0.2,0.7,0.3,1.5,0.4v0.3
		c-0.3,0-0.5,0-0.8,0c-0.3,0-0.7,0-1.3,0c-0.6,0-1,0-1.3,0S110,20.1,109.8,20.1z"/>
	<path class="st31" d="M116.1,19.6l-0.1-1.9l0.4,0c0.1,0.7,0.4,1.2,0.7,1.6c0.3,0.4,0.8,0.6,1.2,0.6c0.4,0,0.7-0.1,1-0.4
		c0.3-0.3,0.4-0.6,0.4-1c0-0.3-0.1-0.5-0.2-0.7c-0.2-0.2-0.4-0.4-0.7-0.6l-0.8-0.4c-0.6-0.3-1-0.7-1.3-1c-0.3-0.3-0.4-0.7-0.4-1.1
		c0-0.6,0.2-1.1,0.7-1.5c0.5-0.4,1.1-0.6,1.8-0.6c0.3,0,0.6,0,0.9,0.1c0.3,0.1,0.6,0.2,1,0.4l0.1,1.6h-0.4c-0.2-0.6-0.5-1.1-0.7-1.4
		c-0.3-0.3-0.6-0.4-1-0.4c-0.3,0-0.6,0.1-0.8,0.4c-0.2,0.2-0.3,0.5-0.3,0.9c0,0.3,0.1,0.5,0.2,0.7c0.2,0.2,0.5,0.5,0.9,0.8l1,0.6
		c0.5,0.3,0.9,0.6,1.1,0.9c0.2,0.3,0.3,0.6,0.3,1c0,0.7-0.3,1.2-0.8,1.6s-1.2,0.7-2,0.7c-0.4,0-0.8-0.1-1.1-0.2
		C116.7,20,116.4,19.8,116.1,19.6z"/>
	<path class="st31" d="M122,20.1v-0.3c0.6,0,0.9-0.1,1.1-0.3s0.3-0.7,0.3-1.6v-2.8c0-0.4-0.1-0.7-0.2-0.9c-0.1-0.2-0.3-0.4-0.6-0.6
		l-0.3-0.3v-0.1l2.2-0.8l0.2,0.1c0,0.1,0,0.3,0,0.6c0,0.5,0,0.8,0,1v4.3c0,0.7,0.1,1.1,0.3,1.3c0.2,0.2,0.5,0.3,1.1,0.3v0.3
		c-0.2,0-0.4,0-0.7,0s-0.7,0-1.2,0c-0.6,0-1,0-1.3,0S122.3,20.1,122,20.1z M123.1,8.9c0-0.2,0.1-0.4,0.2-0.6s0.4-0.2,0.6-0.2
		c0.2,0,0.4,0.1,0.6,0.2s0.2,0.4,0.2,0.6s-0.1,0.4-0.2,0.6c-0.2,0.2-0.4,0.2-0.6,0.2c-0.3,0-0.5-0.1-0.6-0.2
		C123.2,9.4,123.1,9.2,123.1,8.9z"/>
	<path class="st31" d="M127.6,18.6l0.1-5h-1.1l-0.1-0.1l2.5-2.4l0.1,0l-0.1,1.6h2.7v0.9H129l0,3c0,0.9,0,1.4,0.1,1.7
		c0,0.3,0.1,0.5,0.2,0.7c0.1,0.2,0.3,0.3,0.6,0.4c0.2,0.1,0.5,0.1,0.9,0.1c0.2,0,0.3,0,0.5,0c0.2,0,0.3,0,0.5-0.1l0.1,0.3
		c-0.5,0.2-1,0.3-1.4,0.4c-0.4,0.1-0.8,0.1-1.2,0.1c-0.6,0-1-0.1-1.3-0.4C127.7,19.6,127.6,19.2,127.6,18.6L127.6,18.6z"/>
	<path class="st31" d="M135.6,20.6l-2.5-6.4c-0.2-0.6-0.4-1-0.6-1.1c-0.2-0.2-0.4-0.3-0.7-0.3v-0.3c0.2,0,0.5,0,0.9,0
		c0.4,0,0.7,0,0.9,0c0.2,0,0.5,0,0.9,0c0.4,0,0.7,0,0.9,0v0.3c-0.3,0-0.6,0.1-0.7,0.2c-0.2,0.1-0.2,0.2-0.2,0.3c0,0.1,0,0.3,0.1,0.4
		s0.1,0.3,0.2,0.5l1.8,4.5l0.6-1.7c0.3-0.9,0.6-1.6,0.8-2.3c0.2-0.7,0.3-1.1,0.3-1.3c0-0.2-0.1-0.3-0.3-0.4
		c-0.2-0.1-0.4-0.2-0.8-0.3v-0.3c0.2,0,0.5,0,0.8,0c0.4,0,0.6,0,0.8,0c0.2,0,0.4,0,0.7,0c0.3,0,0.6,0,0.7,0v0.3
		c-0.2,0.1-0.4,0.1-0.6,0.2c-0.1,0.1-0.3,0.2-0.4,0.3c-0.2,0.2-0.5,0.8-0.9,1.7c-0.4,0.9-0.9,2.2-1.5,3.8l-1.3,3.5
		c-0.4,1.1-0.8,1.9-1,2.2c-0.2,0.3-0.5,0.5-0.9,0.5c-0.3,0-0.5-0.1-0.6-0.2s-0.2-0.4-0.2-0.6c0-0.2,0-0.4,0.1-0.5s0.2-0.2,0.4-0.3
		c0.2,0.1,0.4,0.3,0.5,0.3c0.2,0.1,0.3,0.1,0.4,0.1c0.1,0,0.3-0.1,0.4-0.3c0.1-0.2,0.3-0.6,0.6-1.2L135.6,20.6z"/>
</g>
<g>
	<path class="st31" d="M72.3,36.4v-0.3c0.9-0.1,1.4-0.3,1.7-0.5c0.3-0.3,0.4-0.9,0.4-1.7v-6.6c0-0.8-0.1-1.3-0.4-1.6
		c-0.3-0.3-0.8-0.5-1.6-0.6v-0.3c0.9,0,1.9,0,3,0c1,0,1.6,0,1.8,0c2.4,0,4.3,0.5,5.7,1.6c1.4,1.1,2.1,2.5,2.1,4.3
		c0,1.8-0.7,3.2-2,4.2s-3.1,1.5-5.4,1.5c-0.4,0-1.3,0-2.5,0C73.9,36.4,73,36.4,72.3,36.4z M76,33.3c0,1.1,0.2,1.8,0.5,2.1
		s1,0.5,1.9,0.5c1.3,0,2.4-0.5,3.2-1.4s1.2-2.2,1.2-3.7c0-1.8-0.6-3.2-1.8-4.3c-1.2-1-2.8-1.5-5-1.5H76V33.3z"/>
</g>
<g>
	<path class="st31" d="M92.7,35.9l0,0.2c-0.4,0.1-0.7,0.2-1,0.2c-0.3,0.1-0.6,0.1-0.8,0.1c-0.3,0-0.6-0.1-0.7-0.3s-0.3-0.4-0.3-0.8
		c-0.4,0.3-0.7,0.6-1.1,0.8c-0.4,0.2-0.7,0.3-1,0.3c-0.5,0-0.9-0.2-1.2-0.5c-0.3-0.3-0.5-0.8-0.5-1.3c0-0.1,0-0.3,0-0.4
		c0-0.1,0-0.3,0.1-0.4l3.8-1.8c0-0.1,0-0.1,0-0.2s0-0.2,0-0.2c0-0.8-0.1-1.3-0.4-1.7c-0.3-0.3-0.7-0.5-1.2-0.5
		c-0.4,0-0.7,0.1-0.9,0.2c-0.2,0.1-0.3,0.4-0.3,0.7v0l0,0.6l-0.7,0c0,0-0.1,0-0.1,0c0,0-0.1,0-0.1,0c-0.1,0-0.2,0-0.3-0.1
		s-0.1-0.1-0.1-0.2c0-0.1,0.1-0.2,0.2-0.4c0.1-0.2,0.3-0.3,0.6-0.6c0.5-0.4,1-0.7,1.4-1c0.4-0.2,0.8-0.3,1.1-0.3
		c0.7,0,1.2,0.2,1.5,0.7s0.5,1.2,0.5,2.2v0.1l0,2.3v0.1c0,0.6,0.1,1.1,0.3,1.3C91.7,35.6,92.1,35.7,92.7,35.9z M89.9,32.5l-2.3,1.2
		c0,0.2-0.1,0.3-0.1,0.4c0,0.1,0,0.1,0,0.2c0,0.4,0.1,0.8,0.3,1c0.2,0.3,0.5,0.4,0.9,0.4c0.2,0,0.4-0.1,0.6-0.2
		c0.2-0.1,0.4-0.3,0.6-0.5L89.9,32.5z"/>
	<path class="st31" d="M94.1,34.8l0.1-5H93l-0.1-0.1l2.5-2.4l0.1,0L95.4,29h2.7v0.9h-2.7l0,3c0,0.9,0,1.4,0.1,1.7
		c0,0.3,0.1,0.5,0.2,0.7c0.1,0.2,0.3,0.3,0.6,0.4c0.2,0.1,0.5,0.1,0.9,0.1c0.2,0,0.3,0,0.5,0c0.2,0,0.3,0,0.5-0.1l0.1,0.3
		c-0.5,0.2-1,0.3-1.4,0.4c-0.4,0.1-0.8,0.1-1.2,0.1c-0.6,0-1-0.1-1.3-0.4C94.2,35.9,94.1,35.4,94.1,34.8L94.1,34.8z"/>
	<path class="st31" d="M105.6,35.9l0,0.2c-0.4,0.1-0.7,0.2-1,0.2c-0.3,0.1-0.6,0.1-0.8,0.1c-0.3,0-0.6-0.1-0.7-0.3s-0.3-0.4-0.3-0.8
		c-0.4,0.3-0.7,0.6-1.1,0.8c-0.4,0.2-0.7,0.3-1,0.3c-0.5,0-0.9-0.2-1.2-0.5c-0.3-0.3-0.5-0.8-0.5-1.3c0-0.1,0-0.3,0-0.4
		c0-0.1,0-0.3,0.1-0.4l3.8-1.8c0-0.1,0-0.1,0-0.2s0-0.2,0-0.2c0-0.8-0.1-1.3-0.4-1.7c-0.3-0.3-0.7-0.5-1.2-0.5
		c-0.4,0-0.7,0.1-0.9,0.2c-0.2,0.1-0.3,0.4-0.3,0.7v0l0,0.6l-0.7,0c0,0-0.1,0-0.1,0c0,0-0.1,0-0.1,0c-0.1,0-0.2,0-0.3-0.1
		s-0.1-0.1-0.1-0.2c0-0.1,0.1-0.2,0.2-0.4c0.1-0.2,0.3-0.3,0.6-0.6c0.5-0.4,1-0.7,1.4-1c0.4-0.2,0.8-0.3,1.1-0.3
		c0.7,0,1.2,0.2,1.5,0.7s0.5,1.2,0.5,2.2v0.1l0,2.3v0.1c0,0.6,0.1,1.1,0.3,1.3C104.6,35.6,105,35.7,105.6,35.9z M102.8,32.5
		l-2.3,1.2c0,0.2-0.1,0.3-0.1,0.4c0,0.1,0,0.1,0,0.2c0,0.4,0.1,0.8,0.3,1c0.2,0.3,0.5,0.4,0.9,0.4c0.2,0,0.4-0.1,0.6-0.2
		c0.2-0.1,0.4-0.3,0.6-0.5L102.8,32.5z"/>
</g>
<g>
	<path class="st31" d="M108.9,39.1c0.5-0.3,0.9-0.6,1.3-0.9c0.3-0.3,0.6-0.7,0.8-1.1c0.2-0.4,0.3-0.8,0.4-1.3
		c0.1-0.5,0.1-1.3,0.1-2.2v-6.3c0-0.8-0.2-1.4-0.5-1.7c-0.3-0.3-0.9-0.5-1.7-0.5v-0.3c0.4,0,0.8,0,1.2,0c0.4,0,1,0,1.8,0
		c0.8,0,1.4,0,1.8,0c0.4,0,0.7,0,1.1,0v0.3c-0.8,0.1-1.4,0.3-1.7,0.6c-0.3,0.3-0.4,0.8-0.4,1.6v6.3c0,1.2-0.1,2-0.2,2.6
		c-0.1,0.5-0.4,1-0.7,1.3c-0.3,0.4-0.8,0.8-1.3,1.1c-0.5,0.3-1.1,0.6-1.8,0.8L108.9,39.1z"/>
</g>
<g>
	<path class="st31" d="M115.4,32.5c0-1.1,0.4-2.1,1.2-2.8c0.8-0.7,1.8-1.1,3-1.1c1.3,0,2.3,0.4,3,1.1c0.8,0.7,1.1,1.7,1.1,2.8
		c0,1.1-0.4,2.1-1.2,2.8c-0.8,0.7-1.8,1.1-3,1.1c-1.3,0-2.3-0.4-3-1.1C115.8,34.7,115.4,33.7,115.4,32.5z M119.5,29
		c-0.8,0-1.4,0.3-1.9,1c-0.5,0.6-0.7,1.5-0.7,2.6c0,1,0.2,1.9,0.7,2.6c0.5,0.7,1.1,1,1.9,1c0.8,0,1.4-0.3,1.9-1s0.7-1.5,0.7-2.6
		c0-1-0.2-1.9-0.7-2.6C120.9,29.3,120.3,29,119.5,29z"/>
	<path class="st31" d="M125.5,33.9l0-2.7c0,0,0-0.1,0-0.1c0-1.2-0.4-1.8-1.2-1.8h-0.1v-0.3c0.4,0,0.9-0.1,1.3-0.1s0.9-0.1,1.3-0.1
		c0,0.3,0,0.6,0,1c0,0.3,0,0.6,0,0.9l0.1,2.9c0,0.8,0.2,1.3,0.4,1.7s0.7,0.5,1.3,0.5c0.3,0,0.7-0.1,1-0.2c0.3-0.1,0.6-0.3,0.9-0.6
		l0-3.7V31c0-0.7-0.1-1.2-0.3-1.4c-0.2-0.2-0.7-0.3-1.3-0.3h-0.1v-0.3c0.2,0,0.5,0,0.9-0.1c1-0.1,1.8-0.2,2.3-0.2c0,0.5,0,0.9,0,1.3
		c0,0.4,0,0.7,0,0.8l-0.1,3.4v0.4c0,0.5,0,0.8,0.1,0.9c0.1,0.1,0.2,0.2,0.5,0.2c0.1,0,0.2,0,0.3,0c0.1,0,0.3,0,0.5-0.1l0.1,0.3
		c-0.2,0-0.5,0.1-0.9,0.2c-0.9,0.2-1.5,0.4-1.9,0.5v-1.3c-0.6,0.4-1.1,0.7-1.6,0.9s-1,0.3-1.5,0.3c-0.6,0-1.1-0.2-1.4-0.6
		C125.7,35.4,125.5,34.8,125.5,33.9z"/>
	<path class="st31" d="M133.7,36.4v-0.3c0.4,0,0.7-0.2,0.9-0.4c0.1-0.2,0.2-0.6,0.2-1.3l0-3c0-0.4,0-0.7-0.1-0.9
		c-0.1-0.2-0.2-0.4-0.4-0.5l-0.3-0.2v-0.2l2.1-1l0.1,0.1l0,2c0.4-0.6,0.7-1.1,1.2-1.5c0.4-0.3,0.9-0.5,1.3-0.5
		c0.3,0,0.5,0.1,0.6,0.2c0.2,0.1,0.2,0.3,0.2,0.5c0,0.2-0.1,0.4-0.2,0.6c-0.1,0.2-0.4,0.4-0.7,0.5c-0.2-0.2-0.4-0.3-0.6-0.4
		c-0.2-0.1-0.4-0.1-0.5-0.1c-0.4,0-0.7,0.2-0.9,0.7c-0.2,0.4-0.4,1-0.4,1.7v2c0,0.7,0.1,1.2,0.3,1.4c0.2,0.2,0.7,0.3,1.5,0.4v0.3
		c-0.3,0-0.5,0-0.8,0c-0.3,0-0.7,0-1.3,0c-0.6,0-1,0-1.3,0S133.9,36.4,133.7,36.4z"/>
	<path class="st31" d="M140,29.7v-0.1l2.1-1l0.1,0.1l-0.1,1.3c0.6-0.4,1.2-0.8,1.7-1c0.5-0.2,1-0.3,1.4-0.3c0.7,0,1.2,0.2,1.5,0.6
		c0.3,0.4,0.5,1.1,0.5,2.1v3.2c0,0.7,0.1,1.1,0.2,1.2c0.1,0.1,0.5,0.2,1,0.3v0.3c-0.2,0-0.5,0-0.7,0c-0.3,0-0.7,0-1.2,0
		c-0.5,0-0.9,0-1.2,0s-0.5,0-0.7,0l0-0.3c0.6-0.1,0.9-0.2,1.1-0.3s0.2-0.6,0.2-1.4v-2.3c0-0.9-0.1-1.6-0.4-2
		c-0.3-0.4-0.8-0.6-1.4-0.6c-0.3,0-0.6,0.1-1,0.2s-0.7,0.3-1,0.6v4.3c0,0.6,0.1,1,0.2,1.2c0.2,0.1,0.5,0.3,1.1,0.3v0.3
		c-0.2,0-0.5,0-0.8,0c-0.3,0-0.7,0-1.2,0c-0.5,0-0.9,0-1.2,0c-0.3,0-0.5,0-0.7,0v-0.3c0.5-0.1,0.9-0.2,1-0.4s0.2-0.6,0.2-1.1v-3.4
		c0-0.4,0-0.6-0.1-0.8c-0.1-0.2-0.2-0.4-0.5-0.5L140,29.7z"/>
	<path class="st31" d="M156,35.9l0,0.2c-0.4,0.1-0.7,0.2-1,0.2c-0.3,0.1-0.6,0.1-0.8,0.1c-0.3,0-0.6-0.1-0.7-0.3s-0.3-0.4-0.3-0.8
		c-0.4,0.3-0.7,0.6-1.1,0.8c-0.4,0.2-0.7,0.3-1,0.3c-0.5,0-0.9-0.2-1.2-0.5c-0.3-0.3-0.5-0.8-0.5-1.3c0-0.1,0-0.3,0-0.4
		c0-0.1,0-0.3,0.1-0.4l3.8-1.8c0-0.1,0-0.1,0-0.2s0-0.2,0-0.2c0-0.8-0.1-1.3-0.4-1.7c-0.3-0.3-0.7-0.5-1.2-0.5
		c-0.4,0-0.7,0.1-0.9,0.2c-0.2,0.1-0.3,0.4-0.3,0.7v0l0,0.6l-0.7,0c0,0-0.1,0-0.1,0c0,0-0.1,0-0.1,0c-0.1,0-0.2,0-0.3-0.1
		s-0.1-0.1-0.1-0.2c0-0.1,0.1-0.2,0.2-0.4c0.1-0.2,0.3-0.3,0.6-0.6c0.5-0.4,1-0.7,1.4-1c0.4-0.2,0.8-0.3,1.1-0.3
		c0.7,0,1.2,0.2,1.5,0.7s0.5,1.2,0.5,2.2v0.1l0,2.3v0.1c0,0.6,0.1,1.1,0.3,1.3C154.9,35.6,155.4,35.7,156,35.9z M153.1,32.5
		l-2.3,1.2c0,0.2-0.1,0.3-0.1,0.4c0,0.1,0,0.1,0,0.2c0,0.4,0.1,0.8,0.3,1c0.2,0.3,0.5,0.4,0.9,0.4c0.2,0,0.4-0.1,0.6-0.2
		c0.2-0.1,0.4-0.3,0.6-0.5L153.1,32.5z"/>
	<path class="st31" d="M156.2,36.4v-0.3c0.6,0,0.9-0.2,1.1-0.4c0.2-0.2,0.3-0.7,0.3-1.6v-7.4c0-0.4,0-0.7-0.1-0.9s-0.2-0.4-0.4-0.6
		l-0.3-0.3v-0.1l2-0.7l0.2,0.1c0,0.2,0,0.5,0,0.8c0,0.7,0,1.2,0,1.4v8.1c0,0.7,0.1,1.1,0.3,1.3c0.2,0.2,0.6,0.3,1.1,0.3v0.3
		c-0.2,0-0.5,0-0.8,0c-0.3,0-0.7,0-1.3,0c-0.6,0-1,0-1.2,0S156.4,36.4,156.2,36.4z"/>
</g>
<g>
	<path class="st33" d="M27.8,12c7.1,0,13.2,4.2,16,10.3l0.2,0.4L43.8,23c-2.8,6.1-8.9,10.3-16,10.3c-7.1,0-13.2-4.2-16-10.3
		l-0.2-0.4l0.2-0.4C14.6,16.2,20.7,12,27.8,12"/>
	<path class="st40" d="M27.8,13.7c-6.3,0-11.7,3.6-14.2,8.9c2.6,5.3,8,8.9,14.2,8.9c6.3,0,11.7-3.6,14.2-8.9
		C39.5,17.3,34.1,13.7,27.8,13.7"/>
	<path class="st55" d="M18.9,22.6c0-4.9,4-8.9,8.9-8.9c4.9,0,8.9,4,8.9,8.9c0,4.9-4,8.9-8.9,8.9C22.9,31.5,18.9,27.5,18.9,22.6"/>
</g>
<g>
	<defs>
		<path id="SVGID_1_" d="M14.6,9.4c-3.8,2.5-6.8,6-8.7,10.1h7.4C16.5,15,21.8,12,27.8,12c7.1,0,13.2,4.2,16,10.3l0.1,0.2
			c0,0,0,0.1,0,0.1c-0.6,1.6-1.7,3.1-1.7,3.1l9.6,0V16c0,0-1.2,1.1-2.6,1.8c-0.3-0.3-0.4-0.7-0.8-1.1c-2.1-2.9-4.5-5.4-7.4-7.3
			C37,6.9,32.5,5.5,27.8,5.5C23.1,5.5,18.5,6.9,14.6,9.4"/>
	</defs>
	<clipPath id="SVGID_2_">
		<use xlink:href="#SVGID_1_"  style="overflow:visible;"/>
	</clipPath>
	
		<linearGradient id="SVGID_3_" gradientUnits="userSpaceOnUse" x1="-59.7832" y1="423.2749" x2="-59.414" y2="423.2749" gradientTransform="matrix(120.755 0 0 -120.755 7226.125 51128.1836)">
		<stop  offset="0" style="stop-color:#8BC53F"/>
		<stop  offset="0.2335" style="stop-color:#6FAC3A"/>
		<stop  offset="0.7345" style="stop-color:#286C2E"/>
		<stop  offset="1" style="stop-color:#004827"/>
	</linearGradient>
	<rect x="6" y="5.5" class="st3" width="45.8" height="20.2"/>
</g>
<g>
	<defs>
		<path id="SVGID_4_" d="M3.8,29.2c0,0,1.2-1.1,2.6-1.8c0.3,0.3,0.4,0.7,0.8,1.1c2.1,2.9,4.5,5.4,7.4,7.3c3.9,2.6,8.5,3.9,13.2,3.9
			c4.7,0,9.3-1.4,13.2-3.9c3.8-2.5,6.8-6,8.7-10.1h-7.4c-3.2,4.6-8.5,7.6-14.4,7.6c-7.1,0-13.2-4.2-16-10.3l-0.1-0.2
			c0,0,0-0.1,0-0.1c0.6-1.6,1.7-3.1,1.7-3.1l-9.6,0V29.2z"/>
	</defs>
	<clipPath id="SVGID_5_">
		<use xlink:href="#SVGID_4_"  style="overflow:visible;"/>
	</clipPath>
	
		<linearGradient id="SVGID_6_" gradientUnits="userSpaceOnUse" x1="-51.6787" y1="426.1646" x2="-51.3097" y2="426.1646" gradientTransform="matrix(-122.2709 0 0 122.2709 -6270 -52077.8672)">
		<stop  offset="0" style="stop-color:#8BC53F"/>
		<stop  offset="0.2335" style="stop-color:#6FAC3A"/>
		<stop  offset="0.7345" style="stop-color:#286C2E"/>
		<stop  offset="1" style="stop-color:#004827"/>
	</linearGradient>
	<rect x="3.8" y="19.5" class="st35" width="45.8" height="20.2"/>
</g>
</svg>
