<?xml version="1.0" encoding="utf-8"?>
<!-- Generator: Adobe Illustrator 16.0.0, SVG Export Plug-In . SVG Version: 6.00 Build 0)  -->
<!DOCTYPE svg PUBLIC "-//W3C//DTD SVG 1.1//EN" "http://www.w3.org/Graphics/SVG/1.1/DTD/svg11.dtd">
<svg version="1.1" id="Layer_1" xmlns="http://www.w3.org/2000/svg" xmlns:xlink="http://www.w3.org/1999/xlink" x="0px" y="0px"
	 width="295.47px" height="56.693px" viewBox="0 0 295.47 56.693" enable-background="new 0 0 295.47 56.693" xml:space="preserve">
<g>
	<g>
		<path fill="#FFFFFF" d="M67.557,18.864h5.645v1.631h-3.598v3.038h3.438v1.631h-3.438v4.861h-2.046V18.864z"/>
		<path fill="#FFFFFF" d="M77.675,21.663c1.679,0,3.614,0.879,3.614,4.237c0,3.454-1.936,4.254-3.614,4.254s-3.629-0.8-3.629-4.254
			C74.046,22.542,75.996,21.663,77.675,21.663z M77.675,28.747c1.28,0,1.567-1.472,1.567-2.847s-0.288-2.831-1.567-2.831
			c-1.278,0-1.582,1.456-1.582,2.831S76.396,28.747,77.675,28.747z"/>
		<path fill="#FFFFFF" d="M86.258,21.663c1.679,0,3.615,0.879,3.615,4.237c0,3.454-1.936,4.254-3.615,4.254
			c-1.678,0-3.629-0.8-3.629-4.254C82.629,22.542,84.58,21.663,86.258,21.663z M86.258,28.747c1.28,0,1.568-1.472,1.568-2.847
			s-0.288-2.831-1.568-2.831c-1.278,0-1.582,1.456-1.582,2.831S84.98,28.747,86.258,28.747z"/>
		<path fill="#FFFFFF" d="M98.199,18.033v10.586c0,0.591,0.017,1.103,0.064,1.407h-1.854c-0.033-0.24-0.064-0.72-0.064-1.279h-0.049
			c-0.319,0.704-0.911,1.407-2.191,1.407c-2.046,0-2.893-1.951-2.893-4.238c0-2.686,1.071-4.253,2.846-4.253
			c1.184,0,1.839,0.671,2.127,1.311h0.031v-4.941H98.199z M94.65,28.698c1.167,0,1.566-1.263,1.566-2.814
			c0-1.599-0.448-2.766-1.535-2.766c-1.104,0-1.486,1.071-1.486,2.719C93.195,27.739,93.5,28.698,94.65,28.698z"/>
		<path fill="#FFFFFF" d="M104.574,22.27c0.561-0.256,1.344-0.607,2.608-0.607c2.559,0,3.15,1.247,3.15,3.31v3.599
			c0,0.592,0.063,1.135,0.111,1.455h-1.792c-0.095-0.32-0.111-0.72-0.111-1.119h-0.032c-0.496,0.671-1.119,1.247-2.302,1.247
			c-1.28,0-2.462-0.879-2.462-2.415c0-2.239,1.823-2.799,4.333-2.799h0.4v-0.304c0-0.815-0.4-1.567-1.535-1.567
			c-0.992,0-1.871,0.48-2.255,0.799L104.574,22.27z M108.477,25.996H108.3c-1.695,0-2.703,0.353-2.703,1.552
			c0,0.751,0.497,1.263,1.264,1.263c1.184,0,1.615-0.879,1.615-2.35V25.996z"/>
		<path fill="#FFFFFF" d="M112.167,23.149c0-0.512-0.016-0.992-0.064-1.359h1.854c0.016,0.416,0.063,0.848,0.063,1.264h0.033
			c0.288-0.496,0.847-1.391,2.191-1.391c1.87,0,2.431,1.391,2.431,3.054v5.31h-1.983v-4.941c0-1.263-0.32-1.791-1.136-1.791
			c-1.038,0-1.406,0.879-1.406,1.935v4.798h-1.983V23.149z"/>
		<path fill="#FFFFFF" d="M127.226,18.033v10.586c0,0.591,0.017,1.103,0.064,1.407h-1.854c-0.033-0.24-0.064-0.72-0.064-1.279
			h-0.049c-0.319,0.704-0.911,1.407-2.191,1.407c-2.047,0-2.894-1.951-2.894-4.238c0-2.686,1.071-4.253,2.846-4.253
			c1.184,0,1.839,0.671,2.127,1.311h0.031v-4.941H127.226z M123.677,28.698c1.167,0,1.566-1.263,1.566-2.814
			c0-1.599-0.448-2.766-1.535-2.766c-1.104,0-1.486,1.071-1.486,2.719C122.222,27.739,122.526,28.698,123.677,28.698z"/>
		<path fill="#FFFFFF" d="M138.206,27.339h-3.836l-0.8,2.687h-2.047l3.742-11.162h2.238l3.598,11.162h-2.11L138.206,27.339z
			 M137.774,25.772l-1.407-5.212h-0.031l-1.535,5.212H137.774z"/>
		<path fill="#FFFFFF" d="M142.343,31.305c0.464,0.256,1.392,0.704,2.431,0.704c1.87,0,2.174-1.295,2.174-2.59v-0.784h-0.031
			c-0.32,0.64-0.879,1.392-2.176,1.392c-1.15,0-2.877-0.768-2.877-4.094c0-2.271,0.816-4.27,2.974-4.27
			c1.199,0,1.758,0.688,2.174,1.407h0.064c0-0.432,0.049-0.848,0.065-1.279h1.791c-0.031,0.432-0.064,0.864-0.064,1.295v6.077
			c0,2.574-0.783,4.413-3.806,4.413c-1.311,0-2.35-0.336-2.83-0.512L142.343,31.305z M145.206,28.571
			c1.247,0,1.743-0.896,1.743-2.767c0-1.727-0.656-2.654-1.599-2.638c-1.039,0.016-1.438,0.976-1.438,2.654
			C143.911,27.755,144.534,28.571,145.206,28.571z"/>
		<path fill="#FFFFFF" d="M150.735,23.149c0-0.512-0.016-0.992-0.063-1.359h1.79c0.017,0.496,0.064,1.008,0.064,1.503h0.033
			c0.24-0.64,0.863-1.631,2.094-1.631c0.129,0,0.224,0.032,0.336,0.047v1.855c-0.176-0.048-0.353-0.08-0.561-0.08
			c-0.816,0-1.709,0.496-1.709,2.031v4.51h-1.983V23.149z"/>
		<path fill="#FFFFFF" d="M156.458,18.289h2.047v1.951h-2.047V18.289z M156.489,21.79h1.983v8.236h-1.983V21.79z"/>
		<path fill="#FFFFFF" d="M166.049,29.818c-0.463,0.176-1.151,0.336-1.951,0.336c-2.718,0-3.869-1.903-3.869-4.238
			c0-2.35,1.214-4.253,3.98-4.253c0.625,0,1.36,0.192,1.728,0.336l-0.113,1.567c-0.352-0.176-0.847-0.4-1.391-0.4
			c-1.502,0-2.158,1.007-2.158,2.767c0,1.535,0.736,2.719,2.254,2.719c0.479,0,1.135-0.224,1.408-0.4L166.049,29.818z"/>
		<path fill="#FFFFFF" d="M173.771,28.667c0,0.512,0.017,0.991,0.064,1.359h-1.855c-0.016-0.416-0.064-0.848-0.064-1.263
			l-0.047-0.016l0.016,0.016c-0.384,0.607-0.895,1.391-2.19,1.391c-1.872,0-2.431-1.391-2.431-3.055V21.79h1.983v4.941
			c0,1.264,0.352,1.791,1.182,1.791c1.055,0,1.359-0.959,1.359-2.015V21.79h1.983V28.667z"/>
		<path fill="#FFFFFF" d="M175.75,18.033h1.983v11.993h-1.983V18.033z"/>
		<path fill="#FFFFFF" d="M180.45,20.096l1.983-0.608v2.302h1.646v1.455h-1.646v4.27c0,0.88,0.319,1.136,0.895,1.136
			c0.352,0,0.608-0.097,0.752-0.177v1.408c-0.304,0.144-0.735,0.272-1.327,0.272c-1.472,0-2.302-0.672-2.302-2.399v-4.51h-1.311
			V21.79h1.311V20.096z"/>
		<path fill="#FFFFFF" d="M191.848,28.667c0,0.512,0.015,0.991,0.064,1.359h-1.855c-0.017-0.416-0.064-0.848-0.064-1.263
			l-0.047-0.016l0.016,0.016c-0.384,0.607-0.896,1.391-2.192,1.391c-1.87,0-2.429-1.391-2.429-3.055V21.79h1.983v4.941
			c0,1.264,0.352,1.791,1.182,1.791c1.056,0,1.36-0.959,1.36-2.015V21.79h1.983V28.667z"/>
		<path fill="#FFFFFF" d="M193.7,23.149c0-0.512-0.016-0.992-0.064-1.359h1.791c0.016,0.496,0.064,1.008,0.064,1.503h0.032
			c0.24-0.64,0.863-1.631,2.094-1.631c0.129,0,0.224,0.032,0.336,0.047v1.855c-0.176-0.048-0.352-0.08-0.561-0.08
			c-0.814,0-1.71,0.496-1.71,2.031v4.51H193.7V23.149z"/>
		<path fill="#FFFFFF" d="M205.146,29.626c-0.416,0.176-1.279,0.528-2.462,0.528c-2.655,0-3.806-1.903-3.806-4.126
			c0-2.462,1.295-4.365,3.39-4.365c1.775,0,3.293,1.039,3.293,4.397v0.384h-4.764c0,1.407,0.559,2.254,2.094,2.254
			c1.215,0,1.791-0.368,2.158-0.639L205.146,29.626z M203.643,25.196c0-1.455-0.48-2.191-1.376-2.191
			c-1.039,0-1.47,1.104-1.47,2.191H203.643z"/>
		<path fill="#FFFFFF" d="M215.534,18.705c2.318,0,4.445,1.728,4.445,5.74c0,4.014-2.127,5.741-4.445,5.741
			c-2.317,0-4.444-1.728-4.444-5.741C211.089,20.432,213.216,18.705,215.534,18.705z M215.534,28.619
			c1.295,0,2.335-1.104,2.335-4.174s-1.04-4.173-2.335-4.173s-2.334,1.103-2.334,4.173S214.239,28.619,215.534,28.619z"/>
		<path fill="#FFFFFF" d="M221.67,23.149c0-0.512-0.016-0.992-0.064-1.359h1.791c0.016,0.496,0.064,1.008,0.064,1.503h0.032
			c0.24-0.64,0.863-1.631,2.095-1.631c0.129,0,0.224,0.032,0.336,0.047v1.855c-0.176-0.048-0.352-0.08-0.561-0.08
			c-0.814,0-1.71,0.496-1.71,2.031v4.51h-1.983V23.149z"/>
		<path fill="#FFFFFF" d="M227.329,31.305c0.464,0.256,1.392,0.704,2.431,0.704c1.87,0,2.174-1.295,2.174-2.59v-0.784h-0.031
			c-0.32,0.64-0.879,1.392-2.175,1.392c-1.151,0-2.877-0.768-2.877-4.094c0-2.271,0.816-4.27,2.974-4.27
			c1.2,0,1.758,0.688,2.174,1.407h0.065c0-0.432,0.047-0.848,0.064-1.279h1.79c-0.031,0.432-0.063,0.864-0.063,1.295v6.077
			c0,2.574-0.783,4.413-3.806,4.413c-1.311,0-2.351-0.336-2.83-0.512L227.329,31.305z M230.191,28.571
			c1.247,0,1.742-0.896,1.742-2.767c0-1.727-0.656-2.654-1.598-2.638c-1.04,0.016-1.439,0.976-1.439,2.654
			C228.896,27.755,229.52,28.571,230.191,28.571z"/>
		<path fill="#FFFFFF" d="M236.056,22.27c0.561-0.256,1.344-0.607,2.607-0.607c2.558,0,3.15,1.247,3.15,3.31v3.599
			c0,0.592,0.063,1.135,0.111,1.455h-1.792c-0.095-0.32-0.111-0.72-0.111-1.119h-0.032c-0.496,0.671-1.118,1.247-2.302,1.247
			c-1.28,0-2.462-0.879-2.462-2.415c0-2.239,1.823-2.799,4.332-2.799h0.4v-0.304c0-0.815-0.4-1.567-1.535-1.567
			c-0.992,0-1.871,0.48-2.254,0.799L236.056,22.27z M239.958,25.996h-0.177c-1.694,0-2.702,0.353-2.702,1.552
			c0,0.751,0.497,1.263,1.264,1.263c1.183,0,1.615-0.879,1.615-2.35V25.996z"/>
		<path fill="#FFFFFF" d="M243.648,23.149c0-0.512-0.016-0.992-0.063-1.359h1.854c0.016,0.416,0.064,0.848,0.064,1.264h0.032
			c0.288-0.496,0.847-1.391,2.191-1.391c1.87,0,2.43,1.391,2.43,3.054v5.31h-1.983v-4.941c0-1.263-0.32-1.791-1.135-1.791
			c-1.039,0-1.406,0.879-1.406,1.935v4.798h-1.983V23.149z"/>
		<path fill="#FFFFFF" d="M252.104,18.289h2.047v1.951h-2.047V18.289z M252.136,21.79h1.983v8.236h-1.983V21.79z"/>
		<path fill="#FFFFFF" d="M255.652,28.315l3.518-5.021h-3.407V21.79h5.39v1.695l-3.455,5.037h3.566v1.503h-5.612V28.315z"/>
		<path fill="#FFFFFF" d="M263.005,22.27c0.561-0.256,1.344-0.607,2.606-0.607c2.559,0,3.15,1.247,3.15,3.31v3.599
			c0,0.592,0.064,1.135,0.111,1.455h-1.79c-0.097-0.32-0.113-0.72-0.113-1.119h-0.033c-0.495,0.671-1.118,1.247-2.301,1.247
			c-1.28,0-2.462-0.879-2.462-2.415c0-2.239,1.823-2.799,4.332-2.799h0.4v-0.304c0-0.815-0.4-1.567-1.535-1.567
			c-0.992,0-1.871,0.48-2.254,0.799L263.005,22.27z M266.906,25.996h-0.176c-1.693,0-2.702,0.353-2.702,1.552
			c0,0.751,0.495,1.263,1.263,1.263c1.184,0,1.615-0.879,1.615-2.35V25.996z"/>
		<path fill="#FFFFFF" d="M271.333,20.096l1.983-0.608v2.302h1.646v1.455h-1.646v4.27c0,0.88,0.318,1.136,0.894,1.136
			c0.352,0,0.608-0.097,0.752-0.177v1.408c-0.304,0.144-0.736,0.272-1.328,0.272c-1.471,0-2.301-0.672-2.301-2.399v-4.51h-1.312
			V21.79h1.312V20.096z"/>
		<path fill="#FFFFFF" d="M276.383,18.289h2.047v1.951h-2.047V18.289z M276.414,21.79h1.983v8.236h-1.983V21.79z"/>
		<path fill="#FFFFFF" d="M283.784,21.663c1.679,0,3.614,0.879,3.614,4.237c0,3.454-1.936,4.254-3.614,4.254
			c-1.679,0-3.629-0.8-3.629-4.254C280.155,22.542,282.105,21.663,283.784,21.663z M283.784,28.747c1.28,0,1.567-1.472,1.567-2.847
			s-0.288-2.831-1.567-2.831c-1.279,0-1.583,1.456-1.583,2.831S282.505,28.747,283.784,28.747z"/>
		<path fill="#FFFFFF" d="M288.962,23.149c0-0.512-0.016-0.992-0.063-1.359h1.854c0.016,0.416,0.063,0.848,0.063,1.264h0.033
			c0.288-0.496,0.847-1.391,2.191-1.391c1.87,0,2.431,1.391,2.431,3.054v5.31h-1.983v-4.941c0-1.263-0.32-1.791-1.136-1.791
			c-1.038,0-1.406,0.879-1.406,1.935v4.798h-1.982V23.149z"/>
		<path fill="#FFFFFF" d="M70.674,39.731c1.679,0,3.615,0.879,3.615,4.237c0,3.454-1.936,4.254-3.615,4.254
			c-1.679,0-3.629-0.8-3.629-4.254C67.045,40.61,68.995,39.731,70.674,39.731z M70.674,46.814c1.28,0,1.568-1.471,1.568-2.846
			s-0.288-2.83-1.568-2.83c-1.278,0-1.583,1.455-1.583,2.83S69.396,46.814,70.674,46.814z"/>
		<path fill="#FFFFFF" d="M76.491,41.313h-1.375v-1.455h1.375v-1.679c0-1.183,0.559-2.271,2.367-2.271
			c0.526,0,1.038,0.112,1.422,0.192l-0.08,1.439c-0.239-0.064-0.496-0.128-0.783-0.128c-0.576,0-0.943,0.4-0.943,1.023v1.423h1.502
			v1.455h-1.502v6.78h-1.983V41.313z"/>
		<path fill="#FFFFFF" d="M86.065,38.164l1.983-0.608v2.303h1.646v1.455h-1.646v4.27c0,0.879,0.319,1.135,0.895,1.135
			c0.352,0,0.608-0.096,0.752-0.176v1.408c-0.304,0.144-0.736,0.272-1.328,0.272c-1.471,0-2.302-0.672-2.302-2.399v-4.509h-1.312
			v-1.455h1.312V38.164z"/>
		<path fill="#FFFFFF" d="M90.956,36.101h1.983v4.813h0.047c0.351-0.512,0.815-1.183,2.046-1.183c1.871,0,2.431,1.391,2.431,3.053
			v5.309H95.48v-4.941c0-1.262-0.32-1.79-1.136-1.79c-1.038,0-1.406,0.879-1.406,1.934v4.797h-1.983V36.101z"/>
		<path fill="#FFFFFF" d="M105.295,47.694c-0.415,0.176-1.278,0.528-2.462,0.528c-2.654,0-3.806-1.903-3.806-4.126
			c0-2.461,1.295-4.364,3.389-4.364c1.775,0,3.294,1.039,3.294,4.397v0.383h-4.764c0,1.407,0.559,2.255,2.094,2.255
			c1.215,0,1.791-0.368,2.158-0.64L105.295,47.694z M103.792,43.264c0-1.455-0.48-2.19-1.376-2.19c-1.038,0-1.469,1.104-1.469,2.19
			H103.792z"/>
		<path fill="#FFFFFF" d="M113.637,36.932v7.228c0,1.855,0.559,2.462,1.759,2.462c1.167,0,1.743-0.607,1.743-2.462v-7.228h2.047
			v7.228c0,2.942-1.695,4.094-3.79,4.094c-2.11,0-3.806-1.151-3.806-4.094v-7.228H113.637z"/>
		<path fill="#FFFFFF" d="M121.165,41.218c0-0.512-0.017-0.992-0.064-1.359h1.854c0.017,0.416,0.064,0.848,0.064,1.264h0.033
			c0.288-0.496,0.847-1.391,2.19-1.391c1.871,0,2.431,1.391,2.431,3.053v5.309h-1.983v-4.941c0-1.262-0.32-1.79-1.136-1.79
			c-1.039,0-1.406,0.879-1.406,1.934v4.797h-1.983V41.218z"/>
		<path fill="#FFFFFF" d="M129.62,36.356h2.047v1.951h-2.047V36.356z M129.651,39.858h1.983v8.235h-1.983V39.858z"/>
		<path fill="#FFFFFF" d="M134.352,38.164l1.982-0.608v2.303h1.646v1.455h-1.646v4.27c0,0.879,0.319,1.135,0.895,1.135
			c0.352,0,0.608-0.096,0.752-0.176v1.408c-0.304,0.144-0.736,0.272-1.328,0.272c-1.471,0-2.301-0.672-2.301-2.399v-4.509h-1.312
			v-1.455h1.312V38.164z"/>
		<path fill="#FFFFFF" d="M145.286,47.694c-0.415,0.176-1.278,0.528-2.462,0.528c-2.655,0-3.806-1.903-3.806-4.126
			c0-2.461,1.295-4.364,3.389-4.364c1.775,0,3.293,1.039,3.293,4.397v0.383h-4.764c0,1.407,0.56,2.255,2.095,2.255
			c1.215,0,1.79-0.368,2.157-0.64L145.286,47.694z M143.784,43.264c0-1.455-0.48-2.19-1.376-2.19c-1.039,0-1.47,1.104-1.47,2.19
			H143.784z"/>
		<path fill="#FFFFFF" d="M153.997,36.101v10.586c0,0.591,0.016,1.103,0.064,1.407h-1.854c-0.033-0.239-0.064-0.719-0.064-1.279
			h-0.049c-0.319,0.704-0.911,1.408-2.191,1.408c-2.047,0-2.894-1.951-2.894-4.238c0-2.686,1.071-4.252,2.846-4.252
			c1.184,0,1.839,0.671,2.127,1.311h0.031v-4.941H153.997z M150.448,46.766c1.167,0,1.566-1.263,1.566-2.814
			c0-1.599-0.448-2.766-1.535-2.766c-1.104,0-1.486,1.071-1.486,2.718C148.993,45.807,149.297,46.766,150.448,46.766z"/>
		<path fill="#FFFFFF" d="M160.245,36.932h2.43l3.71,8.763h0.032v-8.763h1.854v11.161h-2.446l-3.694-8.698H162.1v8.698h-1.855
			V36.932z"/>
		<path fill="#FFFFFF" d="M170.729,40.338c0.561-0.256,1.344-0.607,2.607-0.607c2.559,0,3.15,1.247,3.15,3.309v3.598
			c0,0.592,0.064,1.136,0.111,1.455h-1.791c-0.096-0.319-0.112-0.719-0.112-1.119h-0.033c-0.496,0.671-1.119,1.248-2.302,1.248
			c-1.28,0-2.462-0.879-2.462-2.415c0-2.239,1.823-2.799,4.333-2.799h0.4v-0.304c0-0.814-0.4-1.566-1.535-1.566
			c-0.992,0-1.872,0.48-2.254,0.799L170.729,40.338z M174.631,44.063h-0.176c-1.694,0-2.703,0.352-2.703,1.551
			c0,0.751,0.496,1.263,1.264,1.263c1.184,0,1.615-0.879,1.615-2.35V44.063z"/>
		<path fill="#FFFFFF" d="M179.057,38.164l1.983-0.608v2.303h1.646v1.455h-1.646v4.27c0,0.879,0.319,1.135,0.895,1.135
			c0.352,0,0.608-0.096,0.752-0.176v1.408c-0.304,0.144-0.735,0.272-1.327,0.272c-1.472,0-2.302-0.672-2.302-2.399v-4.509h-1.311
			v-1.455h1.311V38.164z"/>
		<path fill="#FFFFFF" d="M184.108,36.356h2.047v1.951h-2.047V36.356z M184.139,39.858h1.983v8.235h-1.983V39.858z"/>
		<path fill="#FFFFFF" d="M191.509,39.731c1.679,0,3.615,0.879,3.615,4.237c0,3.454-1.936,4.254-3.615,4.254
			c-1.679,0-3.629-0.8-3.629-4.254C187.879,40.61,189.83,39.731,191.509,39.731z M191.509,46.814c1.28,0,1.568-1.471,1.568-2.846
			s-0.288-2.83-1.568-2.83c-1.278,0-1.583,1.455-1.583,2.83S190.23,46.814,191.509,46.814z"/>
		<path fill="#FFFFFF" d="M196.687,41.218c0-0.512-0.017-0.992-0.064-1.359h1.854c0.017,0.416,0.064,0.848,0.064,1.264h0.033
			c0.288-0.496,0.847-1.391,2.19-1.391c1.871,0,2.431,1.391,2.431,3.053v5.309h-1.983v-4.941c0-1.262-0.32-1.79-1.136-1.79
			c-1.039,0-1.406,0.879-1.406,1.934v4.797h-1.983V41.218z"/>
		<path fill="#FFFFFF" d="M204.758,46.175c0.319,0.127,1.135,0.543,2.063,0.543c0.719,0,1.278-0.176,1.278-0.815
			c0-0.32-0.16-0.624-0.879-1.04l-0.816-0.479c-0.831-0.496-1.743-1.023-1.743-2.318c0-1.135,1.104-2.334,2.846-2.334
			c1.056,0,1.872,0.271,2.063,0.336l-0.113,1.535c-0.496-0.192-1.023-0.368-1.743-0.368c-0.8,0-1.135,0.304-1.135,0.8
			c0,0.447,0.352,0.687,0.927,1.055l0.976,0.624c1.023,0.656,1.535,1.119,1.535,2.079c0,1.519-1.28,2.431-3.07,2.431
			c-1.023,0-1.872-0.24-2.287-0.4L204.758,46.175z"/>
	</g>
</g>
<g>
	<path fill="#FFFFFF" d="M28.348,56.693C12.718,56.693,0,43.978,0,28.348C0,12.718,12.718,0,28.348,0
		c15.629,0,28.345,12.718,28.345,28.348C56.693,43.978,43.977,56.693,28.348,56.693z M28.24,17.169c0.036,0,2.303,2.427,2.303,4.371
		c0,2.104-1.64,2.606-2.195,2.606c-0.028,0-0.061-0.003-0.096-0.006h-0.022c-0.036,0.003-0.072,0.006-0.096,0.006
		c-0.552,0-2.195-0.502-2.195-2.606C25.938,19.596,28.199,17.169,28.24,17.169z M6.894,29.925H9.48v-4.777h4.344v-2H9.48v-2.655
		h4.487v-1.995H6.894V29.925z M30.583,17.514h2.727L30.141,6.086h-3.485l-3.285,11.428h2.525l0.726-2.554h3.307L30.583,17.514z
		 M29.449,13.024h-2.376l1.107-4.97h0.182L29.449,13.024z M41.424,24.211c0,3.357,1.557,5.909,4.844,5.909
		c3.296,0,4.869-2.552,4.869-5.909c0-3.358-1.573-5.91-4.869-5.91C42.981,18.302,41.424,20.853,41.424,24.211z M44.179,24.211
		c0-2.193,0.538-3.978,2.089-3.978c1.557,0,2.117,1.784,2.117,3.978s-0.561,3.979-2.117,3.979
		C44.717,28.19,44.179,26.405,44.179,24.211z M27.139,53.531c0.152-1.105,0.301-2.88,0.301-4.96c0-0.57,0-0.193,0-0.35
		c0-2.927-0.107-3.915-2.061-4.563c-3.017-0.999-4.251-4.365-3.589-8.559L11.696,9.431c-5.249,4.628-8.561,11.39-8.561,18.917
		C3.135,41.847,13.803,52.901,27.139,53.531z M28.336,37.165c-4.016-0.937-5.506-4.596-5.506-7.845L13.993,7.63
		c-0.577,0.399-1.137,0.826-1.678,1.268c1.944,4.607,10.667,25.308,10.679,25.338c1.543,3.719,4.352,2.486,5.031,5.557
		c0.163,0.744,0.174,1.069,0.174,1.069H28.5c0,0,0.006-0.326,0.174-1.069c0.679-3.07,3.48-1.838,5.026-5.557
		c0.011-0.03,8.735-20.731,10.676-25.338c-0.541-0.442-1.098-0.868-1.678-1.268L33.863,29.32c0,3.25-1.494,6.908-5.51,7.845H28.336z
		 M28.332,30.618c-1.703-0.38-3.826-2.072-4.102-4.249c-0.1-0.827-0.18-1.059-0.058-2.703l-7.745-17.53
		c-0.623,0.336-1.231,0.7-1.827,1.088c2.316,5.204,9.396,21.1,9.4,21.119c1.121,2.359,3.086,2.405,3.765,3.811
		c0.409,0.833,0.445,1.58,0.45,1.64h0.259c0.005-0.06,0.047-0.806,0.45-1.64c0.682-1.406,2.647-1.452,3.765-3.811
		c0.005-0.02,7.087-15.916,9.4-21.119c-0.588-0.388-1.201-0.752-1.828-1.088l-7.735,17.53c0.121,1.645,0.041,1.876-0.066,2.703
		c-0.276,2.177-2.399,3.869-4.093,4.249H28.332z M28.439,27.64l0.118-0.956c0.489-2.221,2.101-1.943,3.219-4.123
		c0.005-0.009,0.019-0.033,0.019-0.033c0.033-0.082,5.512-11.835,7.797-16.743c-3.387-1.694-7.204-2.652-11.245-2.652
		c-4.038,0-7.858,0.958-11.248,2.652c2.286,4.908,7.762,16.662,7.806,16.743c0,0,0.01,0.024,0.016,0.033
		c1.113,2.18,2.722,1.902,3.21,4.123l0.119,0.956H28.439z M53.561,28.348c0-7.527-3.318-14.289-8.559-18.917L34.9,35.099
		c0.671,4.193-0.572,7.56-3.588,8.559c-1.954,0.648-2.062,1.637-2.062,4.563c0,0.157,0-0.22,0,0.35c0,2.08,0.158,3.855,0.301,4.96
		C42.896,52.901,53.561,41.847,53.561,28.348z M11.101,35.794c0,0,0.373,0.792,0.676,1.354c0.301,0.562,0.712,1.241,0.712,1.241
		l-0.666,0.388c0,0-0.505-0.841-0.969-1.813c-0.127,0.065-0.924,0.48-1.057,0.545c0.077,0.142,0.894,1.716,0.894,1.716l-0.674,0.388
		c0,0-0.828-1.609-0.899-1.745c-0.144,0.071-1.863,0.958-1.863,0.958l-0.412-0.817l4.209-2.191L11.101,35.794z M13.761,40.11
		l0.585,0.706l-3.682,3.078l-0.596-0.706l3.648-3.049L13.761,40.11z M17.172,43.337l0.729,0.521l-0.944,5.076l-0.836-0.48
		c0,0,0.209-1.034,0.234-1.135c-0.041-0.032-0.527-0.323-1-0.657c-0.479-0.342-0.946-0.728-0.991-0.758
		c-0.09,0.055-1.015,0.6-1.015,0.6l-0.715-0.61l4.49-2.53L17.172,43.337z M15.044,45.493c0.086,0.073,0.397,0.326,0.721,0.556
		c0.328,0.229,0.657,0.445,0.753,0.489c0.047-0.211,0.384-1.881,0.453-2.191C16.698,44.51,15.238,45.378,15.044,45.493z
		 M20.208,45.206c0,0,0.778,0.388,1.883,0.765c0.753,0.261,1.393,0.464,2.02,0.603l-0.219,0.73c0,0-0.598-0.106-1.572-0.405
		c-0.056,0.16-1.322,3.778-1.322,3.778l-0.867-0.301c0,0,1.262-3.624,1.316-3.782c-0.908-0.339-1.539-0.676-1.539-0.676
		L20.208,45.206z M35.369,46.171c0.315,0.166,0.543,0.459,0.668,0.875c0.055,0.176,0.086,0.344,0.086,0.507
		c0,0.67-0.469,1.197-1.317,1.463c0,0-0.428,0.133-0.555,0.17c0.05,0.152,0.555,1.778,0.555,1.778l-0.842,0.217l-1.427-4.623
		l1.275-0.396C34.45,45.965,34.98,45.968,35.369,46.171z M33.586,47.042c0.041,0.142,0.395,1.271,0.437,1.409
		c0.176-0.052,0.56-0.174,0.56-0.174c0.127-0.038,0.428-0.157,0.571-0.431c0.047-0.09,0.071-0.19,0.071-0.293
		c0-0.079-0.016-0.16-0.041-0.247c-0.055-0.166-0.155-0.293-0.307-0.372c-0.259-0.139-0.606-0.104-0.825-0.039
		C34.052,46.896,33.705,47.005,33.586,47.042z M38.231,44.157l4.162,3.049l-0.739,0.521c0,0-0.836-0.636-0.919-0.697
		c-0.049,0.026-0.478,0.331-0.941,0.604c-0.436,0.264-0.908,0.497-0.956,0.524c0.02,0.108,0.183,1.129,0.183,1.129l-0.795,0.379
		l-0.699-5.103L38.231,44.157z M38.708,47.388c0.124-0.06,0.447-0.236,0.768-0.429c0.287-0.174,0.516-0.317,0.631-0.409
		c-0.168-0.128-1.469-1.116-1.738-1.325C38.424,45.563,38.675,47.176,38.708,47.388z M42.986,39.956l3.629,3.238l-0.653,0.766
		c0,0-3.403-0.994-3.919-1.132c0.383,0.367,2.495,2.592,2.495,2.592L43.9,45.995l-3.42-3.475l0.803-0.719c0,0,3.284,0.979,3.8,1.116
		c-0.383-0.364-2.65-2.313-2.65-2.313L42.986,39.956z M44.645,37.54l4.204,2.438l-0.428,0.738l-4.226-2.445L44.645,37.54z
		 M46.467,33.505l0.721,0.375l-0.072,0.084c-0.235,0.285-0.34,0.432-0.45,0.752c-0.055,0.146-0.121,0.426-0.011,0.638
		c0.053,0.111,0.15,0.192,0.287,0.236c0.321,0.108,0.597-0.171,0.914-0.494c0.444-0.451,0.994-1.007,1.882-0.708
		c0.902,0.307,1.209,1.11,0.836,2.205c-0.113,0.334-0.32,0.618-0.511,0.882l-0.044,0.057l-0.746-0.347l0.075-0.087
		c0.089-0.105,0.4-0.469,0.517-0.831c0.113-0.317,0.102-0.855-0.381-1.018c-0.4-0.139-0.701,0.171-1.052,0.532
		c-0.426,0.448-0.914,0.953-1.719,0.678c-0.354-0.119-0.619-0.344-0.768-0.643c-0.182-0.367-0.188-0.833-0.019-1.322
		c0.107-0.329,0.289-0.668,0.499-0.931L46.467,33.505z"/>
</g>
</svg>
