<?xml version="1.0" encoding="utf-8"?>
<!-- Generator: Adobe Illustrator 16.0.0, SVG Export Plug-In . SVG Version: 6.00 Build 0)  -->
<!DOCTYPE svg PUBLIC "-//W3C//DTD SVG 1.1//EN" "http://www.w3.org/Graphics/SVG/1.1/DTD/svg11.dtd">
<svg version="1.1"
	 id="svg2" xmlns:rdf="http://www.w3.org/1999/02/22-rdf-syntax-ns#" xmlns:cc="http://creativecommons.org/ns#" xmlns:dc="http://purl.org/dc/elements/1.1/"
	 xmlns="http://www.w3.org/2000/svg" xmlns:xlink="http://www.w3.org/1999/xlink" x="0px" y="0px" width="1000px"
	 height="328.561px" viewBox="0 0 1000 328.561" enable-background="new 0 0 1000 328.561" xml:space="preserve">
<path id="path2998" fill="#AAAAAA" d="M246.11,116.18H129.54v34.591h82.673c-4.084,48.506-44.44,69.191-82.533,69.191
	c-48.736,0-91.264-38.346-91.264-92.092c0-52.356,40.54-92.679,91.371-92.679c39.217,0,62.325,25,62.325,25l24.221-25.081
	c0,0-31.087-34.608-87.784-34.608C56.352,0.502,0.499,61.436,0.499,127.253c0,64.493,52.539,127.38,129.89,127.38
	c68.031,0,117.83-46.604,117.83-115.52c0-14.539-2.111-22.942-2.111-22.942L246.11,116.18z"/>
<path id="path3000" fill="#AAAAAA" d="M341.6,91.129c-47.832,0-82.111,37.396-82.111,81.008c0,44.259,33.249,82.349,82.673,82.349
	c44.742,0,81.397-34.197,81.397-81.397C423.559,118.99,380.921,91.129,341.6,91.129L341.6,91.129z M342.075,123.212
	c23.521,0,45.812,19.018,45.812,49.66c0,29.993-22.194,49.552-45.92,49.552c-26.067,0-46.633-20.878-46.633-49.79
	C295.334,144.342,315.645,123.212,342.075,123.212L342.075,123.212z"/>
<path id="path3005" fill="#AAAAAA" d="M520.18,91.129c-47.832,0-82.111,37.396-82.111,81.008c0,44.259,33.249,82.349,82.673,82.349
	c44.742,0,81.397-34.197,81.397-81.397C602.139,118.99,559.501,91.129,520.18,91.129L520.18,91.129z M520.656,123.212
	c23.521,0,45.812,19.018,45.812,49.66c0,29.993-22.194,49.552-45.92,49.552c-26.067,0-46.633-20.878-46.633-49.79
	C473.914,144.342,494.225,123.212,520.656,123.212L520.656,123.212z"/>
<path id="path3007" fill="#AAAAAA" d="M695.34,91.215c-43.904,0-78.414,38.453-78.414,81.613c0,49.163,40.009,81.765,77.656,81.765
	c23.279,0,35.657-9.24,44.797-19.847v16.106c0,28.18-17.11,45.055-42.937,45.055c-24.949,0-37.463-18.551-41.812-29.078
	l-31.392,13.123c11.137,23.547,33.555,48.104,73.463,48.104c43.652,0,76.923-27.495,76.923-85.159V96.126H739.38v13.836
	c-10.53-11.347-24.931-18.745-44.04-18.745V91.215z M698.518,123.233c21.525,0,43.628,18.38,43.628,49.768
	c0,31.904-22.056,49.487-44.104,49.487c-23.405,0-45.185-19.005-45.185-49.184C652.857,141.946,675.476,123.233,698.518,123.233
	L698.518,123.233z"/>
<path id="path3011" fill="#AAAAAA" d="M925.89,91.02c-41.414,0-76.188,32.949-76.188,81.569c0,51.447,38.76,81.959,80.165,81.959
	c34.559,0,55.769-18.905,68.427-35.845l-28.235-18.787c-7.327,11.371-19.576,22.484-40.018,22.484
	c-22.963,0-33.521-12.574-40.062-24.754L999.5,152.203l-5.687-13.318c-10.58-26.079-35.26-47.859-67.92-47.859L925.89,91.02z
	 M927.317,122.433c14.923,0,25.663,7.934,30.224,17.446l-73.139,30.57C881.248,146.783,903.67,122.433,927.317,122.433z"/>
<path id="path3015" fill="#AAAAAA" d="M797.49,249.7h35.976V8.95H797.49V249.7z"/>
</svg>
