<?xml version="1.0" encoding="utf-8"?>
<!-- Generator: Adobe Illustrator 16.0.3, SVG Export Plug-In . SVG Version: 6.00 Build 0)  -->
<!DOCTYPE svg PUBLIC "-//W3C//DTD SVG 1.1//EN" "http://www.w3.org/Graphics/SVG/1.1/DTD/svg11.dtd">
<svg version="1.1" id="Layer_1" xmlns="http://www.w3.org/2000/svg" xmlns:xlink="http://www.w3.org/1999/xlink" x="0px" y="0px"
	 width="154px" height="42px" viewBox="0 0 154 42" enable-background="new 0 0 154 42" xml:space="preserve">
<path fill="#AEDBD0" d="M38.843,32.263H25.325c-0.388,0-0.777-0.153-1.087-0.465L13.75,21.543c-0.078-0.076-0.078-0.31,0-0.388
	l10.487-10.332c0.311-0.311,0.7-0.466,1.087-0.466h13.439c0.233,0,0.389,0.311,0.156,0.466c-1.244,1.243-4.506,4.816-4.817,9.166
	c0,0.155-0.156,0.233-0.233,0.233h-5.438c-0.077,0-0.155-0.078-0.233-0.155c-0.389-0.621-1.087-1.087-1.865-1.087
	c-0.31,0-0.621,0.078-0.854,0.154c-0.854,0.312-1.398,1.166-1.398,2.099c0,1.242,1.01,2.252,2.252,2.252
	c0.854,0,1.554-0.466,1.942-1.164c0.078-0.078,0.155-0.156,0.233-0.156h5.361c0.155,0,0.233,0.078,0.233,0.232
	c0.233,4.118,3.651,8.003,4.894,9.322C39.154,31.953,39.076,32.263,38.843,32.263z"/>
<path fill="#E56B87" d="M0,19.835h10.798c0.078,0,0.156,0,0.156-0.076l8.701-8.702c0.233-0.233,0-0.544-0.311-0.389L0,19.835z"/>
<path fill="#00AFAE" d="M0,22.786h10.798c0.078,0,0.156,0,0.156,0.078l8.701,8.701c0.233,0.232,0,0.544-0.311,0.388L0,22.786z"/>
<path fill="#FFFFFF" d="M50.263,32.109c-1.554,0-2.953-0.312-4.195-0.855c-1.244-0.544-2.331-1.398-3.108-2.33
	c-0.854-1.012-1.476-2.176-1.863-3.419c-0.467-1.32-0.623-2.719-0.623-4.194c0-2.02,0.389-3.884,1.166-5.516
	c0.777-1.632,1.942-2.952,3.417-3.962c1.477-1.01,3.263-1.476,5.283-1.476c1.476,0,2.797,0.388,4.04,1.088
	c1.242,0.699,2.097,1.631,2.719,2.718v-3.262h3.651V31.72h-3.729v-3.573c-0.622,1.243-1.476,2.176-2.641,2.954
	C53.214,31.798,51.816,32.109,50.263,32.109z M50.806,29.079c2.098,0,3.651-0.698,4.739-2.175c1.087-1.478,1.632-3.342,1.632-5.827
	c0-2.33-0.544-4.117-1.632-5.593c-1.088-1.397-2.719-2.175-4.739-2.175c-2.175,0-3.807,0.699-4.894,2.175
	c-1.165,1.398-1.709,3.341-1.709,5.593c0,2.331,0.544,4.272,1.709,5.671C47,28.381,48.631,29.079,50.806,29.079z"/>
<path fill="#FFFFFF" d="M67.741,31.644V16.028c0-0.466,0-1.087-0.077-1.941c-0.078-0.855-0.078-1.554-0.156-2.176v-1.01h3.962
	l0.078,3.262c1.243-2.485,3.107-3.729,5.516-3.729c0.776,0,1.477,0.078,2.098,0.233v3.341c-0.776-0.233-1.554-0.312-2.253-0.312
	c-1.631,0-2.875,0.544-3.885,1.71c-1.009,1.088-1.476,2.719-1.476,4.815v11.575h-3.807V31.644z"/>
<path fill="#FFFFFF" d="M83.978,40.343V16.96c0-0.932-0.078-2.951-0.233-6.059h3.885v3.729c0.389-1.165,1.243-2.175,2.563-2.952
	c1.321-0.854,2.798-1.243,4.429-1.243c2.797,0,5.05,1.011,6.759,3.03s2.563,4.583,2.563,7.69c0,3.184-0.854,5.826-2.563,7.924
	c-1.709,2.097-3.962,3.108-6.759,3.108c-1.631,0-3.107-0.39-4.429-1.165c-1.319-0.777-2.097-1.633-2.484-2.642v12.04h-3.729V40.343z
	 M93.999,29.079c1.941,0,3.496-0.698,4.506-2.175c1.087-1.478,1.554-3.342,1.554-5.749c0-2.33-0.543-4.272-1.554-5.671
	c-1.088-1.397-2.564-2.175-4.506-2.175c-2.02,0-3.573,0.777-4.66,2.253c-1.166,1.476-1.71,3.418-1.71,5.826
	c0,2.33,0.544,4.116,1.632,5.516C90.348,28.381,91.979,29.079,93.999,29.079z"/>
<path fill="#FFFFFF" d="M109.381,31.644V1.579h3.728v12.584c0.623-1.164,1.555-2.019,2.875-2.718c1.321-0.7,2.719-1.011,4.194-1.011
	c1.322,0,2.409,0.233,3.418,0.699c1.011,0.467,1.787,1.088,2.409,1.865c0.622,0.776,1.087,1.709,1.399,2.796
	c0.312,1.01,0.466,2.176,0.466,3.418V31.72h-3.729V19.291c0-2.02-0.39-3.496-1.089-4.428c-0.697-0.933-1.863-1.398-3.417-1.398
	c-1.71,0-3.186,0.544-4.584,1.709c-1.32,1.165-2.02,2.485-2.02,3.961V31.72h-3.651V31.644z"/>
<path fill="#FFFFFF" d="M143.018,32.109c-1.553,0-2.951-0.312-4.194-0.855c-1.244-0.544-2.33-1.398-3.107-2.33
	c-0.854-1.012-1.477-2.176-1.864-3.419c-0.467-1.32-0.622-2.719-0.622-4.194c0-2.02,0.389-3.884,1.166-5.516
	c0.776-1.632,1.942-2.952,3.418-3.962c1.475-1.01,3.262-1.476,5.282-1.476c1.476,0,2.798,0.388,4.038,1.088
	c1.245,0.699,2.1,1.631,2.72,2.718v-3.262h3.651V31.72h-3.729v-3.573c-0.62,1.243-1.475,2.254-2.642,2.954
	C145.894,31.798,144.493,32.109,143.018,32.109z M143.483,29.079c2.098,0,3.65-0.698,4.739-2.175
	c1.089-1.478,1.631-3.342,1.631-5.827c0-2.33-0.542-4.117-1.631-5.593c-1.089-1.397-2.72-2.175-4.739-2.175
	c-2.174,0-3.805,0.699-4.894,2.175c-1.165,1.398-1.709,3.341-1.709,5.593c0,2.331,0.544,4.272,1.709,5.671
	C139.679,28.381,141.31,29.079,143.483,29.079z"/>
</svg>
