<svg xmlns="http://www.w3.org/2000/svg" width="37" height="37" viewBox="0 0 37 37"><path fill="#0072CF" d="M18.5 24.1H11l1.3-2.2c.5-.8 1.1-2.1 1.2-3l.5-5.4c.1-.9.9-1.8 1.7-2l1.5-.4c0-.7.6-1.3 1.3-1.3.7 0 1.3.6 1.3 1.3l1.5.4c.9.2 1.6 1.1 1.7 2l.5 5.4c.1.9.8 2.2 1.2 3l1.3 2.2h-7.5zm-2.1.6v.1c0 1.2.9 2.1 2.1 2.1 1.2 0 2.1-.9 2.1-2.1v-.1h-4.2z"/><path fill="#0072CF" d="M18.5 36C8.9 36 1 28.1 1 18.5S8.9 1 18.5 1 36 8.9 36 18.5 28.1 36 18.5 36zm0-34C9.4 2 2 9.4 2 18.5S9.4 35 18.5 35 35 27.6 35 18.5 27.6 2 18.5 2z"/></svg>