<svg xmlns="http://www.w3.org/2000/svg" width="37" height="37" viewBox="0 0 37 37"><circle fill="#0072CF" cx="18.5" cy="18.5" r="17.3"/><path fill="#FFF" d="M18.5 36C8.9 36 1 28.1 1 18.5S8.9 1 18.5 1 36 8.9 36 18.5 28.1 36 18.5 36zm0-34C9.4 2 2 9.4 2 18.5S9.4 35 18.5 35 35 27.6 35 18.5 27.6 2 18.5 2z"/><path fill-rule="evenodd" clip-rule="evenodd" fill="#FFF" d="M17.7 17.8c1.7 0 1.7-1.6 1.7-1.6v-3.5s-.1-1.5-1.8-1.5c-1.6 0-1.6 1.6-1.6 1.6v3.3s.1 1.7 1.7 1.7zm-.5-1.8v-3.2s.1-.6.6-.6c.6 0 .6.6.6.6V16s0 .6-.6.6c-.7.1-.6-.6-.6-.6zm-4.1 1.7h1.3v-3.4L16 9h-1.3l-.9 3.4-.9-3.4h-1.3l1.6 5.3-.1 3.4zm8.9-.2c.5-.4.7-.5.7-.5v.7h1.1v-6.4h-1.1v4.9s-.2.5-.7.5c-.3 0-.3-.9-.3-.9v-4.6h-1.2v5.7c-.1 0-.1 1.6 1.5.6zm2.5 4.6c-.7 0-.5 1.4-.5 1.4h1s.2-1.4-.5-1.4zm2.1-3.8H10.4c-.2 0-.4.2-.4.4v8.9c0 .2.2.4.4.4h16.2c.2 0 .4-.2.4-.4v-8.9c0-.2-.2-.4-.4-.4zm-12.1 2h-1.2v6.9H12v-6.9h-1.2v-1.2h3.6v1.2zm3.3 6.9h-1v-.6s-.8.7-1.4.7c-.6 0-.6-.9-.6-.9v-5.2h1.1v4.4s-.1.7.3.6c.4 0 .7-.5.7-.5v-4.6h1v6.1zm3.2.1c-.5 0-1.1-.6-1.1-.6v.5h-1.1v-8h1.1v2.6s.4-.7 1.2-.7c.9 0 .9 1.2.9 1.2v3.8s.1 1.2-1 1.2zm5.2-4.5v1.6H24v1.3s0 .6.5.6c.6 0 .6-.6.6-.6v-.6h1.1v.8s-.2 1.3-1.6 1.3c-1.6 0-1.6-1.6-1.6-1.6v-2.8s-.1-1.7 1.7-1.7c1.6.1 1.5 1.7 1.5 1.7zm-5.7-.7c-.4 0-.6.3-.6.3V26s.2.3.6.3c.5 0 .5-.5.5-.5v-3c-.1 0 0-.7-.5-.7z"/></svg>