<svg xmlns="http://www.w3.org/2000/svg" width="37" height="37" viewBox="0 0 37 37"><circle fill="#0072CF" cx="18.5" cy="18.5" r="17.3"/><path fill="#FFF" d="M18.5 36C8.9 36 1 28.1 1 18.5S8.9 1 18.5 1 36 8.9 36 18.5 28.1 36 18.5 36zm0-34C9.4 2 2 9.4 2 18.5S9.4 35 18.5 35 35 27.6 35 18.5 27.6 2 18.5 2z"/><path fill="#FFF" d="M13.7 21.6c-.9 0-1.7.8-1.7 1.7 0 .9.8 1.7 1.7 1.7.9 0 1.7-.8 1.7-1.7 0-.9-.8-1.7-1.7-1.7zM12 15.1v3.5c1.6.2 3.1 1 4.3 2.2 1.2 1.2 1.9 2.7 2.1 4.3h3.4c-.2-2.5-1.3-4.9-3.2-6.7-1.7-1.9-4.1-3-6.6-3.3zm0-5.1v3.7c6.1.3 11 5.2 11.3 11.3H27c-.4-8.1-6.9-14.7-15-15z"/></svg>