<svg width="37" height="37" viewBox="0 0 37 37" xmlns="http://www.w3.org/2000/svg"><title>btn__googleplus_mobile</title><g fill="#696969" fill-rule="evenodd"><path d="M18.5 37C8.283 37 0 28.717 0 18.5S8.283 0 18.5 0 37 8.283 37 18.5c-.012 10.212-8.288 18.488-18.5 18.5zm0-35.943A17.475 17.475 0 1 0 35.943 18.5C35.913 8.879 28.12 1.086 18.5 1.057z"/><path d="M13.944 16.914v3.172h4.292c-.677 2.04-1.713 3.171-4.292 3.171a4.715 4.715 0 0 1 0-9.43 4.493 4.493 0 0 1 3.076 1.163c.655-.655.603-.75 2.262-2.315a7.94 7.94 0 1 0-5.338 13.754c6.554 0 8.15-5.709 7.622-9.515h-7.622zm14.303.159v-2.749H26.28v2.749h-2.834v1.956h2.834v2.854h1.966v-2.854h2.748v-1.946h-2.748v-.01z"/></g></svg>