<svg xmlns="http://www.w3.org/2000/svg" width="37" height="37" viewBox="0 0 37 37"><circle opacity=".6" cx="18.5" cy="18.5" r="17.3"/><path fill="#FFF" d="M18.5 36C8.9 36 1 28.1 1 18.5S8.9 1 18.5 1 36 8.9 36 18.5 28.1 36 18.5 36zm0-34C9.4 2 2 9.4 2 18.5S9.4 35 18.5 35 35 27.6 35 18.5 27.6 2 18.5 2z"/><path fill="#FFF" d="M27.5 12.8c-.7.3-1.4.5-2.1.6.8-.5 1.3-1.2 1.6-2.1-.7.4-1.5.7-2.3.9C24 11.5 23 11 22 11c-2 0-3.7 1.7-3.7 3.8 0 .3 0 .6.1.9-3.1-.2-5.8-1.7-7.6-4-.3.6-.5 1.2-.5 1.9 0 1.3.7 2.5 1.6 3.2-.6 0-1.2-.2-1.7-.5 0 1.8 1.3 3.4 3 3.7-.3.1-.6.1-1 .1-.2 0-.5 0-.7-.1.5 1.5 1.8 2.6 3.4 2.6-1.3 1-2.9 1.6-4.6 1.6-.3 0-.6 0-.9-.1 1.6 1.1 3.6 1.7 5.7 1.7 6.8 0 10.5-5.8 10.5-10.8v-.5c.8-.3 1.4-1 1.9-1.7z"/></svg>