<svg width="15" height="15" viewBox="0 0 15 15" xmlns="http://www.w3.org/2000/svg"><title>btn_open_small_hover</title><g transform="translate(1 1)" fill="none" fill-rule="evenodd"><circle fill="#0072CF" cx="6.5" cy="6.5" r="6.5"/><circle fill="#FFF" cx="6.5" cy="6.5" r="6"/><path d="M9.855 5.518H7.482V3.145C7.482 2.491 7.072 2 6.5 2c-.573 0-.982.49-.982 1.145V5.518H3.145C2.491 5.518 2 5.928 2 6.5c0 .573.49.982 1.145.982H5.518v2.372c0 .655.41 1.146.982 1.146.573 0 .982-.49.982-1.145V7.482h2.372c.655 0 1.146-.41 1.146-.982 0-.573-.49-.982-1.145-.982z" fill="#0072CF"/></g></svg>