<svg xmlns="http://www.w3.org/2000/svg" viewBox="0 0 37 37"><path fill-rule="evenodd" clip-rule="evenodd" fill="#8AC4FD" d="M36 18.5C36 8.8 28.2 1 18.5 1S1 8.8 1 18.5 8.8 36 18.5 36 36 28.2 36 18.5z"/><path fill="#FFF" d="M28.9 13.3c-.7.3-1.4.5-2.2.6.8-.5 1.4-1.2 1.7-2.1-.7.4-1.6.8-2.4.9-.7-.7-1.7-1.2-2.8-1.2-2.1 0-3.9 1.7-3.9 3.9 0 .3 0 .6.1.9-3.2-.2-6-1.7-7.9-4-.3.6-.5 1.2-.5 1.9 0 1.3.7 2.5 1.7 3.2-.6 0-1.2-.2-1.7-.5 0 1.9 1.3 3.4 3.1 3.8-.3.1-.7.1-1 .1-.2 0-.5 0-.7-.1.5 1.5 1.9 2.6 3.6 2.7-1.3 1-3 1.6-4.8 1.6-.3 0-.6 0-.9-.1 1.7 1.1 3.7 1.7 5.9 1.7 7.1 0 11-5.9 11-11v-.5c.5-.3 1.2-1 1.7-1.8z"/></svg>