<svg xmlns="http://www.w3.org/2000/svg" viewBox="0 0 37 37"><circle fill="#FFF" stroke="#0072CF" stroke-miterlimit="10" cx="18.5" cy="18.5" r="17.5"/><path fill="#0072CF" d="M22.4 16c-1.4-1.1-3.3-1.2-4.8-.4-.5.3-.9.6-1.3 1.1l-.8 1c.1.4.4.8.8 1.1.2.2.4.3.7.4l1-1.2c.2-.2.4-.4.6-.5l.1-.1c.3-.1.6-.2.9-.2.5 0 1 .1 1.4.5.7.5 1 1.4.8 2.2-.1.3-.2.6-.4.9L18 25.1c-.8 1-2.2 1.1-3.1.4-1-.8-1.1-2.2-.4-3.1l.3-.3c-.2-.1-.4-.3-.6-.4-.4-.3-.6-.6-.9-1l-.4.3c-1.5 1.9-1.2 4.6.7 6 1.9 1.5 4.5 1.2 6-.7L23 22c.2-.2.3-.4.4-.7 1.1-1.7.6-4-1-5.3zm1-6.1c-1.9-1.5-4.5-1.2-6 .7L14 14.9c-1.5 1.9-1.2 4.6.7 6 1.9 1.5 4.5 1.2 6-.7l.9-1.1c-.1-.4-.4-.8-.7-1.1-.2-.2-.4-.3-.7-.4L19 19c-.8 1-2.2 1.1-3.1.4-1-.8-1.1-2.2-.4-3.1l3.4-4.3c.8-1 2.2-1.1 3.1-.4 1 .8 1.1 2.2.4 3.1l-.3.4c.2.1.4.3.6.4.4.3.6.6.9 1l.4-.5c1.5-1.9 1.2-4.6-.6-6.1z"/></svg>