<svg width="37" height="37" viewBox="0 0 37 37" xmlns="http://www.w3.org/2000/svg"><title>icn_xls_hover</title><g fill="#0072CF" fill-rule="evenodd"><path d="M23 1.5H6.4v34h24.3V9.7L23 1.5zm.4 2.2l5.2 5.6h-5.2V3.7zm6 30.5H7.6V2.8h14.6v7.8h7.3v23.6h-.1z"/><path d="M17.3 22v-6h-1.1v7h5.3v-1h-4.2z"/><path d="M23.293 20.81c.121.58.34.99.657 1.229.316.238.769.357 1.358.357.286 0 .533-.035.741-.104.208-.07.38-.162.514-.28.134-.117.236-.249.305-.396.07-.147.104-.303.104-.468 0-.33-.106-.574-.319-.734a2.404 2.404 0 0 0-.799-.377c-.32-.092-.667-.17-1.04-.234a5.087 5.087 0 0 1-1.04-.293 2.083 2.083 0 0 1-.8-.559c-.212-.243-.318-.585-.318-1.027 0-.563.206-1.025.618-1.385.411-.36.994-.539 1.748-.539.728 0 1.32.162 1.775.487.455.326.73.87.825 1.632h-.793c-.07-.52-.266-.886-.591-1.099-.326-.212-.735-.318-1.229-.318-.494 0-.871.106-1.131.318a1.03 1.03 0 0 0-.39.839c0 .303.106.535.319.695.212.16.478.29.799.39.32.1.667.189 1.04.267.373.078.72.188 1.04.332.32.143.587.335.8.578.212.243.318.58.318 1.014 0 .32-.07.604-.208.851a1.81 1.81 0 0 1-.572.618 2.66 2.66 0 0 1-.864.37c-.334.083-.7.124-1.099.124s-.752-.058-1.06-.175a2.3 2.3 0 0 1-.786-.488 2.248 2.248 0 0 1-.507-.728 2.564 2.564 0 0 1-.208-.897h.793z" stroke="#0072CF" stroke-width=".2"/><path d="M13.7 16l-1.6 2.6-1.5-2.6H9.5l2.1 3.5L9.5 23h1.1l1.6-2.6 1.6 2.6h1.1l-2.1-3.5 2.1-3.5h-1.2z"/></g></svg>