<svg xmlns="http://www.w3.org/2000/svg" viewBox="0 0 37 37"><path fill="#0072CF" d="M23 1.5H6.4v34h24.3V9.7L23 1.5zm.4 2.2l5.2 5.6h-5.2V3.7zm6 30.5H7.6V2.8h14.6v7.8h7.3v23.6zm-11-19.1c1-4.4.3-5.3.1-5.5-.2-.3-.6-.5-.9-.5-.2 0-.3 0-.5.1-.4.1-.7.5-.9.9-.5 1.3.2 3.5.9 5.2-.6 2.6-1.6 5.8-2.7 8.4-2.7 1.3-4.2 2.7-4.3 3.9 0 .5.1 1.1.8 1.7.2.2.4.3.7.3.6 0 1.3-.5 2-1.6.5-.8 1.1-1.9 1.7-3.3 1.9-.9 4.3-1.7 6.4-2.2 1.1 1.2 2.2 1.8 3 1.8.6 0 1.2-.3 1.6-.9.4-.6.5-1.2.3-1.7-.3-.6-1-.9-2.1-.9-.7 0-1.5.1-2.4.3-1.4-1.6-2.8-3.8-3.7-6zm-6.8 13.1c-.3-.3-.3-.5-.3-.5 0-.4.7-1.2 2.2-2.1-1.2 2.3-1.8 2.6-1.9 2.6zm5.7-17.6c0-.1.1-.2.2-.2h.1c.1.2.2.9 0 2.5-.3-1-.5-1.8-.3-2.3zM16 22.9c.7-1.9 1.4-4 1.9-5.9.8 1.6 1.8 3.1 2.8 4.3-1.6.4-3.2.9-4.7 1.6zm8.5-.9c.6 0 .9.1 1 .2 0 .1-.1.2-.2.3-.2.3-.4.4-.6.4-.4 0-.9-.3-1.5-.8.5-.1.9-.1 1.3-.1z"/></svg>