<svg width="37" height="37" viewBox="0 0 37 37" xmlns="http://www.w3.org/2000/svg"><title>icn_html</title><g fill="#696969" fill-rule="evenodd"><path d="M23 1.5H6.4v34h24.3V9.7L23 1.5zm.4 2.2l5.2 5.6h-5.2V3.7zm6 30.5H7.6V2.8h14.6v7.8h7.3v23.6h-.1z"/><path d="M13.223 22.816h-.774V19.97H9.773v2.847H9V17h.773v2.281h2.676V17h.774v5.816zm2.579 0v-5.128h-1.953V17h4.68v.688h-1.954v5.128h-.773zm8.337 0h-.774v-5.011l-1.515 3.41h-.47l-1.503-3.41v5.011h-.723V17h1.055l1.453 3.238L23.064 17h1.075v5.816zm4.232 0H25V17h.773v5.129h2.598v.687z"/></g></svg>