<svg xmlns="http://www.w3.org/2000/svg" viewBox="0 0 37 37"><path fill="#696969" d="M18.5 20.8l-3.7 2.8-2.1-1.2v1.3l5.8 3.8 5.8-3.8v-1.4l-2.1 1.2-3.7-2.7zM28 13l-5.6-3.5-3.9 3.2 5.8 3.3 3.7-3zM9 19.1l5.8 3.3 3.7-2.8-5.5-3.5-4 3zm5.8-9.6L9 13.2l4 3 5.5-3.5-3.7-3.2zm3.7 10.1l3.8 2.8 5.7-3.3-3.7-3.1-5.8 3.6z"/><path fill="#696969" d="M18.5 36.1C8.8 36.1.9 28.2.9 18.5.9 8.8 8.8.9 18.5.9s17.6 7.9 17.6 17.6c0 9.7-7.9 17.6-17.6 17.6zm0-34c-9 0-16.4 7.4-16.4 16.4s7.4 16.4 16.4 16.4 16.4-7.4 16.4-16.4S27.5 2.1 18.5 2.1z"/></svg>