<?xml version="1.0" encoding="utf-8"?>
<!-- Generator: Adobe Illustrator 21.0.0, SVG Export Plug-In . SVG Version: 6.00 Build 0)  -->
<svg version="1.1" id="Layer_1" xmlns="http://www.w3.org/2000/svg" xmlns:xlink="http://www.w3.org/1999/xlink" x="0px" y="0px"
	 viewBox="0 0 133.3 133.1" style="enable-background:new 0 0 133.3 133.1;" xml:space="preserve">
<style type="text/css">
	.st0{fill:#FFFFFF;}
</style>
<g id="Layer_1_1_">
	<path class="st0" d="M116,39.6c3.8,0,6.9-3.1,6.9-6.8c0-3.8-3.1-6.9-6.9-6.9s-6.9,3.1-6.9,6.9C109.1,36.6,112.2,39.6,116,39.6"/>
	<path class="st0" d="M13.8,66.6c0-27.5,21.1-50.2,48-52.7V0.1C27.3,2.6,0,31.5,0,66.6s27.3,64,61.8,66.5v-13.8
		C35,116.8,13.8,94.1,13.8,66.6z"/>
	<path class="st0" d="M62,23.8c-4.2,0.4-8.2,1.5-12,3c-15.7,6.5-26.8,21.9-26.8,40c0,18,11.1,33.5,26.8,39.9c3.8,1.5,7.8,2.6,12,3
		V23.8z M50.1,92.3c-8.4-5.4-14-14.8-14-25.5s5.6-20.1,14-25.5V92.3z"/>
	<path class="st0" d="M119.5,66.6c0,17.4-8.4,32.9-21.5,42.5h19.9c9.6-11.6,15.4-26.4,15.4-42.5c0-7.3-1.8-19.1-5.4-26.5l-12.7,5.4
		C118,52,119.5,59.1,119.5,66.6z"/>
	<g>
		<path class="st0" d="M82.8,26.8V16.2V1.9c-3.9-1-7.9-1.6-12-1.9v109.7c4.2-0.4,8.2-1.5,12-3c15.7-6.5,26.8-21.9,26.8-39.9
			C109.6,48.7,98.5,33.2,82.8,26.8z M82.8,92.3V41.2c8.4,5.4,14,14.8,14,25.5S91.2,86.9,82.8,92.3z"/>
	</g>
</g>
<g id="Layer_2">
</g>
</svg>
