<?xml version="1.0" encoding="utf-8"?>
<!-- Generator: Adobe Illustrator 21.0.0, SVG Export Plug-In . SVG Version: 6.00 Build 0)  -->
<svg version="1.1" id="Layer_1" xmlns="http://www.w3.org/2000/svg" xmlns:xlink="http://www.w3.org/1999/xlink" x="0px" y="0px"
	 viewBox="0 0 141.9 41.7" style="enable-background:new 0 0 141.9 41.7;" xml:space="preserve">
<style type="text/css">
	.st0{clip-path:url(#SVGID_2_);}
	.st1{clip-path:url(#SVGID_4_);}
	.st2{clip-path:url(#SVGID_6_);}
	.st3{clip-path:url(#SVGID_8_);}
	.st4{clip-path:url(#SVGID_10_);}
</style>
<g>
	<g>
		<defs>
			<rect id="SVGID_1_" x="-10" width="60.1" height="41.7"/>
		</defs>
		<clipPath id="SVGID_2_">
			<use xlink:href="#SVGID_1_"  style="overflow:visible;"/>
		</clipPath>
		<path class="st0" d="M35.8,12.8c1.2,0,2.1-0.9,2.1-2.1c0-1.2-0.9-2.1-2.1-2.1s-2.1,1-2.1,2.1C33.7,11.8,34.6,12.8,35.8,12.8"/>
	</g>
	<g>
		<defs>
			<rect id="SVGID_3_" x="-10" width="60.1" height="41.7"/>
		</defs>
		<clipPath id="SVGID_4_">
			<use xlink:href="#SVGID_3_"  style="overflow:visible;"/>
		</clipPath>
		<path class="st1" d="M4.2,21.1c0-8.5,6.5-15.5,14.9-16.3V0.5C8.4,1.3-0.1,10.2-0.1,21.1S8.3,40.9,19,41.7v-4.3
			C10.7,36.6,4.2,29.6,4.2,21.1"/>
	</g>
	<g>
		<defs>
			<rect id="SVGID_5_" x="-10" width="60.1" height="41.7"/>
		</defs>
		<clipPath id="SVGID_6_">
			<use xlink:href="#SVGID_5_"  style="overflow:visible;"/>
		</clipPath>
		<path class="st2" d="M19.1,7.8c-1.3,0.1-2.5,0.5-3.7,0.9c-4.9,2-8.3,6.8-8.3,12.4s3.4,10.4,8.3,12.4c1.2,0.5,2.4,0.8,3.7,0.9V7.8z
			 M15.4,29c-2.6-1.7-4.3-4.6-4.3-7.9s1.7-6.2,4.3-7.9V29z"/>
	</g>
	<g>
		<defs>
			<rect id="SVGID_7_" x="-10" width="60.1" height="41.7"/>
		</defs>
		<clipPath id="SVGID_8_">
			<use xlink:href="#SVGID_7_"  style="overflow:visible;"/>
		</clipPath>
		<path class="st3" d="M36.9,21.1c0,5.4-2.6,10.2-6.6,13.1h6.1c3-3.6,4.7-8.2,4.7-13.1c0-2.3-0.5-5.9-1.7-8.2l-3.9,1.7
			C36.4,16.6,36.9,18.8,36.9,21.1"/>
	</g>
	<g>
		<defs>
			<rect id="SVGID_9_" x="-10" width="60.1" height="41.7"/>
		</defs>
		<clipPath id="SVGID_10_">
			<use xlink:href="#SVGID_9_"  style="overflow:visible;"/>
		</clipPath>
		<path class="st4" d="M25.5,8.8V5.5V1.1c-1.2-0.3-2.4-0.5-3.7-0.6v33.9c1.3-0.1,2.5-0.5,3.7-0.9c4.9-2,8.3-6.8,8.3-12.4
			C33.8,15.6,30.4,10.8,25.5,8.8 M25.5,29V13.2c2.6,1.7,4.3,4.6,4.3,7.9C29.9,24.4,28.1,27.4,25.5,29"/>
	</g>
</g>
<g>
	<path d="M114.7,15.4c0-1.8-1.1-2.4-3.4-2.4h-5.4v4.9h5.4C113.6,17.9,114.7,17.2,114.7,15.4z"/>
	<path d="M111.5,21.9h-5.6v6h5.6c2.6,0,3.8-0.9,3.8-3C115.3,22.7,114.1,21.9,111.5,21.9z"/>
	<polygon points="84.8,23.4 91.2,23.4 88,13.6 	"/>
	<path d="M33.1,0.2c7.7,3.7,13.1,11.6,13.1,20.7s-5.4,17-13.1,20.7h108.8V0.2H33.1z M65.4,32.7c-6.8,0-10.8-4.4-10.8-12.1
		c0-7.8,4-12.1,11.2-12.1c5.9,0,9.4,3,9.8,8.2h-4.7c-0.4-2.6-2.1-4-5.1-4c-4.2,0-6.4,2.8-6.4,7.9s2.3,7.8,6.2,7.8
		c2.9,0,4.8-1.5,5.3-4.3h4.6C75.3,29.3,71.4,32.7,65.4,32.7z M94,32l-1.6-4.7h-8.9L82,32h-5l8.2-23h5.5L99,32H94z M111.9,32h-10.5V9
		h10.8c4.8,0,7.2,2.1,7.2,5.8c0,2.3-0.9,3.9-2.8,4.7c2.4,1,3.6,2.8,3.6,5.4C120.3,29.4,117.3,32,111.9,32z M128.8,32h-4.7V9h4.7V32z
		"/>
</g>
</svg>
