<?xml version="1.0" encoding="utf-8"?>
<!-- Generator: Adobe Illustrator 19.2.1, SVG Export Plug-In . SVG Version: 6.00 Build 0)  -->
<svg version="1.1" id="Layer_1" xmlns="http://www.w3.org/2000/svg" xmlns:xlink="http://www.w3.org/1999/xlink" x="0px" y="0px"
	 viewBox="0 0 300 58.2" style="enable-background:new 0 0 300 58.2;" xml:space="preserve">
<style type="text/css">
	.st0{fill:#FFFFFF;}
</style>
<path class="st0" d="M89.7,7.8c0,8.9,9.5,10.1,9.5,16.5c0,2.2-1,3-2.5,3c-1.6,0-2.5-0.8-2.5-3V22h-4.6v1.9c0,5,2.5,7.8,7.3,7.8
	c4.8,0,7.3-2.8,7.3-7.8c0-8.9-9.5-10.1-9.5-16.5c0-2.2,0.9-3.1,2.4-3.1c1.6,0,2.4,0.8,2.4,3.1v1.3h4.6v-1c0-5-2.4-7.8-7.2-7.8
	S89.7,2.8,89.7,7.8z M75.3,31.4h12.9V27h-8V0.4h-4.9V31.4z M64.2,5.9l2.4,15.7h-4.7L64.2,5.9z M68,0.4h-7.1l-5,31h4.5l0.8-5.6h6
	l0.8,5.6H73L68,0.4z M48.7,31.4h5v-31h-4.3v18.6l-5-18.6h-6.1v31h4.4V8.9L48.7,31.4z M29.8,31.4h5v-31h-4.3v18.6l-5-18.6h-6.1v31
	h4.4V8.9L29.8,31.4z M8.3,5.9l2.4,15.7H5.9L8.3,5.9z M12.1,0.4H5l-5,31h4.5l0.8-5.6h6l0.8,5.6h4.9L12.1,0.4z"/>
<path class="st0" d="M159.7,15.4h5.1v-2.7h-8v18.6h8v-2.7h-5.1v-5.5h4v-2.7h-4V15.4z M148.3,23.4h3.3v8h3V12.8h-3v8h-3.3v-8h-2.9
	v18.6h2.9V23.4z M135.1,15.4h3.1v16h2.9v-16h3.1v-2.7h-9V15.4z M125.6,15.4h4.8v-2.7h-7.7v18.6h2.9v-7.7h3.8V21h-3.8V15.4z
	 M111.9,26.9c0,3,1.6,4.7,4.4,4.7c2.9,0,4.4-1.7,4.4-4.7v-9.7c0-3-1.6-4.7-4.4-4.7c-2.9,0-4.4,1.7-4.4,4.7V26.9z M114.8,17.1
	c0-1.3,0.6-1.8,1.5-1.8c0.9,0,1.5,0.5,1.5,1.8v10.1c0,1.3-0.6,1.8-1.5,1.8c-0.9,0-1.5-0.5-1.5-1.8V17.1z"/>
<path class="st0" d="M294.7,42.7l1.4,9.4h-2.8L294.7,42.7z M297,39.4h-4.3l-3,18.6h2.7l0.5-3.4h3.6L297,58h3L297,39.4z M286,51.1
	v2.7c0,1.3-0.6,1.8-1.5,1.8c-0.9,0-1.5-0.5-1.5-1.8V43.7c0-1.3,0.6-1.8,1.5-1.8c0.9,0,1.5,0.5,1.5,1.8v2h2.8v-1.8
	c0-3-1.5-4.7-4.4-4.7c-2.9,0-4.4,1.7-4.4,4.7v9.7c0,3,1.5,4.7,4.4,4.7c2.9,0,4.4-1.7,4.4-4.7v-2.5H286z M275.2,58h2.9V39.4h-2.9V58z
	 M268.8,42c1,0,1.5,0.6,1.5,1.9v1.8c0,1.5-0.7,2-1.8,2h-1.1V42H268.8z M273.6,58c-0.3-0.7-0.3-1.4-0.3-2.3v-2.9c0-1.9-0.5-3.4-1.9-4
	c1.3-0.6,1.9-1.9,1.9-3.8v-1.5c0-2.9-1.3-4.3-4.3-4.3h-4.4V58h2.9v-7.6h1c1.3,0,1.9,0.6,1.9,2.4v2.9c0,1.5,0.1,1.8,0.3,2.3H273.6z
	 M257.6,42h5.1v-2.7h-8V58h8v-2.7h-5.1v-5.5h4v-2.7h-4V42z M244.4,39.4h-4.1V58h2.6V44.8L245,58h2.8l2-13.4V58h2.8V39.4h-4.1
	l-2,13.2L244.4,39.4z M233.7,42.7l1.4,9.4h-2.8L233.7,42.7z M236,39.4h-4.3l-3,18.6h2.7l0.5-3.4h3.6L236,58h3L236,39.4z M219.1,42
	h4.8v-2.7h-7.7V58h2.9v-7.7h3.8v-2.7h-3.8V42z M205.4,53.5c0,3,1.6,4.7,4.4,4.7c2.9,0,4.4-1.7,4.4-4.7v-9.7c0-3-1.6-4.7-4.4-4.7
	c-2.9,0-4.4,1.7-4.4,4.7V53.5z M208.4,43.7c0-1.3,0.6-1.8,1.5-1.8s1.5,0.5,1.5,1.8v10.1c0,1.3-0.6,1.8-1.5,1.8s-1.5-0.5-1.5-1.8
	V43.7z M193.7,58h2.9v-6.2l3.7-12.5h-2.8l-2.2,8.5l-2.2-8.5H190l3.7,12.5V58z M180.7,42h3.1v16h2.9V42h3.1v-2.7h-9V42z M174.7,42
	h5.1v-2.7h-8V58h8v-2.7h-5.1v-5.5h4v-2.7h-4V42z M166.7,58h2.9V39.4h-2.9V58z M162.1,51.1v2.7c0,1.3-0.6,1.8-1.5,1.8
	s-1.5-0.5-1.5-1.8V43.7c0-1.3,0.6-1.8,1.5-1.8s1.5,0.5,1.5,1.8v2h2.8v-1.8c0-3-1.5-4.7-4.4-4.7s-4.4,1.7-4.4,4.7v9.7
	c0,3,1.5,4.7,4.4,4.7s4.4-1.7,4.4-4.7v-2.5H162.1z M145.6,53.5c0,3,1.6,4.7,4.4,4.7c2.9,0,4.4-1.7,4.4-4.7v-9.7c0-3-1.6-4.7-4.4-4.7
	c-2.9,0-4.4,1.7-4.4,4.7V53.5z M148.6,43.7c0-1.3,0.6-1.8,1.5-1.8c0.9,0,1.5,0.5,1.5,1.8v10.1c0,1.3-0.6,1.8-1.5,1.8
	c-0.9,0-1.5-0.5-1.5-1.8V43.7z M135.5,43.9c0,5.3,5.7,6,5.7,9.9c0,1.3-0.6,1.8-1.5,1.8s-1.5-0.5-1.5-1.8v-1.3h-2.8v1.1
	c0,3,1.5,4.7,4.4,4.7s4.4-1.7,4.4-4.7c0-5.3-5.7-6-5.7-9.9c0-1.3,0.5-1.8,1.5-1.8s1.5,0.5,1.5,1.8v0.8h2.8v-0.6c0-3-1.5-4.7-4.3-4.7
	C137,39.2,135.5,40.9,135.5,43.9z M122.8,58h7.7v-2.7h-4.8v-16h-2.9V58z M116.1,42.7l1.4,9.4h-2.8L116.1,42.7z M118.4,39.4h-4.3
	l-3,18.6h2.7l0.5-3.4h3.6l0.5,3.4h3L118.4,39.4z M107.4,51.1v2.7c0,1.3-0.6,1.8-1.5,1.8s-1.5-0.5-1.5-1.8V43.7
	c0-1.3,0.6-1.8,1.5-1.8s1.5,0.5,1.5,1.8v2h2.8v-1.8c0-3-1.5-4.7-4.4-4.7c-2.9,0-4.4,1.7-4.4,4.7v9.7c0,3,1.5,4.7,4.4,4.7
	c2.9,0,4.4-1.7,4.4-4.7v-2.5H107.4z M96.6,58h2.9V39.4h-2.9V58z M90.6,50.3H92v3.4c0,1.3-0.6,1.8-1.5,1.8c-0.9,0-1.5-0.5-1.5-1.8
	V43.7c0-1.3,0.6-1.8,1.5-1.8c0.9,0,1.5,0.5,1.5,1.8v2h2.8v-1.8c0-3-1.5-4.7-4.4-4.7c-2.9,0-4.4,1.7-4.4,4.7v9.7c0,3,1.5,4.7,4.4,4.7
	c2.9,0,4.4-1.7,4.4-4.7v-5.9h-4.1V50.3z M75.5,53.5c0,3,1.6,4.7,4.4,4.7c2.9,0,4.4-1.7,4.4-4.7v-9.7c0-3-1.6-4.7-4.4-4.7
	c-2.9,0-4.4,1.7-4.4,4.7V53.5z M78.4,43.7c0-1.3,0.6-1.8,1.5-1.8c0.9,0,1.5,0.5,1.5,1.8v10.1c0,1.3-0.6,1.8-1.5,1.8
	c-0.9,0-1.5-0.5-1.5-1.8V43.7z M66.7,58h7.7v-2.7h-4.8v-16h-2.9V58z M55.9,53.5c0,3,1.6,4.7,4.4,4.7c2.9,0,4.4-1.7,4.4-4.7v-9.7
	c0-3-1.6-4.7-4.4-4.7c-2.9,0-4.4,1.7-4.4,4.7V53.5z M58.8,43.7c0-1.3,0.6-1.8,1.5-1.8c0.9,0,1.5,0.5,1.5,1.8v10.1
	c0,1.3-0.6,1.8-1.5,1.8c-0.9,0-1.5-0.5-1.5-1.8V43.7z M45.8,39.4h-4.1V58h2.6V44.8L46.5,58h2.8l2-13.4V58H54V39.4h-4.1l-2,13.2
	L45.8,39.4z M31,53.5c0,3,1.6,4.7,4.4,4.7c2.9,0,4.4-1.7,4.4-4.7v-9.7c0-3-1.6-4.7-4.4-4.7c-2.9,0-4.4,1.7-4.4,4.7V53.5z M33.9,43.7
	c0-1.3,0.6-1.8,1.5-1.8c0.9,0,1.5,0.5,1.5,1.8v10.1c0,1.3-0.6,1.8-1.5,1.8c-0.9,0-1.5-0.5-1.5-1.8V43.7z M20.9,42h3.1v16h2.9V42h3.1
	v-2.7h-9V42z M16.6,58h3V39.4H17v11.1l-3-11.1h-3.7V58H13V44.5L16.6,58z M3.5,42h5.1v-2.7h-8V58h8v-2.7H3.5v-5.5h4v-2.7h-4V42z"/>
</svg>
