<?xml version="1.0" encoding="UTF-8"?>
<svg width="181px" height="20px" viewBox="0 0 181 20" version="1.1" xmlns="http://www.w3.org/2000/svg" xmlns:xlink="http://www.w3.org/1999/xlink">
    <!-- Generator: Sketch 47.1 (45422) - http://www.bohemiancoding.com/sketch -->
    <title>F100Rlogo</title>
    <desc>Created with Sketch.</desc>
    <defs></defs>
    <g id="Page-1" stroke="none" stroke-width="1" fill="none" fill-rule="evenodd" opacity="0.54">
        <g id="homepage_v7" transform="translate(-22.000000, -4127.000000)" fill="#FEFEFE">
            <g id="FOOTER" transform="translate(0.000000, 4079.000000)">
                <g id="F100Rlogo" transform="translate(22.000000, 48.000000)">
                    <polygon id="Fill-167" points="17.3633 3.1486 13.8943 3.1486 13.8943 1.2336 19.4123 1.2336 19.4123 19.6066 17.3633 19.6066"></polygon>
                    <path d="M21.291,10.4816 L21.291,10.4286 C21.291,5.3586 25.102,0.9186 30.698,0.9186 C36.294,0.9186 40.053,5.3056 40.053,10.3776 L40.053,10.4286 C40.053,15.5006 36.242,19.9416 30.645,19.9416 C25.049,19.9416 21.291,15.5526 21.291,10.4816 M37.897,10.4816 L37.897,10.4286 C37.897,6.2526 34.85,2.8356 30.645,2.8356 C26.441,2.8356 23.445,6.1986 23.445,10.3776 L23.445,10.4286 C23.445,14.6076 26.494,18.0236 30.698,18.0236 C34.902,18.0236 37.897,14.6606 37.897,10.4816" id="Fill-169"></path>
                    <path d="M37.9297,10.4816 L37.9297,10.4286 C37.9297,5.3586 41.7407,0.9186 47.3357,0.9186 C52.9337,0.9186 56.6917,5.3056 56.6917,10.3776 L56.6917,10.4286 C56.6917,15.5006 52.8797,19.9416 47.2837,19.9416 C41.6877,19.9416 37.9297,15.5526 37.9297,10.4816 M54.5347,10.4816 L54.5347,10.4286 C54.5347,6.2526 51.4887,2.8356 47.2837,2.8356 C43.0797,2.8356 40.0837,6.1986 40.0837,10.3776 L40.0837,10.4286 C40.0837,14.6076 43.1327,18.0236 47.3357,18.0236 C51.5407,18.0236 54.5347,14.6606 54.5347,10.4816" id="Fill-171"></path>
                    <path d="M54.5664,10.4816 L54.5664,10.4286 C54.5664,5.3586 58.3794,0.9186 63.9744,0.9186 C69.5704,0.9186 73.3284,5.3056 73.3284,10.3776 L73.3284,10.4286 C73.3284,15.5006 69.5194,19.9416 63.9224,19.9416 C58.3254,19.9416 54.5664,15.5526 54.5664,10.4816 M71.1744,10.4816 L71.1744,10.4286 C71.1744,6.2526 68.1274,2.8356 63.9224,2.8356 C59.7184,2.8356 56.7224,6.1986 56.7224,10.3776 L56.7224,10.4286 C56.7224,14.6076 59.7694,18.0236 63.9744,18.0236 C68.1784,18.0236 71.1744,14.6606 71.1744,10.4816" id="Fill-173"></path>
                    <polygon id="Fill-175" points="0 1.2326 12.033 1.2326 12.033 3.1516 2.075 3.1516 2.075 9.7206 12.035 9.7206 12.035 11.6116 2.075 11.6116 2.075 19.6266 0 19.6266"></polygon>
                    <path d="M75.54,0.8088 L83.95,0.8088 C86.322,0.8088 88.182,1.5098 89.394,2.6958 C90.393,3.7198 90.959,5.1208 90.959,6.7658 L90.959,6.8198 C90.959,9.9188 89.098,11.7798 86.484,12.5338 L91.578,19.6768 L87.643,19.6768 L83.007,13.0998 L78.855,13.0998 L78.855,19.6768 L75.54,19.6768 L75.54,0.8088 Z M83.707,10.1628 C86.08,10.1628 87.589,8.9218 87.589,7.0088 L87.589,6.9548 C87.589,4.9328 86.133,3.8288 83.681,3.8288 L78.855,3.8288 L78.855,10.1628 L83.707,10.1628 Z" id="Fill-177"></path>
                    <path d="M91.5801,12.6154 L91.5801,12.5604 C91.5801,8.4914 94.4631,5.1484 98.5331,5.1484 C103.0611,5.1484 105.3531,8.7064 105.3531,12.8024 C105.3531,13.0994 105.3261,13.3964 105.2991,13.7194 L94.8411,13.7194 C95.1901,16.0384 96.8361,17.3324 98.9371,17.3324 C100.5281,17.3324 101.6601,16.7384 102.7931,15.6344 L104.7051,17.3324 C103.3571,18.9494 101.4981,20.0004 98.8831,20.0004 C94.7601,20.0004 91.5801,17.0094 91.5801,12.6154 L91.5801,12.6154 Z M102.1181,11.5634 C101.9021,9.4614 100.6631,7.8164 98.5061,7.8164 C96.5121,7.8164 95.1111,9.3534 94.8141,11.5634 L102.1181,11.5634 Z" id="Fill-179"></path>
                    <path d="M105.4609,17.8166 L106.9159,15.6066 C108.4809,16.7656 110.1249,17.3586 111.5799,17.3586 C112.9809,17.3586 113.7899,16.7656 113.7899,15.8226 L113.7899,15.7686 C113.7899,14.6646 112.2809,14.2856 110.6089,13.7746 C108.5079,13.1806 106.1619,12.3186 106.1619,9.5956 L106.1619,9.5426 C106.1619,6.8466 108.3989,5.2026 111.2289,5.2026 C113.0079,5.2026 114.9489,5.8226 116.4589,6.8196 L115.1639,9.1366 C113.7899,8.3016 112.3339,7.7906 111.1479,7.7906 C109.8809,7.7906 109.1539,8.3826 109.1539,9.1916 L109.1539,9.2466 C109.1539,10.2966 110.6899,10.7276 112.3609,11.2676 C114.4379,11.9146 116.7809,12.8576 116.7809,15.4186 L116.7809,15.4716 C116.7809,18.4636 114.4639,19.9466 111.4999,19.9466 C109.4779,19.9466 107.2399,19.2186 105.4609,17.8166" id="Fill-181"></path>
                    <path d="M117.3213,12.6154 L117.3213,12.5604 C117.3213,8.4914 120.2053,5.1484 124.2753,5.1484 C128.8023,5.1484 131.0933,8.7064 131.0933,12.8024 C131.0933,13.0994 131.0663,13.3964 131.0403,13.7194 L120.5843,13.7194 C120.9333,16.0384 122.5763,17.3324 124.6793,17.3324 C126.2693,17.3324 127.4023,16.7384 128.5333,15.6344 L130.4473,17.3324 C129.1003,18.9494 127.2403,20.0004 124.6253,20.0004 C120.5023,20.0004 117.3213,17.0094 117.3213,12.6154 L117.3213,12.6154 Z M127.8603,11.5634 C127.6443,9.4614 126.4043,7.8164 124.2483,7.8164 C122.2543,7.8164 120.8513,9.3534 120.5553,11.5634 L127.8603,11.5634 Z" id="Fill-183"></path>
                    <path d="M131.4199,15.5803 L131.4199,15.5253 C131.4199,12.4533 133.8169,10.9433 137.2949,10.9433 C138.8849,10.9433 140.0179,11.1863 141.1229,11.5363 L141.1229,11.1863 C141.1229,9.1643 139.8829,8.0863 137.5919,8.0863 C136.0019,8.0863 134.8149,8.4363 133.5219,8.9763 L132.6589,6.4163 C134.2229,5.7153 135.7589,5.2563 138.0239,5.2563 C140.1519,5.2563 141.7419,5.8223 142.7389,6.8473 C143.7909,7.8713 144.2749,9.3813 144.2749,11.2403 L144.2749,19.6773 L141.0959,19.6773 L141.0959,17.8973 C140.1249,19.0573 138.6429,19.9733 136.4589,19.9733 C133.7909,19.9733 131.4199,18.4363 131.4199,15.5803 M141.1759,14.5563 L141.1759,13.5853 C140.3409,13.2623 139.2339,13.0183 137.9409,13.0183 C135.8399,13.0183 134.5999,13.9093 134.5999,15.3913 L134.5999,15.4453 C134.5999,16.8193 135.8129,17.6013 137.3769,17.6013 C139.5309,17.6013 141.1759,16.3613 141.1759,14.5563" id="Fill-185"></path>
                    <path d="M146.1641,5.4455 L149.4241,5.4455 L149.4241,8.6525 C150.3141,6.5235 151.9591,5.0675 154.4651,5.1745 L154.4651,8.6265 L154.2771,8.6265 C151.4201,8.6265 149.4241,10.4855 149.4241,14.2585 L149.4241,19.6765 L146.1641,19.6765 L146.1641,5.4455 Z" id="Fill-187"></path>
                    <path d="M154.0078,12.6418 L154.0078,12.5878 C154.0078,8.5448 157.1348,5.1488 161.4198,5.1488 C164.0888,5.1488 165.7598,6.1458 167.1078,7.6018 L165.0588,9.7848 C164.0618,8.7328 163.0118,8.0058 161.3938,8.0058 C159.0218,8.0058 157.2698,10.0538 157.2698,12.5338 L157.2698,12.5878 C157.2698,15.1208 159.0218,17.1438 161.5288,17.1438 C163.0648,17.1438 164.1968,16.4428 165.2208,15.3908 L167.1888,17.3318 C165.7868,18.8948 164.1428,19.9998 161.3668,19.9998 C157.1348,19.9998 154.0078,16.6848 154.0078,12.6418" id="Fill-189"></path>
                    <path d="M168.1592,0.0002 L171.4202,0.0002 L171.4202,7.6292 C172.3362,6.3082 173.6582,5.1482 175.8692,5.1482 C179.0752,5.1482 180.9352,7.3052 180.9352,10.5932 L180.9352,19.6772 L177.6742,19.6772 L177.6742,11.5912 C177.6742,9.3812 176.5682,8.1132 174.6292,8.1132 C172.7422,8.1132 171.4202,9.4342 171.4202,11.6442 L171.4202,19.6772 L168.1592,19.6772 L168.1592,0.0002 Z" id="Fill-191"></path>
                </g>
            </g>
        </g>
    </g>
</svg>