<?xml version="1.0" encoding="utf-8"?>
<!-- Generator: Adobe Illustrator 19.2.1, SVG Export Plug-In . SVG Version: 6.00 Build 0)  -->
<svg version="1.1" id="Layer_1" xmlns="http://www.w3.org/2000/svg" xmlns:xlink="http://www.w3.org/1999/xlink" x="0px" y="0px"
	 viewBox="0 0 300 22.4" style="enable-background:new 0 0 300 22.4;" xml:space="preserve">
<style type="text/css">
	.st0{fill:#FFFFFF;}
</style>
<g>
	<path class="st0" d="M8.7,20.7c-1,1.1-2.5,1.7-4.4,1.7c-1.8,0-3.3-0.6-4.3-1.8l2.4-2.3c0.4,0.5,1.1,1,1.9,1c1.4,0,2.5-1,2.5-2.9
		V0.2h3.4v16.2C10.2,18.2,9.7,19.7,8.7,20.7z"/>
	<path class="st0" d="M23.2,20.5c-0.9,1.1-2.2,1.9-4.2,1.9s-3.3-0.8-4.2-1.9c-1.4-1.8-1.6-4.1-1.6-9.3s0.2-7.6,1.6-9.3
		C15.6,0.8,16.9,0,19,0s3.3,0.8,4.2,1.9c1.5,1.7,1.6,4.1,1.6,9.3S24.7,18.8,23.2,20.5z M20.6,3.9c-0.3-0.5-0.8-0.8-1.7-0.8
		s-1.3,0.3-1.6,0.8c-0.6,1-0.8,3.3-0.8,7.2s0.1,6.2,0.8,7.2c0.3,0.5,0.8,0.8,1.6,0.8s1.4-0.3,1.7-0.8c0.6-1,0.7-3.3,0.7-7.2
		S21.3,5,20.6,3.9z"/>
	<path class="st0" d="M37.4,20.8c-1,1.1-2.4,1.6-4.1,1.6c-1.6,0-3-0.5-4.1-1.6c-1-1-1.5-2.4-1.5-4V0.2h3.4v16.7c0,1.6,1,2.3,2.1,2.3
		c1.2,0,2.1-0.8,2.1-2.3V0.2h3.4v16.5C38.9,18.4,38.3,19.8,37.4,20.8z"/>
	<path class="st0" d="M50.6,22.1l-2.9-9h-1.9v9h-3.4V0.2h5.5c4,0,5.6,1.9,5.6,6.4c0,2.7-0.6,4.6-2.5,5.7l3.3,9.7H50.6z M47.9,3.3
		h-2.1V10h2.1c1.8,0,2.1-1.5,2.1-3.3S49.8,3.3,47.9,3.3z"/>
	<path class="st0" d="M65.6,22.1l-5.2-13v13H57V0.2h3.1l5.1,13v-13h3.4v21.9H65.6z"/>
	<path class="st0" d="M81.1,22.1l-0.9-4.3h-5.1l-0.9,4.3h-3.6l5.4-21.9h3.3l5.3,21.9H81.1z M77.7,5.5l-1.9,9.2h3.7L77.7,5.5z"/>
	<path class="st0" d="M86.7,22.1V0.2h3.4V19h5.7v3.1H86.7z"/>
	<path class="st0" d="M113.5,20.5c-0.9,1.1-2.2,1.9-4.2,1.9c-2,0-3.3-0.8-4.2-1.9c-1.4-1.8-1.6-4.1-1.6-9.3s0.2-7.6,1.6-9.3
		c0.9-1.1,2.2-1.9,4.2-1.9c2,0,3.3,0.8,4.2,1.9c1.5,1.7,1.6,4.1,1.6,9.3S115,18.8,113.5,20.5z M110.9,3.9c-0.3-0.5-0.8-0.8-1.7-0.8
		c-0.8,0-1.3,0.3-1.6,0.8c-0.6,1-0.8,3.3-0.8,7.2s0.1,6.2,0.8,7.2c0.3,0.5,0.8,0.8,1.6,0.8c0.8,0,1.4-0.3,1.7-0.8
		c0.6-1,0.7-3.3,0.7-7.2S111.6,5,110.9,3.9z"/>
	<path class="st0" d="M121.6,3.3v6.2h4.9v3.1h-4.9v9.5h-3.4V0.2h9.2v3.1H121.6z"/>
	<path class="st0" d="M135.7,22.1V0.2h3.4v21.9H135.7z"/>
	<path class="st0" d="M151.4,22.1l-5.2-13v13h-3.4V0.2h3.1l5.1,13v-13h3.4v21.9H151.4z"/>
	<path class="st0" d="M167.3,20.9c-0.9,0.9-2.3,1.4-4.3,1.4c-1.9,0-3.3-0.5-4.2-1.4c-1-1-1.4-2.4-1.4-4.7h3.4c0,1.2,0.1,1.9,0.6,2.5
		c0.3,0.3,0.8,0.6,1.6,0.6c0.8,0,1.3-0.2,1.7-0.6c0.5-0.5,0.6-1.3,0.6-2.4c0-2.3-0.4-2.9-2.1-3.6l-2.6-1.1c-2.2-0.9-3-2.1-3-5.5
		c0-2,0.6-3.6,1.8-4.6c1-0.8,2.2-1.3,3.7-1.3c1.8,0,3,0.5,3.9,1.3c1.1,1.1,1.5,2.7,1.5,4.8h-3.4c0-1-0.1-1.8-0.5-2.3
		c-0.3-0.4-0.8-0.6-1.5-0.6c-0.7,0-1.1,0.2-1.5,0.6C161.2,4.2,161,5,161,5.9c0,1.8,0.3,2.3,1.8,2.9l2.6,1c2.6,1.1,3.3,2.5,3.3,6.1
		C168.7,18.3,168.4,19.8,167.3,20.9z"/>
	<path class="st0" d="M171.7,22.1V0.2h9.2v3.1h-5.7v6.2h4.9v3.1h-4.9V19h5.7v3.1H171.7z"/>
	<path class="st0" d="M192.9,21c-1,0.9-2.1,1.4-3.8,1.4c-2,0-3.3-0.8-4.2-1.9c-1.4-1.7-1.6-4.1-1.6-9.3s0.2-7.6,1.6-9.3
		c0.9-1.1,2.2-1.9,4.2-1.9c1.7,0,2.9,0.5,3.8,1.4c1.1,1,1.7,2.7,1.8,4.6h-3.4c0-0.8-0.2-1.6-0.5-2.1c-0.3-0.5-0.8-0.8-1.6-0.8
		c-0.8,0-1.3,0.3-1.6,0.8c-0.7,1-0.8,3.3-0.8,7.2s0.1,6.2,0.8,7.2c0.3,0.5,0.8,0.8,1.6,0.8c0.8,0,1.3-0.3,1.6-0.8
		c0.4-0.6,0.5-1.4,0.5-2.1h3.4C194.6,18.3,194,20,192.9,21z"/>
	<path class="st0" d="M203.5,3.3v18.8h-3.4V3.3h-3.7V0.2h10.8v3.1H203.5z"/>
	<path class="st0" d="M224.3,20.9c-0.9,0.9-2.3,1.4-4.3,1.4c-1.9,0-3.3-0.5-4.2-1.4c-1-1-1.4-2.4-1.4-4.7h3.4c0,1.2,0.1,1.9,0.6,2.5
		c0.3,0.3,0.8,0.6,1.6,0.6c0.8,0,1.3-0.2,1.7-0.6c0.5-0.5,0.6-1.3,0.6-2.4c0-2.3-0.4-2.9-2.1-3.6l-2.6-1.1c-2.2-0.9-3-2.1-3-5.5
		c0-2,0.6-3.6,1.8-4.6c1-0.8,2.2-1.3,3.7-1.3c1.8,0,3,0.5,3.9,1.3c1.1,1.1,1.5,2.7,1.5,4.8h-3.4c0-1-0.1-1.8-0.5-2.3
		c-0.3-0.4-0.8-0.6-1.5-0.6c-0.7,0-1.1,0.2-1.5,0.6C218.2,4.2,218,5,218,5.9c0,1.8,0.3,2.3,1.8,2.9l2.6,1c2.6,1.1,3.3,2.5,3.3,6.1
		C225.7,18.3,225.4,19.8,224.3,20.9z"/>
	<path class="st0" d="M237.8,21c-1,0.9-2.1,1.4-3.8,1.4c-2,0-3.3-0.8-4.2-1.9c-1.4-1.7-1.6-4.1-1.6-9.3s0.2-7.6,1.6-9.3
		C230.6,0.8,232,0,234,0c1.7,0,2.9,0.5,3.8,1.4c1.1,1,1.7,2.7,1.8,4.6h-3.4c0-0.8-0.2-1.6-0.5-2.1c-0.3-0.5-0.8-0.8-1.6-0.8
		c-0.8,0-1.3,0.3-1.6,0.8c-0.7,1-0.8,3.3-0.8,7.2s0.1,6.2,0.8,7.2c0.3,0.5,0.8,0.8,1.6,0.8c0.8,0,1.3-0.3,1.6-0.8
		c0.4-0.6,0.5-1.4,0.5-2.1h3.4C239.5,18.3,238.9,20,237.8,21z"/>
	<path class="st0" d="M242.5,22.1V0.2h3.4v21.9H242.5z"/>
	<path class="st0" d="M249.6,22.1V0.2h9.2v3.1H253v6.2h4.9v3.1H253V19h5.7v3.1H249.6z"/>
	<path class="st0" d="M270.4,22.1l-5.2-13v13h-3.4V0.2h3.1l5.1,13v-13h3.4v21.9H270.4z"/>
	<path class="st0" d="M286.1,21c-1,0.9-2.1,1.4-3.8,1.4c-2,0-3.3-0.8-4.2-1.9c-1.4-1.7-1.6-4.1-1.6-9.3s0.2-7.6,1.6-9.3
		c0.9-1.1,2.2-1.9,4.2-1.9c1.7,0,2.9,0.5,3.8,1.4c1.1,1,1.7,2.7,1.8,4.6h-3.4c0-0.8-0.2-1.6-0.5-2.1c-0.3-0.5-0.8-0.8-1.6-0.8
		c-0.8,0-1.3,0.3-1.6,0.8c-0.7,1-0.8,3.3-0.8,7.2s0.1,6.2,0.8,7.2c0.3,0.5,0.8,0.8,1.6,0.8c0.8,0,1.3-0.3,1.6-0.8
		c0.4-0.6,0.5-1.4,0.5-2.1h3.4C287.9,18.3,287.2,20,286.1,21z"/>
	<path class="st0" d="M290.8,22.1V0.2h9.2v3.1h-5.7v6.2h4.9v3.1h-4.9V19h5.7v3.1H290.8z"/>
</g>
</svg>
