<?xml version="1.0" encoding="utf-8"?>
<!-- Generator: Adobe Illustrator 15.1.0, SVG Export Plug-In . SVG Version: 6.00 Build 0)  -->
<!DOCTYPE svg PUBLIC "-//W3C//DTD SVG 1.1//EN" "http://www.w3.org/Graphics/SVG/1.1/DTD/svg11.dtd">
<svg version="1.1" id="Layer_1" xmlns="http://www.w3.org/2000/svg" xmlns:xlink="http://www.w3.org/1999/xlink" x="0px" y="0px"
	 width="75.135px" height="29px" viewBox="151.699 0 75.135 29" enable-background="new 151.699 0 75.135 29" xml:space="preserve">
<path fill="#00BBFF" d="M151.699,22.882h2.936V4.348h-2.936V0h12.088c2.021,0,4.005,0.19,5.646,1.411
	c1.754,1.334,2.555,3.241,2.555,5.415c0,2.479-1.258,4.729-3.547,5.797c3.014,1.22,4.729,3.775,4.729,7.018
	c0,2.174-0.916,4.349-2.557,5.758c-1.829,1.603-3.928,1.83-6.254,1.83h-12.659V22.882z M159.821,22.689h2.859
	c1.221,0,2.709,0.039,3.774-0.687c0.991-0.647,1.526-1.831,1.526-2.976c0-1.221-0.459-2.326-1.487-3.088
	c-1.106-0.801-2.44-0.801-3.774-0.801h-2.898V22.689z M159.858,10.869h2.633c1.258,0,2.439,0.076,3.509-0.687
	c0.839-0.61,1.22-1.563,1.22-2.593c0-1.106-0.455-2.098-1.41-2.708c-0.953-0.61-2.174-0.534-3.279-0.534h-2.67v6.522H159.858z"/>
<path fill="#00BBFF" d="M194.813,21.242c-1.602,3.89-5.377,6.521-9.609,6.521c-5.95,0-10.717-4.654-10.717-10.641
	c0-6.026,4.537-10.869,10.603-10.869c2.822,0,5.646,1.259,7.628,3.279c2.021,2.136,2.86,4.729,2.86,7.627l-0.153,1.64h-16.474
	c0.608,2.822,3.2,4.882,6.101,4.882c2.021,0,3.776-0.764,4.922-2.438L194.813,21.242L194.813,21.242z M191.269,15.216
	c-0.802-2.936-3.394-4.805-6.406-4.805c-2.746,0-5.377,2.135-5.948,4.805H191.269z"/>
<path fill="#00BBFF" d="M202.239,21.316c0.152,1.832,1.373,3.053,3.279,3.053c1.412,0,2.783-0.992,2.783-2.518
	c0-2.021-1.906-2.365-3.471-2.783c-3.546-0.916-7.436-2.021-7.436-6.484c0-3.889,3.277-6.139,6.9-6.139
	c1.831,0,3.473,0.381,4.615,1.83V6.864h3.431v5.531h-4.497c-0.076-1.45-1.183-2.403-2.634-2.403c-1.258,0-2.593,0.725-2.593,2.136
	c0,1.907,1.869,2.326,3.355,2.67c3.66,0.839,7.588,1.981,7.588,6.56c0,4.119-3.47,6.408-7.283,6.408
	c-2.061,0-3.928-0.648-5.262-2.213v1.678h-3.547v-5.912h4.768v-0.002H202.239z"/>
<path fill="#00BBFF" d="M222.278,22.882h3.699v4.347h-8.353V11.212h-3.204V6.864h3.204V0h4.653v6.864h3.47v4.348h-3.47V22.882
	L222.278,22.882z"/>
</svg>
