<?xml version="1.0" encoding="utf-8"?>
<!-- Generator: Adobe Illustrator 15.1.0, SVG Export Plug-In . SVG Version: 6.00 Build 0)  -->
<!DOCTYPE svg PUBLIC "-//W3C//DTD SVG 1.1//EN" "http://www.w3.org/Graphics/SVG/1.1/DTD/svg11.dtd">
<svg version="1.1" id="Layer_1" xmlns="http://www.w3.org/2000/svg" xmlns:xlink="http://www.w3.org/1999/xlink" x="0px" y="0px"
	 width="150.327px" height="29px" viewBox="0 0 150.327 29" enable-background="new 0 0 150.327 29" xml:space="preserve">
<path fill="#FFFFFF" d="M2.975,4.348H0V0h20.326v8.199H15.14V4.652H8.161v6.979h7.894v4.004H8.161v7.246h2.975v4.348H0v-4.348h2.975
	V4.348z"/>
<path fill="#FFFFFF" d="M29.092,22.882h2.631v4.347H21.77v-4.347h2.669v-11.67h-2.631V6.864h7.284V22.882z M29.092,4.919h-4.653V0
	h4.653V4.919z"/>
<path fill="#FFFFFF" d="M35.934,11.212h-2.632V6.864h7.284v2.896c1.221-2.25,3.509-3.354,6.026-3.354
	c2.212,0,4.385,0.915,5.873,2.517c1.678,1.868,1.716,3.661,1.716,5.987v7.971h2.631v4.347h-9.915v-4.347h2.631v-6.598
	c0-1.259,0-2.556-0.801-3.661c-0.84-1.106-2.212-1.641-3.585-1.641c-1.411,0-2.86,0.572-3.699,1.717
	c-0.878,1.144-0.878,2.898-0.878,4.271v5.911h2.632v4.347h-9.916v-4.347h2.632L35.934,11.212L35.934,11.212z"/>
<path fill="#FFFFFF" d="M74.564,24.178c-1.525,2.288-3.966,3.356-6.674,3.356c-5.682,0-10.373-4.845-10.373-10.487
	c0-5.682,4.576-10.525,10.335-10.525c2.593,0,5.11,1.22,6.712,3.317V4.348h-2.669V0h7.322v22.882h2.631v4.347h-7.283L74.564,24.178
	L74.564,24.178z M74.679,16.971c0-3.354-2.784-6.103-6.102-6.103c-3.471,0-6.216,2.784-6.216,6.254c0,3.354,2.746,6.14,6.14,6.14
	C71.971,23.264,74.679,20.402,74.679,16.971z"/>
<path fill="#FFFFFF" d="M95.527,22.882h2.975v4.347H87.366v-4.347h2.975V4.614h-4.004V8.58h-4.119V0h21.432v8.58h-4.119V4.614
	h-4.004V22.882z"/>
<path fill="#FFFFFF" d="M112.268,9.915c1.296-2.288,3.469-3.507,6.102-3.507c2.363,0,4.385,1.106,5.758,2.974
	c1.525,2.06,1.68,4.042,1.68,6.483v7.018h2.631v4.348h-9.916v-4.348h2.631v-5.759c0-1.487,0.115-2.975-0.688-4.271
	c-0.839-1.297-2.212-1.869-3.699-1.869c-1.373,0-2.668,0.572-3.509,1.641c-1.03,1.258-0.992,2.555-0.992,4.08v6.179h2.631v4.347
	h-9.917v-4.347h2.631V4.348h-2.631V0h7.284v9.915H112.268z"/>
<path fill="#FFFFFF" d="M149.563,21.242c-1.604,3.89-5.377,6.521-9.609,6.521c-5.949,0-10.719-4.654-10.719-10.641
	c0-6.026,4.539-10.869,10.604-10.869c2.821,0,5.645,1.259,7.627,3.279c2.021,2.136,2.861,4.729,2.861,7.627l-0.153,1.64H133.7
	c0.609,2.822,3.203,4.882,6.102,4.882c2.021,0,3.775-0.764,4.92-2.438L149.563,21.242L149.563,21.242z M146.019,15.216
	c-0.802-2.936-3.396-4.805-6.408-4.805c-2.743,0-5.377,2.135-5.947,4.805H146.019z"/>
</svg>
