<?xml version="1.0" encoding="utf-8"?>
<!-- Generator: Adobe Illustrator 16.0.4, SVG Export Plug-In . SVG Version: 6.00 Build 0)  -->
<!DOCTYPE svg PUBLIC "-//W3C//DTD SVG 1.1//EN" "http://www.w3.org/Graphics/SVG/1.1/DTD/svg11.dtd">
<svg version="1.1" id="Layer_2" xmlns="http://www.w3.org/2000/svg" xmlns:xlink="http://www.w3.org/1999/xlink" x="0px" y="0px"
	 width="45px" height="45px" viewBox="0 0 45 45" enable-background="new 0 0 45 45" xml:space="preserve">
<g>
	<path fill="#242F4E" d="M43.372,0c0,0,5.226,19.449-3.045,35.038c-8.271,15.59-28.396,7.84-28.396,7.84s-6.463-0.157-10.997-10.53
		C-3.6,21.975,8,8.65,43.372,0z"/>
	<path fill="#838198" d="M11.638,43.459c0,0,1.021-6.15,4.9-11.809c3.88-5.657,8.658-13.201,24.138-27.714
		c0,0-13.08,7.823-28.376,29.72c-2.338,3.346-6.136,11.154-6.136,11.154S10.4,45.744,11.638,43.459z"/>
	<g>
		<path fill="#E9E8EE" d="M35.632,31.65c0-0.008,0-0.015,0-0.021l1.291-0.141l-0.257-2.385l-1.376,0.148
			c-0.19-0.654-0.46-1.277-0.795-1.857l1.048-0.769l-1.408-1.938l-1.119,0.82c-0.494-0.474-1.043-0.888-1.642-1.229l0.522-1.193
			l-2.188-0.964l-0.558,1.273c-0.633-0.153-1.295-0.233-1.976-0.233c-0.021,0-0.036,0-0.057,0l-0.146-1.295L24.6,22.136l0.154,1.379
			c-0.641,0.192-1.249,0.459-1.814,0.789l-0.766-1.054l-1.93,1.415l0.816,1.123c-0.476,0.499-0.891,1.059-1.232,1.66l-1.188-0.521
			l-0.958,2.197l1.268,0.557c-0.149,0.633-0.229,1.291-0.229,1.967c0,0.023,0,0.05,0,0.072l-1.292,0.148l0.272,2.383l1.374-0.158
			c0.192,0.645,0.46,1.258,0.792,1.828l-1.047,0.77l1.414,1.936l1.117-0.822c0.489,0.469,1.037,0.879,1.627,1.219l-0.521,1.19
			l2.188,0.964l0.557-1.273c0.632,0.154,1.291,0.232,1.969,0.232c0.023,0,0.049-0.001,0.073-0.001l0.147,1.298l2.375-0.273
			l-0.158-1.381c0.652-0.196,1.271-0.471,1.847-0.812l0.771,1.051l1.922-1.429l-0.824-1.116c0.459-0.488,0.859-1.031,1.191-1.615
			l1.189,0.521l0.959-2.194l-1.27-0.561C35.552,32.991,35.632,32.331,35.632,31.65z"/>
		<ellipse fill="#4F516E" cx="27.219" cy="31.672" rx="2.982" ry="2.992"/>
	</g>
	<g>
		<path fill="#E9E8EE" d="M31.457,14.027c0-0.005,0-0.01-0.002-0.015l0.843-0.209l-0.384-1.554l-0.896,0.223
			c-0.188-0.417-0.42-0.804-0.691-1.158l0.626-0.604l-1.104-1.155l-0.666,0.643c-0.369-0.268-0.771-0.493-1.195-0.666l0.236-0.835
			l-1.533-0.442l-0.256,0.892C26,9.104,25.557,9.109,25.107,9.169c-0.015,0.002-0.024,0.004-0.037,0.006l-0.213-0.844l-1.549,0.392
			l0.228,0.9c-0.407,0.185-0.786,0.416-1.131,0.685l-0.602-0.628l-1.15,1.109l0.642,0.669c-0.271,0.373-0.494,0.78-0.667,1.21
			l-0.834-0.238l-0.438,1.541l0.89,0.254c-0.042,0.431-0.036,0.874,0.024,1.322c0,0.016,0.004,0.032,0.006,0.048l-0.846,0.215
			l0.395,1.553l0.896-0.229c0.186,0.41,0.418,0.792,0.688,1.14l-0.624,0.604l1.106,1.151l0.666-0.646
			c0.365,0.267,0.766,0.488,1.188,0.66l-0.239,0.836l1.535,0.44l0.254-0.894c0.434,0.044,0.874,0.038,1.324-0.022
			c0.018-0.002,0.029-0.006,0.048-0.008l0.214,0.845l1.549-0.394l-0.229-0.9c0.413-0.188,0.8-0.426,1.147-0.701l0.604,0.625
			l1.144-1.116l-0.645-0.666c0.26-0.364,0.477-0.759,0.646-1.176l0.834,0.239l0.438-1.541l-0.889-0.255
			C31.523,14.92,31.518,14.477,31.457,14.027z"/>
		
			<ellipse transform="matrix(0.1346 0.9909 -0.9909 0.1346 37.0675 -12.8509)" fill="#4F516E" cx="25.891" cy="14.796" rx="2.18" ry="2.173"/>
	</g>
	<g>
		<path fill="#E9E8EE" d="M19.596,20.129c0-0.004-0.002-0.007-0.003-0.012l0.708-0.26l-0.476-1.309l-0.755,0.277
			c-0.199-0.344-0.437-0.655-0.704-0.935l0.483-0.579l-1.062-0.895l-0.517,0.618c-0.343-0.197-0.711-0.353-1.094-0.463l0.128-0.744
			l-1.366-0.237l-0.137,0.794c-0.378,0.003-0.761,0.05-1.144,0.146c-0.01,0.002-0.021,0.006-0.033,0.008l-0.261-0.709l-1.3,0.483
			l0.279,0.756c-0.334,0.197-0.64,0.432-0.914,0.697l-0.577-0.486L9.96,18.346l0.615,0.521c-0.198,0.348-0.354,0.719-0.464,1.106
			L9.37,19.846l-0.234,1.371l0.792,0.137c0.003,0.377,0.049,0.758,0.144,1.142c0.003,0.014,0.007,0.026,0.011,0.04l-0.706,0.264
			l0.484,1.304l0.751-0.281c0.198,0.336,0.434,0.645,0.7,0.92l-0.483,0.58l1.064,0.892l0.515-0.62
			c0.341,0.194,0.705,0.35,1.087,0.458l-0.129,0.745l1.366,0.236l0.137-0.795c0.376-0.002,0.758-0.051,1.141-0.146
			c0.014-0.003,0.027-0.007,0.041-0.011l0.263,0.709l1.298-0.483l-0.28-0.757c0.34-0.202,0.65-0.44,0.927-0.714l0.58,0.48
			l0.885-1.07l-0.619-0.516c0.189-0.34,0.342-0.701,0.447-1.076l0.742,0.128l0.234-1.371l-0.793-0.14
			C19.737,20.895,19.69,20.511,19.596,20.129z"/>
		<path fill="#4F516E" d="M16.691,20.862c0.25,1.014-0.367,2.041-1.379,2.291c-1.011,0.252-2.033-0.368-2.284-1.382
			c-0.249-1.016,0.369-2.041,1.379-2.291C15.419,19.227,16.441,19.846,16.691,20.862z"/>
	</g>
</g>
</svg>
