<?xml version="1.0" encoding="utf-8"?>
<!-- Generator: Adobe Illustrator 16.0.4, SVG Export Plug-In . SVG Version: 6.00 Build 0)  -->
<!DOCTYPE svg PUBLIC "-//W3C//DTD SVG 1.1//EN" "http://www.w3.org/Graphics/SVG/1.1/DTD/svg11.dtd">
<svg version="1.1" id="Layer_1" xmlns="http://www.w3.org/2000/svg" xmlns:xlink="http://www.w3.org/1999/xlink" x="0px" y="0px"
	 width="63.292px" height="63.379px" viewBox="0 0 63.292 63.379" enable-background="new 0 0 63.292 63.379" xml:space="preserve">
<g id="Background">
</g>
<g id="Guides">
</g>
<g id="Foreground">
	<g>
		<g>
			<path fill="#FF7F00" d="M31.602,0C22.92,0,15.28,3.213,9.376,9.203C3.299,15.368,0,23.355,0,31.69
				c0,8.421,3.212,16.235,9.29,22.313c6.077,6.077,13.978,9.376,22.312,9.376s16.409-3.299,22.66-9.463
				c5.903-5.816,9.028-13.544,9.028-22.226c0-8.595-3.125-16.409-9.115-22.4C48.098,3.213,40.285,0,31.602,0z"/>
		</g>
	</g>
	<g>
		<g>
			<path fill="#FFFFFF" d="M31.522,39.061c-1.743,0-3.147-0.875-3.853-2.402c-0.455-0.985-0.76-2.338-0.935-4.137l-0.796-11.915
				c-0.151-2.35-0.228-4.071-0.228-5.119c0-1.939,0.562-3.522,1.669-4.706c1.13-1.208,2.665-1.847,4.438-1.847
				c3.046,0,4.328,1.695,4.822,2.706c0.632,1.3,0.938,3.002,0.938,5.207c0,1.158-0.062,2.349-0.185,3.54l-1.06,12.162
				c-0.137,1.73-0.451,3.08-0.957,4.115C34.623,38.21,33.253,39.061,31.522,39.061z"/>
		</g>
		<g>
			<path fill="#FFFFFF" d="M31.67,54.443c-1.546,0-2.918-0.51-4.077-1.518c-1.231-1.068-1.882-2.588-1.882-4.395
				c0-1.598,0.595-3.038,1.719-4.163c1.126-1.125,2.575-1.722,4.19-1.722c1.605,0,3.055,0.588,4.196,1.701
				c1.154,1.131,1.764,2.577,1.764,4.184c0,1.781-0.641,3.291-1.853,4.365C34.574,53.924,33.208,54.443,31.67,54.443z"/>
		</g>
	</g>
</g>
</svg>
