<?xml version="1.0" encoding="utf-8"?>
<!-- Generator: Adobe Illustrator 16.0.4, SVG Export Plug-In . SVG Version: 6.00 Build 0)  -->
<!DOCTYPE svg PUBLIC "-//W3C//DTD SVG 1.1//EN" "http://www.w3.org/Graphics/SVG/1.1/DTD/svg11.dtd">
<svg version="1.1" id="Layer_1" xmlns="http://www.w3.org/2000/svg" xmlns:xlink="http://www.w3.org/1999/xlink" x="0px" y="0px"
	 width="81px" height="129.047px" viewBox="0 0 81 129.047" enable-background="new 0 0 81 129.047" xml:space="preserve">
<path id="path2424_1_" fill="#309163" d="M16.621,10.064l-3.324,3.325l9.747,9.746l3.324-3.324c8.046-8.045,21.138-8.045,29.184,0
	c8.045,8.045,8.045,21.137-0.002,29.184L31.506,73.038l9.748,9.748l24.045-24.045c13.419-13.42,13.419-35.257,0-48.676
	C51.879-3.355,30.041-3.355,16.621,10.064"/>
<g>
	<path fill="#309163" d="M81,109.047c0,11.046-8.954,20-20,20H20c-11.046,0-20-8.954-20-20v-41c0-11.046,8.954-20,20-20h41
		c11.046,0,20,8.954,20,20V109.047z"/>
</g>
<path id="path2426_1_" fill="#FFFFFF" d="M52.533,88.312c0,6.279-5.091,11.37-11.372,11.37c-6.28,0-11.372-5.091-11.372-11.37
	c0-6.282,5.092-11.374,11.372-11.374C47.442,76.938,52.533,82.03,52.533,88.312"/>
</svg>
