<?xml version="1.0" encoding="utf-8"?>
<!-- Generator: Adobe Illustrator 16.0.4, SVG Export Plug-In . SVG Version: 6.00 Build 0)  -->
<!DOCTYPE svg PUBLIC "-//W3C//DTD SVG 1.1//EN" "http://www.w3.org/Graphics/SVG/1.1/DTD/svg11.dtd">
<svg version="1.1" xmlns="http://www.w3.org/2000/svg" xmlns:xlink="http://www.w3.org/1999/xlink" x="0px" y="0px"
	 width="63.292px" height="63.379px" viewBox="0 0 63.292 63.379" enable-background="new 0 0 63.292 63.379" xml:space="preserve">
<g id="Background">
</g>
<g id="Guides">
</g>
<g id="Foreground">
	<g>
		<g>
			<path fill-rule="evenodd" clip-rule="evenodd" fill="#565555" d="M31.602,0C22.92,0,15.28,3.213,9.376,9.203
				C3.299,15.368,0,23.355,0,31.69c0,8.421,3.212,16.235,9.29,22.313c6.077,6.077,13.978,9.376,22.312,9.376
				s16.409-3.299,22.66-9.463c5.904-5.817,9.029-13.544,9.029-22.226c0-8.595-3.125-16.409-9.116-22.4
				C48.098,3.213,40.284,0,31.602,0z M31.689,5.73c7.119,0,13.457,2.691,18.406,7.64c4.861,4.862,7.466,11.287,7.466,18.319
				c0,7.119-2.518,13.37-7.38,18.146c-5.123,5.035-11.721,7.727-18.493,7.727c-6.859,0-13.284-2.691-18.232-7.64
				c-4.949-4.95-7.727-11.461-7.727-18.233c0-6.859,2.778-13.37,7.727-18.406C18.318,8.335,24.57,5.73,31.689,5.73z"/>
			<g>
				<path fill-rule="evenodd" clip-rule="evenodd" fill="#565555" d="M45.387,23.133c-2.909-5.305-7.871-7.415-13.632-7.415
					c-8.385,0-15.059,5.932-15.059,15.972c0,10.21,6.274,15.971,15.345,15.971c5.818,0,10.781-3.195,13.519-8.042l-6.389-3.251
					c-1.427,3.422-3.594,4.449-6.332,4.449c-4.735,0-6.902-3.936-6.902-9.126c0-5.191,1.825-9.127,6.902-9.127
					c1.369,0,4.106,0.742,5.704,4.164L45.387,23.133z"/>
			</g>
		</g>
	</g>
</g>
</svg>
