<?xml version="1.0" encoding="utf-8"?>
<!-- Generator: Adobe Illustrator 16.0.4, SVG Export Plug-In . SVG Version: 6.00 Build 0)  -->
<!DOCTYPE svg PUBLIC "-//W3C//DTD SVG 1.1//EN" "http://www.w3.org/Graphics/SVG/1.1/DTD/svg11.dtd">
<svg version="1.1" id="Layer_1" xmlns="http://www.w3.org/2000/svg" xmlns:xlink="http://www.w3.org/1999/xlink" x="0px" y="0px"
	 width="19.993px" height="12.806px" viewBox="6.004 9.596 19.993 12.806" enable-background="new 6.004 9.596 19.993 12.806"
	 xml:space="preserve">
<g>
	<path fill="#37589A" d="M7.175,9.596c-0.312,0-0.507,0.026-0.585,0.078C6.512,9.726,6.499,9.785,6.551,9.85
		c0.052,0.065,0.182,0.176,0.39,0.332c0.104,0.078,0.182,0.145,0.234,0.195L16,17.094l8.824-6.678l0.194-0.195
		c0.209-0.156,0.347-0.267,0.41-0.332c0.063-0.063,0.059-0.13-0.021-0.195c-0.08-0.063-0.272-0.098-0.587-0.098h-9.409H7.175z"/>
	<path fill="#37589A" d="M6.004,11.158v9.918c0,0.284,0.117,0.579,0.352,0.879c0.234,0.299,0.468,0.446,0.703,0.446h17.882
		c0.233,0,0.47-0.147,0.703-0.446c0.233-0.3,0.353-0.595,0.353-0.879v-9.918L16,18.812L6.004,11.158z"/>
</g>
</svg>
