<?xml version="1.0" encoding="utf-8"?>
<!-- Generator: Adobe Illustrator 16.0.4, SVG Export Plug-In . SVG Version: 6.00 Build 0)  -->
<!DOCTYPE svg PUBLIC "-//W3C//DTD SVG 1.1//EN" "http://www.w3.org/Graphics/SVG/1.1/DTD/svg11.dtd">
<svg version="1.1" id="Layer_1" xmlns="http://www.w3.org/2000/svg" xmlns:xlink="http://www.w3.org/1999/xlink" x="0px" y="0px"
	 width="53.75px" height="32px" viewBox="48.5 -99.5 53.75 32" enable-background="new 48.5 -99.5 53.75 32" xml:space="preserve">
<path fill="#37589A" d="M64.5-99.5c-8.836,0-16,7.164-16,16c0,8.837,7.164,16,16,16c8.837,0,16-7.162,16-16
	C80.5-92.336,73.337-99.5,64.5-99.5z M67.928-83.494h-2.242c0,3.582,0,7.994,0,7.994h-3.322c0,0,0-4.367,0-7.994h-1.579v-2.824
	h1.579v-1.828c0-1.309,0.621-3.354,3.354-3.354l2.461,0.01v2.742c0,0-1.496,0-1.785,0c-0.291,0-0.705,0.145-0.705,0.77v1.66h2.533
	L67.928-83.494z"/>
<circle fill="#FFFFFF" cx="86.875" cy="-82.875" r="11.125"/>
<path fill="#38A8E0" d="M86.25-99.5c-8.836,0-16,7.164-16,16c0,8.837,7.164,16,16,16s16-7.162,16-16
	C102.25-92.336,95.086-99.5,86.25-99.5z M92.611-86.762c0.008,0.141,0.011,0.281,0.011,0.424c0,4.337-3.302,9.339-9.34,9.339
	c-1.854,0-3.579-0.543-5.032-1.476c0.258,0.029,0.52,0.045,0.783,0.045c1.539,0,2.953-0.522,4.076-1.403
	c-1.437-0.026-2.648-0.978-3.065-2.278c0.2,0.036,0.405,0.059,0.617,0.059c0.3,0,0.59-0.041,0.864-0.115
	c-1.5-0.302-2.633-1.628-2.633-3.218c0-0.014,0-0.027,0-0.041c0.442,0.246,0.948,0.393,1.486,0.41
	c-0.881-0.588-1.46-1.594-1.46-2.732c0-0.602,0.162-1.166,0.444-1.65c1.617,1.986,4.037,3.293,6.766,3.43
	c-0.056-0.24-0.085-0.49-0.085-0.748c0-1.812,1.47-3.281,3.283-3.281c0.942,0,1.797,0.398,2.396,1.035
	c0.748-0.146,1.45-0.42,2.086-0.797c-0.246,0.768-0.767,1.41-1.443,1.816c0.664-0.078,1.297-0.256,1.885-0.516
	C93.811-87.803,93.254-87.225,92.611-86.762z"/>
</svg>
