<?xml version="1.0" encoding="utf-8"?>
<!-- Generator: Adobe Illustrator 16.0.4, SVG Export Plug-In . SVG Version: 6.00 Build 0)  -->
<!DOCTYPE svg PUBLIC "-//W3C//DTD SVG 1.1//EN" "http://www.w3.org/Graphics/SVG/1.1/DTD/svg11.dtd">
<svg version="1.1" id="Layer_1" xmlns="http://www.w3.org/2000/svg" xmlns:xlink="http://www.w3.org/1999/xlink" x="0px" y="0px"
	 width="233.007px" height="39.5px" viewBox="-28.312 -10.884 233.007 39.5" enable-background="new -28.312 -10.884 233.007 39.5"
	 xml:space="preserve">
<g>
	<path fill="#002147" d="M-18.008-9.271c3.25,0,5.826,1.008,7.729,3.023c1.703,1.789,2.555,4.095,2.555,6.919
		c0,3.094-1.121,5.557-3.364,7.388c-1.888,1.533-4.194,2.299-6.919,2.299c-3.25,0-5.833-1.008-7.75-3.023
		c-1.703-1.802-2.555-4.094-2.555-6.876c0-3.137,1.121-5.613,3.364-7.43C-23.061-8.504-20.747-9.271-18.008-9.271z M-22.33,25.432
		c-1.149,0-1.958-0.228-2.427-0.682c-0.37-0.354-0.596-0.901-0.682-1.64c-0.028-0.227-0.064-0.639-0.106-1.234
		c-0.042-0.439-0.078-0.78-0.106-1.022c-0.099-1.121-0.305-1.83-0.617-2.129c-0.156-0.17-0.504-0.276-1.043-0.319v-0.213
		c1.277,0,2.221-0.014,2.832-0.042c0.114,2.2,0.234,3.882,0.362,5.046c0.127,1.078,0.794,1.617,2.001,1.617
		c0.667,0,1.185-0.191,1.554-0.574c0.369-0.341,0.603-1.121,0.703-2.342c0.057-0.554,0.085-1.107,0.085-1.661
		c0-1.149-0.447-1.76-1.341-1.831v-0.213h3.662v0.213c-0.653,0.043-1.114,0.291-1.384,0.745c-0.199,0.312-0.362,1.2-0.49,2.661
		c-0.114,1.292-0.348,2.187-0.703,2.683C-20.484,25.12-21.251,25.432-22.33,25.432z M-17.752,9.486c2.285,0,3.988-0.943,5.109-2.832
		c0.894-1.504,1.341-3.484,1.341-5.94c0-3.165-0.859-5.585-2.576-7.26c-1.277-1.235-2.746-1.852-4.407-1.852
		c-2.299,0-4.003,0.937-5.11,2.81c-0.894,1.49-1.341,3.478-1.341,5.961c0,3.165,0.859,5.585,2.576,7.26
		C-20.896,8.868-19.427,9.486-17.752,9.486z M-16.667,18.193h2.299c0.312,0.511,1.143,1.441,2.491,2.789
		c0.099,0.1,0.532,0.54,1.298,1.32c0.412,0.426,0.71,0.745,0.895,0.958v-1.98c0-1.263-0.114-2.058-0.341-2.384
		c-0.241-0.27-0.752-0.433-1.533-0.49v-0.213h3.705v0.213c-0.469,0.058-0.788,0.191-0.958,0.404
		c-0.27,0.256-0.404,1.548-0.404,3.875l0.042,2.491h-0.34c-0.795-0.895-1.774-1.93-2.938-3.108
		c-0.682-0.682-1.377-1.419-2.086-2.214v1.49c0,1.774,0.12,2.803,0.362,3.087c0.227,0.312,0.731,0.489,1.511,0.532v0.213h-3.832
		v-0.213c0.539-0.057,0.922-0.22,1.15-0.489c0.227-0.312,0.34-1.42,0.34-3.321c0-1.036-0.028-1.633-0.085-1.789
		c-0.426-0.524-0.951-0.844-1.576-0.958V18.193z M30.683-4.694h-0.553c-0.114-1.235-0.696-2.086-1.746-2.555
		c-0.781-0.354-1.93-0.532-3.449-0.532h-2.491v7.366h2.001c1.49,0,2.583-0.056,3.279-0.17v4.3h-0.575
		c-0.042-1.178-0.255-1.958-0.639-2.342S25.438,0.8,24.445,0.8c-0.923,0-1.59,0.014-2.001,0.042v4.939
		c0,1.462,0.284,2.384,0.852,2.768c0.397,0.27,1.277,0.447,2.64,0.532v0.617H7.838L2.835,1.843C2.282,2.51,1.572,3.496,0.707,4.802
		C-0.202,6.179-0.656,7.13-0.656,7.655c0,0.795,0.681,1.27,2.044,1.426v0.617h-7.941V9.081c1.604-0.099,2.846-0.525,3.726-1.277
		c0.482-0.412,1.235-1.334,2.256-2.768l2.832-4.002l-3.002-4.939c-1.618-2.626-3.513-3.988-5.685-4.088v-0.617h6.025l4.62,7.196
		c0.142-0.199,0.433-0.631,0.873-1.299C6.426-4.7,7.093-6.056,7.093-6.78c0-0.667-0.653-1.071-1.958-1.213v-0.617h7.622v0.617
		c-1.533,0.128-2.775,0.575-3.726,1.341c-0.653,0.54-1.398,1.455-2.235,2.747L4.709-0.712l3.917,6.089
		c1.604,2.47,3.307,3.705,5.109,3.705c1.973,0,3.356-0.206,4.151-0.618c1.093-0.553,1.64-1.582,1.64-3.087V-4.651
		c0-1.391-0.255-2.292-0.767-2.704c-0.426-0.341-1.263-0.554-2.512-0.639v-0.617h14.179L30.683-4.694z M-2.402,24.964v0.213h-4.109
		v-0.213c0.582-0.1,0.951-0.248,1.107-0.447c0.255-0.298,0.383-0.852,0.383-1.66v-2.172c0-1.021-0.114-1.646-0.341-1.874
		c-0.227-0.184-0.61-0.319-1.15-0.404v-0.213h4.109v0.213c-0.54,0.085-0.923,0.221-1.15,0.404c-0.227,0.228-0.34,0.81-0.34,1.746
		v2.087c0,0.979,0.113,1.604,0.34,1.873C-3.353,24.772-2.97,24.921-2.402,24.964z M5.752,18.853
		c-0.255,0.241-0.738,1.129-1.448,2.661c-1.05,2.342-1.661,3.705-1.831,4.088H2.431c-0.042-0.1-0.34-0.767-0.894-2.001
		c-0.312-0.71-0.582-1.334-0.809-1.874c-0.114-0.255-0.284-0.639-0.511-1.149c-0.213-0.454-0.362-0.78-0.447-0.979
		c-0.298-0.681-0.781-1.078-1.448-1.192v-0.213h3.854v0.213c-0.767,0.1-1.149,0.319-1.149,0.66c0,0.171,0.262,0.895,0.788,2.172
		c0.383,0.88,0.745,1.668,1.086,2.363c0.312-0.682,0.631-1.427,0.958-2.235c0.525-1.264,0.788-2.016,0.788-2.257
		c0-0.341-0.404-0.575-1.213-0.703v-0.213h3.215v0.213C6.234,18.52,5.937,18.669,5.752,18.853z M12.629,20.28v2.768h-0.213
		c-0.057-0.482-0.164-0.795-0.319-0.937c-0.157-0.142-0.433-0.213-0.831-0.213h-1.128v0.915c0,0.88,0.064,1.427,0.192,1.64
		c0.17,0.255,0.546,0.383,1.128,0.383c1.135,0,1.916-0.73,2.342-2.192l0.234,0.042c-0.199,0.966-0.404,1.796-0.617,2.491H7.519
		v-0.213c0.639-0.085,1.036-0.234,1.192-0.447c0.17-0.298,0.255-0.852,0.255-1.66v-2.619c0-0.724-0.106-1.199-0.319-1.427
		c-0.185-0.198-0.561-0.333-1.128-0.404v-0.213h5.94v1.916h-0.213c-0.17-1.05-0.93-1.575-2.278-1.575h-0.831v2.746
		c0.085,0,0.298-0.007,0.639-0.021c0.767-0.015,1.207-0.064,1.32-0.149c0.113-0.071,0.22-0.348,0.319-0.83H12.629z M22.571,25.177
		c-0.497,0-0.894-0.071-1.192-0.213c-0.397-0.198-0.873-0.652-1.426-1.362c-0.142-0.199-0.547-0.88-1.214-2.044
		c0.951-0.241,1.427-0.752,1.427-1.533c0-0.979-0.71-1.497-2.129-1.554v4.534c0,0.823,0.12,1.349,0.362,1.576
		c0.199,0.185,0.631,0.312,1.299,0.383v0.213h-4.194v-0.213c0.61-0.1,1-0.263,1.171-0.489c0.156-0.199,0.234-0.561,0.234-1.086
		v-3.151c0-0.752-0.106-1.234-0.319-1.447c-0.17-0.171-0.547-0.299-1.128-0.384v-0.213c0.667-0.028,1.653-0.042,2.959-0.042
		c2.129,0,3.194,0.596,3.194,1.788c0,0.752-0.497,1.32-1.49,1.703c0.227,0.454,0.561,0.979,1,1.575
		c0.852,1.008,1.653,1.59,2.406,1.746v0.213H22.571z M26.808,25.346c-0.61,0-1.292-0.191-2.044-0.574v-2.215h0.213
		c0.27,1.633,0.922,2.449,1.958,2.449c0.852,0,1.277-0.426,1.277-1.277c0-0.568-0.54-1.101-1.618-1.598
		c-1.221-0.581-1.831-1.27-1.831-2.064c0-0.667,0.305-1.199,0.916-1.597c0.468-0.299,1.007-0.447,1.618-0.447
		c0.568,0,1.121,0.148,1.661,0.447l-0.042,1.873h-0.234c-0.312-1.291-0.852-1.938-1.618-1.938c-0.327,0-0.604,0.128-0.831,0.384
		c-0.199,0.213-0.298,0.461-0.298,0.745c0,0.61,0.582,1.178,1.746,1.703c1.164,0.596,1.746,1.284,1.746,2.065
		c0,0.709-0.312,1.249-0.937,1.617C28.021,25.205,27.46,25.346,26.808,25.346z M35.047,24.964v0.213h-4.109v-0.213
		c0.582-0.1,0.944-0.248,1.086-0.447c0.27-0.298,0.405-0.852,0.405-1.66v-2.172c0-1.021-0.114-1.646-0.341-1.874
		c-0.242-0.184-0.625-0.319-1.15-0.404v-0.213h4.109v0.213c-0.554,0.1-0.937,0.234-1.15,0.404c-0.227,0.228-0.341,0.81-0.341,1.746
		v2.087c0,0.979,0.114,1.604,0.341,1.873C34.096,24.772,34.479,24.921,35.047,24.964z M42.797-9.271c3.264,0,5.847,1.008,7.75,3.023
		c1.703,1.789,2.555,4.095,2.555,6.919c0,3.094-1.121,5.557-3.364,7.388c-1.888,1.533-4.202,2.299-6.94,2.299
		c-3.236,0-5.812-1.008-7.729-3.023c-1.703-1.802-2.555-4.094-2.555-6.876c0-3.137,1.121-5.613,3.364-7.43
		C37.765-8.504,40.072-9.271,42.797-9.271z M43.031,9.486c2.313,0,4.031-0.943,5.152-2.832c0.894-1.504,1.341-3.484,1.341-5.94
		c0-3.165-0.866-5.585-2.597-7.26c-1.264-1.235-2.726-1.852-4.386-1.852c-2.299,0-4.003,0.937-5.11,2.81
		c-0.894,1.49-1.341,3.478-1.341,5.961c0,3.165,0.852,5.585,2.555,7.26C39.908,8.868,41.37,9.486,43.031,9.486z M40.37,18.662v3.981
		c0,1.021,0.113,1.646,0.341,1.873c0.198,0.199,0.596,0.348,1.192,0.447v0.213h-4.194v-0.213c0.539-0.1,0.908-0.248,1.107-0.447
		c0.255-0.227,0.383-0.937,0.383-2.129v-3.726c-1.093,0.028-1.732,0.1-1.916,0.213c-0.298,0.199-0.519,0.71-0.66,1.533l-0.298-0.043
		c0.113-0.923,0.184-1.661,0.213-2.214c0.922,0.057,1.682,0.085,2.278,0.085h1.938c1.05,0,1.824-0.028,2.321-0.085v0.298
		c0,0.255,0.021,0.596,0.063,1.021c0.028,0.483,0.05,0.781,0.064,0.895h-0.255c-0.17-0.837-0.433-1.341-0.788-1.512
		c-0.228-0.128-0.738-0.191-1.533-0.191H40.37z M49.993,19.811c-0.042,0.1-0.121,0.249-0.234,0.447
		c-0.128,0.284-0.22,0.482-0.277,0.596c-0.497,0.979-0.745,1.505-0.745,1.576v0.958c0,0.539,0.092,0.908,0.277,1.106
		c0.213,0.228,0.617,0.384,1.213,0.469v0.213H45.99v-0.213c0.667-0.085,1.093-0.27,1.277-0.554c0.128-0.185,0.192-0.511,0.192-0.979
		v-0.915c-0.355-0.724-0.731-1.377-1.128-1.959c-0.667-1.078-1.143-1.71-1.427-1.895c-0.185-0.1-0.476-0.185-0.873-0.256v-0.213
		h3.577v0.213c-0.554,0.143-0.831,0.334-0.831,0.575c0,0.228,0.234,0.674,0.703,1.341c0.114,0.199,0.298,0.49,0.554,0.873
		c0.184,0.284,0.305,0.476,0.362,0.575c0.27-0.397,0.525-0.866,0.767-1.405c0.326-0.624,0.49-1.086,0.49-1.384
		c0-0.256-0.249-0.447-0.745-0.575v-0.213h2.874v0.213C50.986,18.549,50.39,19.016,49.993,19.811z M57.508,9.698v-14.69
		c0-1.277-0.206-2.122-0.618-2.534c-0.298-0.27-0.88-0.426-1.746-0.468v-0.532c1.944-0.057,4.272-0.085,6.983-0.085
		c5.053,0,7.58,1.44,7.58,4.322c0,1.306-0.54,2.427-1.618,3.364c-0.795,0.695-1.796,1.213-3.002,1.554l0.532,0.617
		c1.15,1.349,2.193,2.505,3.13,3.47c2.853,2.91,4.96,4.365,6.323,4.365c1.292,0,2.186-0.291,2.683-0.873
		c0.454-0.511,0.682-1.32,0.682-2.427v-9.815c0-1.519-0.242-2.534-0.724-3.044c-0.455-0.468-1.334-0.773-2.64-0.916v-0.532
		l6.046-0.085h1.618c8.487,0,12.731,3.052,12.731,9.154c0,2.044-0.731,3.889-2.193,5.536c-1.235,1.377-2.753,2.363-4.556,2.959
		c-1.263,0.44-3.052,0.66-5.365,0.66h-8.58c-1.519,0-2.626-0.099-3.321-0.298c-0.667-0.185-1.498-0.582-2.491-1.192
		c-1.391-0.852-2.626-1.88-3.705-3.087c-0.71-0.795-1.916-2.321-3.619-4.578c1.448-0.227,2.625-0.794,3.534-1.703
		c0.809-0.809,1.214-1.682,1.214-2.619c0-0.979-0.348-1.816-1.043-2.512c-1.036-1.05-2.526-1.575-4.471-1.575h-0.405V5.866
		c0,1.391,0.319,2.278,0.958,2.661c0.383,0.228,1.284,0.412,2.704,0.554v0.617H57.508z M58.85,22.515V21.11
		c0-1.405-0.149-2.2-0.447-2.385c-0.213-0.142-0.561-0.248-1.043-0.319v-0.213l2.959-0.042c0.951,0,1.753,0.148,2.406,0.446
		c0.781,0.341,1.171,0.845,1.171,1.512c0,1.363-1.015,2.108-3.044,2.235v-0.276c0.653-0.099,1.093-0.263,1.32-0.489
		c0.241-0.241,0.362-0.639,0.362-1.192c0-1.221-0.852-1.859-2.555-1.916v4.534c0,0.852,0.12,1.384,0.362,1.597
		c0.184,0.171,0.617,0.291,1.299,0.362v0.213h-4.279v-0.213c0.681-0.1,1.1-0.291,1.256-0.575
		C58.771,24.105,58.85,23.48,58.85,22.515z M72.284,25.177c-0.497,0-0.895-0.071-1.192-0.213c-0.397-0.198-0.873-0.652-1.426-1.362
		c-0.142-0.199-0.547-0.88-1.214-2.044c0.951-0.241,1.427-0.752,1.427-1.533c0-0.979-0.71-1.497-2.129-1.554v4.534
		c0,0.823,0.121,1.349,0.362,1.576c0.198,0.185,0.631,0.312,1.298,0.383v0.213h-4.194v-0.213c0.61-0.1,1-0.263,1.171-0.489
		c0.156-0.199,0.234-0.561,0.234-1.086v-3.151c0-0.752-0.106-1.234-0.319-1.447c-0.17-0.171-0.546-0.299-1.128-0.384v-0.213
		c0.667-0.028,1.653-0.042,2.959-0.042c2.129,0,3.193,0.596,3.193,1.788c0,0.752-0.497,1.32-1.49,1.703
		c0.227,0.454,0.561,0.979,1.001,1.575c0.852,1.008,1.653,1.59,2.406,1.746v0.213H72.284z M79.203,20.28v2.768h-0.255
		c-0.057-0.497-0.149-0.81-0.277-0.937c-0.142-0.142-0.412-0.213-0.809-0.213h-1.128v0.915c0,0.88,0.064,1.427,0.192,1.64
		c0.156,0.255,0.511,0.383,1.064,0.383c1.107,0,1.909-0.73,2.406-2.192l0.213,0.042c-0.213,1.064-0.433,1.896-0.66,2.491h-5.833
		v-0.213c0.639-0.085,1.036-0.234,1.192-0.447c0.142-0.241,0.213-0.795,0.213-1.66v-2.619c0-0.737-0.1-1.213-0.298-1.427
		c-0.185-0.198-0.554-0.333-1.107-0.404v-0.213h5.876v1.916h-0.213c-0.114-0.667-0.383-1.113-0.809-1.341
		c-0.298-0.156-0.767-0.234-1.405-0.234h-0.831v2.746c0.071,0,0.277-0.007,0.618-0.021c0.767-0.015,1.213-0.064,1.341-0.149
		c0.17-0.128,0.255-0.404,0.255-0.83H79.203z M82.694-7.738c-0.284,0-0.703,0.029-1.256,0.085V5.994
		c0,1.207,0.277,2.008,0.831,2.406c0.44,0.312,1.206,0.468,2.299,0.468c2.455,0,4.35-0.873,5.685-2.619
		c1.093-1.434,1.639-3.236,1.639-5.408c0-2.867-0.979-5.074-2.938-6.621C87.321-7.085,85.235-7.738,82.694-7.738z M84.483,25.346
		c-0.611,0-1.292-0.191-2.044-0.574v-2.215h0.213c0.27,1.633,0.922,2.449,1.958,2.449c0.852,0,1.277-0.426,1.277-1.277
		c0-0.568-0.54-1.101-1.618-1.598c-1.221-0.581-1.831-1.27-1.831-2.064c0-0.667,0.298-1.199,0.894-1.597
		c0.468-0.299,1.015-0.447,1.639-0.447c0.568,0,1.121,0.148,1.661,0.447l-0.042,1.873h-0.234c-0.312-1.291-0.852-1.938-1.618-1.938
		c-0.327,0-0.604,0.128-0.831,0.384c-0.199,0.213-0.298,0.461-0.298,0.745c0,0.61,0.582,1.178,1.746,1.703
		c1.164,0.582,1.746,1.271,1.746,2.065c0,0.709-0.312,1.249-0.937,1.617C85.696,25.205,85.135,25.346,84.483,25.346z M90.976,25.346
		c-0.61,0-1.292-0.191-2.044-0.574v-2.215h0.213c0.27,1.633,0.93,2.449,1.98,2.449c0.837,0,1.256-0.426,1.256-1.277
		c0-0.568-0.54-1.101-1.618-1.598c-1.221-0.581-1.831-1.27-1.831-2.064c0-0.667,0.298-1.199,0.895-1.597
		c0.468-0.299,1.015-0.447,1.639-0.447c0.567,0,1.121,0.148,1.661,0.447l-0.064,1.873H92.85c-0.327-1.291-0.866-1.938-1.618-1.938
		c-0.327,0-0.603,0.128-0.83,0.384c-0.199,0.213-0.298,0.461-0.298,0.745c0,0.61,0.582,1.178,1.746,1.703
		c1.164,0.582,1.746,1.271,1.746,2.065c0,0.709-0.312,1.249-0.937,1.617C92.189,25.205,91.629,25.346,90.976,25.346z"/>
</g>
<g>
	<path fill="#58595B" d="M137.579-6.677V5.694c0,0.743-0.093,1.374-0.278,1.892c-0.187,0.519-0.49,0.989-0.913,1.412
		c-0.409,0.422-0.852,0.723-1.325,0.903c-0.474,0.179-1.069,0.269-1.786,0.269c-0.563,0-1.012-0.038-1.345-0.115V8.075h1.363
		l0.635,1.287c0.358-0.026,0.649-0.125,0.874-0.297c0.224-0.173,0.399-0.384,0.527-0.633c0.128-0.25,0.218-0.528,0.27-0.835
		c0.051-0.307,0.077-0.614,0.077-0.921V-6.678l-1.69-0.691v-0.499h5.302v0.5L137.579-6.677z"/>
	<path fill="#58595B" d="M149.449,0.68c0,0.705-0.115,1.371-0.346,1.998s-0.557,1.178-0.979,1.652
		c-0.423,0.474-0.929,0.852-1.518,1.133s-1.249,0.422-1.979,0.422c-0.679,0-1.297-0.118-1.854-0.355
		c-0.558-0.237-1.038-0.57-1.441-0.999c-0.403-0.429-0.717-0.941-0.941-1.537c-0.224-0.596-0.336-1.258-0.336-1.988
		c0-0.743,0.108-1.434,0.327-2.075c0.217-0.64,0.531-1.194,0.94-1.662c0.41-0.467,0.916-0.833,1.518-1.095
		c0.603-0.263,1.287-0.394,2.056-0.394c0.717,0,1.357,0.125,1.921,0.375c0.563,0.25,1.041,0.596,1.432,1.038
		c0.391,0.441,0.688,0.96,0.893,1.556C149.347-0.655,149.449-0.011,149.449,0.68z M147.452,1.083c0-0.461-0.038-0.947-0.115-1.46
		c-0.076-0.512-0.214-0.986-0.413-1.421c-0.198-0.435-0.479-0.797-0.845-1.085s-0.836-0.432-1.412-0.432
		c-0.845,0-1.492,0.349-1.94,1.047c-0.448,0.698-0.672,1.7-0.672,3.006c0,0.448,0.038,0.922,0.115,1.421s0.221,0.958,0.433,1.374
		c0.211,0.417,0.496,0.762,0.854,1.038s0.819,0.413,1.383,0.413c0.525,0,0.957-0.122,1.297-0.365
		c0.339-0.243,0.605-0.557,0.797-0.941c0.192-0.384,0.327-0.807,0.403-1.268C147.414,1.948,147.452,1.506,147.452,1.083z"/>
	<path fill="#58595B" d="M158.017,5.866V4.791l-1.402,0.557c-0.346,0.141-0.65,0.25-0.913,0.327
		c-0.263,0.077-0.566,0.115-0.912,0.115c-0.333,0-0.701-0.051-1.104-0.154s-0.721-0.262-0.951-0.48
		c-0.551-0.55-0.826-1.351-0.826-2.401v-5.34l-1.69-0.5v-0.461l3.496-0.769v6.666c0,0.858,0.199,1.447,0.596,1.767
		c0.346,0.295,0.922,0.442,1.729,0.442c0.678,0,1.338-0.07,1.979-0.211v-6.935l-1.69-0.5v-0.461l3.496-0.769v8.414l1.594,0.519V5.06
		L158.017,5.866z"/>
	<path fill="#58595B" d="M168.313-1.721l-0.596-1.171c-0.115-0.013-0.212-0.02-0.288-0.02c-0.077,0-0.154,0-0.23,0
		c-0.244,0-0.497,0.032-0.759,0.096c-0.263,0.064-0.509,0.141-0.74,0.23v6.954l2.095,0.71v0.5h-5.609v-0.5l1.709-0.71v-6.935
		l-1.786-0.519v-0.442l3.592-0.788v1.229c0.794-0.396,1.415-0.685,1.864-0.864c0.447-0.179,0.819-0.269,1.113-0.269
		c0.18,0,0.35,0.026,0.51,0.077c0.159,0.052,0.329,0.128,0.509,0.231v2.189H168.313z"/>
	<path fill="#58595B" d="M176.497,5.578v-0.5l1.595-0.71v-5.033c0-0.896-0.27-1.504-0.808-1.825
		c-0.396-0.243-0.979-0.365-1.748-0.365c-0.281,0-0.576,0.01-0.883,0.029c-0.308,0.02-0.596,0.048-0.865,0.086v7.108l1.499,0.71v0.5
		h-4.995v-0.5l1.69-0.71v-6.916l-1.786-0.519v-0.442l3.611-0.788V-3.2c0.218-0.089,0.429-0.179,0.634-0.269
		c0.205-0.089,0.41-0.173,0.615-0.25c0.269-0.103,0.492-0.186,0.672-0.25s0.343-0.116,0.49-0.154
		c0.146-0.039,0.291-0.064,0.432-0.077c0.142-0.012,0.308-0.019,0.5-0.019c0.819,0,1.498,0.288,2.036,0.864
		c0.269,0.282,0.454,0.599,0.557,0.951s0.154,0.81,0.154,1.374v5.398l1.69,0.71v0.5H176.497z"/>
	<path fill="#58595B" d="M189.905,5.54c-0.103,0.039-0.253,0.07-0.452,0.096c-0.198,0.025-0.355,0.039-0.471,0.039
		c-0.602,0-0.96-0.32-1.075-0.96c-0.064,0.038-0.105,0.064-0.125,0.077s-0.052,0.029-0.096,0.048
		c-0.045,0.02-0.119,0.051-0.222,0.096s-0.262,0.119-0.479,0.221c-0.192,0.09-0.362,0.167-0.51,0.231
		c-0.146,0.064-0.291,0.118-0.432,0.163c-0.142,0.045-0.288,0.077-0.442,0.096c-0.153,0.019-0.326,0.029-0.519,0.029
		c-0.807,0-1.463-0.224-1.969-0.672s-0.759-1.038-0.759-1.768c0-1.204,0.704-1.972,2.113-2.305c0.346-0.077,0.759-0.147,1.239-0.211
		c0.479-0.064,1.002-0.122,1.565-0.173c0.103-0.013,0.204-0.022,0.307-0.029s0.192-0.016,0.27-0.029v-2.267
		c0-0.461-0.058-0.793-0.173-0.999s-0.34-0.365-0.673-0.48c-0.281-0.102-0.666-0.154-1.152-0.154c-0.103,0-0.192,0-0.269,0
		c-0.077,0-0.173,0.007-0.288,0.02l-0.846,1.671h-1.19v-1.825c0.486-0.128,0.922-0.237,1.306-0.327
		c0.423-0.102,0.813-0.186,1.172-0.25s0.704-0.096,1.037-0.096c0.871,0,1.562,0.18,2.075,0.538c0.294,0.205,0.502,0.445,0.624,0.72
		s0.183,0.644,0.183,1.104v5.417c0,0.077,0.003,0.164,0.01,0.259c0.006,0.096,0.021,0.164,0.048,0.202
		c0.038,0.064,0.09,0.115,0.153,0.154c0.064,0.039,0.186,0.083,0.365,0.134l1.134,0.327V5.06L189.905,5.54z M187.849,1.045
		c-0.372,0.051-0.724,0.105-1.057,0.163s-0.686,0.131-1.057,0.221c-0.486,0.128-0.839,0.314-1.057,0.557
		c-0.218,0.244-0.326,0.57-0.326,0.98c0,0.487,0.173,0.877,0.519,1.171c0.346,0.295,0.813,0.442,1.402,0.442
		c0.486,0,0.973-0.077,1.46-0.23l0.115-0.039V1.045z"/>
	<path fill="#58595B" d="M192.132,5.578v-0.5l1.71-0.71v-11.18l-1.806-0.519v-0.442l3.611-0.807V4.368l1.69,0.71v0.5H192.132z"/>
	<path fill="#58595B" d="M204.695,2.857c0,0.422-0.08,0.812-0.24,1.169c-0.16,0.358-0.378,0.668-0.653,0.93
		c-0.275,0.262-0.604,0.466-0.989,0.614c-0.384,0.146-0.807,0.22-1.268,0.22c-0.486,0-1.082-0.077-1.786-0.23
		c-0.205-0.039-0.413-0.09-0.625-0.154c-0.211-0.064-0.426-0.128-0.643-0.192V3.004h0.845c0.153,0.295,0.304,0.593,0.451,0.894
		s0.305,0.599,0.471,0.893c0.192,0.039,0.353,0.064,0.48,0.077c0.128,0.013,0.269,0.02,0.423,0.02c0.23,0,0.461-0.022,0.691-0.067
		s0.438-0.122,0.624-0.23s0.336-0.253,0.451-0.432s0.173-0.41,0.173-0.692c0-0.32-0.07-0.573-0.211-0.758s-0.41-0.394-0.807-0.625
		l-1.825-1.057c-0.576-0.32-0.999-0.704-1.268-1.152c-0.269-0.397-0.403-0.858-0.403-1.383c0-0.832,0.271-1.492,0.816-1.979
		c0.544-0.486,1.283-0.73,2.219-0.73c0.243,0,0.519,0.02,0.826,0.059c0.307,0.04,0.607,0.092,0.902,0.157
		c0.18,0.04,0.353,0.083,0.519,0.128c0.167,0.046,0.34,0.095,0.519,0.147v2.024h-0.845l-0.807-1.633
		c-0.154-0.025-0.288-0.045-0.403-0.058s-0.263-0.02-0.442-0.02c-0.576,0-1.021,0.112-1.335,0.336s-0.471,0.533-0.471,0.929
		c0,0.294,0.097,0.547,0.288,0.757c0.192,0.211,0.513,0.444,0.961,0.7l1.575,0.882c0.409,0.23,0.714,0.432,0.912,0.604
		s0.368,0.387,0.509,0.642C204.573,1.86,204.695,2.333,204.695,2.857z"/>
</g>
<line fill="none" stroke="#CCCCCC" stroke-miterlimit="10" x1="114.438" y1="-10.884" x2="114.438" y2="28.616"/>
</svg>
