<?xml version="1.0" encoding="utf-8"?>
<!-- Generator: Adobe Illustrator 16.0.4, SVG Export Plug-In . SVG Version: 6.00 Build 0)  -->
<!DOCTYPE svg PUBLIC "-//W3C//DTD SVG 1.1//EN" "http://www.w3.org/Graphics/SVG/1.1/DTD/svg11.dtd">
<svg version="1.1" id="Layer_1" xmlns="http://www.w3.org/2000/svg" xmlns:xlink="http://www.w3.org/1999/xlink" x="0px" y="0px"
	 width="81.174px" height="128.732px" viewBox="0 0 81.174 128.732" enable-background="new 0 0 81.174 128.732"
	 xml:space="preserve">
<path id="path2424_8_" fill="#F68212" d="M6.245,34.42v4.701H20.03V34.42c0-11.379,9.258-20.636,20.636-20.636
	c11.377,0,20.635,9.257,20.635,20.636v34.004h13.783V34.42C75.084,15.441,59.643,0,40.666,0C21.688,0,6.245,15.441,6.245,34.42"/>
<path id="path2426_8_" fill="#F68212" d="M52.092,88.268c0,6.279-5.092,11.371-11.373,11.371c-6.28,0-11.371-5.092-11.371-11.371
	c0-6.281,5.091-11.373,11.371-11.373C47,76.895,52.092,81.986,52.092,88.268"/>
<path id="path2428_6_" fill="#F68212" d="M13.784,88.146c0-14.781,12.024-26.804,26.803-26.804
	c14.779,0,26.802,12.022,26.802,26.804c0,14.777-12.023,26.803-26.802,26.803C25.809,114.949,13.784,102.924,13.784,88.146
	 M0,88.146c0,22.377,18.21,40.586,40.587,40.586c22.378,0,40.587-18.209,40.587-40.586c0-22.381-18.209-40.588-40.587-40.588
	C18.21,47.559,0,65.766,0,88.146"/>
</svg>
