<?xml version="1.0" encoding="utf-8"?>
<!-- Generator: Adobe Illustrator 16.0.4, SVG Export Plug-In . SVG Version: 6.00 Build 0)  -->
<!DOCTYPE svg PUBLIC "-//W3C//DTD SVG 1.1//EN" "http://www.w3.org/Graphics/SVG/1.1/DTD/svg11.dtd">
<svg version="1.1" id="Layer_1" xmlns="http://www.w3.org/2000/svg" xmlns:xlink="http://www.w3.org/1999/xlink" x="0px" y="0px"
	 width="73px" height="73px" viewBox="0 0 73 73" enable-background="new 0 0 73 73" xml:space="preserve">
<g>
	<path fill="#FFFFFF" d="M36.5,70C18.028,70,3,54.972,3,36.5C3,18.028,18.028,3,36.5,3C54.972,3,70,18.028,70,36.5
		C70,54.972,54.972,70,36.5,70z"/>
	<path fill="#0C4D96" d="M36.5,6C53.317,6,67,19.682,67,36.5C67,53.317,53.317,67,36.5,67C19.682,67,6,53.317,6,36.5
		C6,19.682,19.682,6,36.5,6 M36.5,0C16.341,0,0,16.341,0,36.5C0,56.658,16.341,73,36.5,73C56.658,73,73,56.658,73,36.5
		C73,16.341,56.658,0,36.5,0L36.5,0z"/>
</g>
</svg>
