<?xml version="1.0" encoding="utf-8"?>
<!-- Generator: Adobe Illustrator 16.0.4, SVG Export Plug-In . SVG Version: 6.00 Build 0)  -->
<!DOCTYPE svg PUBLIC "-//W3C//DTD SVG 1.1//EN" "http://www.w3.org/Graphics/SVG/1.1/DTD/svg11.dtd">
<svg version="1.1" id="Layer_1" xmlns="http://www.w3.org/2000/svg" xmlns:xlink="http://www.w3.org/1999/xlink" x="0px" y="0px"
	 width="81px" height="127.588px" viewBox="0 0 81 127.588" enable-background="new 0 0 81 127.588" xml:space="preserve">
<g>
	<path fill="#AD1F1F" d="M81,107.588c0,11.046-8.954,20-20,20H20c-11.046,0-20-8.954-20-20v-41c0-11.046,8.954-20,20-20h41
		c11.046,0,20,8.954,20,20V107.588z"/>
</g>
<path id="path2426_2_" fill="#FFFFFF" d="M52.533,86.853c0,6.279-5.091,11.37-11.372,11.37c-6.28,0-11.372-5.091-11.372-11.37
	c0-6.282,5.092-11.374,11.372-11.374C47.442,75.479,52.533,80.57,52.533,86.853"/>
<path id="path2424_2_" fill="#AD1F1F" d="M6.486,34.42v39.064h13.784V34.42c0-11.379,9.258-20.636,20.635-20.636
	c11.378,0,20.636,9.257,20.636,20.636v34.004h13.784V34.42C75.325,15.441,59.884,0,40.905,0C21.929,0,6.486,15.441,6.486,34.42"/>
</svg>
