<?xml version="1.0" encoding="utf-8"?>
<!-- Generator: Adobe Illustrator 16.0.4, SVG Export Plug-In . SVG Version: 6.00 Build 0)  -->
<!DOCTYPE svg PUBLIC "-//W3C//DTD SVG 1.1//EN" "http://www.w3.org/Graphics/SVG/1.1/DTD/svg11.dtd">
<svg version="1.1" id="Layer_1" xmlns="http://www.w3.org/2000/svg" xmlns:xlink="http://www.w3.org/1999/xlink" x="0px" y="0px"
	 width="15.936px" height="16px" viewBox="0 0 15.936 16" enable-background="new 0 0 15.936 16" xml:space="preserve">
<path fill="#F59038" d="M2.123,15.982C0.95,15.982,0,15.031,0,13.857s0.95-2.123,2.123-2.123c1.174,0,2.125,0.949,2.125,2.123
	S3.297,15.982,2.123,15.982z M7.453,15.996c0-2.004-0.776-3.887-2.187-5.301C3.863,9.281,1.992,8.504,0.002,8.504V5.438
	c5.799,0,10.518,4.736,10.518,10.558H7.453z M12.869,16c0-7.13-5.771-12.933-12.862-12.933V0C8.79,0,15.936,7.178,15.936,16H12.869z
	"/>
</svg>
