<?xml version="1.0" encoding="utf-8"?>
<!-- Generator: Adobe Illustrator 16.0.4, SVG Export Plug-In . SVG Version: 6.00 Build 0)  -->
<!DOCTYPE svg PUBLIC "-//W3C//DTD SVG 1.1//EN" "http://www.w3.org/Graphics/SVG/1.1/DTD/svg11.dtd">
<svg version="1.1" id="Layer_1" xmlns="http://www.w3.org/2000/svg" xmlns:xlink="http://www.w3.org/1999/xlink" x="0px" y="0px"
	 width="79.459px" height="47.92px" viewBox="0 0 79.459 47.92" enable-background="new 0 0 79.459 47.92" xml:space="preserve">
<path fill="#AAAAAA" d="M46.6,40.235L36.055,29.69C37.891,26.718,39,23.25,39,19.5C39,8.73,30.27,0,19.5,0C8.73,0,0,8.73,0,19.5
	C0,30.271,8.73,39,19.5,39c3.75,0,7.218-1.108,10.188-2.942l10.549,10.545c1.759,1.758,4.604,1.758,6.363,0
	C48.357,44.844,48.357,41.994,46.6,40.235z M19.5,33C12.045,33,6,26.955,6,19.5S12.045,6,19.5,6S33,12.045,33,19.5
	S26.955,33,19.5,33z"/>
</svg>
