<?xml version="1.0" encoding="utf-8"?>
<!-- Generator: Adobe Illustrator 16.0.4, SVG Export Plug-In . SVG Version: 6.00 Build 0)  -->
<!DOCTYPE svg PUBLIC "-//W3C//DTD SVG 1.1//EN" "http://www.w3.org/Graphics/SVG/1.1/DTD/svg11.dtd">
<svg version="1.1" id="Layer_1" xmlns="http://www.w3.org/2000/svg" xmlns:xlink="http://www.w3.org/1999/xlink" x="0px" y="0px"
	 width="473px" height="486px" viewBox="18 10 473 486" enable-background="new 18 10 473 486" xml:space="preserve">
<path fill="#555555" d="M464,243c15,0,27,12,27,27v199c0,15-12,27-27,27H46c-15,0-28-12-28-27V256.5c0-15,13-27,28-27s27,12,27,27
	V441h364V270C437,255,449,243,464,243z"/>
<path fill="#555555" d="M274,18l110,110c11,11,11,27,0,38s-27,11-38,0l-64-63v234c0,15-12,27-27,27s-27-12-27-27V103l-63,63
	c-11,11-28,11-39,0s-11-27,0-38L236,18c5-5,12-8,19-8S269,13,274,18z"/>
</svg>
