<?xml version="1.0" encoding="utf-8"?>
<!-- Generator: Adobe Illustrator 19.1.0, SVG Export Plug-In . SVG Version: 6.00 Build 0)  -->
<svg version="1.1" id="Layer_1" xmlns="http://www.w3.org/2000/svg" xmlns:xlink="http://www.w3.org/1999/xlink" x="0px" y="0px"
	 viewBox="47 -37 150 129" style="enable-background:new 47 -37 150 129;" xml:space="preserve">
<style type="text/css">
	.st0{fill:#FFFFFF;}
</style>
<g>
	<polyline class="st0" points="67.9,87.3 69.1,86 72.6,89.2 75.1,86.4 72.3,83.9 73.5,82.7 76.2,85.2 79,82.2 75.4,78.9 76.6,77.6 
		81.6,82.2 72.9,91.8 67.9,87.3 	"/>
</g>
<g>
	<path class="st0" d="M72.9,92l-5.2-4.7l1.4-1.5l3.5,3.2l2.3-2.5L72.1,84l1.4-1.5l2.8,2.5l2.5-2.7l-3.6-3.2l1.4-1.6l5.3,4.8L72.9,92
		z M68.2,87.3l4.7,4.2l8.4-9.3l-4.7-4.3l-0.9,1l3.6,3.2l-3,3.3l-2.8-2.5l-0.9,1l2.8,2.5l-2.7,3l-3.5-3.2L68.2,87.3z"/>
</g>
<g>
	<polyline class="st0" points="64.3,83.2 69.1,74.3 61.8,80.2 60.8,79 70.9,70.8 72,72.2 66.7,82.1 74.7,75.5 75.8,76.8 65.7,85 
		64.3,83.2 	"/>
</g>
<g>
	<path class="st0" d="M65.7,85.2l-1.6-2l0.1-0.1l4.4-8.1l-6.7,5.4l-1.2-1.5l0.1-0.1L71,70.5l1.3,1.6l-4.9,9.2l7.5-6.1l1.2,1.5
		L65.7,85.2z M64.5,83.2l1.2,1.5l9.8-7.9l-0.8-1l-7.9,6.4L66.5,82l5.3-9.8l-1-1.2L61,78.9l0.8,1l7.2-5.7l0.3,0.2L64.5,83.2z"/>
</g>
<g>
	<polyline class="st0" points="55.7,70.8 57.3,69.8 58.6,72.1 68.2,66.3 69.1,68 59.6,73.7 60.9,75.9 59.4,76.9 55.7,70.8 	"/>
</g>
<g>
	<path class="st0" d="M59.3,77.1l-3.9-6.4l1.9-1.1l1.3,2.2l9.5-5.7l1.2,2l-9.5,5.7l1.3,2.2L59.3,77.1z M56,70.8l3.5,5.8l1.3-0.8
		l-1.3-2.2l9.5-5.7l-0.8-1.3l-9.5,5.7l-1.3-2.2L56,70.8z"/>
</g>
<g>
	<path class="st0" d="M56.3,65.4c1.2,0,2.8-0.7,3.5-1c0.7-0.3,2.3-1,3.1-1.8c0.6-0.6,0.9-1.2,0.5-2.1c-0.4-0.9-1.2-1-1.9-1
		c-1.2,0-2.9,0.7-3.5,1c-0.8,0.4-2.3,1-3.2,1.9c-0.5,0.5-1,1.1-0.6,2.1C54.8,65.3,55.6,65.4,56.3,65.4 M57.4,58.6
		c2.4-1,6.4-2.1,7.8,1.2c1.4,3.2-1.7,5.3-4.5,6.5c-2.7,1.2-6.5,2-7.8-1.2C51.4,61.8,54.6,59.8,57.4,58.6z"/>
</g>
<g>
	<path class="st0" d="M56.4,67.5c-1.6,0-3-0.6-3.8-2.4c-0.4-1-0.5-2-0.1-2.9c0.6-1.5,2.2-2.7,4.7-3.8c4.1-1.8,6.9-1.3,8,1.3
		s-0.5,5-4.6,6.7C59.4,67,57.8,67.5,56.4,67.5z M61.6,57.7c-1.3,0-2.8,0.5-4.1,1l0,0c-2.4,1-4,2.3-4.5,3.6c-0.3,0.8-0.3,1.7,0.1,2.6
		c1.3,3.1,4.8,2.3,7.6,1.2c2.7-1.2,5.7-3.2,4.4-6.3C64.3,58.3,63,57.7,61.6,57.7z"/>
</g>
<g>
	<path class="st0" d="M56.2,65.6c-0.7,0-1.5-0.2-2-1.2c-0.4-1,0.1-1.7,0.6-2.3c0.6-0.6,1.7-1.3,3.2-1.9c0.8-0.4,2.4-0.9,3.6-1h0.1
		c0.7,0,1.5,0.1,1.9,1.1c0.4,1.1,0,1.8-0.6,2.3c-0.9,0.9-2.5,1.6-3.2,1.9C58.4,65.2,57.2,65.6,56.2,65.6L56.2,65.6
		C56.3,65.6,56.3,65.6,56.2,65.6z M61.8,59.7L61.8,59.7c-1.2,0-2.7,0.6-3.5,1c-1.4,0.6-2.5,1.2-3.1,1.8c-0.5,0.5-0.9,1-0.5,1.9
		c0.3,0.8,1,0.9,1.6,0.9h0.1c0.8,0,2-0.3,3.5-1c0.6-0.3,2.2-1,3.1-1.8c0.7-0.7,0.8-1.2,0.5-1.9C63,59.8,62.4,59.7,61.8,59.7z"/>
</g>
<g>
	<polyline class="st0" points="49.4,54.4 58.1,50.1 48.5,49.8 47.9,47.1 60.6,44.4 60.9,46.1 50.1,48.4 61.5,48.8 61.8,50.2 
		51.5,55.2 62.4,52.9 62.7,54.4 50,57.1 49.4,54.4 	"/>
</g>
<g>
	<path class="st0" d="M49.9,57.4l-0.7-3.1l0.1-0.1l8-3.9l-9.1-0.4l-0.6-3l13-2.8l0.5,2.1l-9.5,2l10.1,0.3l0.3,1.6l-0.1,0.1L53,54.7
		l9.5-2l0.4,1.9L49.9,57.4z M49.6,54.5l0.5,2.5l12.3-2.6l-0.3-1.2l-10.6,2.3l-0.1-0.3l10.1-4.9l-0.2-1.1l-11.2-0.4v-0.4l10.6-2.3
		l-0.3-1.4l-12.3,2.5l0.5,2.4l9.5,0.4l0.1,0.3L49.6,54.5z"/>
</g>
<g>
	<path class="st0" d="M50.3,40.2c1.1,0.4,2.8,0.4,3.6,0.4s2.5-0.1,3.6-0.5c0.8-0.3,1.3-0.8,1.3-1.7c0-1-0.7-1.4-1.3-1.6
		c-1.2-0.4-2.9-0.4-3.6-0.4c-0.9,0-2.5,0.1-3.6,0.5c-0.6,0.3-1.3,0.7-1.3,1.7C49,39.5,49.6,40,50.3,40.2 M53.8,34.3
		c2.7,0,6.7,0.4,6.8,4c0.1,3.5-3.6,4.3-6.6,4.3c-3,0.1-6.7-0.6-6.8-4.1C47.1,35.1,50.8,34.3,53.8,34.3z"/>
</g>
<g>
	<path class="st0" d="M53.6,42.9c-1.7,0-3.1-0.2-4.2-0.7c-1.6-0.8-2.4-2-2.4-3.6c0-2.9,2.3-4.4,6.8-4.5l0,0c0.1,0,0.2,0,0.3,0
		c4.3,0,6.6,1.5,6.6,4.2c0,1.6-0.7,2.9-2.3,3.6c-1.1,0.6-2.7,0.9-4.5,0.9C53.9,42.9,53.7,42.9,53.6,42.9z M53.8,34.5
		c-3,0.1-6.5,0.8-6.5,4.1c0,1.5,0.8,2.6,2.2,3.2c1.1,0.5,2.6,0.7,4.4,0.7c1.8,0,3.3-0.3,4.4-0.9c1.4-0.7,2.1-1.8,2.1-3.3
		c-0.1-3.2-3.4-3.9-6.3-3.9C54,34.5,53.9,34.5,53.8,34.5L53.8,34.5z"/>
</g>
<g>
	<path class="st0" d="M53.6,40.8c-1.5,0-2.6-0.1-3.3-0.4l0,0c-0.7-0.3-1.4-0.7-1.5-1.8c0-1.1,0.7-1.6,1.4-1.9c1-0.4,2.6-0.5,3.7-0.6
		c0.9,0,2.6,0,3.7,0.4c0.6,0.2,1.4,0.7,1.5,1.8c0,1.2-0.7,1.6-1.4,1.9c-1.1,0.4-2.8,0.5-3.7,0.6C53.8,40.8,53.7,40.8,53.6,40.8z
		 M50.4,40.1c0.5,0.2,1.6,0.5,3.6,0.4c0.9,0,2.5-0.1,3.5-0.5c0.9-0.4,1.2-0.8,1.2-1.6c0-0.9-0.6-1.2-1.2-1.5
		c-1.1-0.4-2.7-0.4-3.6-0.4c-1.1,0-2.6,0.1-3.6,0.5c-0.6,0.3-1.2,0.6-1.2,1.5C49.1,39.5,49.7,39.8,50.4,40.1L50.4,40.1z"/>
</g>
<g>
	<polyline class="st0" points="47.9,28.9 59,30.3 59.5,26.2 61.3,26.4 60.5,32.4 47.7,30.8 47.9,28.9 	"/>
</g>
<g>
	<path class="st0" d="M60.7,32.6h-0.2l-13-1.7l0.3-2.3H48L58.9,30l0.5-4.1l2.1,0.3v0.2L60.7,32.6z M47.9,30.6l12.5,1.6l0.7-5.7
		l-1.4-0.2l-0.5,4.1H59L48.1,29L47.9,30.6z"/>
</g>
<g>
	<path class="st0" d="M52.3,20.6c1,0.7,2.6,1.2,3.4,1.4c0.7,0.2,2.4,0.6,3.6,0.5c0.9-0.1,1.5-0.4,1.7-1.3c0.3-0.9-0.3-1.5-0.8-2
		c-1-0.7-2.7-1.2-3.4-1.4c-0.9-0.2-2.5-0.6-3.6-0.5c-0.7,0.1-1.4,0.3-1.7,1.3S51.7,20.2,52.3,20.6 M57.4,15.9
		c2.6,0.7,6.3,2.3,5.3,5.8c-0.9,3.4-4.7,3.1-7.6,2.3c-2.9-0.8-6.3-2.5-5.3-5.8C50.7,14.8,54.5,15.1,57.4,15.9z"/>
</g>
<g>
	<path class="st0" d="M58.5,24.7c-1,0-2.1-0.2-3.4-0.5c-4.3-1.2-6.2-3.3-5.5-6.1c0.8-2.8,3.5-3.6,7.8-2.4l0,0
		c1.7,0.5,3.1,1.1,4.1,1.9c1.4,1.1,1.9,2.5,1.4,4.1C62.4,23.7,60.9,24.7,58.5,24.7z M54,15.6c-1.8,0-3.5,0.6-4,2.6
		c-0.9,3.2,2.3,4.8,5.2,5.6c2.9,0.8,6.5,1.1,7.4-2.1c0.4-1.5,0-2.7-1.3-3.8c-0.9-0.7-2.2-1.4-3.9-1.8l0,0
		C56.3,15.8,55.1,15.6,54,15.6z"/>
</g>
<g>
	<path class="st0" d="M58.9,22.8c-1.2,0-2.8-0.4-3.2-0.5c-0.9-0.2-2.5-0.7-3.4-1.5l0,0c-0.6-0.4-1.2-1.1-0.9-2.2s1.2-1.3,1.9-1.4
		c0.9-0.1,2.1,0.1,3.7,0.5c1.1,0.3,2.5,0.8,3.4,1.5c0.5,0.4,1.2,1.1,0.9,2.2s-1.1,1.3-1.9,1.4C59.2,22.8,59,22.8,58.9,22.8z
		 M52.4,20.5c0.9,0.7,2.5,1.2,3.3,1.4c0.5,0.1,2.3,0.6,3.5,0.5c0.9-0.1,1.4-0.4,1.6-1.2c0.2-0.9-0.3-1.4-0.8-1.8
		c-0.7-0.5-1.8-1-3.3-1.4s-2.7-0.6-3.6-0.5c-0.7,0.1-1.3,0.3-1.6,1.1C51.4,19.6,51.9,20.1,52.4,20.5L52.4,20.5z"/>
</g>
<g>
	<path class="st0" d="M61.5,6.1l6.1,2.8l-0.4,0.9l-1.6-0.5c0.4,0.5,1.2,1.6,0.4,3.3c-1.4,3-5.2,2.2-7.7,1c-2.1-1-6.1-3.3-4.4-6.9
		c1.1-2.4,3.2-2.3,5.2-1.8l-0.3,1.8c-1.2-0.3-2.6-0.6-3.3,0.7c-0.8,1.6,0.9,3,3.5,4.2c2,0.9,4.6,1.8,5.5-0.1
		c0.8-1.8-1.5-2.9-2.2-3.3l-0.9,1.9l-1.5-0.7L61.5,6.1"/>
</g>
<g>
	<path class="st0" d="M62.5,15c-1.7,0-3.3-0.7-4.2-1.1c-2.4-1.1-6.2-3.5-4.5-7.1c1.2-2.6,3.5-2.4,5.4-1.9h0.2L59,7.1h-0.2
		c-1.2-0.3-2.5-0.6-3.1,0.6c-0.3,0.7-0.2,1.4,0.5,2.1c0.6,0.6,1.5,1.2,2.9,1.9c2.9,1.3,4.6,1.3,5.3,0c0.7-1.4-0.8-2.4-2-2.9
		l-0.9,1.9l-1.9-0.9l1.8-3.9l6.4,3l-0.6,1.2L66,9.7c0.4,0.6,0.8,1.6,0.2,3C65.6,14.1,64.3,14.9,62.5,15C62.6,15,62.5,15,62.5,15z
		 M57.2,4.9c-1.2,0-2.3,0.5-3,2c-1.5,3.3,2.1,5.6,4.3,6.6c0.8,0.4,2.4,1,4,1h0.1c1.6,0,2.7-0.7,3.3-2c0.7-1.6,0-2.6-0.4-3.1L65.2,9
		l2,0.6L67.5,9l-5.8-2.7l-1.5,3.2l1.2,0.6l0.8-1.9l0.2,0.1c0.8,0.4,3.2,1.5,2.3,3.5c-1.1,2.3-4.6,0.7-5.7,0.2
		c-1.4-0.7-2.4-1.3-3.1-2c-0.7-0.8-0.9-1.6-0.5-2.5c0.7-1.4,2.1-1.2,3.3-0.9l0.2-1.4C58.4,5.1,57.7,4.9,57.2,4.9z"/>
</g>
<g>
	<polyline class="st0" points="58.5,-1.1 69.6,5.7 68.6,7.3 57.5,0.6 58.5,-1.1 	"/>
</g>
<g>
	<path class="st0" d="M68.7,7.6l-0.2-0.1L57.3,0.6l1.2-2l0.2,0.1l11.2,6.8L68.7,7.6z M57.8,0.5L68.6,7l0.8-1.3L58.6-0.8L57.8,0.5z"
		/>
</g>
<g>
	<path class="st0" d="M72.1-4.8c0.7,0.8,3.1,3.1,1.1,5.7c-2.3,3-6.2,0.6-7.9-0.7c-1.6-1.2-5.1-4.4-2.8-7.5c2-2.6,4.9-0.9,5.8-0.3
		L67.4-6C66.6-6.6,65-7.5,64-6.3c-1.2,1.6,1,3.6,2.6,4.8c1.8,1.4,4.1,2.6,5.2,1.2c0.7-0.9,0.3-1.9-1-3.3L72.1-4.8"/>
</g>
<g>
	<path class="st0" d="M70.4,2.5c-0.4,0-0.9-0.1-1.4-0.2c-1.5-0.4-2.9-1.3-3.8-2S63-1.5,62.3-2.8c-1-1.7-0.9-3.2,0.1-4.6
		c2.1-2.7,5.1-1,6-0.4l0.2,0.1l-0.1,0.2l-1,1.8l-0.2-0.1c-1.2-0.7-2.5-1.3-3.3-0.3c-0.8,1.1,0,2.6,2.6,4.6c1.1,0.8,2,1.4,2.8,1.6
		c1,0.3,1.7,0.2,2.1-0.4c0.6-0.8,0.3-1.6-1-3l-0.1-0.1L72-4.9l0.1,0.1v0l0.1-0.1C73-4.1,75.4-1.7,73.3,1C72.6,2,71.6,2.5,70.4,2.5z
		 M65.3-8.5c-0.9,0-1.8,0.3-2.5,1.3c-1,1.3-1,2.7-0.1,4.2c0.7,1.3,2,2.3,2.8,3c0.9,0.7,2.2,1.6,3.6,1.9c1.7,0.4,3,0,4-1.2
		c1.8-2.3-0.1-4.5-1-5.3l-1,1c1.2,1.2,1.8,2.3,0.9,3.4c-0.6,0.7-1.4,0.9-2.5,0.6c-0.8-0.3-1.8-0.8-2.9-1.7c-1-0.8-4.2-3.2-2.7-5.1
		c1-1.3,2.6-0.5,3.6,0.1l0.7-1.3C67.5-7.9,66.4-8.5,65.3-8.5z"/>
</g>
<g>
	<path class="st0" d="M76.1-10L71-13.3l3.2,5.2L76.1-10 M70.5-15.7l11.3,7.1l-1.4,1.4L77.6-9l-2.4,2.4l1.7,2.8l-1.3,1.3l-6.7-11.6
		L70.5-15.7z"/>
</g>
<g>
	<path class="st0" d="M75.5-2.3l-6.8-11.9l1.8-1.7l11.6,7.3L80.4-7l-2.8-1.8l-2.2,2.2l1.7,2.8L75.5-2.3z M69.1-14.1l6.5,11.3l1.1-1
		l-1.8-2.8l2.6-2.6l2.8,1.8l1.1-1.1l-11-6.9L69.1-14.1z"/>
</g>
<g>
	<path class="st0" d="M74.2-7.8L74.1-8l-3.2-5.2l0.3-0.2l5.3,3.4L74.2-7.8z M71.6-12.7l2.7,4.3l1.6-1.5L71.6-12.7z"/>
</g>
<g>
	<polyline class="st0" points="76.3,-20.7 83.1,-11.8 86.4,-14.4 87.5,-12.9 82.7,-9.2 74.8,-19.5 76.3,-20.7 	"/>
</g>
<g>
	<path class="st0" d="M82.6-9l-0.1-0.1l-8-10.4l1.8-1.4l0.1,0.1l6.6,8.7l3.3-2.5l1.3,1.7l0,0.1L82.6-9z M75.1-19.5l7.6,10l4.5-3.5
		l-0.9-1.1L83-11.6l0-0.1l-6.6-8.7L75.1-19.5z"/>
</g>
<g>
	<path class="st0" d="M92.6-26.5c-0.9-0.9-1.7-1.4-2.7-0.9c-1.1,0.5-1,1.6-0.7,2.2c0.5,1,1.5,1,3,0.9s3.5-0.2,4.7,2.1
		c0.8,1.7,0.7,4-1.8,5.3c-2.9,1.4-4.7-0.8-5.2-1.5l1.3-1.2c0.4,0.5,1.5,1.9,3.2,1.1c1.4-0.7,1.1-2,0.9-2.5c-0.5-1.1-1.6-1.1-2.7-1
		c-1.4,0.1-2,0.1-2.8-0.2c-0.7-0.2-1.6-0.8-2.1-1.9c-0.8-1.6-0.6-3.8,1.6-4.9c2.5-1.2,4,0.5,4.6,1.2L92.6-26.5"/>
</g>
<g>
	<path class="st0" d="M93.2-16.3c-1.9,0-3-1.4-3.5-2l-0.1-0.1l0.1-0.1l1.4-1.4l0.1,0.2c0.4,0.5,1.4,1.8,3,1c1.4-0.7,1-1.9,0.8-2.3
		c-0.5-1-1.4-1-2.6-0.9c-1.4,0.1-2,0.1-2.9-0.2c-0.4-0.1-1.5-0.6-2.2-2c-0.5-1-0.6-2.1-0.3-3c0.3-0.9,1-1.6,1.9-2.1
		c2.6-1.3,4.2,0.6,4.8,1.2l0.1,0.1l0.2,0.2l-1.3,1.4l-0.1-0.1c-0.8-0.9-1.5-1.3-2.5-0.8c-0.4,0.2-0.6,0.4-0.7,0.8s0,0.9,0.1,1.2
		c0.5,0.9,1.3,0.9,2.8,0.8h0.1c1.5-0.1,3.7-0.2,4.9,2.2c0.5,0.9,0.6,2,0.3,2.9c-0.3,1.1-1.1,2-2.2,2.6
		C94.5-16.4,93.8-16.3,93.2-16.3z M90.1-18.4c0.7,0.8,2.3,2.6,4.9,1.3c1.1-0.5,1.8-1.3,2-2.3c0.2-0.8,0.1-1.8-0.3-2.7
		c-1.1-2.2-3.1-2.1-4.5-2h-0.1c-1.5,0.1-2.6,0.1-3.2-1c-0.2-0.3-0.3-0.9-0.1-1.4c0.1-0.4,0.4-0.8,0.9-1c1.1-0.6,1.9-0.1,2.8,0.8l1-1
		c-0.7-0.7-2.1-2.1-4.3-1c-0.9,0.4-1.5,1.1-1.8,1.9s-0.2,1.8,0.2,2.7c0.6,1.3,1.6,1.7,2,1.8c0.8,0.3,1.4,0.2,2.8,0.1
		c1.2-0.1,2.3-0.1,2.9,1.1c0.4,0.8,0.4,2.1-1,2.8c-1.7,0.8-2.8-0.4-3.3-1L90.1-18.4z"/>
</g>
<g>
	<path class="st0" d="M99-29.8c-0.1,1.2,0.4,2.8,0.6,3.6c0.2,0.7,0.8,2.4,1.5,3.3c0.6,0.7,1.1,1,2,0.7s1.1-1.1,1.2-1.8
		c0.1-1.2-0.4-2.9-0.6-3.6c-0.3-0.8-0.8-2.4-1.5-3.3c-0.4-0.5-1-1.1-2-0.8C99.3-31.3,99.1-30.5,99-29.8 M105.7-28.1
		c0.8,2.5,1.5,6.5-2,7.6c-3.3,1.1-5.1-2.2-6-5.1c-0.9-2.8-1.4-6.6,2-7.7C103-34.3,104.8-31,105.7-28.1z"/>
</g>
<g>
	<path class="st0" d="M102.5-20.1c-0.6,0-1.1-0.1-1.6-0.4c-1.8-0.9-2.8-3.2-3.4-5s-0.8-3.3-0.6-4.6c0.2-1.7,1.1-2.8,2.7-3.3
		s2.9-0.1,4.1,1.1c0.9,0.9,1.6,2.3,2.1,4.1l0,0c1.4,4.3,0.6,7-2.1,7.9C103.4-20.1,102.9-20.1,102.5-20.1z M100.9-33.3
		c-0.4,0-0.8,0.1-1.2,0.2c-1.4,0.5-2.2,1.5-2.5,3c-0.2,1.2,0,2.7,0.6,4.4c0.5,1.7,1.5,4,3.2,4.8c0.8,0.4,1.7,0.5,2.6,0.2
		c3.1-1,2.7-4.6,1.8-7.4c-0.6-1.8-1.3-3.1-2.1-4C102.7-32.8,101.8-33.3,100.9-33.3z"/>
</g>
<g>
	<path class="st0" d="M102.6-21.9c-0.7,0-1.2-0.4-1.6-0.9c-0.7-0.9-1.3-2.5-1.6-3.4c-0.5-1.5-0.7-2.8-0.7-3.7l0,0
		c0.1-0.7,0.3-1.6,1.3-1.9c1.1-0.3,1.7,0.3,2.2,0.8c0.7,0.9,1.2,2.3,1.6,3.4c0.5,1.5,0.7,2.8,0.6,3.7c0,0.7-0.2,1.6-1.3,1.9
		C103-21.9,102.8-21.9,102.6-21.9z M99.2-29.8L99.2-29.8c-0.1,0.8,0.2,2,0.6,3.5c0.3,0.8,0.8,2.4,1.5,3.2c0.6,0.7,1.1,0.9,1.8,0.7
		c0.9-0.3,1-1,1.1-1.6c0-0.8-0.2-2-0.6-3.5c-0.3-0.8-0.8-2.4-1.5-3.3c-0.4-0.5-0.9-1-1.8-0.7C99.4-31.1,99.2-30.4,99.2-29.8z"/>
</g>
<g>
	<path class="st0" d="M116.2-27.6c0,1.1,0.1,4.3-3,4.9c-3.7,0.6-4.9-3.8-5.3-5.9c-0.3-2-0.8-6.7,3.1-7.4c3.2-0.5,4.2,2.7,4.5,3.7
		l-1.7,0.6c-0.3-1.1-0.8-2.8-2.4-2.6c-2,0.3-1.7,3.3-1.4,5.3c0.4,2.3,1.2,4.7,3,4.4c1.2-0.2,1.5-1.2,1.5-3.1L116.2-27.6"/>
</g>
<g>
	<path class="st0" d="M112.5-22.5c-1.6,0-3.9-1-4.8-6.1c-0.4-2.6-0.6-6.9,3.2-7.6c0.3,0,0.5-0.1,0.7-0.1c2.8,0,3.6,2.9,3.9,3.9
		l0.1,0.2l-0.2,0.1l-1.9,0.6l-0.1-0.2c-0.4-1.3-0.9-2.6-2.2-2.4c-1.4,0.2-1.8,1.9-1.2,5.1c0.4,2.1,0.9,3.5,1.7,4
		c0.3,0.2,0.7,0.3,1.1,0.3c1-0.2,1.4-1,1.3-2.9v-0.2h2.2v0.2h-0.2h0.2c0,1.1,0.1,4.5-3.2,5.1C113-22.5,112.8-22.5,112.5-22.5z
		 M111.7-35.9c-0.2,0-0.4,0-0.7,0.1c-3.5,0.6-3.3,4.7-2.9,7.2c0.4,2.4,1.6,6.3,5.1,5.7c2.9-0.5,2.9-3.3,2.9-4.5h-1.4
		c0,1.7-0.3,2.9-1.6,3.1c-0.5,0.1-1,0-1.4-0.3c-0.9-0.6-1.5-2-1.8-4.2c-0.2-1.3-0.9-5.1,1.5-5.6c1.7-0.3,2.3,1.4,2.6,2.5l1.4-0.5
		C114.9-33.5,114.1-35.9,111.7-35.9z"/>
</g>
<g>
	<polyline class="st0" points="119.6,-36.7 120.4,-23.8 118.4,-23.6 117.6,-36.5 119.6,-36.7 	"/>
</g>
<g>
	<path class="st0" d="M118.3-23.4v-0.2l-0.8-13.1l2.3-0.1v0.2l0.8,13.1L118.3-23.4z M117.8-36.4l0.8,12.6l1.6-0.1l-0.8-12.6
		L117.8-36.4z"/>
</g>
<g>
	<polyline class="st0" points="129.6,-36.6 129.6,-34.9 124.8,-35 124.7,-31.3 128.5,-31.2 128.4,-29.5 124.7,-29.6 124.5,-25.6 
		129.4,-25.4 129.3,-23.7 122.6,-23.9 123,-36.8 129.6,-36.6 	"/>
</g>
<g>
	<path class="st0" d="M129.5-23.5h-0.2l-6.9-0.2v-0.2l0.4-13.1h0.2l6.9,0.2l-0.1,2.1l-4.7-0.2l-0.1,3.4l3.7,0.1l-0.1,2.1h-0.2
		l-3.5-0.1l-0.1,3.7l4.8,0.2L129.5-23.5z M122.7-24.1l6.4,0.2v-1.4l-4.8-0.2v-0.2l0.1-4.2h0.2l3.5,0.1v-1.3l-3.7-0.1v-0.2l0.1-3.9
		l4.7,0.2v-1.3l-6.3-0.2L122.7-24.1z"/>
</g>
<g>
	<polyline class="st0" points="138.1,-35.4 137.8,-33.6 135.2,-34 133.6,-23 131.7,-23.3 133.3,-34.3 130.8,-34.7 131,-36.5 
		138.1,-35.4 	"/>
</g>
<g>
	<path class="st0" d="M133.7-22.8l-2.3-0.3l1.6-11l-2.5-0.4l0.3-2.2l7.4,1.1l-0.3,2.2l-2.6-0.4L133.7-22.8z M131.9-23.4l1.5,0.2
		l1.6-11l2.6,0.4l0.2-1.4l-6.7-1l-0.1,1.4l2.5,0.4L131.9-23.4z"/>
</g>
<g>
	<polyline class="st0" points="140.6,-34.8 141.3,-29 144.8,-33.7 146.6,-33.2 141.5,-26.8 140.2,-21.5 138.3,-22 139.7,-27.3 
		138.6,-35.3 140.6,-34.8 	"/>
</g>
<g>
	<path class="st0" d="M140.3-21.3l-2.2-0.6l1.4-5.4l-1.1-8.2l2.4,0.6l0.7,5.4l3.3-4.4l2.2,0.6l-5.2,6.6L140.3-21.3z M138.5-22.2
		l1.5,0.4l1.4-5.2l4.9-6.2l-1.4-0.4l-3.7,4.9l-0.7-6.1l-1.7-0.4l1.1,7.8l0,0L138.5-22.2z"/>
</g>
<g>
	<path class="st0" d="M154.1-27.1c-0.9,0.8-1.7,2.3-2,3s-1.1,2.3-1.2,3.4c-0.1,0.9,0.1,1.5,0.9,1.9c0.9,0.4,1.5,0,2.1-0.4
		c0.9-0.8,1.7-2.4,2-3c0.4-0.8,1.1-2.3,1.2-3.5c0.1-0.7,0-1.5-0.9-1.9C155.4-28,154.7-27.6,154.1-27.1 M157.8-21.2
		c-1.2,2.4-3.5,5.8-6.7,4.1c-3.1-1.6-2.1-5.2-0.8-7.9s3.6-5.7,6.8-4.1C160.2-27.5,159.1-23.9,157.8-21.2z"/>
</g>
<g>
	<path class="st0" d="M152.7-16.5c-0.6,0-1.2-0.1-1.8-0.4c-2.6-1.3-2.9-4.1-0.9-8.1c0.8-1.7,1.8-2.9,2.8-3.7
		c1.3-1.1,2.8-1.2,4.2-0.5c1.5,0.7,2.2,2,2.2,3.7c0,1.3-0.5,2.7-1.3,4.4l0,0c-0.8,1.6-1.7,2.8-2.6,3.6
		C154.5-16.8,153.6-16.5,152.7-16.5z M155.4-29.3c-0.8,0-1.5,0.3-2.3,0.9c-0.9,0.7-1.8,2-2.7,3.6c-1.3,2.7-2.3,6.1,0.7,7.6
		c1.4,0.7,2.7,0.5,3.9-0.5c0.9-0.7,1.8-1.9,2.5-3.5l0,0c0.8-1.7,1.3-3.1,1.3-4.3c0-1.6-0.6-2.7-1.9-3.3
		C156.4-29.2,155.9-29.3,155.4-29.3z"/>
</g>
<g>
	<path class="st0" d="M152.6-18.3c-0.3,0-0.5-0.1-0.8-0.2c-1-0.5-1.1-1.4-1-2.1c0.1-1.2,0.8-2.7,1.2-3.5c0.7-1.5,1.4-2.5,2.1-3.1
		l0,0c0.5-0.5,1.3-1,2.3-0.4c1,0.5,1.1,1.4,1,2.1c-0.1,0.9-0.5,2.1-1.2,3.5c-0.4,0.8-1.2,2.3-2.1,3.1
		C153.7-18.7,153.2-18.3,152.6-18.3z M154.3-27c-0.6,0.6-1.3,1.6-2,3c-0.4,0.8-1.1,2.3-1.2,3.4c-0.1,0.9,0.2,1.4,0.8,1.8
		c0.8,0.4,1.4,0,1.9-0.4c0.8-0.8,1.6-2.2,2-3c0.7-1.4,1.1-2.6,1.2-3.4c0-0.7,0-1.4-0.8-1.8S154.8-27.4,154.3-27L154.3-27z"/>
</g>
<g>
	<polyline class="st0" points="169.1,-21.4 168.1,-20 164.3,-22.6 162.1,-19.4 165.1,-17.3 164.2,-15.9 161.2,-18 158,-13.3 
		156.4,-14.4 163.7,-25.1 169.1,-21.4 	"/>
</g>
<g>
	<path class="st0" d="M158-13.1l-1.9-1.3l0.1-0.1l7.5-10.8l0.1,0.1l5.5,3.8l-1.2,1.7l-0.1-0.1l-3.6-2.5l-2,2.9l3,2.1l-1.2,1.7
		l-0.1-0.1l-2.8-2L158-13.1z M156.6-14.5l1.3,0.9l3.2-4.6l0.1,0.1l2.8,2l0.8-1.1l-3-2.1l0.1-0.1l2.3-3.3l0.1,0.1l3.6,2.5l0.8-1.1
		l-5-3.5L156.6-14.5z"/>
</g>
<g>
	<path class="st0" d="M172.2-7.5l3.4-5l-5.2,3.1L172.2-7.5 M178-13.1l-7.3,11.2l-1.3-1.4l1.8-2.8l-2.3-2.5l-2.8,1.8l-1.3-1.3
		l11.7-6.5L178-13.1z"/>
</g>
<g>
	<path class="st0" d="M170.8-1.6l-1.6-1.7l1.8-2.8l-2.1-2.3L166-6.6l-1.5-1.6l0.2-0.1l11.8-6.5l1.7,1.8l-0.1,0.1L170.8-1.6z
		 M169.6-3.3l1.1,1.2l7.1-10.9l-1.3-1.4l-11.4,6.3l1,1.1l2.8-1.7l2.5,2.7L169.6-3.3z"/>
</g>
<g>
	<path class="st0" d="M172.2-7.2l-2.1-2.2l5.4-3.2l0.2,0.3L172.2-7.2z M170.7-9.4l1.5,1.6L175-12L170.7-9.4z"/>
</g>
<g>
	<polyline class="st0" points="183.9,-5.8 177.3,1.3 186.5,-1.8 188,0.5 177.1,7.6 176.1,6 185.4,0 174.6,3.7 173.8,2.5 181.6,-5.8 
		172.4,0.3 171.5,-1.1 182.3,-8.1 183.9,-5.8 	"/>
</g>
<g>
	<path class="st0" d="M177.1,7.8L175.9,6l0.2-0.1l8-5.2L174.6,4l-0.9-1.4l6.9-7.3l-8.2,5.3l-1.1-1.7l0.2-0.1l11-7.2l1.7,2.7L184-5.6
		l-6,6.5l8.6-2.9l1.7,2.6l-0.2,0.1L177.1,7.8z M176.4,6.1l0.8,1.2l10.6-6.9l-1.3-2l-9,3l-0.3-0.2l6.5-6.9l-1.4-2.1l-10.6,6.9l0.7,1
		l9.1-5.9l0.2,0.3L174,2.7l0.6,0.9l10.6-3.7l0.2,0.3L176.4,6.1z"/>
</g>
<g>
	<polyline class="st0" points="192.5,10.7 190.9,11.4 189.1,7 185.6,8.4 187.1,11.9 185.5,12.5 184.1,9.1 180.3,10.7 182.2,15.1 
		180.6,15.8 178,9.6 189.9,4.5 192.5,10.7 	"/>
</g>
<g>
	<path class="st0" d="M180.5,16l-0.1-0.2l-2.7-6.4l0.2-0.1l12.1-5l0.1,0.2l2.7,6.3l-1.9,0.8l-0.1-0.2L189,7.2l-3.1,1.3l1.5,3.4
		l-1.9,0.8L184,9.3l-3.4,1.4l1.9,4.5L180.5,16z M178.2,9.7l2.5,5.9l1.3-0.5l-1.9-4.5l0.2-0.1l3.9-1.6l1.4,3.4l1.2-0.5l-1.5-3.4
		l3.8-1.6l0.1,0.2l1.8,4.2l1.2-0.5l-2.5-5.8L178.2,9.7z"/>
</g>
<g>
	<path class="st0" d="M192.4,16l-4.1,1.1l0.4,1.4c0.3,1.3,1.4,1.6,2.6,1.3c2-0.5,1.6-2,1.5-2.4L192.4,16 M194.4,17.1
		c0.3,1.1,0.3,1.9,0,2.6s-1.1,1.6-2.6,1.9c-2.3,0.6-3.3-0.5-3.7-0.9l-5.1,3.6l-0.5-2l4.8-3.1l-0.5-1.8l-5.2,1.4l-0.5-1.9l12.5-3.2
		L194.4,17.1z"/>
</g>
<g>
	<path class="st0" d="M182.8,24.7l-0.6-2.4l0.1-0.1l4.7-3.1l-0.4-1.5l-5.2,1.4l-0.6-2.2h0.2l12.7-3.3l0.9,3.6c0.3,1.2,0.3,2,0,2.7
		c-0.2,0.5-0.9,1.6-2.7,2c-2.2,0.6-3.3-0.4-3.8-0.8L182.8,24.7z M182.6,22.5l0.4,1.6l5-3.6l0.1,0.1c0.4,0.4,1.4,1.4,3.6,0.9
		c1.7-0.4,2.3-1.4,2.5-1.8c0.3-0.6,0.3-1.4,0-2.5l-0.8-3.2l-12.2,3.1l0.4,1.5l5.2-1.4l0.5,2.1L182.6,22.5z"/>
</g>
<g>
	<path class="st0" d="M190.4,20.1c-1,0-1.7-0.5-1.9-1.6l-0.4-1.6l4.4-1.1l0.4,1.6c0.1,0.2,0.2,0.7,0,1.2c-0.2,0.7-0.7,1.1-1.6,1.3
		C191,20.1,190.7,20.1,190.4,20.1z M188.5,17.2l0.3,1.3c0.3,1.1,1.1,1.5,2.4,1.2c0.8-0.2,1.2-0.6,1.4-1.1c0.1-0.4,0-0.9,0-1
		l-0.3-1.3L188.5,17.2z"/>
</g>
<g>
	<polyline class="st0" points="196.1,26 183.2,27.8 183,25.9 195.8,24.1 196.1,26 	"/>
</g>
<g>
	<path class="st0" d="M183.1,28l-0.3-2.3h0.2l13-1.8l0.3,2.3h-0.2L183.1,28z M183.2,26l0.2,1.6l12.5-1.7l-0.2-1.5L183.2,26z"/>
</g>
<g>
	<path class="st0" d="M187.8,37.5c-1.1-0.1-4.3-0.5-4.4-3.7c-0.1-3.8,4.4-4.3,6.6-4.4c2.1,0,6.8,0.2,6.8,4.1
		c0.1,3.3-3.2,3.7-4.3,3.9l-0.3-1.8c1.1-0.1,2.9-0.4,2.9-2c0-2-3-2.2-5.1-2.1c-2.3,0.1-4.8,0.5-4.8,2.3c0,1.2,1,1.7,2.9,1.9
		L187.8,37.5"/>
</g>
<g>
	<path class="st0" d="M188,37.7h-0.2c-3-0.3-4.5-1.6-4.6-3.9c0-1.7,0.8-3,2.6-3.8c1.4-0.6,3-0.8,4.2-0.8c2.6-0.1,6.9,0.4,7,4.3
		c0.1,3.4-3.3,3.9-4.5,4.1h-0.2l-0.1-0.2l-0.3-2h0.2c1.3-0.2,2.8-0.5,2.7-1.8c0-1.4-1.6-2-4.9-2c-1.4,0-2.5,0.2-3.2,0.5
		c-1,0.4-1.4,0.9-1.4,1.7c0,1,0.8,1.5,2.7,1.7h0.2L188,37.7z M190.3,29.6c-0.1,0-0.2,0-0.4,0c-1.1,0-2.7,0.2-4,0.8
		c-1.6,0.7-2.4,1.9-2.3,3.4c0.1,2.9,2.9,3.4,4.1,3.5l0.2-1.4c-1.7-0.2-2.8-0.7-2.8-2.1c0-0.9,0.5-1.6,1.6-2c0.8-0.3,1.9-0.5,3.3-0.5
		c1.3,0,5.2-0.1,5.3,2.3c0,1.7-1.8,2-2.9,2.2l0.2,1.4c1.3-0.2,4.1-0.8,4-3.7C196.6,30.2,192.8,29.6,190.3,29.6z"/>
</g>
<g>
	<path class="st0" d="M187.9,44.1l6.1-0.5l-5.7-2.1L187.9,44.1 M195.8,45.1l-13.2,1.4l0.3-1.9l3.3-0.3l0.4-3.4l-3.1-1.1l0.2-1.8
		l12.4,5L195.8,45.1z"/>
</g>
<g>
	<path class="st0" d="M182.4,46.7l0.3-2.3l3.3-0.3l0.4-3.1l-3.1-1.1l0.3-2.2l12.7,5.2l-0.3,2.4h-0.1L182.4,46.7z M183,44.7l-0.2,1.6
		l12.9-1.4l0.2-1.9l-12-4.9l-0.2,1.5l3.1,1.1l-0.5,3.7L183,44.7z"/>
</g>
<g>
	<path class="st0" d="M187.7,44.3l0.4-3.1l5.9,2.2v0.4L187.7,44.3z M188.4,41.7l-0.3,2.2l5-0.4L188.4,41.7z"/>
</g>
<path class="st0" d="M156.5,66.1c6.6-6.7,17-12.6,17-12.6c8-3.3,5.7,2.7,5.7,2.7c-2.6,6.7-7.8,6.8-7.8,6.8c-2.2,0.3-1.4-2.7-1.4-2.7
	c-2,0.7-1,2.4-1,2.4c1.4,2.9,6.4-0.3,6.4-0.3c4.6-3,4.6-7.8,4.6-7.8c-0.4-5.5-7.6-1.2-7.6-1.2c-6.3,3.4-16.5,12.2-16.5,12.2
	L156.5,66.1 M155.5,65.4c6.3-8.5,15.5-14,15.5-14c6.5-3,6.3,1,6.3,1c-0.4,4.3-2.5,5.6-2.5,5.6c-3.4,2.2-3-1-3-1
	c-2.6,3.1,1.5,2.8,1.5,2.8c4.1-0.8,4.5-6.1,4.5-6.1c0.8-7.3-8-2.1-8-2.1c-9.2,6.3-15.2,13.6-15.2,13.6L155.5,65.4z M101.2,91.9
	c8.9,0.7,22.8-2.3,22.8-2.3c1.8-0.5,1.1-1.8,1.1-1.8c-3.5-4.8-0.8-7.2-0.8-7.2c0.7-1.3-1.3-1-1.3-1c-9.9,1.8-22.8,5.9-22.8,5.9
	C91.4,91,101.2,91.9,101.2,91.9z M130.3,77.9c-2.1,0.9-3.1,3.5-3.1,3.5c-1.6,3.3,2.1,6.1,2.1,6.1c1.1,0.6,2.1,0.1,2.1,0.1
	c1.4-0.3,12.6-5.9,12.6-5.9c1.6-0.7,0.3-2,0.3-2c-1.3-2.5,0.9-5.9,0.9-5.9c0.9-3.6-2.6-1.8-2.6-1.8L130.3,77.9z M148.5,69.7
	c0,0,5.3-5.7,7.2-2.6c0,0-0.1,1.8-0.3,3.4c0,0,0,1.6-1.7,3c0,0-3.3,2.8-4.4,3.3c0,0-2,1.7-2.1-0.1C147.3,76.8,146.9,72.4,148.5,69.7
	z M123.6,3.7c2.4-4.3,8.7-8.2,8.7-8.2c6.5-2.3,4.4,6.8,4.4,6.8c-1,5.1-4.9,21.5-4.9,21.5c2.6,13.7,14.8,31.7,14.8,31.7
	c-1-8,0.5-28,0.5-28c1.3-14.1,2.6-30.7,2.6-30.7c-0.7-16-15.1-9.5-15.1-9.5c-6.2,2.3-12.9,12.1-12.9,12.1L123.6,3.7z M96.3,23.1
	c-0.1-11.8,5.6-23.6,5.6-23.6c2.8-4.9,4.8,0.2,4.8,0.2c3.3,11.5,9.3,36.2,9.3,36.2c4.3,16.2,10.2,25.4,10.2,25.4
	c0.6,1.4-1.3,1.1-1.3,1.1c-1.3-0.3-3.6,0.2-3.6,0.2c1.1,2.3,3.6,7.7,3.6,7.7c1.4,4.4-3.4,4.3-3.4,4.3c12.1,2.1,22.6-6.9,22.6-6.9
	c4.6-4.2,1.5-9.8,1.5-9.8c-1.3-3.5-2.6-5.1-2.6-5.1c-6.5-7.4-13.4-29.1-13.4-29.1c-3.4-10.6-9.3-24.2-9.3-24.2
	c-12.2-24-20.1-7.4-20.1-7.4c-6.7,13-7.4,27.8-7.4,27.8L96.3,23.1z M85.6,14.3c1.7-2.9,5.8,3.5,5.8,3.5l0.9-5.3
	c-6-8-10.5-0.2-10.5-0.2L85.6,14.3z M123.1,70.5c0,0-6.4-15.7-15.1-28.8c0,0-8.8-14.6-17.2-21.5c0,0-10.2-9.8-15.3-6.2
	c0,0-9.2,4.5-4.2,24.1c0,0,5.8,24.1,24.8,30.7c0,0,15.3,5.4,26,4C122.1,72.8,124.3,72.7,123.1,70.5z M108.1,58.6
	c-2.7,0.8-11.1-1.2-11.1-1.2c-9.1-1.7-16.3-11.6-16.3-11.6c-9-14.7-4.9-22.3-4.9-22.3c3.3-8.1,14.5,4.1,14.5,4.1
	c10.3,10.4,19,29.9,19,29.9C109.4,58.5,108.1,58.6,108.1,58.6z"/>
</svg>
