<?xml version="1.0" encoding="utf-8"?>
<!-- Generator: Adobe Illustrator 19.2.1, SVG Export Plug-In . SVG Version: 6.00 Build 0)  -->
<svg version="1.1" id="Layer_1" xmlns="http://www.w3.org/2000/svg" xmlns:xlink="http://www.w3.org/1999/xlink" x="0px" y="0px"
	 viewBox="0 0 300 23.1" style="enable-background:new 0 0 300 23.1;" xml:space="preserve">
<style type="text/css">
	.st0{fill:#FFFFFF;}
</style>
<path class="st0" d="M150.8,22.8h9.4v-3.2h-5.8V0.3h-3.5V22.8z M142.8,4.3l1.7,11.4H141L142.8,4.3z M145.5,0.3h-5.2l-3.6,22.6h3.3
	l0.6-4.1h4.4l0.6,4.1h3.6L145.5,0.3z M126.4,3.5h3.7v19.4h3.5V3.5h3.7V0.3h-11V3.5z M121.2,22.8h3.6V0.3h-3.2v13.5L118,0.3h-4.5
	v22.6h3.2V6.5L121.2,22.8z M105.3,3.5h6.1V0.3h-9.7v22.6h9.7v-3.2h-6.1V13h4.9V9.8h-4.9V3.5z M89.2,0.3h-4.9v22.6h3.1v-16l2.6,16
	h3.4l2.5-16.2v16.2h3.4V0.3h-4.9l-2.4,16L89.2,0.3z M78.1,22.8h3.6V0.3h-3.2v13.5L74.9,0.3h-4.5v22.6h3.2V6.5L78.1,22.8z M57.4,17.4
	c0,3.6,1.9,5.7,5.4,5.7c3.5,0,5.4-2.1,5.4-5.7V5.7c0-3.6-1.9-5.7-5.4-5.7c-3.5,0-5.4,2.1-5.4,5.7V17.4z M61,5.5
	c0-1.6,0.7-2.2,1.8-2.2c1.1,0,1.8,0.6,1.8,2.2v12.2c0,1.6-0.7,2.2-1.8,2.2c-1.1,0-1.8-0.6-1.8-2.2V5.5z M50,3.5
	c1.3,0,1.8,0.7,1.8,2.3V8c0,1.8-0.8,2.4-2.1,2.4h-1.4V3.5H50z M55.8,22.8c-0.4-0.8-0.4-1.6-0.4-2.7v-3.5c0-2.4-0.6-4.1-2.4-4.8
	c1.6-0.7,2.3-2.3,2.3-4.6V5.5c0-3.5-1.6-5.2-5.3-5.2h-5.4v22.6h3.5v-9.2h1.2c1.6,0,2.3,0.8,2.3,2.9v3.5c0,1.8,0.1,2.2,0.3,2.8H55.8z
	 M38.6,22.8h3.5V0.3h-3.5V22.8z M28.3,0.3h-3.6l3.5,22.6h5.3L37,0.3h-3.3L31,18.7L28.3,0.3z M19.5,22.8h3.6V0.3h-3.2v13.5L16.3,0.3
	h-4.5v22.6H15V6.5L19.5,22.8z M3.5,3.5h6.1V0.3H0v22.6h9.7v-3.2H3.5V13h4.9V9.8H3.5V3.5z"/>
<path class="st0" d="M292,22.8h3.5v-7.5L300,0.3h-3.4l-2.7,10.3l-2.7-10.3h-3.7l4.5,15.1V22.8z M281.9,13.5h1.6v4.2
	c0,1.6-0.7,2.2-1.8,2.2c-1.1,0-1.8-0.6-1.8-2.2V5.5c0-1.6,0.7-2.2,1.8-2.2c1.1,0,1.8,0.6,1.8,2.2v2.4h3.4V5.7c0-3.6-1.8-5.7-5.3-5.7
	c-3.5,0-5.3,2.1-5.3,5.7v11.7c0,3.6,1.8,5.7,5.3,5.7c3.5,0,5.3-2.1,5.3-5.7v-7.2h-5V13.5z M263.5,17.4c0,3.6,1.9,5.7,5.4,5.7
	c3.5,0,5.4-2.1,5.4-5.7V5.7c0-3.6-1.9-5.7-5.4-5.7c-3.5,0-5.4,2.1-5.4,5.7V17.4z M267,5.5c0-1.6,0.7-2.2,1.8-2.2
	c1.1,0,1.8,0.6,1.8,2.2v12.2c0,1.6-0.7,2.2-1.8,2.2c-1.1,0-1.8-0.6-1.8-2.2V5.5z M252.8,22.8h9.4v-3.2h-5.8V0.3h-3.5V22.8z
	 M239.8,17.4c0,3.6,1.9,5.7,5.4,5.7c3.5,0,5.4-2.1,5.4-5.7V5.7c0-3.6-1.9-5.7-5.4-5.7c-3.5,0-5.4,2.1-5.4,5.7V17.4z M243.3,5.5
	c0-1.6,0.7-2.2,1.8-2.2c1.1,0,1.8,0.6,1.8,2.2v12.2c0,1.6-0.7,2.2-1.8,2.2c-1.1,0-1.8-0.6-1.8-2.2V5.5z M227.5,0.3h-4.9v22.6h3.1
	v-16l2.6,16h3.4l2.5-16.2v16.2h3.4V0.3h-4.9l-2.4,16L227.5,0.3z M209.5,17.4c0,3.6,1.9,5.7,5.4,5.7c3.5,0,5.4-2.1,5.4-5.7V5.7
	c0-3.6-1.9-5.7-5.4-5.7c-3.5,0-5.4,2.1-5.4,5.7V17.4z M213.1,5.5c0-1.6,0.7-2.2,1.8-2.2c1.1,0,1.8,0.6,1.8,2.2v12.2
	c0,1.6-0.7,2.2-1.8,2.2c-1.1,0-1.8-0.6-1.8-2.2V5.5z M197.3,3.5h3.7v19.4h3.5V3.5h3.7V0.3h-11V3.5z M192.1,22.8h3.6V0.3h-3.2v13.5
	L189,0.3h-4.5v22.6h3.2V6.5L192.1,22.8z M176.2,3.5h6.1V0.3h-9.7v22.6h9.7v-3.2h-6.1V13h4.9V9.8h-4.9V3.5z"/>
</svg>
