<svg width="37" height="37" viewBox="0 0 37 37" xmlns="http://www.w3.org/2000/svg"><title>btn__pinterest_mobile_hover</title><g fill="#0072CF" fill-rule="evenodd"><path d="M18.5 37C8.283 37 0 28.717 0 18.5S8.283 0 18.5 0 37 8.283 37 18.5c-.012 10.212-8.288 18.488-18.5 18.5zm0-35.943A17.475 17.475 0 1 0 35.943 18.5C35.913 8.879 28.12 1.086 18.5 1.057z"/><path d="M16.597 26.661c-.624 3.277-1.364 6.428-3.256 8.457a3.53 3.53 0 0 1-.835.265c-.063-.455-.233-.318-.264-.762-.35-5.053 1.395-9.017 2.251-13.203-1.575-2.643.19-7.982 3.51-6.66 4.08 1.617-3.53 9.842 1.575 10.867 5.339 1.057 7.517-9.26 4.229-12.622-4.778-4.874-13.944-.127-12.813 6.818.275 1.702 2.03 2.21.698 4.557-3.066-.677-3.975-3.098-3.859-6.343.19-5.286 4.736-8.954 9.293-9.514 5.761-.645 11.174 2.114 11.924 7.537.846 6.12-2.6 12.75-8.763 12.273-1.67-.126-2.368-.962-3.68-1.754l-.01.084z"/></g></svg>