<svg width="37" height="37" viewBox="0 0 37 37" xmlns="http://www.w3.org/2000/svg"><title>btn__edit_grey_hover</title><g fill="none" fill-rule="evenodd"><path d="M18.5 36C8.9 36 1 28.1 1 18.5S8.9 1 18.5 1 36 8.9 36 18.5 28.1 36 18.5 36zm0-34C9.4 2 2 9.4 2 18.5S9.4 35 18.5 35 35 27.6 35 18.5 27.6 2 18.5 2z" fill="#0072CF"/><path d="M11.188 24.981v-4.133l8.364-8.468 4.084 4.134-8.341 8.444-4.107.023z" fill="#1274CC"/><path d="M13.371 20.462l-.894.905v1.084h1.244v1.301h1.096l.908-.92-2.354-2.37zM14.199 19.743l5.511-5.58.307.312-5.522 5.59-.296-.322z" fill="#FFF"/><path d="M22.324 9.57l-2.186 2.135 4.154 4.205 2.577-2.608-3.667-3.713-.441-.446-.437.426z" fill="#1274CC"/></g></svg>