<svg id="Layer_1" data-name="Layer 1" xmlns="http://www.w3.org/2000/svg" viewBox="0 0 37 37"><defs><style>.cls-1{fill:#0072cf}.cls-2{fill:#fff}</style></defs><title>btn_</title><circle class="cls-1" cx="18.5" cy="18.5" r="17.25"/><path class="cls-2" d="M18.5 36A17.5 17.5 0 1 1 36 18.5 17.52 17.52 0 0 1 18.5 36zm0-34A16.51 16.51 0 1 0 35 18.5 16.53 16.53 0 0 0 18.5 2z"/><path class="cls-2" d="M16.7 26.22c-.59 3.1-1.29 6.08-3.08 8a3.34 3.34 0 0 1-.79.25c-.06-.43-.22-.3-.25-.72-.33-4.78 1.32-8.53 2.13-12.49-1.49-2.5.18-7.55 3.32-6.3 3.86 1.53-3.34 9.31 1.49 10.28 5.05 1 7.11-8.76 4-11.94-4.52-4.61-13.19-.12-12.12 6.45.26 1.61 1.92 2.09.66 4.31-2.9-.64-3.76-2.93-3.65-6 .18-5 4.48-8.47 8.79-9 5.45-.61 10.57 2 11.28 7.13.8 5.79-2.46 12.06-8.29 11.61-1.58-.12-2.24-.91-3.48-1.66zm0 0"/></svg>