<?xml version="1.0" encoding="UTF-8"?>
<svg width="37px" height="37px" viewBox="0 0 37 37" version="1.1" xmlns="http://www.w3.org/2000/svg" xmlns:xlink="http://www.w3.org/1999/xlink">
    <!-- Generator: Sketch 40.1 (33804) - http://www.bohemiancoding.com/sketch -->
    <title>btn__linkedin_hover</title>
    <desc>Created with Sketch.</desc>
    <defs></defs>
    <g id="Page-1" stroke="none" stroke-width="1" fill="none" fill-rule="evenodd">
        <g id="btn__linkedin_hover" transform="translate(1.000000, 1.000000)">
            <circle id="Oval" fill="#0072CF" cx="17.5" cy="17.5" r="17.3"></circle>
            <path d="M17.5,35 C7.9,35 0,27.1 0,17.5 C0,7.9 7.9,0 17.5,0 C27.1,0 35,7.9 35,17.5 C35,27.1 27.1,35 17.5,35 L17.5,35 Z M17.5,1 C8.4,1 1,8.4 1,17.5 C1,26.6 8.4,34 17.5,34 C26.6,34 34,26.6 34,17.5 C34,8.4 26.6,1 17.5,1 L17.5,1 Z" id="Shape" fill="#FFFFFF"></path>
            <g id="text" transform="translate(8.000000, 7.000000)" fill="#FFFFFF">
                <path d="M19.280091,18.9645257 L15.4508916,18.9645257 L15.4508916,12.970102 C15.4508916,11.5404896 15.4255422,9.70193827 13.4602436,9.70193827 C11.4667259,9.70193827 11.1625327,11.260211 11.1625327,12.8677477 L11.1625327,18.9645257 L7.33333333,18.9645257 L7.33333333,6.63896141 L11.0075663,6.63896141 L11.0075663,8.32445961 L11.0601784,8.32445961 C11.5714717,7.35496334 12.8212466,6.33333333 14.6846691,6.33333333 C18.564089,6.33333333 19.280091,8.88549519 19.280091,12.2043578 L19.280091,18.9645257 L19.280091,18.9645257 Z" id="Path"></path>
                <path d="M2.92022852,4.94284697 C1.69245501,4.94284697 0.700000763,3.94752298 0.700000763,2.72214092 C0.700000763,1.49532399 1.69245501,0.5 2.92022852,0.5 C4.144654,0.5 5.13997799,1.49532399 5.13997799,2.72214092 C5.13997799,3.94752298 4.144654,4.94284697 2.92022852,4.94284697 L2.92022852,4.94284697 Z" id="Path"></path>
                <polygon id="Path" points="1 18.9755639 4.82999992 18.9755639 4.82999992 6.64999962 1 6.64999962"></polygon>
            </g>
        </g>
    </g>
</svg>