<svg width="37" height="37" viewBox="0 0 37 37" xmlns="http://www.w3.org/2000/svg"><title>btn__soundcloud_mobile_hover</title><g fill="#0072CF" fill-rule="evenodd"><path d="M18.5 37C8.283 37 0 28.717 0 18.5S8.283 0 18.5 0 37 8.283 37 18.5c-.012 10.212-8.288 18.488-18.5 18.5zm0-35.943A17.475 17.475 0 1 0 35.943 18.5C35.913 8.879 28.12 1.086 18.5 1.057z"/><rect x="17.802" y="11.227" width="1.501" height="12.569" rx=".71"/><path d="M29.06 16.914h-.433a5.36 5.36 0 0 0-5.37-6.1h-2.114a.75.75 0 0 0-.75.751v11.48c0 .415.335.751.75.751h7.907a3.457 3.457 0 0 0 .01-6.882z"/><rect x="15.149" y="14.419" width="1.501" height="9.377" rx=".71"/><rect x="12.305" y="13.172" width="1.501" height="10.624" rx=".71"/><rect x="7.009" y="15.487" width="1.501" height="7.929" rx=".71"/><rect x="9.652" y="15.942" width="1.501" height="7.929" rx=".71"/><rect x="4.472" y="17.855" width="1.395" height="4.514" rx=".66"/></g></svg>