<svg xmlns="http://www.w3.org/2000/svg" viewBox="0 0 37 37"><defs><style>.cls-1{isolation:isolate}.cls-2{opacity:.6;mix-blend-mode:multiply}.cls-3{fill:#fff}</style></defs><title>btn_googleplus</title><g class="cls-1"><g id="Layer_1" data-name="Layer 1"><circle class="cls-2" cx="18.5" cy="18.5" r="17.25"/><path class="cls-3" d="M18.5 36A17.5 17.5 0 1 1 36 18.5 17.52 17.52 0 0 1 18.5 36zm0-34A16.51 16.51 0 1 0 35 18.5 16.53 16.53 0 0 0 18.5 2z"/><path class="cls-3" d="M14.19 17v3h4.06c-.64 1.93-1.62 3-4.06 3a4.46 4.46 0 0 1 0-8.92 4.25 4.25 0 0 1 2.91 1.1c.62-.62.57-.71 2.14-2.19A7.51 7.51 0 1 0 14.19 26c6.2 0 7.71-5.4 7.21-9h-7.21zm13.53.15v-2.6h-1.86v2.6h-2.68V19h2.68v2.7h1.86V19h2.6v-1.84h-2.6z"/></g></g></svg>