<svg xmlns="http://www.w3.org/2000/svg" viewBox="-1173 823.8 37 37"><style>.st0{opacity:.6;enable-background:new}.st1{fill:#fff}</style><circle class="st0" cx="-1154.5" cy="842.3" r="17.3" id="Layer_2"/><g id="Layer_1" xmlns:sketch="http://www.bohemiancoding.com/sketch/ns"><title>btn__bookmark_grey</title><g id="Page-1" sketch:type="MSPage"><g id="btn__bookmark_grey" transform="translate(1 1)" sketch:type="MSLayerGroup"><path id="Shape" sketch:type="MSShapeGroup" class="st1" d="M-1155.5 858.8c-9.6 0-17.5-7.9-17.5-17.5s7.9-17.5 17.5-17.5 17.5 7.9 17.5 17.5-7.9 17.5-17.5 17.5zm0-34c-9.1 0-16.5 7.4-16.5 16.5s7.4 16.5 16.5 16.5 16.5-7.4 16.5-16.5-7.4-16.5-16.5-16.5z"/><path id="Shape_1_" sketch:type="MSShapeGroup" class="st1" d="M-1160.8 832.8v17l5.5-4.6 5.5 4.5v-16.9h-11zm7.4 8.1l-1.9-.9-1.9.9.3-2.1-1.5-1.5 2.1-.3.9-1.9.9 1.9 2.1.3-1.5 1.5.5 2.1z"/></g></g></g></svg>