<svg width="20" height="20" viewBox="0 0 20 20" xmlns="http://www.w3.org/2000/svg" xmlns:xlink="http://www.w3.org/1999/xlink"><title>Group</title><defs><path d="M9.986 0C4.479 0 0 4.434 0 9.916c0 5.469 4.465 9.916 9.986 9.916 5.507 0 9.986-4.433 9.986-9.916C19.958 4.434 15.493 0 9.986 0z" id="a"/><mask id="b" x="0" y="0" width="19.972" height="19.832" fill="#fff"><use xlink:href="#a"/></mask></defs><g fill="none" fill-rule="evenodd"><use stroke="#436FCC" mask="url(#b)" stroke-width="2" xlink:href="#a"/><path d="M14.778 13.325a.983.983 0 0 1 0 1.385.982.982 0 0 1-.704.28c-.254 0-.507-.098-.704-.28l-3.352-3.329-3.353 3.329a.973.973 0 0 1-.69.28 1.01 1.01 0 0 1-.69-.28.983.983 0 0 1 0-1.385l3.352-3.328-3.352-3.33a.983.983 0 0 1 0-1.384 1 1 0 0 1 1.395 0l3.352 3.329 3.352-3.329a1 1 0 0 1 1.394 0 .983.983 0 0 1 0 1.385l-3.352 3.329 3.352 3.328z" fill="#436FCC"/></g></svg>