<svg id="Layer_1" data-name="Layer 1" xmlns="http://www.w3.org/2000/svg" viewBox="0 0 37 37"><defs><style>.cls-1{fill:#0072cf}.cls-2{fill:#fff}</style></defs><title>btn_soundcloud_hover</title><circle class="cls-1" cx="18.5" cy="18.5" r="17.25"/><path class="cls-2" d="M18.5 36A17.5 17.5 0 1 1 36 18.5 17.52 17.52 0 0 1 18.5 36zm0-34A16.51 16.51 0 1 0 35 18.5 16.53 16.53 0 0 0 18.5 2z"/><rect class="cls-2" x="17.84" y="11.62" width="1.42" height="11.89" rx=".71" ry=".71"/><path class="cls-2" d="M28.49 17h-.41A5.07 5.07 0 0 0 23 11.23h-2a.71.71 0 0 0-.71.71V22.8a.71.71 0 0 0 .71.71h7.48a3.27 3.27 0 0 0 .01-6.51z"/><rect class="cls-2" x="15.33" y="14.64" width="1.42" height="8.87" rx=".71" ry=".71"/><rect class="cls-2" x="12.64" y="13.46" width="1.42" height="10.05" rx=".71" ry=".71"/><rect class="cls-2" x="7.63" y="15.65" width="1.42" height="7.5" rx=".71" ry=".71"/><rect class="cls-2" x="10.13" y="16.08" width="1.42" height="7.5" rx=".71" ry=".71"/><rect class="cls-2" x="5.23" y="17.89" width="1.32" height="4.27" rx=".66" ry=".66"/></svg>