<svg xmlns="http://www.w3.org/2000/svg" viewBox="0 0 37 37"><path fill-rule="evenodd" clip-rule="evenodd" fill="#FFF" d="M36 18.5C36 8.8 28.2 1 18.5 1S1 8.8 1 18.5 8.8 36 18.5 36 36 28.2 36 18.5z"/><path fill="#171716" d="M20.4 24.6v-.4c0-.1-.1-.3-.1-.4 0-.1-.1-.2-.2-.4-.1-.1-.2-.2-.2-.3l-.3-.3-.3-.3c-.1-.1-.2-.1-.3-.3-.2-.1-.3-.2-.3-.2-.1 0-.2-.1-.3-.2-.2-.1-.3-.2-.3-.2h-.5c-.4 0-.8 0-1.1.1-.4 0-.7.1-1.1.3-.4.1-.7.3-1 .5-.3.2-.5.5-.7.8-.2.3-.3.7-.3 1.1 0 .5.1.9.4 1.3.2.4.6.7 1 .9.4.2.8.4 1.3.5.4.1.9.2 1.3.2s.8 0 1.2-.1c.4-.1.7-.2 1.1-.4.3-.2.6-.4.8-.8-.2-.6-.1-.9-.1-1.4zm-1.3-9.1c0-.4-.1-.9-.2-1.3-.1-.5-.3-.9-.5-1.4-.2-.4-.5-.8-.9-1.1-.4-.3-.8-.4-1.3-.4-.7 0-1.2.2-1.5.7-.4.5-.5 1.1-.5 1.7 0 .3 0 .7.1 1 .1.4.2.7.4 1.1.2.4.4.7.6 1 .2.3.5.5.8.7.3.2.7.3 1 .3.7 0 1.2-.2 1.5-.6.4-.4.5-1 .5-1.7zm-1.3-5h4.6l-1.4.8h-1.4c.5.3.9.8 1.2 1.3s.4 1.2.4 1.8c0 .5-.1 1-.2 1.4-.2.4-.4.7-.6 1l-.7.7-.6.6c-.2.2-.2.5-.2.7 0 .2.1.4.2.5.1.2.3.3.5.5s.4.3.6.5c.2.2.4.4.7.6.2.2.4.4.6.7.2.2.3.5.5.9.1.3.2.7.2 1.1 0 1.1-.5 2.1-1.5 3-1.1.9-2.5 1.4-4.4 1.4-.4 0-.8 0-1.3-.1-.4-.1-.9-.2-1.3-.4s-.8-.4-1.1-.6c-.3-.2-.6-.6-.8-.9-.2-.4-.3-.8-.3-1.3 0-.4.1-.9.4-1.4.2-.4.6-.8 1-1.2.4-.3 1-.6 1.5-.7.6-.2 1.1-.3 1.6-.4.5-.1 1-.1 1.6-.1-.4-.6-.7-1.1-.7-1.6v-.2c0-.1 0-.1.1-.2 0-.1 0-.1.1-.2 0-.1.1-.2.1-.2-.3 0-.5.1-.7.1-1 0-1.9-.3-2.7-1-.7-.7-1.1-1.6-1.1-2.6s.3-1.9 1-2.6c.7-.8 1.5-1.3 2.5-1.5.3-.3.9-.4 1.6-.4zm10.9 2.7v1.3H26v2.7h-1.3v-2.7H22v-1.3h2.7v-2.7H26v2.7h2.7z"/></svg>