<svg xmlns="http://www.w3.org/2000/svg" viewBox="0 0 37 37"><g fill-rule="evenodd" clip-rule="evenodd"><path fill="#FFF" d="M36 18.5C36 8.8 28.2 1 18.5 1S1 8.8 1 18.5 8.8 36 18.5 36 36 28.2 36 18.5z"/><g fill="#171716"><path d="M12.5 8.7h1.3l.9 3.3.8-3.3h1.2l-1.5 5V17h-1.3v-3.3l-1.4-5zM20.9 10.8H22v4.4s0 .8.3.8c.5 0 .7-.5.7-.5v-4.7h1.1V17H23v-.6s-.1.1-.6.5c-1.6.9-1.5-.6-1.5-.6v-5.5zM18.3 10.8c-1.6 0-1.6 1.5-1.6 1.5l-.1 3.3s0 1.6 1.7 1.6c1.6 0 1.6-1.6 1.6-1.6v-3.4c.1 0 0-1.4-1.6-1.4zm.6 4.6s0 .6-.5.6c-.6 0-.6-.7-.6-.7v-3s.1-.6.5-.6c.5 0 .6.6.6.6v3.1zM21 21.2c-.4 0-.6.3-.6.3v3.4s.2.3.5.3c.5 0 .4-.5.4-.5v-2.9c.1 0 .2-.6-.3-.6zM24.8 21.2c-.7 0-.5 1.3-.5 1.3h1s.2-1.3-.5-1.3z"/><path d="M26.8 17.5H11.4c-.2 0-.4.2-.4.4v8.5c0 .2.2.4.4.4h15.4c.2 0 .4-.2.4-.4v-8.5c0-.2-.2-.4-.4-.4zm-11.5 2h-1.2V26h-1.2v-6.5h-1.1v-1.1h3.5v1.1zm3.1 6.5h-1v-.5s-.7.6-1.3.6c-.6 0-.6-.8-.6-.8v-5h1.1v4.2s-.1.7.2.6c.4 0 .7-.5.7-.5v-4.4h1V26zm3.1.1c-.5 0-1-.6-1-.6v.5h-1v-7.7h1v2.5s.4-.6 1.1-.6c.8 0 .8 1.2.8 1.2V25s.1 1.1-.9 1.1zm4.9-4.3v1.6h-2.1v1.2s0 .6.5.6.5-.5.5-.5v-.6h1v.8s-.2 1.3-1.5 1.3c-1.6 0-1.5-1.5-1.5-1.5V22s-.1-1.6 1.6-1.6c1.6-.1 1.5 1.4 1.5 1.4z"/></g></g></svg>