<?xml version="1.0" encoding="UTF-8" standalone="no"?>
<svg
   xmlns:dc="http://purl.org/dc/elements/1.1/"
   xmlns:cc="http://creativecommons.org/ns#"
   xmlns:rdf="http://www.w3.org/1999/02/22-rdf-syntax-ns#"
   xmlns:svg="http://www.w3.org/2000/svg"
   xmlns="http://www.w3.org/2000/svg"
   xmlns:sodipodi="http://sodipodi.sourceforge.net/DTD/sodipodi-0.dtd"
   xmlns:inkscape="http://www.inkscape.org/namespaces/inkscape"
   width="152"
   height="18"
   viewBox="3.5 24.5 152 18"
   version="1.1"
   id="svg24"
   sodipodi:docname="grey.svg"
   inkscape:version="0.92.2 (5c3e80d, 2017-08-06)">
  <metadata
     id="metadata30">
    <rdf:RDF>
      <cc:Work
         rdf:about="">
        <dc:format>image/svg+xml</dc:format>
        <dc:type
           rdf:resource="http://purl.org/dc/dcmitype/StillImage" />
      </cc:Work>
    </rdf:RDF>
  </metadata>
  <defs
     id="defs28" />
  <sodipodi:namedview
     pagecolor="#ffffff"
     bordercolor="#666666"
     borderopacity="1"
     objecttolerance="10"
     gridtolerance="10"
     guidetolerance="10"
     inkscape:pageopacity="0"
     inkscape:pageshadow="2"
     inkscape:window-width="1920"
     inkscape:window-height="1017"
     id="namedview26"
     showgrid="false"
     inkscape:zoom="14.947368"
     inkscape:cx="47.588357"
     inkscape:cy="11.881269"
     inkscape:window-x="3278"
     inkscape:window-y="-8"
     inkscape:window-maximized="1"
     inkscape:current-layer="svg24" />
  <path
     fill="#0072CF"
     d="M35.3 29.9l-4.4 4.3-2.2-2.3-1.5 1.5 2.3 2.2 1.3 1.5 1.5-1.5 4.5-4.2z"
     id="path2" />
  <path
     fill="#696969"
     d="M89 42c-4.7 0-8.5-3.8-8.5-8.5S84.3 25 89 25s8.5 3.8 8.5 8.5S93.7 42 89 42zm0-16c-4.1 0-7.5 3.4-7.5 7.5S84.9 41 89 41s7.5-3.4 7.5-7.5S93.1 26 89 26z"
     id="path4" />
  <path
     fill="#EAECED"
     d="M127 42c-4.7 0-8.5-3.8-8.5-8.5s3.8-8.5 8.5-8.5 8.5 3.8 8.5 8.5-3.8 8.5-8.5 8.5zm0-16c-4.1 0-7.5 3.4-7.5 7.5s3.4 7.5 7.5 7.5 7.5-3.4 7.5-7.5-3.4-7.5-7.5-7.5z"
     id="path6" />
  <path
     fill="#696969"
     d="M108 42c-4.7 0-8.5-3.8-8.5-8.5s3.8-8.5 8.5-8.5 8.5 3.8 8.5 8.5-3.8 8.5-8.5 8.5zm0-16c-4.1 0-7.5 3.4-7.5 7.5s3.4 7.5 7.5 7.5 7.5-3.4 7.5-7.5-3.4-7.5-7.5-7.5z"
     id="path8" />
  <circle
     fill-rule="evenodd"
     clip-rule="evenodd"
     fill="#0072CF"
     cx="108"
     cy="33.5"
     r="4"
     id="circle10" />
  <path
     fill="#EAECED"
     d="M146 42c-4.7 0-8.5-3.8-8.5-8.5s3.8-8.5 8.5-8.5 8.5 3.8 8.5 8.5-3.8 8.5-8.5 8.5zm0-16c-4.1 0-7.5 3.4-7.5 7.5s3.4 7.5 7.5 7.5 7.5-3.4 7.5-7.5-3.4-7.5-7.5-7.5z"
     id="path12" />
  <circle
     fill-rule="evenodd"
     clip-rule="evenodd"
     fill="#EAECED"
     cx="146"
     cy="33.5"
     r="4"
     id="circle14" />
  <path
     fill="#696969"
     d="M18 42H8c-1.9 0-3.5-1.6-3.5-3.5v-10C4.5 26.6 6.1 25 8 25h10c1.9 0 3.5 1.6 3.5 3.5v10c0 1.9-1.6 3.5-3.5 3.5zM8 26c-1.4 0-2.5 1.1-2.5 2.5v10C5.5 39.9 6.6 41 8 41h10c1.4 0 2.5-1.1 2.5-2.5v-10c0-1.4-1.1-2.5-2.5-2.5H8zM37 42H27c-1.9 0-3.5-1.6-3.5-3.5v-10c0-1.9 1.6-3.5 3.5-3.5h10c1.9 0 3.5 1.6 3.5 3.5v10c0 1.9-1.6 3.5-3.5 3.5zM27 26c-1.4 0-2.5 1.1-2.5 2.5v10c0 1.4 1.1 2.5 2.5 2.5h10c1.4 0 2.5-1.1 2.5-2.5v-10c0-1.4-1.1-2.5-2.5-2.5H27z"
     id="path16" />
  <path
     fill="#FFF"
     d="M73.3 29.9l-4.4 4.3-2.2-2.3-1.5 1.5 2.3 2.2 1.3 1.5 1.5-1.5 4.5-4.2z"
     id="path18" />
  <path
     fill="#FFF"
     d="M75 42H65c-1.9 0-3.5-1.6-3.5-3.5v-10c0-1.9 1.6-3.5 3.5-3.5h10c1.9 0 3.5 1.6 3.5 3.5v10c0 1.9-1.6 3.5-3.5 3.5zM65 26c-1.4 0-2.5 1.1-2.5 2.5v10c0 1.4 1.1 2.5 2.5 2.5h10c1.4 0 2.5-1.1 2.5-2.5v-10c0-1.4-1.1-2.5-2.5-2.5H65z"
     id="path20" />
  <path
     fill="none"
     d="M56 42H46c-1.9 0-3.5-1.6-3.5-3.5v-10c0-1.9 1.6-3.5 3.5-3.5h10c1.9 0 3.5 1.6 3.5 3.5v10c0 1.9-1.6 3.5-3.5 3.5zM46 26c-1.4 0-2.5 1.1-2.5 2.5v10c0 1.4 1.1 2.5 2.5 2.5h10c1.4 0 2.5-1.1 2.5-2.5v-10c0-1.4-1.1-2.5-2.5-2.5H46z"
     id="path22" />
  <path
     style="fill:#918a6f;stroke-width:0.06690141"
     d="M 3.676552,17.359073 C 2.4477828,17.061653 1.3561135,15.922693 1.0979645,14.668783 0.99629115,14.174923 0.99665745,3.826908 1.0983657,3.3355799 1.361107,2.0663403 2.4072336,0.9705953 3.6703622,0.64159209 4.2513683,0.49025922 14.714907,0.48772384 15.294834,0.6387754 c 1.233063,0.32117242 2.237245,1.3093861 2.559015,2.5183252 0.136484,0.5127902 0.142328,11.1557284 0.0064,11.6655034 -0.3283,1.231278 -1.325867,2.22012 -2.565421,2.542983 -0.554008,0.144301 -11.0194445,0.138433 -11.6182816,-0.0065 z m 11.743984,-0.998081 c 0.73271,-0.314217 1.21287,-0.818971 1.46707,-1.542212 0.12048,-0.34279 0.126807,-0.632383 0.126807,-5.8042948 0,-6.0130328 0.01637,-5.7684771 -0.431222,-6.4425977 C 16.278235,2.1125914 15.825647,1.7791882 15.274672,1.6079561 14.850739,1.476206 14.697944,1.4731869 9.3538975,1.4909697 L 3.8682864,1.5092236 3.466878,1.6965146 C 2.9910286,1.9185385 2.4796529,2.3942201 2.2633558,2.8160308 1.9622509,3.403229 1.9531075,3.6065757 1.9746731,9.2363363 l 0.020374,5.3186617 0.1552513,0.38446 c 0.2848094,0.705293 1.0166539,1.345576 1.7344407,1.517443 0.1400253,0.03353 2.6785069,0.05529 5.7370685,0.04919 5.3291264,-0.01064 5.4948554,-0.01478 5.7987284,-0.145096 z"
     id="path32"
     inkscape:connector-curvature="0"
     transform="translate(3.5,24.5)" />
  <path
     style="fill:#c8c4b7;stroke-width:0.06690141"
     d="m 22.676552,17.359073 c -1.228769,-0.29742 -2.320438,-1.43638 -2.578587,-2.69029 -0.101674,-0.49386 -0.101308,-10.841875 4.01e-4,-11.3332031 0.262741,-1.2692396 1.308868,-2.3649846 2.571996,-2.69398781 0.581006,-0.15133287 11.044545,-0.15386825 11.624472,-0.002817 1.233063,0.32117242 2.237245,1.30938611 2.559015,2.51832521 0.136484,0.5127902 0.142328,11.1557287 0.0064,11.6655037 -0.3283,1.231278 -1.325867,2.22012 -2.565421,2.542983 -0.554008,0.144301 -11.019444,0.138433 -11.618282,-0.0065 z m 11.743984,-0.998081 c 0.73271,-0.314217 1.21287,-0.818971 1.46707,-1.542212 0.12048,-0.34279 0.126807,-0.632383 0.126807,-5.8042948 0,-6.0130328 0.01637,-5.7684771 -0.431222,-6.4425977 C 35.278235,2.1125914 34.825647,1.7791882 34.274672,1.6079561 33.850739,1.476206 33.697944,1.4731869 28.353898,1.4909697 l -5.485612,0.018254 -0.401408,0.187291 C 21.991029,1.9185385 21.479653,2.3942201 21.263356,2.8160308 20.962251,3.403229 20.953108,3.6065757 20.974673,9.2363363 l 0.02037,5.3186617 0.155251,0.38446 c 0.28481,0.705293 1.016654,1.345576 1.734441,1.517443 0.140025,0.03353 2.678507,0.05529 5.737069,0.04919 5.329126,-0.01064 5.494855,-0.01478 5.798728,-0.145096 z"
     id="path34"
     inkscape:connector-curvature="0"
     transform="translate(3.5,24.5)" />
  <path
     style="fill:#c8c4b7;stroke-width:0.06690141"
     d="M 4.6376526,17.40712 C 3.6156995,17.36547 3.5930715,17.361224 3.0752948,17.113998 2.3477477,16.766611 1.7443354,16.158956 1.3774386,15.404201 1.0450279,14.72039 1.0584272,14.989292 1.0584272,9.0021814 1.0584272,3.07981 1.0485171,3.2914051 1.3565918,2.6359875 1.6900501,1.9265674 2.2637361,1.3125965 2.9147812,0.96838008 3.1816386,0.82728896 3.445135,0.70105611 3.5003287,0.68786263 3.9376359,0.58332881 6.6662876,0.53371115 10.558427,0.55951853 c 4.061591,0.026931 4.588743,0.0425044 4.917254,0.14526811 0.86323,0.27003285 1.689332,0.97998986 2.114119,1.81688726 l 0.25411,0.5006376 0.04974,1.1166955 c 0.05789,1.299762 0.05411,8.670902 -0.0051,9.947681 -0.03736,0.805713 -0.05658,0.903134 -0.261122,1.323765 -0.267562,0.550236 -0.889114,1.233496 -1.406375,1.546003 -0.778929,0.470596 -0.592556,0.455406 -5.829877,0.475148 -2.5941017,0.0098 -5.1831862,-0.0012 -5.7535207,-0.02448 z M 15.425281,16.339763 c 0.536572,-0.216503 1.065231,-0.718821 1.336639,-1.270039 l 0.219042,-0.444867 0.01966,-5.3535915 C 17.021525,3.577493 17.008541,3.2900791 16.707183,2.7758507 16.503003,2.427444 15.983438,1.9337967 15.635712,1.7578288 15.095311,1.4843572 14.866727,1.4742436 9.2787311,1.4765662 L 3.8979129,1.4788027 3.4816912,1.694401 C 2.9705834,1.9591492 2.4407462,2.4736605 2.2431466,2.8971196 2.1616679,3.07173 2.0644895,3.4297441 2.0271947,3.6927065 1.9858271,3.9843856 1.96073,6.1896271 1.9628327,9.3480817 l 0.00345,5.1772623 0.2132514,0.449686 c 0.3807752,0.802947 1.0958736,1.369912 1.8764315,1.487729 0.1911445,0.02885 2.7409333,0.04788 5.6661974,0.04229 l 5.318662,-0.01016 z"
     id="path36"
     inkscape:connector-curvature="0"
     transform="translate(3.5,24.5)" />
  <path
     style="fill:#55ddff;stroke-width:0.06690141"
     d="M 26.638582,11.793 C 26.294321,11.396172 25.51591,10.596591 24.908779,10.016153 24.301649,9.4357149 23.797251,8.9396284 23.787895,8.9137384 c -0.0094,-0.02589 0.306754,-0.3679942 0.702465,-0.7602318 l 0.719476,-0.7131592 1.070422,1.1311024 c 0.588733,0.6221063 1.093006,1.1315735 1.120607,1.1321493 0.0276,5.754e-4 0.825401,-0.7577492 1.772887,-1.6851668 0.947487,-0.9274176 1.926052,-1.8825985 2.174589,-2.1226243 l 0.451886,-0.4364104 0.702163,0.699774 c 0.386191,0.3848757 0.702164,0.7197268 0.702164,0.7441134 0,0.024387 -1.046171,1.0231894 -2.324824,2.2195616 -1.278653,1.1963724 -2.595147,2.4489204 -2.925542,2.7834404 -0.330395,0.33452 -0.620733,0.608218 -0.645197,0.608218 -0.02446,0 -0.326148,-0.324677 -0.670409,-0.721505 z"
     id="path38"
     inkscape:connector-curvature="0"
     transform="translate(3.5,24.5)" />
</svg>
