<svg xmlns="http://www.w3.org/2000/svg" viewBox="0 0 28 28"><path fill="#696969" d="M26.2 16.5c0-2.2-1.3-4-3-4.7.7-.5 1.1-1.3 1.1-2.1 0-1.5-1.2-2.6-2.7-2.6C20.2 7 19 8.2 19 9.6c0 .9.4 1.6 1.1 2.1a5 5 0 0 0-1.6 1.1c-.5-.4-1.1-.8-1.7-1.1.9-.8 1.6-2 1.6-3.3 0-2.4-2-4.3-4.4-4.3-2.4 0-4.4 1.9-4.4 4.3 0 1.3.5 2.5 1.5 3.3-.6.3-1.1.6-1.6 1-.4-.4-.9-.8-1.6-1 .6-.5 1-1.2 1-2.1C9 8.2 7.8 7 6.3 7S3.6 8.2 3.6 9.6c0 .9.4 1.6 1.1 2.1-1.7.7-3 2.6-3 4.7v2.2h4.8v5.2h14.8v-4.7-.5h5v-2.1zM4.5 9.6c0-1 .8-1.8 1.8-1.8s1.8.8 1.8 1.8-.8 1.8-1.8 1.8-1.8-.8-1.8-1.8zm-2 8.3v-1.4c0-2.3 1.7-4.2 3.7-4.2 1.2 0 2.1.5 2.6 1.1-1.2 1.2-2 2.8-2.3 4.6h-4zm17.3-8.3c0-1 .8-1.8 1.8-1.8s1.8.8 1.8 1.8-.8 1.8-1.8 1.8-1.8-.8-1.8-1.8zm5.4 8.3h-4.1c-.3-1.7-1-3.3-2.1-4.5.4-.5 1.3-1.2 2.5-1.2 2 0 3.6 1.9 3.6 4.2v1.5z"/></svg>