<svg width="37" height="37" viewBox="0 0 37 37" xmlns="http://www.w3.org/2000/svg"><title>icn_circle__btn_arrow_up_hover</title><g fill="#0072CF" fill-rule="evenodd"><path d="M18.5 36C8.9 36 1 28.1 1 18.5S8.9 1 18.5 1 36 8.9 36 18.5 28.1 36 18.5 36zm0-1C27.6 35 35 27.6 35 18.5S27.6 2 18.5 2 2 9.4 2 18.5 9.4 35 18.5 35z"/><path d="M23.5 20.5c0 .3-.1.6-.3.8-.4.4-1.1.4-1.5 0l-3.1-3.1-3.1 3.1c-.4.4-1.1.4-1.5 0-.4-.4-.4-1.1 0-1.5l3.9-3.9c.2-.2.5-.3.8-.3.3 0 .6.1.8.3l3.9 3.9c0 .1.1.4.1.7z"/></g></svg>