<svg xmlns="http://www.w3.org/2000/svg" viewBox="0 0 35 35"><g fill="#0072CF"><path d="M23.2 26.4c.2.2.2.5 0 .6l-.6.6c-.2.2-.5.2-.6 0L18.3 24c-.1-.1-.1-.1-.1-.2-.9.6-2 1.1-3.3 1.1-3.1 0-5.6-2.5-5.6-5.6s2.5-5.6 5.6-5.6 5.6 2.5 5.6 5.6c0 1.2-.4 2.3-1.1 3.3.1 0 .1.1.2.1l3.6 3.7zM15 15.6c-2 0-3.7 1.7-3.7 3.7S12.9 23 15 23s3.7-1.7 3.7-3.7-1.7-3.7-3.7-3.7zM25.6 10.5h-2.5V8.3c0-.6-.6-1.1-1.2-1.1s-1.2.5-1.2 1.1v2.2h-2.5c-.6 0-1.2.5-1.2 1.1 0 .6.6 1.1 1.2 1.1h2.5V15c0 .6.6 1.1 1.2 1.1s1.2-.5 1.2-1.1v-2.3h2.4c.6 0 1.2-.5 1.2-1.1.1-.6-.5-1.1-1.1-1.1z"/></g><g fill="#0072CF"><path d="M23.2 26.4c.2.2.2.5 0 .6l-.6.6c-.2.2-.5.2-.6 0L18.3 24c-.1-.1-.1-.1-.1-.2-.9.6-2 1.1-3.3 1.1-3.1 0-5.6-2.5-5.6-5.6s2.5-5.6 5.6-5.6 5.6 2.5 5.6 5.6c0 1.2-.4 2.3-1.1 3.3.1 0 .1.1.2.1l3.6 3.7zM15 15.6c-2 0-3.7 1.7-3.7 3.7S12.9 23 15 23s3.7-1.7 3.7-3.7-1.7-3.7-3.7-3.7zM25.6 10.5h-2.5V8.3c0-.6-.6-1.1-1.2-1.1s-1.2.5-1.2 1.1v2.2h-2.5c-.6 0-1.2.5-1.2 1.1 0 .6.6 1.1 1.2 1.1h2.5V15c0 .6.6 1.1 1.2 1.1s1.2-.5 1.2-1.1v-2.3h2.4c.6 0 1.2-.5 1.2-1.1.1-.6-.5-1.1-1.1-1.1z"/></g></svg>