<svg xmlns="http://www.w3.org/2000/svg" width="22" height="24" viewBox="0 0 22 24"><g fill="#436FCC"><path d="M16.3 21.1c.2.2.2.5 0 .6l-.6.6c-.2.2-.5.2-.6 0l-3.6-3.6s-.1-.1-.1-.2c-.9.7-2.1 1.1-3.3 1.1-3.1 0-5.6-2.5-5.6-5.6 0-3.1 2.5-5.6 5.6-5.6 3.1 0 5.6 2.5 5.6 5.6 0 1.2-.4 2.4-1.1 3.3.1 0 .1.1.2.1l3.5 3.7zM8 10.4c-2.1 0-3.7 1.7-3.7 3.7 0 2.1 1.7 3.7 3.7 3.7 2.1 0 3.7-1.7 3.7-3.7.1-2-1.6-3.7-3.7-3.7zM18.3 4.9h-2.6V2.6c0-.6-.6-1.1-1.3-1.1s-1.2.5-1.2 1.1v2.3h-2.5c-.7 0-1.3.5-1.3 1.1 0 .6.6 1.1 1.3 1.1h2.5v2.4c0 .6.6 1.1 1.3 1.1s1.3-.5 1.3-1.1V7.1h2.6c.7 0 1.3-.5 1.3-1.1-.1-.6-.7-1.1-1.4-1.1z"/></g><g fill="#FFF"><path d="M16.3 21.1c.2.2.2.5 0 .6l-.6.6c-.2.2-.5.2-.6 0l-3.6-3.6s-.1-.1-.1-.2c-.9.7-2.1 1.1-3.3 1.1-3.1 0-5.6-2.5-5.6-5.6 0-3.1 2.5-5.6 5.6-5.6 3.1 0 5.6 2.5 5.6 5.6 0 1.2-.4 2.4-1.1 3.3.1 0 .1.1.2.1l3.5 3.7zM8 10.4c-2.1 0-3.7 1.7-3.7 3.7 0 2.1 1.7 3.7 3.7 3.7 2.1 0 3.7-1.7 3.7-3.7.1-2-1.6-3.7-3.7-3.7zM18.3 4.9h-2.6V2.6c0-.6-.6-1.1-1.3-1.1s-1.2.5-1.2 1.1v2.3h-2.5c-.7 0-1.3.5-1.3 1.1 0 .6.6 1.1 1.3 1.1h2.5v2.4c0 .6.6 1.1 1.3 1.1s1.3-.5 1.3-1.1V7.1h2.6c.7 0 1.3-.5 1.3-1.1-.1-.6-.7-1.1-1.4-1.1z"/></g></svg>