<svg xmlns="http://www.w3.org/2000/svg" viewBox="0 0 35 35"><path fill="#696969" d="M23.2 26.4c.2.2.2.5 0 .6l-.6.6c-.2.2-.5.2-.6 0L18.3 24c-.1-.1-.1-.1-.1-.2-.9.6-2 1.1-3.3 1.1-3.1 0-5.6-2.5-5.6-5.6s2.5-5.6 5.6-5.6 5.6 2.5 5.6 5.6c0 1.2-.4 2.3-1.1 3.3.1 0 .1.1.2.1l3.6 3.7zM15 15.6c-2 0-3.7 1.7-3.7 3.7S12.9 23 15 23s3.7-1.7 3.7-3.7-1.7-3.7-3.7-3.7z"/><path fill="#696969" d="M23.2 26.4c.2.2.2.5 0 .6l-.6.6c-.2.2-.5.2-.6 0L18.3 24c-.1-.1-.1-.1-.1-.2-.9.6-2 1.1-3.3 1.1-3.1 0-5.6-2.5-5.6-5.6s2.5-5.6 5.6-5.6 5.6 2.5 5.6 5.6c0 1.2-.4 2.3-1.1 3.3.1 0 .1.1.2.1l3.6 3.7zM15 15.6c-2 0-3.7 1.7-3.7 3.7S12.9 23 15 23s3.7-1.7 3.7-3.7-1.7-3.7-3.7-3.7z"/></svg>