<?xml version="1.0" encoding="utf-8"?>
<!-- Generator: Adobe Illustrator 19.1.0, SVG Export Plug-In . SVG Version: 6.00 Build 0)  -->
<svg version="1.1" id="Layer_1" xmlns="http://www.w3.org/2000/svg" xmlns:xlink="http://www.w3.org/1999/xlink" x="0px" y="0px"
	 viewBox="0 0 262 102" enable-background="new 0 0 262 102" xml:space="preserve">
<g>
	<path fill="#6A6B6D" d="M126.3,31.8c-4.4,0-7.4-3.4-7.4-8.5c0-5,3-8.5,7.5-8.5c1.8,0,3.4,0.5,4.6,1.4l-0.3,1.7
		c-1.3-0.9-2.7-1.6-4.4-1.6c-3.6,0-5.8,2.8-5.8,7c0,4.2,2.3,7,5.8,7c1.8,0,3.3-0.7,4.7-1.7l0.2,1.6
		C130.1,31.1,128.3,31.8,126.3,31.8"/>
	<path fill="#6A6B6D" d="M147.5,31.7l-2.1-5.4h-7.2l-2,5.3h-1.7l6.4-16.4h1.7l6.4,16.2L147.5,31.7z M141.9,17l-3,7.8h6L141.9,17z"/>
	<polygon fill="#6A6B6D" points="153.6,31.5 153.6,15.2 155.2,15.2 155.2,30 161.5,30 161.8,31.5 	"/>
	<rect x="166.6" y="15.2" fill="#6A6B6D" width="1.6" height="16.3"/>
	<polygon fill="#6A6B6D" points="176.7,16.6 176.7,22.5 182,22.5 182.2,24 176.7,24 176.7,31.5 175.1,31.5 175.1,15.2 183.3,15.2 
		183.3,16.6 	"/>
	<path fill="#6A6B6D" d="M194.3,31.8c-4.3,0-7.3-3.5-7.3-8.5c0-5,3-8.5,7.4-8.5c4.4,0,7.4,3.5,7.4,8.5
		C201.7,28.3,198.7,31.8,194.3,31.8 M194.4,16.3c-3.4,0-5.7,2.8-5.7,7c0,4.2,2.3,7,5.7,7c3.4,0,5.7-2.8,5.7-7
		C200.1,19.2,197.8,16.3,194.4,16.3"/>
	<path fill="#6A6B6D" d="M217.3,31.3l-1.7,0.4l-5.3-7.4h-2.1v7.2h-1.6V15.2h4.2c3.2,0,5.2,1.6,5.2,4.5c0,2.5-1.6,4-3.9,4.4
		L217.3,31.3z M210.7,16.6h-2.5v6.3h2.2c2.4,0,3.9-1.1,3.9-3.2C214.3,17.7,213,16.6,210.7,16.6"/>
	<polygon fill="#6A6B6D" points="233,31.5 223.4,17.8 223.4,31.5 221.9,31.5 221.9,15.2 223.4,15.2 232.7,28.5 232.7,15.2 
		234.2,15.2 234.2,31.5 	"/>
	<rect x="240.6" y="15.2" fill="#6A6B6D" width="1.6" height="16.3"/>
	<path fill="#6A6B6D" d="M259.9,31.7l-2.1-5.4h-7.2l-2,5.3h-1.7l6.4-16.4h1.7l6.4,16.2L259.9,31.7z M254.2,17l-3,7.8h6L254.2,17z"/>
	<path fill="#6A6B6D" d="M131.3,59.3l-2.1-5.4h-7.2l-2,5.3h-1.7l6.4-16.4h1.7l6.4,16.2L131.3,59.3z M125.6,44.6l-3,7.8h6L125.6,44.6
		z"/>
	<path fill="#6A6B6D" d="M142,59.4c-4.4,0-7.4-3.4-7.4-8.5c0-5,3-8.5,7.5-8.5c1.8,0,3.4,0.5,4.6,1.4l-0.3,1.7
		c-1.3-0.9-2.7-1.6-4.4-1.6c-3.6,0-5.8,2.8-5.8,7c0,4.2,2.3,7,5.8,7c1.8,0,3.3-0.7,4.7-1.7l0.2,1.6C145.8,58.7,144,59.4,142,59.4"/>
	<path fill="#6A6B6D" d="M162.2,59.3l-2.1-5.4H153l-2,5.3h-1.7l6.4-16.4h1.7l6.4,16.2L162.2,59.3z M156.5,44.6l-3,7.8h6L156.5,44.6z
		"/>
	<path fill="#6A6B6D" d="M171.4,59.1H167V42.8h4.5c5.4,0,8.5,3.3,8.5,8.1C179.9,56,176.6,59.1,171.4,59.1 M171.4,44.3h-2.8v13.4h2.8
		c4.1,0,6.8-2.2,6.8-6.7C178.2,46.6,175.5,44.3,171.4,44.3"/>
	<polygon fill="#6A6B6D" points="183.5,59.1 183.5,42.8 192.1,42.8 192.1,44.3 185.2,44.3 185.2,49.9 190.6,49.9 190.8,51.3 
		185.2,51.3 185.2,57.7 192.3,57.7 192.3,59.1 	"/>
	<polygon fill="#6A6B6D" points="211.7,59.1 210.6,45.2 204.9,59.2 203.7,59.2 198,45.2 196.9,59.1 195.4,59.1 196.7,42.8 
		198.7,42.8 204.3,57.1 210,42.8 211.9,42.8 213.2,59.1 	"/>
	<polygon fill="#6A6B6D" points="222.7,52.3 222.7,59.1 221.1,59.1 221.1,52.4 215.3,43 216.9,42.6 221.9,50.9 226.8,42.8 
		228.6,42.8 	"/>
	<path fill="#6A6B6D" d="M242.2,59.4c-4.4,0-7.3-3.5-7.3-8.5c0-5,3-8.5,7.4-8.5c4.4,0,7.4,3.5,7.4,8.5
		C249.6,55.9,246.6,59.4,242.2,59.4 M242.2,44c-3.4,0-5.7,2.8-5.7,7c0,4.2,2.3,7,5.7,7c3.4,0,5.7-2.8,5.7-7
		C247.9,46.8,245.7,44,242.2,44"/>
	<polygon fill="#6A6B6D" points="254.9,44.3 254.9,50.1 260.2,50.1 260.4,51.6 254.9,51.6 254.9,59.1 253.3,59.1 253.3,42.8 
		261.5,42.8 261.5,44.3 	"/>
	<path fill="#6A6B6D" d="M119.2,76c0,3.3,1.7,4.6,5.7,6.4c3.3,1.5,4,2.2,4,4.1c0,1.9-1.4,3.1-3.7,3.1c-2.4,0-4.5-1.1-5.5-1.8
		l-0.2-0.1L119,91l0.1,0c1.7,0.9,3.9,1.4,6.1,1.4c4.1,0,6.9-2.5,6.9-6.2c0-3.2-1.3-4.7-5.7-6.7c-3.2-1.5-4-2.2-4-3.8
		c0-1.7,1.3-2.7,3.4-2.7c1.5,0,3.1,0.6,4.4,1.6l0.2,0.2l0.5-3.3l-0.1-0.1c-1.4-0.8-3.1-1.2-5-1.2C121.9,70.2,119.2,72.5,119.2,76"/>
	<path fill="#6A6B6D" d="M135.8,81.4c0,6.7,4,11.2,10.1,11.2c2.3,0,4.8-0.8,6.6-2.1l0.1-0.1l-0.5-3.1l-0.2,0.1
		c-1.9,1.4-3.9,2.1-5.9,2.1c-4.2,0-6.8-3.2-6.8-8.3c0-5.1,2.6-8.3,6.8-8.3c2,0,3.8,0.7,5.6,2.1l0.2,0.2l0.5-3.3l-0.1,0
		c-1.8-1.2-3.8-1.8-6.2-1.8C139.9,70,135.8,74.6,135.8,81.4"/>
	<rect x="158.4" y="70.4" fill="#6A6B6D" width="3.2" height="21.7"/>
	<polygon fill="#6A6B6D" points="169.4,70.4 169.4,92.2 181.6,92.2 181.6,89.2 172.7,89.2 172.7,82.3 179.8,82.3 179.4,79.3 
		172.7,79.3 172.7,73.4 181.3,73.4 181.3,70.4 	"/>
	<path fill="#6A6B6D" d="M201.8,70.4v15.8c-0.5-0.7-11.1-15.8-11.1-15.8h-2.8v21.7h3V75.8c0.5,0.7,11.5,16.4,11.5,16.4h2.4V70.4
		H201.8z"/>
	<path fill="#6A6B6D" d="M209.6,81.4c0,6.7,4,11.2,10.1,11.2c2.3,0,4.8-0.8,6.6-2.1l0.1-0.1l-0.5-3.1l-0.2,0.1
		c-1.9,1.4-3.9,2.1-5.9,2.1c-4.2,0-6.8-3.2-6.8-8.3c0-5.1,2.6-8.3,6.8-8.3c2,0,3.8,0.7,5.6,2.1l0.2,0.2l0.5-3.3l-0.1,0
		c-1.8-1.2-3.8-1.8-6.2-1.8C213.7,70,209.6,74.6,209.6,81.4"/>
	<polygon fill="#6A6B6D" points="231.6,70.4 231.6,92.2 243.8,92.2 243.8,89.2 234.8,89.2 234.8,82.3 242,82.3 241.5,79.3 
		234.8,79.3 234.8,73.4 243.5,73.4 243.5,70.4 	"/>
	<path fill="#6A6B6D" d="M248.8,76c0,3.3,1.7,4.6,5.7,6.4c3.3,1.5,4,2.2,4,4.1c0,1.9-1.4,3.1-3.7,3.1c-2.4,0-4.5-1.1-5.5-1.8
		l-0.2-0.1l-0.5,3.3l0.1,0c1.7,0.9,3.9,1.4,6.1,1.4c4.1,0,6.9-2.5,6.9-6.2c0-3.2-1.3-4.7-5.7-6.7c-3.2-1.5-4-2.2-4-3.8
		c0-1.7,1.3-2.7,3.4-2.7c1.5,0,3.1,0.6,4.4,1.6l0.2,0.2l0.5-3.3l-0.1-0.1c-1.4-0.8-3.1-1.2-5-1.2C251.4,70.2,248.8,72.5,248.8,76"/>
	<path fill="#ACAFA6" d="M35.5,25.2c-1.1-0.8-2.2-1.7-3.2-2.6c0.7,3.4,1,6.8,0.2,10.5c1-0.2,1.9-0.5,2.9-0.9
		C35.8,29.7,35.8,27.4,35.5,25.2 M12.2,51c-1.6,0.5-3.3,1.1-5,1.7c-2.4,1-4.5,2.3-6.4,3.8c-0.6,0.5-0.6,1.3-0.1,1.9
		c0.5,0.6,1.4,0.6,1.9,0.1c1.6-1.4,3.5-2.5,5.6-3.4c2-0.8,4-1.4,6-2c0.8-0.3,1.7-0.5,2.5-0.8c-1.1-0.4-2.2-0.7-3.3-1.1
		C13,51.3,12.6,51.1,12.2,51 M31.3,17.9c0.3,0.3,0.6,0.6,0.9,0.9c0.9,0.8,1.7,1.6,2.6,2.3c-0.2-0.9-0.4-1.7-0.6-2.6
		c-0.5-2-0.9-4.1-1.2-6.2c-0.3-2.3-0.3-4.5,0.1-6.6c0.1-0.7-0.3-1.4-1.1-1.6c-0.7-0.1-1.4,0.3-1.6,1.1c-0.4,2.4-0.5,4.9-0.1,7.4
		C30.6,14.5,30.9,16.2,31.3,17.9 M30,39.2c-0.6,1.1-1.3,2.1-2,2.9c-0.7,0.8-1.4,1.6-2.1,2.3c-2.8,2.6-5.9,4-9.2,5.1
		c1.3,0.4,2.6,0.9,3.9,1.4c2.1-0.9,4.1-2,6-3.5c0.8-0.7,1.6-1.4,2.4-2.2c1.2-1.3,2.4-2.8,3.4-4.7c1.1-1.8,1.8-3.6,2.3-5.3
		c-1.1,0.3-2.1,0.6-3.1,0.7C31.2,37.1,30.6,38.1,30,39.2"/>
	<path fill="#ACAFA6" d="M46.9,74.8c-0.7-0.8-1.4-1.6-2.2-2.4c-1.3-1.2-2.8-2.4-4.7-3.4c-1.8-1.1-3.6-1.8-5.3-2.3
		c0.3,1.1,0.6,2.1,0.7,3.1c1,0.4,2.1,0.9,3.2,1.6c1.1,0.6,2.1,1.3,2.9,2c0.9,0.7,1.6,1.4,2.3,2.1c2.6,2.8,4,5.9,5.1,9.2
		c0.4-1.3,0.9-2.6,1.4-3.9C49.5,78.8,48.4,76.7,46.9,74.8 M58.1,98.8c-1.4-1.6-2.5-3.5-3.4-5.6c-0.8-2-1.4-4-2-6
		c-0.3-0.8-0.5-1.7-0.8-2.5c-0.4,1.1-0.7,2.2-1.1,3.3c-0.1,0.4-0.3,0.8-0.4,1.2c0.5,1.6,1.1,3.3,1.7,5c1,2.4,2.3,4.5,3.8,6.4
		c0.5,0.6,1.4,0.6,1.9,0.1C58.5,100.2,58.6,99.3,58.1,98.8 M11.8,68.4c-2.3,0.3-4.5,0.3-6.6-0.1c-0.7-0.1-1.4,0.3-1.6,1.1
		c-0.1,0.7,0.3,1.5,1.1,1.6c2.4,0.4,4.9,0.5,7.4,0.1c1.8-0.2,3.5-0.6,5.2-1c0.3-0.3,0.6-0.6,0.9-0.9c0.8-0.9,1.6-1.7,2.3-2.6
		c-0.9,0.2-1.7,0.4-2.6,0.6C16,67.6,13.9,68.1,11.8,68.4 M24.6,65.9c-0.8,1.1-1.7,2.2-2.6,3.2c3.4-0.7,6.8-1,10.5-0.2
		c-0.2-1-0.5-1.9-0.9-3C29.1,65.6,26.8,65.6,24.6,65.9"/>
	<path fill="#ACAFA6" d="M74.2,54.5c-0.8,0.6-1.6,1.4-2.4,2.2c-1.2,1.3-2.4,2.8-3.4,4.7c-1.1,1.8-1.8,3.6-2.3,5.3
		c1.1-0.3,2.1-0.6,3.1-0.7c0.4-1,0.9-2.1,1.6-3.2c0.6-1.1,1.3-2.1,2-2.9c0.7-0.8,1.4-1.6,2.1-2.3c2.8-2.6,5.9-4,9.2-5.1
		c-1.3-0.4-2.6-0.9-3.9-1.4C78.2,51.9,76.1,53,74.2,54.5 M69.5,84.1c-0.3-0.3-0.6-0.6-0.9-0.9c-0.9-0.8-1.7-1.6-2.6-2.3
		c0.2,0.9,0.4,1.7,0.6,2.6c0.5,2,0.9,4.1,1.2,6.2c0.3,2.3,0.3,4.5-0.1,6.6c-0.1,0.7,0.3,1.4,1.1,1.6c0.7,0.1,1.4-0.3,1.6-1.1
		c0.5-2.4,0.5-4.9,0.1-7.4C70.2,87.5,69.9,85.8,69.5,84.1 M68.3,68.9c-1,0.2-1.9,0.5-2.9,0.9c-0.4,2.4-0.3,4.7-0.1,7
		c1.1,0.8,2.2,1.7,3.2,2.6C67.8,76.1,67.5,72.6,68.3,68.9 M100.1,43.5c-0.5-0.6-1.3-0.6-1.9-0.1c-1.6,1.4-3.5,2.5-5.6,3.4
		c-2,0.8-4,1.4-6,2c-0.8,0.3-1.7,0.5-2.5,0.8c1.1,0.4,2.2,0.7,3.3,1.1c0.4,0.1,0.8,0.2,1.2,0.4c1.6-0.5,3.3-1.1,5-1.7
		c2.4-1,4.5-2.3,6.4-3.8C100.5,44.9,100.6,44.1,100.1,43.5"/>
	<path fill="#ACAFA6" d="M68.3,33.1c0.2,1,0.5,1.9,0.9,3c2.4,0.4,4.7,0.3,7,0.1c0.8-1.1,1.7-2.2,2.6-3.2
		C75.5,33.6,72.1,33.9,68.3,33.1 M62.2,30.6c-1.1-0.6-2.1-1.3-2.9-2c-0.8-0.7-1.6-1.4-2.3-2.1c-2.6-2.8-4-5.9-5.1-9.2
		c-0.4,1.3-0.9,2.6-1.4,3.9c0.9,2.1,2,4.1,3.5,6c0.7,0.8,1.4,1.6,2.2,2.4c1.3,1.2,2.8,2.4,4.7,3.4c1.8,1.1,3.6,1.8,5.3,2.3
		c-0.3-1.1-0.6-2.1-0.7-3.1C64.4,31.7,63.3,31.2,62.2,30.6 M48.7,7.8c-1-2.4-2.3-4.5-3.8-6.4c-0.5-0.6-1.4-0.6-1.9-0.1
		c-0.6,0.5-0.6,1.3-0.1,1.9c1.4,1.6,2.5,3.5,3.4,5.6c0.8,2,1.4,4,2,6c0.3,0.8,0.5,1.7,0.8,2.5c0.4-1.1,0.7-2.2,1.1-3.3
		c0.1-0.4,0.2-0.8,0.4-1.2C49.9,11.2,49.3,9.5,48.7,7.8 M96.1,31.1c-2.4-0.4-4.9-0.5-7.4-0.1c-1.8,0.2-3.5,0.6-5.2,1
		c-0.3,0.3-0.6,0.6-0.9,0.9c-0.8,0.9-1.6,1.7-2.3,2.6c0.9-0.2,1.7-0.4,2.5-0.6c2-0.5,4.1-0.9,6.2-1.2c2.3-0.3,4.5-0.3,6.6,0.1
		c0.7,0.1,1.4-0.3,1.6-1.1C97.3,31.9,96.9,31.2,96.1,31.1"/>
	<path fill="#679044" d="M29,45.2c-0.8,0.8-1.5,1.6-2.4,2.2c0.2,1.1,0.3,2.3,0.3,3.5c0,1.3-0.1,2.4-0.3,3.5c0.8,0.7,1.6,1.4,2.4,2.2
		c0.4-1.7,0.6-3.6,0.6-5.7C29.6,48.9,29.3,47,29,45.2 M13.9,27.9c1.1,1.4,2.3,2.7,3.4,4c0.3,0.3,0.6,0.6,0.9,0.9
		c0.8,0.9,1.6,1.7,2.3,2.6c2.3,2.6,4.3,5.4,5.4,9c0.7-0.7,1.4-1.4,2.1-2.3c-0.9-2.3-2.1-4.3-3.4-6.1c-0.8-1.1-1.7-2.2-2.6-3.2
		c-0.6-0.7-1.2-1.3-1.8-1.9c-1.4-1.5-2.8-3.1-4.1-4.7c-1.4-1.8-2.5-3.8-3.2-5.7c-0.2-0.7-1-1.1-1.7-0.8c-0.7,0.2-1.1,1-0.8,1.7
		C11.1,23.7,12.3,25.8,13.9,27.9 M25.9,57.6c-1.1,3.6-3.1,6.4-5.4,9c-0.8,0.9-1.5,1.7-2.3,2.6c-0.3,0.3-0.6,0.6-0.9,0.9
		c-1.2,1.3-2.3,2.6-3.4,4c-1.6,2-2.8,4.2-3.6,6.5c-0.2,0.7,0.1,1.5,0.8,1.7c0.7,0.2,1.5-0.1,1.7-0.8c0.7-2,1.8-3.9,3.2-5.7
		c1.3-1.7,2.7-3.2,4.1-4.7c0.6-0.6,1.2-1.3,1.8-1.9c0.9-1,1.8-2.1,2.6-3.2c1.4-1.8,2.5-3.8,3.4-6.1C27.3,59,26.6,58.2,25.9,57.6"/>
	<path fill="#679044" d="M80.9,88.5c-2-0.7-3.9-1.8-5.7-3.2c-1.7-1.3-3.2-2.7-4.8-4.1c-0.6-0.6-1.3-1.2-1.9-1.8
		c-1-0.9-2.1-1.8-3.2-2.6c-1.8-1.3-3.8-2.5-6.1-3.4c-0.9,0.7-1.6,1.4-2.3,2.1c3.6,1.1,6.4,3.1,9,5.4c0.9,0.8,1.7,1.5,2.6,2.3
		c0.3,0.3,0.6,0.6,0.9,0.9c1.3,1.2,2.6,2.3,4,3.4c2.1,1.6,4.2,2.8,6.5,3.6c0.7,0.2,1.5-0.1,1.7-0.8C82,89.6,81.6,88.8,80.9,88.5
		 M41.6,73.4c-2.3,0.9-4.3,2.1-6.1,3.4c-1.1,0.8-2.2,1.7-3.2,2.6c-0.6,0.6-1.3,1.2-1.9,1.8c-1.5,1.4-3.1,2.8-4.8,4.1
		c-1.8,1.4-3.8,2.5-5.7,3.2c-0.7,0.2-1.1,1-0.8,1.7c0.2,0.7,1,1.1,1.7,0.8c2.3-0.8,4.5-2,6.5-3.6c1.4-1.1,2.7-2.3,4-3.4
		c0.3-0.3,0.6-0.6,0.9-0.9c0.9-0.8,1.7-1.6,2.6-2.3c2.6-2.3,5.4-4.3,9-5.4C43.2,74.8,42.4,74.1,41.6,73.4 M44.7,72.5
		c0.8,0.8,1.6,1.5,2.2,2.4c1.1-0.2,2.3-0.3,3.5-0.3c1.3,0,2.4,0.1,3.5,0.3c0.7-0.8,1.4-1.6,2.2-2.4c-1.7-0.4-3.6-0.6-5.8-0.6
		C48.3,71.8,46.4,72.1,44.7,72.5"/>
	<path fill="#679044" d="M54,27.2c-1.1,0.2-2.3,0.3-3.5,0.3c-1.3,0-2.4-0.1-3.5-0.3c-0.7,0.8-1.4,1.6-2.2,2.4
		c1.7,0.4,3.6,0.6,5.8,0.6c2.1,0,4-0.2,5.7-0.6C55.3,28.8,54.6,28,54,27.2 M81.8,11.7c-0.2-0.7-1-1.1-1.7-0.8
		c-2.3,0.8-4.5,2-6.5,3.6c-1.4,1.1-2.7,2.3-4,3.4c-0.3,0.3-0.6,0.6-0.9,0.9c-0.9,0.8-1.7,1.6-2.6,2.3c-2.6,2.3-5.4,4.3-9,5.4
		c0.7,0.7,1.4,1.4,2.3,2.1c2.3-0.9,4.3-2.1,6.1-3.4c1.1-0.8,2.2-1.7,3.2-2.6c0.7-0.6,1.3-1.2,1.9-1.8c1.5-1.4,3.1-2.8,4.8-4.1
		c1.8-1.4,3.7-2.5,5.7-3.2C81.6,13.2,82,12.4,81.8,11.7 M32.2,18.8c-0.3-0.3-0.6-0.6-0.9-0.9c-1.3-1.2-2.6-2.3-4-3.4
		c-2-1.6-4.2-2.8-6.5-3.6c-0.7-0.2-1.5,0.1-1.7,0.8c-0.2,0.7,0.1,1.5,0.8,1.7c2,0.7,3.9,1.8,5.7,3.2c1.7,1.3,3.2,2.7,4.8,4.1
		c0.6,0.6,1.3,1.2,1.9,1.8c1,0.9,2.1,1.8,3.2,2.6c1.8,1.4,3.8,2.5,6.1,3.4c0.8-0.7,1.6-1.4,2.3-2.1c-3.6-1.1-6.4-3.1-9-5.4
		C33.9,20.3,33.1,19.6,32.2,18.8"/>
	<path fill="#679044" d="M74.9,44.4c1.1-3.6,3.1-6.4,5.4-9c0.8-0.9,1.5-1.7,2.3-2.6c0.3-0.3,0.6-0.6,0.9-0.9c1.2-1.3,2.3-2.6,3.4-4
		c1.6-2.1,2.8-4.2,3.6-6.5c0.2-0.7-0.1-1.5-0.8-1.7c-0.7-0.2-1.5,0.1-1.7,0.8c-0.7,2-1.8,3.9-3.2,5.7c-1.3,1.7-2.7,3.2-4.1,4.7
		c-0.6,0.6-1.2,1.3-1.8,1.9c-0.9,1-1.8,2.1-2.6,3.2c-1.4,1.8-2.5,3.8-3.4,6.1C73.5,43,74.2,43.8,74.9,44.4 M86.9,74.1
		c-1.1-1.4-2.3-2.7-3.4-4c-0.3-0.3-0.6-0.6-0.9-0.9c-0.8-0.9-1.6-1.7-2.3-2.6c-2.3-2.6-4.3-5.4-5.4-9c-0.7,0.7-1.4,1.4-2.1,2.3
		c0.9,2.3,2.1,4.3,3.4,6.1c0.8,1.1,1.7,2.2,2.6,3.2c0.6,0.7,1.2,1.3,1.8,1.9c1.4,1.5,2.8,3.1,4.1,4.7c1.4,1.8,2.5,3.7,3.2,5.7
		c0.2,0.7,1,1.1,1.7,0.8c0.7-0.2,1.1-1,0.8-1.7C89.7,78.3,88.5,76.2,86.9,74.1 M74,51c0-1.3,0.1-2.4,0.3-3.5
		c-0.8-0.7-1.6-1.4-2.3-2.2c-0.4,1.7-0.6,3.6-0.6,5.8c0,2.1,0.2,4,0.6,5.7c0.8-0.8,1.5-1.6,2.4-2.2C74.1,53.4,74,52.3,74,51"/>
	<path fill="#E76E25" d="M35.4,69.9c-0.2-1-0.4-2.1-0.7-3.1c-0.5-1.7-1.3-3.5-2.3-5.3c-1.1-1.8-2.2-3.4-3.4-4.7
		c-0.8-0.8-1.5-1.6-2.4-2.2c-1.9-1.5-3.9-2.7-6-3.5c-1.3-0.5-2.6-1-3.9-1.4c-0.8-0.3-1.7-0.5-2.5-0.8c-2-0.6-4-1.2-6-2
		c-2.1-0.9-4-2-5.6-3.4c-0.6-0.5-1.4-0.4-1.9,0.1c-0.5,0.6-0.4,1.4,0.1,1.9c1.8,1.6,4,2.9,6.4,3.8c1.7,0.7,3.3,1.2,5,1.7
		c0.4,0.1,0.8,0.3,1.2,0.4c1.1,0.3,2.2,0.7,3.3,1.1c3.3,1.1,6.4,2.5,9.2,5.1c0.7,0.7,1.4,1.4,2.1,2.3c0.7,0.9,1.4,1.8,2,2.9
		c0.6,1.1,1.1,2.2,1.5,3.2c0.4,1,0.7,2,0.9,3c0.9,3.7,0.5,7.1-0.2,10.5c1-0.9,2.1-1.8,3.2-2.6C35.8,74.6,35.8,72.3,35.4,69.9
		 M31.3,84.1c-0.4,1.7-0.7,3.4-1,5.2c-0.4,2.6-0.3,5.1,0.1,7.4c0.1,0.7,0.9,1.2,1.6,1.1c0.7-0.1,1.2-0.9,1.1-1.6
		c-0.4-2.1-0.4-4.3-0.1-6.6c0.3-2.1,0.8-4.2,1.2-6.2c0.2-0.8,0.4-1.7,0.6-2.6c-0.9,0.8-1.7,1.5-2.6,2.3
		C31.9,83.5,31.6,83.8,31.3,84.1"/>
	<path fill="#E76E25" d="M69.3,66c-1,0.2-2.1,0.4-3.1,0.7c-1.7,0.5-3.5,1.3-5.3,2.3c-1.8,1.1-3.4,2.2-4.7,3.4
		c-0.8,0.8-1.6,1.5-2.2,2.4c-1.5,1.9-2.7,3.9-3.5,6c-0.5,1.3-1,2.6-1.4,3.9c-0.3,0.8-0.5,1.7-0.8,2.5c-0.6,2-1.2,4-2,6
		c-0.9,2.1-2,4-3.4,5.6c-0.5,0.6-0.4,1.4,0.1,1.9c0.6,0.5,1.4,0.4,1.9-0.1c1.6-1.8,2.9-4,3.8-6.4c0.7-1.7,1.2-3.3,1.7-5
		c0.1-0.4,0.2-0.8,0.4-1.2c0.3-1.1,0.7-2.2,1.1-3.3c1.1-3.3,2.5-6.4,5.1-9.2c0.7-0.7,1.4-1.4,2.3-2.1c0.9-0.7,1.8-1.4,2.9-2
		c1.1-0.6,2.2-1.1,3.2-1.6c1-0.4,2-0.7,2.9-0.9c3.7-0.9,7.1-0.5,10.5,0.2c-0.9-1-1.8-2.1-2.6-3.2C74,65.6,71.7,65.6,69.3,66
		 M97.2,69.3c-0.1-0.7-0.9-1.2-1.6-1.1c-2.1,0.4-4.3,0.4-6.6,0.1c-2.1-0.3-4.2-0.8-6.2-1.2c-0.8-0.2-1.7-0.4-2.6-0.6
		c0.8,0.9,1.5,1.7,2.3,2.6c0.3,0.3,0.6,0.6,0.9,0.9c1.7,0.4,3.4,0.7,5.2,1c2.6,0.3,5.1,0.3,7.4-0.1C96.9,70.8,97.3,70.1,97.2,69.3"
		/>
	<path fill="#E76E25" d="M17.3,31.9c-1.7-0.4-3.4-0.7-5.2-1c-2.6-0.4-5.1-0.3-7.4,0.1c-0.7,0.1-1.2,0.9-1.1,1.6
		c0.1,0.7,0.9,1.2,1.6,1.1c2.1-0.4,4.3-0.4,6.6-0.1c2.1,0.3,4.2,0.8,6.2,1.2c0.8,0.2,1.7,0.4,2.6,0.6c-0.8-0.9-1.5-1.7-2.3-2.6
		C17.9,32.5,17.6,32.2,17.3,31.9 M57.9,1.3c-0.6-0.5-1.4-0.4-1.9,0.1c-1.6,1.8-2.9,4-3.8,6.4c-0.7,1.7-1.2,3.3-1.7,5
		c-0.1,0.4-0.3,0.8-0.4,1.2c-0.3,1.1-0.7,2.2-1.1,3.3c-1.1,3.3-2.5,6.4-5.1,9.2c-0.7,0.7-1.4,1.4-2.3,2.1c-0.9,0.7-1.8,1.4-2.9,2
		c-1.1,0.6-2.2,1.1-3.2,1.5c-1,0.4-2,0.7-3,0.9c-3.7,0.9-7.1,0.5-10.5-0.2c0.9,1,1.8,2.1,2.6,3.2c2.2,0.3,4.5,0.3,7-0.1
		c1-0.2,2.1-0.4,3.1-0.7c1.7-0.5,3.5-1.3,5.3-2.3c1.8-1.1,3.4-2.2,4.7-3.4c0.8-0.8,1.6-1.5,2.2-2.4c1.5-1.9,2.7-3.9,3.5-6
		c0.5-1.3,1-2.6,1.4-3.9c0.3-0.8,0.5-1.7,0.8-2.5c0.6-2,1.2-4,2-6c0.9-2.1,2-4,3.4-5.6C58.6,2.7,58.5,1.8,57.9,1.3"/>
	<path fill="#E76E25" d="M69.5,17.9c0.4-1.7,0.7-3.4,1-5.2c0.4-2.6,0.3-5.1-0.1-7.4c-0.1-0.7-0.9-1.2-1.6-1.1
		c-0.7,0.1-1.2,0.9-1.1,1.6c0.4,2.1,0.4,4.3,0.1,6.6c-0.3,2.1-0.8,4.2-1.2,6.2c-0.2,0.8-0.4,1.7-0.6,2.6c0.9-0.8,1.7-1.5,2.6-2.3
		C68.9,18.5,69.2,18.2,69.5,17.9 M100,56.6c-1.8-1.6-4-2.9-6.4-3.8c-1.7-0.7-3.3-1.2-5-1.7c-0.4-0.1-0.8-0.3-1.2-0.4
		c-1.1-0.3-2.2-0.7-3.3-1.1c-3.3-1.1-6.4-2.5-9.2-5.1c-0.7-0.7-1.4-1.4-2.1-2.3c-0.7-0.9-1.4-1.8-2-2.9c-0.6-1.1-1.1-2.2-1.5-3.2
		c-0.4-1-0.7-2-0.9-3c-0.9-3.7-0.5-7.1,0.2-10.5c-1,0.9-2.1,1.8-3.2,2.6c-0.3,2.2-0.3,4.5,0.1,7c0.2,1,0.4,2.1,0.7,3.1
		c0.5,1.7,1.3,3.5,2.3,5.3c1.1,1.8,2.2,3.4,3.4,4.7c0.8,0.8,1.5,1.6,2.4,2.2c1.9,1.5,3.9,2.7,6,3.5c1.3,0.5,2.6,1,3.9,1.4
		c0.8,0.3,1.7,0.5,2.5,0.8c2,0.6,4,1.2,6,2c2.1,0.9,4,2,5.6,3.4c0.6,0.5,1.4,0.4,1.9-0.1C100.6,57.9,100.5,57.1,100,56.6"/>
</g>
</svg>
